<svg width="956" height="880" viewBox="0 0 956 880" fill="none" xmlns="http://www.w3.org/2000/svg">
<path d="M518.959 684.114C467.946 692.761 415.371 686.893 367.881 667.254C320.39 647.614 280.119 615.085 252.159 573.779C224.198 532.474 209.805 484.247 210.799 435.198C211.793 386.149 228.129 338.48 257.742 298.22C287.355 257.959 328.914 226.916 377.165 209.015C425.416 191.114 478.19 187.159 528.815 197.65C579.44 208.142 625.642 232.609 661.578 267.957C697.513 303.306 721.569 347.947 730.703 396.238C742.869 460.984 727.409 527.654 687.713 581.623C648.017 635.591 587.328 672.451 518.959 684.114Z" fill="url(#paint0_linear_0_1)"/>
<path d="M415.485 376.392C406.154 377.974 396.536 376.901 387.849 373.308C379.162 369.716 371.795 363.765 366.68 356.209C361.565 348.653 358.933 339.831 359.114 330.859C359.296 321.886 362.284 313.167 367.701 305.802C373.118 298.437 380.721 292.759 389.547 289.484C398.373 286.209 408.027 285.486 417.288 287.405C426.549 289.324 435 293.8 441.574 300.266C448.148 306.732 452.548 314.898 454.219 323.732V323.732C456.445 335.576 453.616 347.772 446.355 357.644C439.093 367.517 427.992 374.259 415.485 376.392V376.392ZM399.716 293.021C391.628 294.392 384.152 298.002 378.232 303.395C372.312 308.788 368.215 315.722 366.458 323.319C364.7 330.917 365.363 338.837 368.361 346.078C371.359 353.319 376.558 359.556 383.3 364.001C390.043 368.445 398.026 370.897 406.241 371.046C414.455 371.195 422.532 369.035 429.45 364.839C436.367 360.642 441.815 354.599 445.104 347.472C448.393 340.344 449.376 332.454 447.928 324.798C445.986 314.532 439.816 305.417 430.774 299.457C421.733 293.498 410.561 291.183 399.716 293.021V293.021Z" fill="url(#paint1_linear_0_1)" fill-opacity="0.6"/>
<path d="M302.119 529.337C295.276 530.497 288.223 529.71 281.852 527.075C275.482 524.44 270.079 520.077 266.329 514.536C262.578 508.995 260.647 502.525 260.78 495.946C260.914 489.366 263.105 482.971 267.077 477.571C271.05 472.17 276.625 468.005 283.098 465.604C289.57 463.203 296.65 462.672 303.441 464.08C310.232 465.487 316.43 468.769 321.251 473.511C326.071 478.253 329.298 484.241 330.524 490.719C332.156 499.405 330.082 508.348 324.757 515.588C319.432 522.828 311.29 527.772 302.119 529.337V529.337ZM290.855 469.786C285.256 470.735 280.08 473.234 275.982 476.968C271.883 480.701 269.046 485.502 267.83 490.762C266.614 496.021 267.072 501.505 269.148 506.518C271.223 511.531 274.823 515.849 279.491 518.926C284.158 522.002 289.685 523.7 295.372 523.803C301.059 523.906 306.651 522.411 311.44 519.506C316.229 516.601 320.001 512.417 322.278 507.482C324.555 502.548 325.235 497.086 324.233 491.786C322.888 484.678 318.617 478.368 312.357 474.242C306.098 470.116 298.363 468.513 290.855 469.786V469.786Z" fill="url(#paint2_linear_0_1)" fill-opacity="0.3"/>
<path opacity="0.2" d="M573.687 629.231C566.843 630.391 559.791 629.603 553.42 626.969C547.049 624.334 541.647 619.971 537.896 614.43C534.146 608.889 532.215 602.419 532.348 595.84C532.481 589.26 534.673 582.865 538.645 577.464C542.618 572.064 548.193 567.899 554.665 565.498C561.138 563.096 568.218 562.566 575.009 563.973C581.8 565.381 587.998 568.663 592.818 573.405C597.639 578.147 600.866 584.135 602.091 590.613C603.723 599.299 601.649 608.242 596.324 615.482C590.999 622.722 582.858 627.666 573.687 629.231V629.231ZM562.423 569.68C556.824 570.629 551.648 573.128 547.55 576.862C543.451 580.595 540.614 585.396 539.398 590.655C538.181 595.915 538.64 601.398 540.715 606.412C542.791 611.425 546.39 615.743 551.058 618.819C555.726 621.896 561.253 623.593 566.94 623.697C572.627 623.8 578.219 622.305 583.008 619.4C587.797 616.495 591.568 612.31 593.845 607.376C596.123 602.442 596.803 596.98 595.8 591.679C594.448 584.576 590.174 578.27 583.917 574.146C577.66 570.022 569.93 568.415 562.423 569.68V569.68Z" fill="url(#paint3_linear_0_1)"/>
<path d="M529.85 681.479C669.656 655.934 758.154 525.821 727.516 390.864C696.877 255.907 558.705 167.211 418.899 192.756C279.093 218.301 190.595 348.414 221.233 483.371C251.871 618.328 390.044 707.024 529.85 681.479Z" fill="url(#paint4_radial_0_1)"/>
<path opacity="0.1" d="M288.635 299.524C286.571 300.649 284.693 301.741 282.856 303.014C276.789 306.932 276.345 316.795 283.742 320.351C286.986 321.834 290.558 321.377 294.111 321.676C297.663 321.975 301.692 323.505 302.481 326.937C303.145 329.828 301.185 332.251 299.412 334.641C292.998 342.949 288.383 353.189 290.191 363.587C291.999 373.984 302.191 383.808 312.908 382.436C316.481 381.979 320.278 379.976 321.245 376.603C322.851 371.798 318.838 366.126 321.085 361.581C322.981 358.04 327.812 357.168 332.005 357.727C336.198 358.287 340.227 359.817 344.398 359.44C350.655 358.874 355.317 353.893 358.368 348.638C359.481 346.744 360.511 344.488 360.199 342.287C359.512 336.767 352.158 335.085 346.395 334.433C340.818 333.747 333.36 330.767 334.242 325.34C334.693 322.248 337.562 320.413 339.831 318.498C342.101 316.583 343.997 313.042 342.259 310.534C341.37 309.189 339.676 308.554 338.065 308.281C330.009 306.914 322.332 312.251 314.318 311.065C313.533 311.019 312.707 310.792 312.21 310.317C311.032 309.401 310.886 307.922 311.153 306.557C312.079 303.003 316.104 301.147 317.628 297.674C317.875 297.065 318.123 296.456 317.771 295.767C317.646 295.225 317.192 294.93 316.737 294.636C312.562 291.628 306.945 292.454 302.053 293.902C297.531 295.283 292.949 297.24 288.635 299.524Z" fill="url(#paint5_linear_0_1)"/>
<path opacity="0.1" d="M352.831 371.836C359.521 369.486 364.477 363.836 368.181 357.842C371.886 351.848 374.485 345.293 378.419 339.448C387.245 326.824 402.581 318.726 418.592 318.683C424.055 318.646 430.373 319.786 433.38 324.376C439.31 333.191 428.044 344.545 431.849 354.315C433.375 358.413 437.548 361.271 441.803 362.783C446.057 364.296 450.769 364.395 455.148 364.744C477.937 366.137 501.041 369.755 522.128 379.062C528.866 382.027 535.771 385.722 540.384 391.353C545.185 396.95 547.404 404.915 544.575 411.321C542.246 416.496 537.163 419.887 532.057 422.332C524.493 425.981 516.073 428.454 507.484 428.486C498.894 428.518 490.093 425.927 483.186 420.52C476.509 415.263 472.415 407.637 466.883 401.411C461.811 395.483 455.175 390.408 447.564 388.742C439.952 387.076 431.073 389.252 426.848 395.531C423.163 400.761 423.254 407.97 420.029 413.497C417.053 418.408 411.135 421.57 405.026 421.343C399.105 421.083 393.096 417.036 391.047 411.512C389.082 406.353 390.16 400.834 392.573 396.024C394.799 391.248 398.318 386.999 401.232 382.669C404.687 377.291 407.264 369.789 402.776 364.706C398.56 359.955 390.742 360.798 385.116 363.526C378.782 366.573 373.574 371.128 370.015 376.905C366.56 382.284 364.858 388.486 361.632 394.013C358.406 399.54 353.095 404.494 346.508 404.734C339.169 405.11 332.179 399.339 329.086 392.673C325.993 386.006 325.86 378.615 325.769 371.406C325.683 369.33 326.033 364.893 329.286 365.446C330.913 365.722 333.293 369.285 334.858 370.143C340.427 373.128 347.037 373.835 352.831 371.836Z" fill="url(#paint6_linear_0_1)"/>
<path opacity="0.1" d="M555.484 420.297C550.9 433.445 540.634 444.775 527.095 449.495C513.556 454.214 496.866 451.164 486.515 440.904C483.974 438.33 481.682 435.143 478.662 433.035C470.438 426.939 458.601 428.888 449.681 433.342C433.773 441.332 421.952 456.924 421.263 474.295C420.575 491.666 432.204 510.034 449.666 515.599C464.401 520.329 480.313 515.749 494.037 509.291C507.762 502.832 520.465 494.473 535.191 490.676C544.052 488.507 554.954 488.433 561.39 495.231C565.514 499.603 566.707 505.642 568.003 511.283C570.386 521.656 573.331 531.927 578.771 541.179C584.211 550.431 592.667 558.38 603.053 562C613.626 565.587 625.213 564.252 635.383 560.141C645.365 556.064 654.158 549.358 662.078 542.242C679.246 527.012 694.518 507.765 696.511 485.041C696.984 479.459 696.082 472.989 691.273 469.877C688.524 468.099 684.945 467.798 681.679 468.009C667.927 468.408 655.033 473.39 641.637 476.188C636.395 477.135 630.924 477.934 625.597 476.811C620.27 475.689 615.231 472.429 612.979 467.719C610.205 461.586 613.006 454.257 617.599 449.637C622.379 444.983 628.555 442.162 634.69 439.159C654.236 429.185 672.05 414.217 680.122 394.185C682.259 389.061 683.668 383.311 682.372 377.669C681.076 372.028 676.555 366.78 670.75 366.122C664.528 365.351 659.061 369.56 654.759 373.749C642.808 385.384 632.192 399.431 616.324 405.898C612.414 407.551 607.963 408.545 604.008 406.606C600.011 404.485 598.175 399.889 596.652 395.805C594.211 389.423 591.353 382.926 586.687 377.894C578.939 369.627 559.252 365.412 556.875 379.677C556.048 384.565 558.447 390.765 558.827 395.813C559.357 404.057 558.159 412.423 555.484 420.297Z" fill="url(#paint7_linear_0_1)"/>
<path opacity="0.1" d="M449.86 327.97C452.253 325.64 457.082 324.578 458.356 327.574C458.836 328.815 458.567 330.192 458.11 331.603C456.846 337.145 458.582 343.853 463.686 346.536C466.582 348.1 469.893 348.071 473.246 348.225C489.926 348.626 506.65 350.918 523 354.985C527.124 355.948 531.916 358.118 532.045 362.08C532.111 364.915 529.115 367.164 526.075 367.524C523.035 367.883 520.077 366.899 517.119 365.916C503.017 361.442 488.354 358.778 473.506 357.855C465.406 357.422 454.223 357.165 448.615 350.588C443.277 344.341 444.307 333.528 449.86 327.97Z" fill="url(#paint8_linear_0_1)"/>
<path opacity="0.1" d="M606.692 373.483C608.704 377.141 609.901 381.523 613.293 384.356C618.569 388.572 626.725 386.516 631.616 382.179C636.506 377.841 639.01 371.638 642.896 366.333C647.324 359.972 653.594 354.809 660.661 351.418C667.394 348.279 675.865 346.741 682.02 351.372C685.558 353.987 688.199 358.681 692.78 358.999C696.149 359.154 699.179 356.112 699.636 352.963C700.092 349.814 698.687 346.237 696.697 343.533C692.989 338.457 687.274 334.896 681.164 333.898C672.356 332.24 663.552 335.755 656.675 340.836C649.798 345.917 644.283 352.668 638.453 358.9C634.984 362.596 630.951 366.395 625.658 366.398C618.587 366.34 613.057 359.296 606.153 358.251C602.282 357.612 591.7 361.067 596.015 366.224C597.062 367.375 600.158 367.196 601.54 368.095C603.716 369.041 605.58 371.193 606.692 373.483Z" fill="url(#paint9_linear_0_1)"/>
<path opacity="0.1" d="M652.757 444.068C650.352 447.149 649.942 452.137 653.038 454.603C655.407 456.443 658.853 456.199 661.884 455.841C670.603 454.835 679.363 454.009 688.082 453.003C693.396 452.421 699.769 452.216 703.096 456.53C704.717 458.505 705.073 460.899 706.362 463.123C707.465 465.381 709.876 467.403 712.263 466.783C713.57 466.547 714.669 465.404 715.395 464.328C720.495 457.737 722.209 449.11 722.013 440.64C721.63 432.203 719.337 423.922 717.086 415.822C716.274 413.134 715.461 410.445 713.756 408.107C712.093 405.95 709.164 404.21 706.361 404.716C701.317 405.626 700.265 412.054 699.856 417.042C699.301 422.246 697.48 427.867 692.895 430.774C686.277 434.993 680.663 427.501 674.168 430.563C667.902 433.774 657.173 438.735 652.757 444.068Z" fill="url(#paint10_linear_0_1)"/>
<path opacity="0.1" d="M266.617 373.611C266.399 380.213 267.001 387.041 269.964 393.255C272.885 399.288 278.352 404.673 284.922 406.483C290.446 407.92 296.541 406.816 301.43 409.681C306.503 412.512 308.788 418.286 309.656 423.753C310.709 429.188 310.653 434.823 312.773 439.876C314.976 445.29 319.64 449.695 325.287 451.672C330.935 453.649 337.297 452.872 342.118 449.562C349.051 444.556 351.052 434.819 357.985 429.814C364.077 425.336 373.623 425.857 379.274 431.208C386.897 438.453 385.493 449.957 384.539 460.067C382.934 475.732 383.774 492.829 393.128 505.948C396.274 510.44 400.569 514.912 400.02 520.074C399.391 526.563 391.676 529.835 385.067 531.219C369.634 534.389 352.328 533.586 338.668 525.185C320.078 513.739 312.171 490.984 311.204 469.972C310.91 463.65 311.17 457.228 308.844 451.275C306.559 445.501 302.325 440.456 297.989 435.804C294.146 431.625 290.035 427.119 284.758 425.075C279.028 422.738 272.439 423.368 266.362 422.031C257.266 420.116 249.253 413.692 245.611 405.352C243.656 401.019 242.953 396.271 242.435 391.49C241.584 383.582 241.473 375.54 241.957 367.577C242.524 359.975 243.603 352.092 247.086 345.462C250.527 338.651 256.741 333.026 264.458 331.441C267.967 330.805 271.868 331.037 274.518 333.369C279.594 337.887 272.725 345.693 271.047 350.122C268.468 357.339 266.876 365.502 266.617 373.611Z" fill="url(#paint11_linear_0_1)"/>
<path opacity="0.1" d="M367.497 276.138C369.504 276.348 371.407 276.959 373.06 278.19C376.68 281.168 376.206 286.803 374.454 291.138C372.702 295.474 370.114 299.579 370.6 304.274C371.506 310.806 378.786 315.225 385.477 315.35C392.21 315.659 398.604 312.777 404.749 310.515C415.763 306.412 427.259 303.561 439.007 301.812C447.369 300.678 457.342 300.59 463.119 307.004C466.489 310.602 467.665 315.745 470.367 319.847C477.172 329.901 491.642 331.485 503.935 330.402C515.997 329.171 528.894 326.448 540.273 331.654C551.465 336.894 558.816 349.336 570.716 352.534C578.433 354.578 587.107 352.239 592.266 346.52C597.089 341.053 599.13 332.838 605.985 330.255C613.028 327.638 620.58 332.391 627.817 334.904C641.036 339.585 657.089 336.099 665.001 325.288C672.914 314.478 670.282 296.971 658.399 289.561C654.298 287.052 649.467 285.633 644.616 284.982C627.072 282.808 609.015 289.528 598.052 302.422C590.806 311.007 586.156 322.373 576 327.66C570.546 330.371 564.066 331.164 558.21 329.548C549.468 327.307 542.436 320.548 533.798 317.905C521.166 314.075 508.189 319.873 495.396 322.194C492.009 322.808 488.351 323.089 485.109 321.764C482.515 320.704 480.652 318.555 479.165 316.338C471.731 305.25 472.111 288.919 460.73 281.991C450.542 275.995 437.668 281.392 428.727 288.562C419.786 295.733 411.726 305.04 400.208 306.938C397.01 307.518 393.037 307.282 390.86 304.616C388.096 301.1 390.14 296.328 392.248 292.693C394.794 288.405 397.298 283.933 399.844 279.644C402.641 274.737 405.687 269.209 404.385 263.515C403.167 258.187 398.5 254.059 393.355 252.123C388.167 250.003 382.459 249.891 376.94 249.744C365.336 249.553 339.202 250.085 332.628 261.61C328.997 268.008 333.918 274.96 340.714 276.405C349.644 278.612 358.589 274.884 367.497 276.138Z" fill="url(#paint12_linear_0_1)"/>
<path opacity="0.1" d="M472.153 188.922C436.63 188.488 403.12 195.129 372.602 207.143C372.75 208.643 373.461 210.04 374.319 211.22C377.749 215.941 383.807 218.468 389.635 219.13C395.504 219.975 401.413 219.286 407.26 219.181C415.446 219.033 423.612 219.653 431.57 221.073C438.316 222.332 446.59 225.984 446.513 232.484C446.517 235.918 444.202 238.626 442.075 241.301C435.463 249.176 428.622 256.901 422.01 264.776C419.507 267.519 416.984 271.028 417.824 274.692C419.124 280.37 427.228 281.573 432.97 280.152C448.169 276.445 460.226 264.15 475.97 262.825C480.188 262.442 484.846 263.125 487.564 266.448C490.554 270.104 489.766 275.207 489.186 279.509C488.524 285.161 488.426 290.712 488.975 296.526C490.305 310.021 499.598 310.437 508.8 303.619C517.857 297.019 529.593 296.991 539.747 302.02C547.227 305.626 555.625 308.111 563.935 306.797C572.245 305.482 577.605 298.979 581.838 292.68C587.384 284.426 593.224 277.454 603.307 274.483C613.014 271.58 624.709 271.37 634.736 274.132C640.355 275.595 645.6 278.842 651.427 279.504C657.484 280.314 663.161 277.76 667.334 273.761C618.37 222.343 548.67 189.753 472.153 188.922Z" fill="url(#paint13_linear_0_1)"/>
<path opacity="0.1" d="M398.272 246.882C380.918 241.378 361.961 245.218 346.277 253.084C339.241 256.677 332.227 261.23 324.014 261.378C322.275 261.502 320.452 261.257 319.172 259.949C317.893 258.641 317.807 256.538 318.371 254.702C319.414 250.66 322.323 247.048 325.714 244.697C329.294 242.311 333.462 240.781 337.568 239.84C350.554 236.511 364.152 236.729 377.497 235.838C387.134 235.045 396.645 233.697 405.987 231.609C411.035 230.496 416.23 229.164 421.322 229.97C426.414 230.775 431.676 234.054 432.813 239.047C433.823 243.485 431.083 247.837 428.175 251.448C425.266 255.06 422.127 258.521 418.485 261.496C415.847 263.71 412.162 266.5 411.884 260.966C411.65 257.349 412.298 255.883 409.278 252.966C406.446 250.015 402.275 248.079 398.272 246.882Z" fill="url(#paint14_linear_0_1)"/>
<path opacity="0.5" d="M529.926 681.763C669.732 656.218 758.23 526.105 727.592 391.148C696.954 256.191 558.781 167.496 418.975 193.041C279.169 218.586 190.671 348.698 221.309 483.655C251.948 618.612 390.12 707.308 529.926 681.763Z" fill="url(#paint15_radial_0_1)"/>
<path opacity="0.2" d="M292.147 258.465C134.401 245.654 20.14 261.298 11.6016 303.347C-0.33609 361.389 194.239 447.902 446.331 496.384C698.423 544.866 912.572 537.076 924.51 479.035C932.581 440.257 848.385 388.812 716.474 344.529" stroke="url(#paint16_linear_0_1)" stroke-width="0.5" stroke-miterlimit="10"/>
<path opacity="0.4" d="M288.693 261.418C151.896 251.566 54.4163 265.53 47.0083 301.938C36.1617 354.16 216.841 433.013 450.406 477.892C683.971 522.772 881.988 516.913 892.795 464.512C899.547 431.411 830.084 387.844 719.028 348.783" stroke="url(#paint17_linear_0_1)" stroke-width="0.5" stroke-miterlimit="10"/>
<path opacity="0.75" d="M285.246 264.385C171.978 257.565 93.132 269.312 86.997 298.929C77.6126 344.325 242.339 414.224 454.911 455.033C667.482 495.841 847.325 492.489 856.709 447.093C862.188 420.783 808.641 385.993 720.914 353.557" stroke="url(#paint18_linear_0_1)" stroke-width="0.5" stroke-miterlimit="10"/>
<path d="M281.832 267.52C183.732 261.57 116.65 270.341 111.756 293.923C103.905 331.92 259.819 393.95 459.871 432.457C659.922 470.963 828.392 471.451 836.243 433.454C840.591 412.784 796.274 385.041 723.067 357.714" stroke="url(#paint19_linear_0_1)" stroke-width="0.5" stroke-miterlimit="10"/>
<defs>
<linearGradient id="paint0_linear_0_1" x1="289.607" y1="196.779" x2="702.866" y2="510.684" gradientUnits="userSpaceOnUse">
<stop stop-color="#FC49EF"/>
<stop offset="1" stop-color="#560AB7"/>
</linearGradient>
<linearGradient id="paint1_linear_0_1" x1="398.589" y1="287.066" x2="410.956" y2="360.53" gradientUnits="userSpaceOnUse">
<stop stop-color="#73840E"/>
<stop offset="1" stop-color="#03CE79"/>
</linearGradient>
<linearGradient id="paint2_linear_0_1" x1="289.729" y1="463.831" x2="300.868" y2="529.549" gradientUnits="userSpaceOnUse">
<stop stop-color="#43B6E4"/>
<stop offset="1" stop-color="#360D83"/>
</linearGradient>
<linearGradient id="paint3_linear_0_1" x1="561.296" y1="563.724" x2="572.435" y2="629.443" gradientUnits="userSpaceOnUse">
<stop stop-color="#FC49EF"/>
<stop offset="1" stop-color="#F54FEF"/>
</linearGradient>
<radialGradient id="paint4_radial_0_1" cx="0" cy="0" r="1" gradientUnits="userSpaceOnUse" gradientTransform="translate(579.512 205.643) rotate(0.398541) scale(475.586 456.412)">
<stop stop-color="#FC49EF"/>
<stop offset="0.1014" stop-color="#F246E8" stop-opacity="0.8986"/>
<stop offset="0.2729" stop-color="#D83DD6" stop-opacity="0.7271"/>
<stop offset="0.4936" stop-color="#AD30B8" stop-opacity="0.5064"/>
<stop offset="0.7517" stop-color="#711D8E" stop-opacity="0.2483"/>
<stop offset="1" stop-color="#320962" stop-opacity="0"/>
</radialGradient>
<linearGradient id="paint5_linear_0_1" x1="284.911" y1="342" x2="356.326" y2="325.593" gradientUnits="userSpaceOnUse">
<stop stop-color="#FC49EF"/>
<stop offset="0.1005" stop-color="#F54FEF"/>
<stop offset="0.2431" stop-color="#E35EEF"/>
<stop offset="0.4109" stop-color="#C478EF"/>
<stop offset="0.5979" stop-color="#9A9DEF"/>
<stop offset="0.799" stop-color="#64CBEF"/>
<stop offset="1" stop-color="#26FFEF"/>
</linearGradient>
<linearGradient id="paint6_linear_0_1" x1="329.835" y1="397.864" x2="534.074" y2="350.998" gradientUnits="userSpaceOnUse">
<stop stop-color="#FC49EF"/>
<stop offset="0.1005" stop-color="#F54FEF"/>
<stop offset="0.2431" stop-color="#E35EEF"/>
<stop offset="0.4109" stop-color="#C478EF"/>
<stop offset="0.5979" stop-color="#9A9DEF"/>
<stop offset="0.799" stop-color="#64CBEF"/>
<stop offset="1" stop-color="#26FFEF"/>
</linearGradient>
<linearGradient id="paint7_linear_0_1" x1="425.273" y1="497.655" x2="695.633" y2="435.541" gradientUnits="userSpaceOnUse">
<stop stop-color="#FC49EF"/>
<stop offset="0.1005" stop-color="#F54FEF"/>
<stop offset="0.2431" stop-color="#E35EEF"/>
<stop offset="0.4109" stop-color="#C478EF"/>
<stop offset="0.5979" stop-color="#9A9DEF"/>
<stop offset="0.799" stop-color="#64CBEF"/>
<stop offset="1" stop-color="#26FFEF"/>
</linearGradient>
<linearGradient id="paint8_linear_0_1" x1="447.83" y1="354.285" x2="526.18" y2="336.292" gradientUnits="userSpaceOnUse">
<stop stop-color="#FC49EF"/>
<stop offset="0.1005" stop-color="#F54FEF"/>
<stop offset="0.2431" stop-color="#E35EEF"/>
<stop offset="0.4109" stop-color="#C478EF"/>
<stop offset="0.5979" stop-color="#9A9DEF"/>
<stop offset="0.799" stop-color="#64CBEF"/>
<stop offset="1" stop-color="#26FFEF"/>
</linearGradient>
<linearGradient id="paint9_linear_0_1" x1="596.135" y1="369.292" x2="698.552" y2="345.895" gradientUnits="userSpaceOnUse">
<stop stop-color="#FC49EF"/>
<stop offset="0.1005" stop-color="#F54FEF"/>
<stop offset="0.2431" stop-color="#E35EEF"/>
<stop offset="0.4109" stop-color="#C478EF"/>
<stop offset="0.5979" stop-color="#9A9DEF"/>
<stop offset="0.799" stop-color="#64CBEF"/>
<stop offset="1" stop-color="#26FFEF"/>
</linearGradient>
<linearGradient id="paint10_linear_0_1" x1="649.975" y1="446.492" x2="720.87" y2="430.195" gradientUnits="userSpaceOnUse">
<stop stop-color="#FC49EF"/>
<stop offset="0.1005" stop-color="#F54FEF"/>
<stop offset="0.2431" stop-color="#E35EEF"/>
<stop offset="0.4109" stop-color="#C478EF"/>
<stop offset="0.5979" stop-color="#9A9DEF"/>
<stop offset="0.799" stop-color="#64CBEF"/>
<stop offset="1" stop-color="#26FFEF"/>
</linearGradient>
<linearGradient id="paint11_linear_0_1" x1="254.019" y1="443.843" x2="378.719" y2="415.271" gradientUnits="userSpaceOnUse">
<stop stop-color="#FC49EF"/>
<stop offset="0.1005" stop-color="#F54FEF"/>
<stop offset="0.2431" stop-color="#E35EEF"/>
<stop offset="0.4109" stop-color="#C478EF"/>
<stop offset="0.5979" stop-color="#9A9DEF"/>
<stop offset="0.799" stop-color="#64CBEF"/>
<stop offset="1" stop-color="#26FFEF"/>
</linearGradient>
<linearGradient id="paint12_linear_0_1" x1="344.664" y1="324.409" x2="657.228" y2="252.93" gradientUnits="userSpaceOnUse">
<stop stop-color="#FC49EF"/>
<stop offset="0.1005" stop-color="#F54FEF"/>
<stop offset="0.2431" stop-color="#E35EEF"/>
<stop offset="0.4109" stop-color="#C478EF"/>
<stop offset="0.5979" stop-color="#9A9DEF"/>
<stop offset="0.799" stop-color="#64CBEF"/>
<stop offset="1" stop-color="#26FFEF"/>
</linearGradient>
<linearGradient id="paint13_linear_0_1" x1="386.67" y1="269.249" x2="652.362" y2="208.384" gradientUnits="userSpaceOnUse">
<stop stop-color="#FC49EF"/>
<stop offset="0.1005" stop-color="#F54FEF"/>
<stop offset="0.2431" stop-color="#E35EEF"/>
<stop offset="0.4109" stop-color="#C478EF"/>
<stop offset="0.5979" stop-color="#9A9DEF"/>
<stop offset="0.799" stop-color="#64CBEF"/>
<stop offset="1" stop-color="#26FFEF"/>
</linearGradient>
<linearGradient id="paint14_linear_0_1" x1="319.188" y1="262.168" x2="432.426" y2="236.391" gradientUnits="userSpaceOnUse">
<stop stop-color="#FC49EF"/>
<stop offset="0.1005" stop-color="#F54FEF"/>
<stop offset="0.2431" stop-color="#E35EEF"/>
<stop offset="0.4109" stop-color="#C478EF"/>
<stop offset="0.5979" stop-color="#9A9DEF"/>
<stop offset="0.799" stop-color="#64CBEF"/>
<stop offset="1" stop-color="#26FFEF"/>
</linearGradient>
<radialGradient id="paint15_radial_0_1" cx="0" cy="0" r="1" gradientUnits="userSpaceOnUse" gradientTransform="translate(501.046 203.603) rotate(5.20497) scale(260.001 108.668)">
<stop stop-color="white"/>
<stop offset="0.181" stop-color="#FED5FB" stop-opacity="0.819"/>
<stop offset="0.463" stop-color="#FD99F6" stop-opacity="0.537"/>
<stop offset="0.7035" stop-color="#FD6EF2" stop-opacity="0.2965"/>
<stop offset="0.8901" stop-color="#FC53F0" stop-opacity="0.1099"/>
<stop offset="1" stop-color="#FC49EF" stop-opacity="0"/>
</radialGradient>
<linearGradient id="paint16_linear_0_1" x1="10.147" y1="308.248" x2="921.607" y2="496.033" gradientUnits="userSpaceOnUse">
<stop stop-color="#26FFEF"/>
<stop offset="0.3425" stop-color="#74BDEF"/>
<stop offset="0.7959" stop-color="#D56AEF"/>
<stop offset="1" stop-color="#FC49EF"/>
</linearGradient>
<linearGradient id="paint17_linear_0_1" x1="45.4397" y1="307.221" x2="889.72" y2="481.136" gradientUnits="userSpaceOnUse">
<stop stop-color="#26FFEF"/>
<stop offset="0.3425" stop-color="#74BDEF"/>
<stop offset="0.7959" stop-color="#D56AEF"/>
<stop offset="1" stop-color="#FC49EF"/>
</linearGradient>
<linearGradient id="paint18_linear_0_1" x1="85.5034" y1="304.895" x2="853.986" y2="463.174" gradientUnits="userSpaceOnUse">
<stop stop-color="#26FFEF"/>
<stop offset="0.3425" stop-color="#74BDEF"/>
<stop offset="0.7959" stop-color="#D56AEF"/>
<stop offset="1" stop-color="#FC49EF"/>
</linearGradient>
<linearGradient id="paint19_linear_0_1" x1="110.197" y1="299.749" x2="833.485" y2="448.67" gradientUnits="userSpaceOnUse">
<stop stop-color="#26FFEF"/>
<stop offset="0.3425" stop-color="#74BDEF"/>
<stop offset="0.7959" stop-color="#D56AEF"/>
<stop offset="1" stop-color="#FC49EF"/>
</linearGradient>
</defs>
</svg>
