<svg width="865" height="975" viewBox="0 0 865 975" fill="none" xmlns="http://www.w3.org/2000/svg">
<path d="M354.614 701.787C309.791 677.164 273.688 640.51 250.871 596.463C228.053 552.416 219.546 502.953 226.425 454.329C233.304 405.705 255.26 360.103 289.517 323.292C323.774 286.48 368.792 260.111 418.88 247.52C468.968 234.928 521.876 236.679 570.912 252.552C619.949 268.425 662.912 297.706 694.369 336.693C725.825 375.68 744.363 422.622 747.637 471.582C750.911 520.542 738.775 569.322 712.763 611.753C677.826 668.594 620.498 709.995 553.355 726.874C486.213 743.753 414.739 734.731 354.614 701.787V701.787Z" fill="url(#paint0_linear_0_1)"/>
<path d="M485.835 403.697C477.636 399.193 471.032 392.488 466.858 384.431C462.684 376.373 461.128 367.325 462.386 358.431C463.644 349.536 467.661 341.194 473.927 334.46C480.194 327.727 488.429 322.903 497.591 320.6C506.754 318.296 516.432 318.617 525.402 321.52C534.372 324.424 542.231 329.78 547.986 336.912C553.74 344.044 557.131 352.631 557.73 361.587C558.329 370.543 556.109 379.466 551.35 387.228V387.228C544.96 397.626 534.473 405.199 522.19 408.287C509.908 411.374 496.834 409.724 485.835 403.697V403.697ZM530.744 330.442C523.638 326.538 515.469 324.717 507.269 325.208C499.07 325.699 491.208 328.481 484.679 333.202C478.149 337.923 473.246 344.371 470.587 351.73C467.929 359.089 467.636 367.029 469.745 374.546C471.853 382.063 476.269 388.82 482.434 393.961C488.599 399.102 496.236 402.397 504.38 403.429C512.523 404.462 520.807 403.185 528.184 399.761C535.56 396.336 541.699 390.918 545.823 384.191C551.353 375.171 552.871 364.44 550.043 354.36C547.215 344.28 540.273 335.677 530.744 330.442V330.442Z" fill="url(#paint1_linear_0_1)" fill-opacity="0.6"/>
<path d="M294.892 450.999C288.879 447.696 284.036 442.779 280.976 436.87C277.915 430.961 276.773 424.326 277.696 417.803C278.619 411.28 281.564 405.163 286.16 400.225C290.755 395.287 296.794 391.749 303.513 390.06C310.232 388.371 317.33 388.606 323.908 390.735C330.486 392.865 336.249 396.793 340.469 402.023C344.689 407.253 347.176 413.55 347.615 420.118C348.054 426.685 346.426 433.229 342.937 438.921C338.25 446.546 330.56 452.1 321.553 454.364C312.546 456.628 302.958 455.418 294.892 450.999V450.999ZM326.97 398.673C322.051 395.971 316.395 394.71 310.718 395.05C305.042 395.39 299.599 397.316 295.079 400.584C290.558 403.853 287.163 408.316 285.323 413.411C283.483 418.506 283.28 424.003 284.74 429.207C286.199 434.411 289.257 439.089 293.525 442.648C297.793 446.207 303.08 448.488 308.718 449.203C314.355 449.918 320.09 449.034 325.197 446.663C330.304 444.292 334.554 440.541 337.409 435.884C341.238 429.639 342.288 422.211 340.331 415.232C338.373 408.254 333.567 402.297 326.97 398.673V398.673Z" fill="url(#paint2_linear_0_1)" fill-opacity="0.3"/>
<path d="M433.849 693.41C427.837 690.107 422.994 685.19 419.933 679.281C416.872 673.373 415.731 666.737 416.653 660.215C417.576 653.692 420.521 647.575 425.117 642.636C429.712 637.698 435.751 634.161 442.471 632.472C449.19 630.783 456.287 631.018 462.865 633.147C469.443 635.276 475.207 639.204 479.426 644.434C483.646 649.664 486.133 655.961 486.572 662.529C487.011 669.097 485.383 675.641 481.894 681.333C477.207 688.958 469.517 694.511 460.51 696.776C451.503 699.04 441.915 697.83 433.849 693.41V693.41ZM465.927 641.085C461.008 638.382 455.352 637.121 449.675 637.461C443.999 637.802 438.556 639.728 434.036 642.996C429.515 646.264 426.12 650.728 424.28 655.823C422.44 660.918 422.237 666.415 423.697 671.619C425.157 676.823 428.214 681.5 432.482 685.059C436.75 688.619 442.037 690.9 447.675 691.615C453.313 692.329 459.048 691.445 464.155 689.075C469.262 686.704 473.511 682.953 476.366 678.296C480.186 672.049 481.232 664.623 479.275 657.647C477.318 650.671 472.518 644.715 465.927 641.085V641.085Z" fill="url(#paint3_linear_0_1)"/>
<path d="M663.691 673.708C555.976 764.535 389.647 754.26 292.185 650.759C194.723 547.259 203.036 389.725 310.752 298.899C418.468 208.072 584.797 218.347 682.258 321.848C779.72 425.349 771.407 582.882 663.691 673.708Z" fill="url(#paint4_radial_0_1)"/>
<path opacity="0.1" d="M652.069 326.171C654.358 327.05 656.377 328.158 658.667 329.037C665.51 332.164 667.58 342.126 660.594 346.611C657.632 348.641 653.764 348.156 650.09 348.912C646.688 349.44 642.69 351.406 642.509 354.836C642.354 357.777 644.566 360.126 646.804 361.985C654.45 369.587 661.203 379.346 660.906 389.899C660.88 400.223 652.252 411.245 641.114 410.803C637.22 410.808 633.158 409.082 631.515 405.785C629.16 401.214 632.329 395.264 629.186 390.89C626.508 387.529 621.851 387.241 617.388 388.195C613.442 389.18 609.445 391.146 605.033 391.119C598.552 390.965 593.067 386.692 588.914 381.765C587.194 379.937 585.99 378.142 586.12 375.692C585.887 370.269 593.286 367.776 598.81 366.396C604.58 365.277 611.268 361.511 609.728 356.253C608.849 353.249 605.55 351.815 602.794 349.924C600.039 348.033 597.607 344.933 599.043 342.317C599.638 340.879 601.488 340.256 602.82 339.6C610.711 337.629 619.573 341.864 627.464 339.893C628.253 339.696 629.042 339.499 629.585 339.041C630.672 338.125 630.504 336.394 629.792 335.12C628.421 331.594 623.816 330.326 621.655 326.996C621.164 326.474 620.944 325.723 620.97 325.233C620.995 324.743 621.539 324.285 621.81 324.056C625.614 320.849 631.577 320.972 636.454 322.01C642.366 323.113 647.489 324.413 652.069 326.171Z" fill="url(#paint5_linear_0_1)"/>
<path opacity="0.1" d="M599.577 407.569C592.38 406.14 586.425 400.852 581.778 395.399C577.131 389.945 573.571 383.575 568.652 378.351C557.829 366.858 541.027 360.408 524.846 361.869C519.37 362.268 513.028 364.337 510.698 369.113C506.31 378.436 519.28 388.586 517.209 398.298C516.213 402.419 512.653 405.889 508.407 407.595C504.407 409.562 499.695 410.255 495.255 410.719C472.46 414.477 449.806 420.458 430.001 431.535C423.581 435.074 417.38 439.365 413.691 445.288C410.002 451.21 408.798 459.254 412.63 465.395C415.75 470.262 421.316 473.066 426.934 474.889C435.09 477.853 443.84 479.377 452.721 478.45C461.329 477.751 469.82 474.34 475.852 468.316C481.613 462.522 484.37 454.574 489.146 447.735C493.379 441.354 499.139 435.559 506.544 433.065C513.948 430.57 522.971 431.865 528.382 437.612C533.055 442.575 534 449.275 538.13 454.697C542.039 459.366 548.395 461.973 554.168 460.854C560.188 459.995 565.624 455.411 566.699 449.819C567.747 444.718 565.961 439.195 562.569 434.557C559.423 430.181 555.216 426.231 551.798 422.084C547.643 417.153 543.863 410.031 547.526 404.599C550.918 399.397 558.956 399.647 565.092 401.502C571.992 403.65 577.998 407.958 582.4 413.15C586.555 418.081 589.623 423.928 593.507 429.088C597.662 434.019 603.915 438.588 610.426 438.252C617.973 437.98 624.031 431.466 625.946 424.696C627.862 417.926 626.697 410.474 625.777 403.283C625.363 401.289 624.289 397.041 621.13 397.83C619.551 398.224 617.79 402.051 616.185 402.936C612.056 407.355 605.467 409.162 599.577 407.569Z" fill="url(#paint6_linear_0_1)"/>
<path opacity="0.1" d="M403.089 480.188C409.957 492.656 422.129 502.995 436.24 506.079C450.597 509.424 466.946 504.534 475.573 493.514C477.798 490.702 479.531 487.368 482.001 484.816C489.361 478.143 501.532 478.649 511.207 482.196C528.267 488.412 543.09 502.601 546.596 519.778C550.101 536.955 541.307 556.076 524.829 563.416C510.743 569.674 494.019 566.92 478.976 561.812C464.179 556.966 450.029 549.7 434.314 547.501C424.781 546.174 414.085 547.234 408.769 554.526C405.406 559.234 404.824 565.343 404.786 570.995C404.243 581.285 402.911 591.772 399.018 601.61C394.879 611.186 387.933 619.852 378.091 624.406C367.976 629.189 356.051 628.944 345.315 625.822C334.58 622.701 324.762 616.933 315.488 610.707C295.686 597.439 277.15 579.825 271.562 557.849C270.295 552.363 270.113 545.961 274.188 542.525C276.632 540.464 280.305 539.708 283.681 539.67C297.482 538.802 311.568 542.376 325.511 543.729C330.93 544.31 336.376 544.4 341.653 542.76C346.93 541.12 351.276 537.455 352.841 532.39C354.729 526.116 350.68 519.229 345.196 514.957C339.712 510.685 333.064 508.8 326.441 506.424C305.048 498.712 284.728 485.412 273.267 466.515C270.15 461.652 267.848 456.102 268.404 450.483C268.96 444.864 272.374 439.175 278.143 438.057C284.183 436.709 290.482 440.294 295.475 444.043C309.47 454.248 322.547 467.101 339.413 472.076C343.501 473.311 348.403 473.86 351.908 471.373C355.659 469.146 356.706 464.049 357.702 459.932C358.827 453.365 360.741 446.6 364.919 441.205C371.619 432.278 390.36 426.307 395.353 439.889C396.919 444.656 395.548 450.963 396.052 456.156C396.376 464.779 398.795 473.04 403.089 480.188Z" fill="url(#paint7_linear_0_1)"/>
<path opacity="0.1" d="M495.769 374.522C493.011 372.629 487.857 371.819 486.912 374.96C486.588 376.17 487.028 377.674 487.74 378.949C489.8 384.244 489.437 391.113 484.594 394.26C481.9 396.062 478.495 396.59 475.361 396.889C458.629 398.809 442.04 402.952 426.41 408.632C422.434 410.109 417.889 412.535 418.446 416.754C418.808 419.73 422.357 421.426 425.465 421.618C428.573 421.81 431.512 420.268 434.18 418.956C447.739 413.149 461.984 409.107 476.669 406.568C484.789 405.347 496.042 403.827 500.574 396.724C505.353 389.881 502.27 379.354 495.769 374.522Z" fill="url(#paint8_linear_0_1)"/>
<path opacity="0.1" d="M346.909 438.605C345.667 442.462 344.917 446.84 341.904 449.849C337.506 454.494 328.737 453.46 323.226 449.679C317.716 445.897 314.133 440.022 309.438 435.553C304.031 429.811 296.995 425.444 289.092 422.743C281.952 420.336 273.157 419.793 267.699 424.863C264.685 427.873 262.628 432.416 258.166 433.369C254.764 433.897 251.272 431.223 250.392 428.219C249.267 424.954 250.211 421.817 251.673 418.711C254.544 413.481 259.433 409.359 265.499 407.521C273.932 405.092 283.413 407.399 291.239 411.569C299.064 415.74 305.48 422.035 312.464 427.383C316.448 430.579 321.195 434.067 326.421 433.407C333.47 432.613 337.751 425.258 344.581 423.713C348.525 422.728 359.559 425.13 355.898 430.557C355.058 431.734 351.927 432.033 350.595 432.688C348.966 434.062 347.801 436.448 346.909 438.605Z" fill="url(#paint9_linear_0_1)"/>
<path opacity="0.1" d="M311.152 515.418C314.126 518.059 315.42 523.054 312.678 525.834C310.751 527.926 307.105 528.193 304.001 528.001C295.182 527.948 285.845 527.862 277.026 527.809C271.582 527.719 265.078 528.054 262.233 532.793C260.823 534.918 260.694 537.368 260.048 539.785C259.155 541.942 257.203 544.524 254.642 543.875C253.09 543.779 252.108 542.735 251.125 541.692C244.956 535.658 241.504 527.335 240.391 518.911C239.279 510.486 240.236 502.19 241.192 493.894C241.593 491.215 241.994 488.536 243.429 485.922C244.593 483.536 247.554 481.507 250.386 481.928C255.559 482.248 257.563 488.515 258.857 493.51C260.396 498.766 262.969 504.086 268.038 506.365C275.37 510.013 279.948 501.94 287.086 504.347C294.224 506.754 305.695 510.657 311.152 515.418Z" fill="url(#paint10_linear_0_1)"/>
<path opacity="0.1" d="M684.805 398.427C686.022 404.899 686.695 411.829 684.533 418.339C682.643 424.619 677.918 430.478 671.549 433.037C666.241 435.17 659.781 434.525 655.185 437.931C650.589 441.338 649.242 447.16 649.204 452.816C649.165 458.473 649.916 463.932 648.596 469.263C647.003 474.824 643.366 479.766 638.032 482.389C632.698 485.012 625.694 484.825 620.645 482.053C612.812 477.879 609.161 468.304 601.083 463.868C594.014 459.987 584.317 461.602 579.592 467.461C572.938 475.415 576.485 486.952 579.075 496.954C583.451 512.479 585.406 529.576 577.898 543.875C575.568 548.651 571.93 553.594 573.225 558.594C574.96 565.099 583.142 567.572 590.12 568.249C606.665 569.764 623.935 567.386 636.415 557.331C653.491 543.87 657.841 520.518 655.575 499.465C654.875 493.025 653.658 486.553 654.758 480.47C655.859 474.387 659.768 469.215 663.16 464.012C666.526 459.299 669.892 454.586 674.708 451.931C680.314 449.079 687.072 449.005 692.897 446.904C701.882 444.015 709.028 436.583 711.293 428.111C712.316 423.5 712.575 418.595 712.29 414.149C711.94 406.008 710.801 398.064 708.626 390.057C706.943 382.571 704.495 374.793 699.628 368.587C695.031 362.152 687.769 357.029 679.483 356.517C675.858 356.293 671.935 356.789 669.462 359.343C665.035 364.482 673.502 371.402 675.858 375.976C679.937 382.379 683.148 390.451 684.805 398.427Z" fill="url(#paint11_linear_0_1)"/>
<path opacity="0.1" d="M571.097 314.599C569.246 315.223 567.395 315.846 565.763 317.222C562.475 320.463 563.99 326.215 566.644 330.07C569.026 334.153 572.47 337.81 572.483 342.486C572.664 348.894 566.166 353.905 559.356 354.96C552.547 356.016 545.647 353.867 539.239 352.241C527.704 349.315 515.328 347.566 503.392 347.321C494.835 347.038 484.918 347.902 480.141 354.741C477.345 358.505 477.061 363.9 475.028 367.957C469.798 378.459 455.61 381.519 443.13 381.732C430.651 381.946 417.485 380.394 406.766 386.621C396.565 392.879 391.206 405.834 379.801 410.296C372.37 413.281 363.373 411.495 357.146 406.436C351.682 401.67 348.2 393.828 340.51 391.877C333.066 390.187 326.296 395.427 319.383 398.445C306.864 404.314 290.074 402.539 280.455 392.842C270.836 383.144 270.46 365.653 281.037 357.204C284.571 354.224 289.335 352.55 294.073 351.366C311.174 347.256 330.398 352.134 343.81 363.788C352.497 371.459 359.203 382.206 370.168 386.082C376.033 388.167 382.519 388.321 388.344 386.221C396.565 383.038 402.675 375.543 410.895 372.36C422.844 367.44 436.916 371.507 450.108 372.568C453.733 372.792 457.112 372.755 460.322 370.985C462.471 369.642 464.154 367.285 465.565 365.158C471.364 353.707 468.05 337.757 478.6 329.797C487.792 322.984 501.618 326.791 511.935 333.087C522.007 339.122 531.704 347.347 543.342 348.312C546.695 348.766 550.644 347.779 552.352 344.933C554.631 341.137 552.003 336.792 548.805 333.396C545.633 329.51 542.215 325.362 539.044 321.476C535.38 317.067 531.496 311.907 531.807 306.021C532.091 300.626 536.221 296.207 541.037 293.552C545.852 290.897 551.6 290.268 556.83 289.607C568.326 288.349 594.67 286.286 603.202 296.9C607.824 302.844 604.328 310.009 597.467 312.045C589.247 315.228 579.783 312.429 571.097 314.599Z" fill="url(#paint12_linear_0_1)"/>
<path opacity="0.1" d="M453.416 238.757C489.214 234.817 523.861 237.941 556.397 246.595C556.32 248.066 555.996 249.276 555.401 250.716C552.798 255.722 546.92 258.804 541.392 260.185C535.864 261.566 529.623 261.672 523.629 262.04C515.537 262.771 507.419 263.992 499.495 266.455C492.905 268.262 485.396 272.719 486.095 279.16C486.704 282.396 489.164 285.009 491.896 287.392C499.845 294.281 508.041 301.431 515.991 308.319C518.969 310.964 522.193 313.87 521.739 317.532C521.429 323.419 513.531 325.391 507.342 324.517C491.612 322.315 477.111 311.577 461.25 311.827C457.081 312.062 452.343 313.245 450.09 316.551C447.811 320.347 449.378 325.119 450.699 329.63C452.486 335.153 453.237 340.613 453.716 346.302C454.571 359.642 445.417 360.799 434.801 355.222C424.702 349.677 412.687 350.903 403.546 356.736C396.555 361.225 388.605 364.179 380.047 363.896C371.761 363.384 365.042 357.802 359.629 352.054C352.741 344.739 345.802 338.405 335.25 336.523C324.944 334.902 313.473 335.67 303.672 339.247C298.363 341.38 293.495 345.016 287.721 346.136C281.675 347.485 275.538 345.629 270.786 342.137C311.918 286.362 376.588 247.298 453.416 238.757Z" fill="url(#paint13_linear_0_1)"/>
<path opacity="0.1" d="M535.348 285.515C551.803 278.664 571.194 280.108 588.256 286.324C595.889 289.254 603.495 292.674 611.826 292.205C613.65 292.072 615.228 291.678 616.341 290.272C617.453 288.865 617.039 286.873 616.353 285.11C614.736 281.322 611.269 278.158 607.479 276.203C603.689 274.248 599.329 273.242 594.698 272.464C581.297 270.653 567.714 272.272 554.209 272.421C544.597 272.565 534.494 272.187 525.206 271.121C519.786 270.54 514.638 269.731 509.631 271.142C504.625 272.554 499.761 276.187 499.503 281.088C499.27 285.498 502.685 289.643 506.152 292.807C509.619 295.971 513.358 298.906 517.368 301.612C520.123 303.503 524.405 305.98 523.655 300.526C523.318 297.063 522.361 295.529 524.857 292.487C527.871 289.478 531.377 286.99 535.348 285.515Z" fill="url(#paint14_linear_0_1)"/>
<path opacity="0.5" d="M663.691 673.708C555.976 764.535 389.647 754.26 292.185 650.759C194.723 547.259 203.036 389.725 310.752 298.899C418.468 208.072 584.797 218.347 682.258 321.848C779.72 425.349 771.407 582.882 663.691 673.708Z" fill="url(#paint15_radial_0_1)"/>
<path opacity="0.2" d="M642.379 286.752C797.822 255.991 914.081 258.741 929.076 299.535C949.731 356.183 768.363 464.587 524.464 541.812C280.318 618.776 65.3346 635.524 44.6804 578.876C30.8375 540.86 107.044 480.35 232.043 420.884" stroke="url(#paint16_linear_0_1)" stroke-width="0.25" stroke-miterlimit="10"/>
<path opacity="0.4" d="M646.178 289.217C781.331 263.848 880.691 266.785 893.382 302.023C912.003 352.885 743.584 452.246 517.656 523.691C291.211 595.104 93.1239 611.665 74.2566 560.541C62.4467 528.311 125.186 476.813 230.283 425.223" stroke="url(#paint17_linear_0_1)" stroke-width="0.25" stroke-miterlimit="10"/>
<path opacity="0.75" d="M649.985 291.686C761.714 272.006 842.377 274.773 853.061 303.735C869.183 347.799 715.368 436.25 509.509 501.553C303.403 566.594 123.495 583.294 107.373 539.23C97.816 513.537 146.221 472.719 228.749 430.317" stroke="url(#paint18_linear_0_1)" stroke-width="0.25" stroke-miterlimit="10"/>
<path d="M654.038 294.413C751.085 277.272 819.37 278.289 827.503 301.434C840.88 338.439 694.805 418.019 501.113 479.153C307.421 540.287 139.045 559.915 125.668 522.91C118.416 502.773 158.341 470.044 227.26 434.43" stroke="url(#paint19_linear_0_1)" stroke-width="0.25" stroke-miterlimit="10"/>
<defs>
<linearGradient id="paint0_linear_0_1" x1="382.746" y1="285.121" x2="692.644" y2="580.416" gradientUnits="userSpaceOnUse">
<stop stop-color="#207597"/>
<stop offset="1" stop-color="#4BFFF2"/>
</linearGradient>
<linearGradient id="paint1_linear_0_1" x1="533.952" y1="325.209" x2="497.584" y2="391.231" gradientUnits="userSpaceOnUse">
<stop stop-color="#73840E"/>
<stop offset="1" stop-color="#03CE79"/>
</linearGradient>
<linearGradient id="paint2_linear_0_1" x1="330.178" y1="393.441" x2="297.708" y2="452.546" gradientUnits="userSpaceOnUse">
<stop stop-color="#43B6E4"/>
<stop offset="1" stop-color="#360D83"/>
</linearGradient>
<linearGradient id="paint3_linear_0_1" x1="469.135" y1="635.852" x2="436.666" y2="694.957" gradientUnits="userSpaceOnUse">
<stop stop-color="#26FFEF"/>
<stop offset="1" stop-color="#BFFFFA"/>
</linearGradient>
<radialGradient id="paint4_radial_0_1" cx="0" cy="0" r="1" gradientUnits="userSpaceOnUse" gradientTransform="translate(343.695 267.204) rotate(173.648) scale(546.311 520.476)">
<stop stop-color="#26FFEF"/>
<stop offset="0.0874181" stop-color="#26F5E9" stop-opacity="0.9126"/>
<stop offset="0.2352" stop-color="#28DBDA" stop-opacity="0.7648"/>
<stop offset="0.4255" stop-color="#2AAFC1" stop-opacity="0.5745"/>
<stop offset="0.6507" stop-color="#2D749F" stop-opacity="0.3493"/>
<stop offset="0.9026" stop-color="#302874" stop-opacity="0.0973511"/>
<stop offset="1" stop-color="#320962" stop-opacity="0"/>
</radialGradient>
<linearGradient id="paint5_linear_0_1" x1="662.877" y1="368.132" x2="587.448" y2="363.151" gradientUnits="userSpaceOnUse">
<stop stop-color="#FC49EF"/>
<stop offset="0.1005" stop-color="#F54FEF"/>
<stop offset="0.2431" stop-color="#E35EEF"/>
<stop offset="0.4109" stop-color="#C478EF"/>
<stop offset="0.5979" stop-color="#9A9DEF"/>
<stop offset="0.799" stop-color="#64CBEF"/>
<stop offset="1" stop-color="#26FFEF"/>
</linearGradient>
<linearGradient id="paint6_linear_0_1" x1="626.722" y1="430.768" x2="412.925" y2="416.65" gradientUnits="userSpaceOnUse">
<stop stop-color="#FC49EF"/>
<stop offset="0.1005" stop-color="#F54FEF"/>
<stop offset="0.2431" stop-color="#E35EEF"/>
<stop offset="0.4109" stop-color="#C478EF"/>
<stop offset="0.5979" stop-color="#9A9DEF"/>
<stop offset="0.799" stop-color="#64CBEF"/>
<stop offset="1" stop-color="#26FFEF"/>
</linearGradient>
<linearGradient id="paint7_linear_0_1" x1="546.722" y1="543.302" x2="263.322" y2="524.587" gradientUnits="userSpaceOnUse">
<stop stop-color="#FC49EF"/>
<stop offset="0.1005" stop-color="#F54FEF"/>
<stop offset="0.2431" stop-color="#E35EEF"/>
<stop offset="0.4109" stop-color="#C478EF"/>
<stop offset="0.5979" stop-color="#9A9DEF"/>
<stop offset="0.799" stop-color="#64CBEF"/>
<stop offset="1" stop-color="#26FFEF"/>
</linearGradient>
<linearGradient id="paint8_linear_0_1" x1="502.275" y1="400.303" x2="420.119" y2="394.878" gradientUnits="userSpaceOnUse">
<stop stop-color="#FC49EF"/>
<stop offset="0.1005" stop-color="#F54FEF"/>
<stop offset="0.2431" stop-color="#E35EEF"/>
<stop offset="0.4109" stop-color="#C478EF"/>
<stop offset="0.5979" stop-color="#9A9DEF"/>
<stop offset="0.799" stop-color="#64CBEF"/>
<stop offset="1" stop-color="#26FFEF"/>
</linearGradient>
<linearGradient id="paint9_linear_0_1" x1="356.735" y1="433.531" x2="250.022" y2="426.484" gradientUnits="userSpaceOnUse">
<stop stop-color="#FC49EF"/>
<stop offset="0.1005" stop-color="#F54FEF"/>
<stop offset="0.2431" stop-color="#E35EEF"/>
<stop offset="0.4109" stop-color="#C478EF"/>
<stop offset="0.5979" stop-color="#9A9DEF"/>
<stop offset="0.799" stop-color="#64CBEF"/>
<stop offset="1" stop-color="#26FFEF"/>
</linearGradient>
<linearGradient id="paint10_linear_0_1" x1="314.271" y1="517.496" x2="239.81" y2="512.579" gradientUnits="userSpaceOnUse">
<stop stop-color="#FC49EF"/>
<stop offset="0.1005" stop-color="#F54FEF"/>
<stop offset="0.2431" stop-color="#E35EEF"/>
<stop offset="0.4109" stop-color="#C478EF"/>
<stop offset="0.5979" stop-color="#9A9DEF"/>
<stop offset="0.799" stop-color="#64CBEF"/>
<stop offset="1" stop-color="#26FFEF"/>
</linearGradient>
<linearGradient id="paint11_linear_0_1" x1="709.181" y1="467.22" x2="576.609" y2="458.466" gradientUnits="userSpaceOnUse">
<stop stop-color="#FC49EF"/>
<stop offset="0.1005" stop-color="#F54FEF"/>
<stop offset="0.2431" stop-color="#E35EEF"/>
<stop offset="0.4109" stop-color="#C478EF"/>
<stop offset="0.5979" stop-color="#9A9DEF"/>
<stop offset="0.799" stop-color="#64CBEF"/>
<stop offset="1" stop-color="#26FFEF"/>
</linearGradient>
<linearGradient id="paint12_linear_0_1" x1="601.881" y1="359.508" x2="275.702" y2="337.968" gradientUnits="userSpaceOnUse">
<stop stop-color="#FC49EF"/>
<stop offset="0.1005" stop-color="#F54FEF"/>
<stop offset="0.2431" stop-color="#E35EEF"/>
<stop offset="0.4109" stop-color="#C478EF"/>
<stop offset="0.5979" stop-color="#9A9DEF"/>
<stop offset="0.799" stop-color="#64CBEF"/>
<stop offset="1" stop-color="#26FFEF"/>
</linearGradient>
<linearGradient id="paint13_linear_0_1" x1="552.096" y1="308.834" x2="274.426" y2="290.498" gradientUnits="userSpaceOnUse">
<stop stop-color="#FC49EF"/>
<stop offset="0.1005" stop-color="#F54FEF"/>
<stop offset="0.2431" stop-color="#E35EEF"/>
<stop offset="0.4109" stop-color="#C478EF"/>
<stop offset="0.5979" stop-color="#9A9DEF"/>
<stop offset="0.799" stop-color="#64CBEF"/>
<stop offset="1" stop-color="#26FFEF"/>
</linearGradient>
<linearGradient id="paint14_linear_0_1" x1="617.037" y1="292.288" x2="499.257" y2="284.51" gradientUnits="userSpaceOnUse">
<stop stop-color="#FC49EF"/>
<stop offset="0.1005" stop-color="#F54FEF"/>
<stop offset="0.2431" stop-color="#E35EEF"/>
<stop offset="0.4109" stop-color="#C478EF"/>
<stop offset="0.5979" stop-color="#9A9DEF"/>
<stop offset="0.799" stop-color="#64CBEF"/>
<stop offset="1" stop-color="#26FFEF"/>
</linearGradient>
<radialGradient id="paint15_radial_0_1" cx="0" cy="0" r="1" gradientUnits="userSpaceOnUse" gradientTransform="translate(422.422 256.594) rotate(168.854) scale(262.064 109.779)">
<stop stop-color="white"/>
<stop offset="0.2802" stop-color="#B3FFF9" stop-opacity="0.7198"/>
<stop offset="0.5299" stop-color="#76FFF5" stop-opacity="0.4701"/>
<stop offset="0.7404" stop-color="#4BFFF2" stop-opacity="0.2596"/>
<stop offset="0.9038" stop-color="#30FFF0" stop-opacity="0.0962161"/>
<stop offset="1" stop-color="#26FFEF" stop-opacity="0"/>
</radialGradient>
<linearGradient id="paint16_linear_0_1" x1="931.15" y1="304.422" x2="60.065" y2="622.717" gradientUnits="userSpaceOnUse">
<stop stop-color="#26FFEF"/>
<stop offset="0.3425" stop-color="#74BDEF"/>
<stop offset="0.7959" stop-color="#D56AEF"/>
<stop offset="1" stop-color="#FC49EF"/>
</linearGradient>
<linearGradient id="paint17_linear_0_1" x1="895.061" y1="307.649" x2="88.9801" y2="602.184" gradientUnits="userSpaceOnUse">
<stop stop-color="#26FFEF"/>
<stop offset="0.3425" stop-color="#74BDEF"/>
<stop offset="0.7959" stop-color="#D56AEF"/>
<stop offset="1" stop-color="#FC49EF"/>
</linearGradient>
<linearGradient id="paint18_linear_0_1" x1="855.617" y1="309.553" x2="121.209" y2="577.927" gradientUnits="userSpaceOnUse">
<stop stop-color="#26FFEF"/>
<stop offset="0.3425" stop-color="#74BDEF"/>
<stop offset="0.7959" stop-color="#D56AEF"/>
<stop offset="1" stop-color="#FC49EF"/>
</linearGradient>
<linearGradient id="paint19_linear_0_1" x1="830.284" y1="307.189" x2="139.057" y2="559.683" gradientUnits="userSpaceOnUse">
<stop stop-color="#26FFEF"/>
<stop offset="0.3425" stop-color="#74BDEF"/>
<stop offset="0.7959" stop-color="#D56AEF"/>
<stop offset="1" stop-color="#FC49EF"/>
</linearGradient>
</defs>
</svg>
