<svg width="684" height="751" viewBox="0 0 684 751" fill="none" xmlns="http://www.w3.org/2000/svg">
<g opacity="0.6" filter="url(#filter0_ddi_0_1)">
<ellipse cx="295.786" cy="288.615" rx="191.768" ry="181.534" fill="#3C39D5"/>
<ellipse cx="295.786" cy="288.615" rx="191.768" ry="181.534" fill="url(#paint0_radial_0_1)"/>
</g>
<path opacity="0.19" d="M324.946 376.708C154.086 429.226 9.03135 437.674 -5.28512 395.94C-13.8684 370.918 25.8974 334.016 103.816 294.698C104.093 294.555 104.397 294.472 104.713 294.453C105.028 294.435 105.348 294.481 105.653 294.589C105.959 294.697 106.246 294.866 106.496 295.084C106.746 295.303 106.955 295.568 107.111 295.863C107.267 296.159 107.367 296.48 107.405 296.808C107.443 297.136 107.419 297.464 107.334 297.774C107.249 298.084 107.104 298.37 106.908 298.615C106.713 298.86 106.469 299.059 106.193 299.202L106.185 299.206L106.158 299.22C32.7587 336.259 -8.20096 372.784 -0.737385 394.542C12.2091 432.282 160.599 421.916 323.299 371.906C485.999 321.895 612.514 247.762 599.568 210.021C592.073 188.172 535.931 181.435 453.051 192.442C452.739 192.486 452.418 192.465 452.106 192.381C451.794 192.296 451.497 192.15 451.233 191.95C450.968 191.751 450.741 191.501 450.564 191.217C450.388 190.932 450.265 190.618 450.203 190.292C450.141 189.966 450.142 189.635 450.204 189.317C450.266 188.999 450.39 188.702 450.567 188.441C450.744 188.18 450.971 187.961 451.236 187.797C451.501 187.633 451.798 187.526 452.11 187.484L452.118 187.483L452.135 187.481C540.104 175.798 595.499 183.505 604.116 208.623C618.432 250.358 495.806 324.189 324.946 376.708Z" fill="#43B6E4"/>
<path opacity="0.19" d="M345.746 347.914C237.377 482.425 127.906 564.208 96.5254 534.101C77.7117 516.05 91.0046 462.61 132.997 387.484C133.145 387.215 133.343 386.984 133.581 386.806C133.819 386.628 134.091 386.506 134.383 386.447C134.675 386.387 134.98 386.392 135.282 386.46C135.583 386.528 135.875 386.659 136.14 386.844C136.405 387.03 136.638 387.266 136.827 387.541C137.015 387.815 137.155 388.122 137.238 388.444C137.321 388.765 137.346 389.096 137.311 389.415C137.276 389.735 137.182 390.039 137.035 390.308L137.031 390.316L137.016 390.342C97.4598 461.111 83.0501 514.824 99.4098 530.52C127.787 557.747 238.942 472.537 342.136 344.45C445.33 216.363 508.537 85.1507 480.16 57.9245C463.732 42.1625 416.525 64.8412 356.964 117.112C356.741 117.31 356.48 117.455 356.195 117.538C355.91 117.622 355.607 117.642 355.304 117.598C355.001 117.554 354.703 117.446 354.428 117.281C354.152 117.117 353.905 116.898 353.699 116.637C353.493 116.377 353.333 116.08 353.229 115.764C353.124 115.447 353.076 115.118 353.089 114.794C353.101 114.47 353.173 114.157 353.3 113.875C353.428 113.592 353.608 113.345 353.831 113.147L353.836 113.142L353.849 113.131C417.067 57.6505 464.158 36.2234 483.045 54.3441C514.425 84.4518 454.116 213.403 345.746 347.914Z" fill="#43B6E4"/>
<defs>
<filter id="filter0_ddi_0_1" x="-7.93118" y="0.72916" width="691.397" height="749.292" filterUnits="userSpaceOnUse" color-interpolation-filters="sRGB">
<feFlood flood-opacity="0" result="BackgroundImageFix"/>
<feColorMatrix in="SourceAlpha" type="matrix" values="0 0 0 0 0 0 0 0 0 0 0 0 0 0 0 0 0 0 127 0" result="hardAlpha"/>
<feOffset dy="5.59747"/>
<feGaussianBlur stdDeviation="55.9747"/>
<feColorMatrix type="matrix" values="0 0 0 0 0.254902 0 0 0 0 0.792157 0 0 0 0 0.847059 0 0 0 1 0"/>
<feBlend mode="normal" in2="BackgroundImageFix" result="effect1_dropShadow_0_1"/>
<feColorMatrix in="SourceAlpha" type="matrix" values="0 0 0 0 0 0 0 0 0 0 0 0 0 0 0 0 0 0 127 0" result="hardAlpha"/>
<feOffset dx="83.962" dy="167.924"/>
<feGaussianBlur stdDeviation="55.9747"/>
<feColorMatrix type="matrix" values="0 0 0 0 0.0375 0 0 0 0 0.0375 0 0 0 0 0.0375 0 0 0 0.2 0"/>
<feBlend mode="normal" in2="effect1_dropShadow_0_1" result="effect2_dropShadow_0_1"/>
<feBlend mode="normal" in="SourceGraphic" in2="effect2_dropShadow_0_1" result="shape"/>
<feColorMatrix in="SourceAlpha" type="matrix" values="0 0 0 0 0 0 0 0 0 0 0 0 0 0 0 0 0 0 127 0" result="hardAlpha"/>
<feOffset dy="2.79873"/>
<feGaussianBlur stdDeviation="6.99684"/>
<feComposite in2="hardAlpha" operator="arithmetic" k2="-1" k3="1"/>
<feColorMatrix type="matrix" values="0 0 0 0 1 0 0 0 0 1 0 0 0 0 1 0 0 0 0.58 0"/>
<feBlend mode="normal" in2="shape" result="effect3_innerShadow_0_1"/>
</filter>
<radialGradient id="paint0_radial_0_1" cx="0" cy="0" r="1" gradientUnits="userSpaceOnUse" gradientTransform="translate(374.028 220.358) rotate(112.045) scale(376.037 391.424)">
<stop stop-color="#0D47A0"/>
<stop offset="1" stop-color="#000210" stop-opacity="0"/>
</radialGradient>
</defs>
</svg>
