<svg xmlns="http://www.w3.org/2000/svg" xmlns:xlink="http://www.w3.org/1999/xlink" viewBox="0 0 1920 458.19"><defs><style>.cls-1{fill:#fff;}.cls-2{fill:none;}.cls-3,.cls-4,.cls-5,.cls-6,.cls-7,.cls-8{isolation:isolate;}.cls-3,.cls-4{opacity:0.1;}.cls-3{fill:url(#Безымянный_градиент_8);}.cls-4{fill:url(#Безымянный_градиент_8-2);}.cls-5{opacity:0.2;fill:url(#Безымянный_градиент_3);}.cls-6,.cls-7,.cls-8{opacity:0.5;}.cls-6{fill:url(#Безымянный_градиент_5);}.cls-7{fill:url(#Безымянный_градиент_7);}.cls-8{fill:url(#Безымянный_градиент_4);}.cls-9{fill:url(#Безымянный_градиент_5-2);}.cls-10{fill:url(#Безымянный_градиент_7-2);}.cls-11{fill:url(#Безымянный_градиент_7-3);}</style><linearGradient id="Безымянный_градиент_8" x1="-423.92" y1="1011.53" x2="405.96" y2="694.39" gradientTransform="matrix(1, 0, 0, -1, 539.06, 1324.36)" gradientUnits="userSpaceOnUse"><stop offset="0"/><stop offset="0.17" stop-color="#5d5d5d"/><stop offset="0.39" stop-color="#d1d1d1"/><stop offset="0.49" stop-color="#fff"/><stop offset="0.53" stop-color="#f6f6f6"/><stop offset="0.6" stop-color="#dcdcdc"/><stop offset="0.7" stop-color="#b3b3b3"/><stop offset="0.8" stop-color="#7a7a7a"/><stop offset="0.92" stop-color="#323232"/><stop offset="1"/></linearGradient><linearGradient id="Безымянный_градиент_8-2" x1="-377.21" y1="1133.76" x2="452.68" y2="816.62" xlink:href="#Безымянный_градиент_8"/><radialGradient id="Безымянный_градиент_3" cx="-47.39" cy="1091.51" r="1" gradientTransform="matrix(66.08, -35.48, -15.07, -28.07, 19672, 29210.34)" gradientUnits="userSpaceOnUse"><stop offset="0" stop-color="#fff"/><stop offset="0.28" stop-color="#b3fff9" stop-opacity="0.72"/><stop offset="0.53" stop-color="#76fff5" stop-opacity="0.47"/><stop offset="0.74" stop-color="#4bfff2" stop-opacity="0.26"/><stop offset="0.9" stop-color="#30fff0" stop-opacity="0.1"/><stop offset="1" stop-color="#26ffef" stop-opacity="0"/></radialGradient><radialGradient id="Безымянный_градиент_5" cx="-122.83" cy="1077.4" r="1" gradientTransform="matrix(4.75, 0, 0, -4.02, 1100.08, 4624.43)" gradientUnits="userSpaceOnUse"><stop offset="0" stop-color="#26ffef"/><stop offset="0.01" stop-color="#26fdee" stop-opacity="0.99"/><stop offset="0.29" stop-color="#2aa7bd" stop-opacity="0.71"/><stop offset="0.54" stop-color="#2e6396" stop-opacity="0.46"/><stop offset="0.75" stop-color="#30327a" stop-opacity="0.25"/><stop offset="0.91" stop-color="#311468" stop-opacity="0.09"/><stop offset="1" stop-color="#320962" stop-opacity="0"/></radialGradient><radialGradient id="Безымянный_градиент_7" cx="-122.83" cy="1077.4" r="1" gradientTransform="matrix(4.75, 0, 0, -4.02, 1136.12, 4678.78)" gradientUnits="userSpaceOnUse"><stop offset="0" stop-color="#fc49ef"/><stop offset="0.17" stop-color="#ca39cc" stop-opacity="0.83"/><stop offset="0.38" stop-color="#9428a7" stop-opacity="0.62"/><stop offset="0.57" stop-color="#6a1b89" stop-opacity="0.43"/><stop offset="0.75" stop-color="#4b1174" stop-opacity="0.25"/><stop offset="0.9" stop-color="#390b67" stop-opacity="0.1"/><stop offset="1" stop-color="#320962" stop-opacity="0"/></radialGradient><radialGradient id="Безымянный_градиент_4" cx="-122.83" cy="1077.4" r="1" gradientTransform="matrix(4.75, 0, 0, -4.02, 1142.5, 4662.56)" gradientUnits="userSpaceOnUse"><stop offset="0" stop-color="#ffffe4"/><stop offset="0.01" stop-color="#fdfde3" stop-opacity="0.99"/><stop offset="0.29" stop-color="#b6a7b6" stop-opacity="0.71"/><stop offset="0.54" stop-color="#7d6392" stop-opacity="0.46"/><stop offset="0.75" stop-color="#553278" stop-opacity="0.25"/><stop offset="0.91" stop-color="#3b1468" stop-opacity="0.09"/><stop offset="1" stop-color="#320962" stop-opacity="0"/></radialGradient><radialGradient id="Безымянный_градиент_5-2" cx="-78.89" cy="1079.4" gradientTransform="matrix(10.11, 0, 0, -9.05, 1431.99, 10086.49)" xlink:href="#Безымянный_градиент_5"/><radialGradient id="Безымянный_градиент_7-2" cx="-78.89" cy="1079.4" r="1" gradientTransform="matrix(10.11, 0, 0, -9.05, 1350.79, 10081.91)" xlink:href="#Безымянный_градиент_7"/><radialGradient id="Безымянный_градиент_7-3" cx="-57.12" cy="1080.29" r="1" gradientTransform="matrix(22.92, 0, 0, -20.31, 2403.78, 22256.75)" xlink:href="#Безымянный_градиент_7"/></defs><g id="Слой_2" data-name="Слой 2"><g id="Слой_1-2" data-name="Слой 1"><rect class="cls-1" width="1920" height="228.2"/><path class="cls-1" d="M0,226.18v183s246.84,9.18,513,31.44c227.41,19,404,46.31,568-63.74s333.6-144.51,513-149.5c153-4.26,273.06,3.75,326,8.31v-9.52Z"/><path class="cls-2" d="M275.45,339.94a250.08,250.08,0,0,1-33.16-22.14c-4.06-3.23-8.12-6.47-12.28-9.9-12.77-10.54-28.5-17.62-45.61-13.93-22.73,5-39.44,24.85-43.94,44.26a35.53,35.53,0,0,0,23.42,41.91C194.77,391,222,363.23,250,358.66a61.79,61.79,0,0,1,15.59-.67c7.78.66,28.08-.86,17.76-12.55C281.33,343.19,278.31,341.54,275.45,339.94Z"/><path class="cls-2" d="M696.16,455.55c47.73,2.81,93.22,3.75,137,.9C787.24,450,740.82,449.36,696.16,455.55Z"/><path class="cls-2" d="M371.44,395.46c-16.86-11.78-37.36-18.8-58.23-20.56a117.37,117.37,0,0,0-62.15,11.68c-18.56,8.9-35,21-55.11,27.65A103.92,103.92,0,0,1,182,417.94c63.82,3.53,140.06,8.2,221.45,14.14A101,101,0,0,0,371.44,395.46Z"/><path class="cls-2" d="M0,226.18v183s55.75,2.07,142.83,6.64c-1.78-.64-3.53-1.36-5.26-2.18-33.85-16.06-36.49-55-29-82.19,9.57-34.61,36.55-66.5,79.37-72,19.75-2.48,42.62,1.2,58,14.47,8.33,7.33,14,16.36,21,24.44a174.34,174.34,0,0,0,24.77,23.57c19.09,15,40.81,25.53,64,34.56,21.26,8.36,43.28,16.2,62.07,28.65,15.61,10.27,29.27,23.73,35.3,40A60.23,60.23,0,0,1,455.7,436q28.41,2.21,57.3,4.62,25.5,2.13,50.16,4.35,5.1-3.86,10.24-7.62c33.12-24.09,69.17-45.33,110.51-58.44,74.4-23.66,160.28-22.9,238.23,1.94,19.53,6.23,38.91,13.79,56.76,23.45,8,4.3,15.61,9.52,21.56,15.72A453.27,453.27,0,0,0,1081,376.89c164-110,333.6-144.51,513-149.5,153-4.26,273.06,3.75,326,8.31Z"/><path class="cls-3" d="M417.74,385.13c-18.79-12.45-40.81-20.29-62.07-28.65-23.21-9-44.93-19.55-64-34.56a174.34,174.34,0,0,1-24.77-23.57c-6.95-8.08-12.63-17.11-21-24.44-15.38-13.27-38.25-17-58-14.47-42.82,5.52-69.8,37.41-79.37,72-7.47,27.18-4.83,66.13,29,82.19,1.73.82,3.48,1.54,5.26,2.18,12.44.65,25.53,1.36,39.19,2.11A103.92,103.92,0,0,0,196,414.23c20.07-6.68,36.55-18.75,55.11-27.65a117.37,117.37,0,0,1,62.15-11.68c20.87,1.76,41.37,8.78,58.23,20.56a101,101,0,0,1,32,36.62Q429.27,434,455.7,436A60.23,60.23,0,0,0,453,425.09C447,408.86,433.35,395.4,417.74,385.13ZM265.63,358a61.79,61.79,0,0,0-15.59.67c-28,4.57-55.27,32.37-86.16,21.48a35.53,35.53,0,0,1-23.42-41.91C145,318.82,161.67,299,184.4,294c17.11-3.69,32.84,3.39,45.61,13.93,4.16,3.43,8.22,6.67,12.28,9.9a250.08,250.08,0,0,0,33.16,22.14c2.86,1.6,5.88,3.25,7.94,5.5C293.71,357.13,273.41,358.65,265.63,358Z"/><path class="cls-4" d="M978.9,404.31c-17.85-9.66-37.23-17.22-56.76-23.45-77.95-24.84-163.83-25.6-238.23-1.94C642.57,392,606.52,413.27,573.4,437.36q-5.14,3.76-10.24,7.62c46.34,4.09,90.56,8.06,133,10.57,44.66-6.19,91.08-5.53,137,.9C891.6,452.63,947,442,1000.46,420,994.51,413.83,986.88,408.61,978.9,404.31Z"/><path class="cls-5" d="M123.31,389.33c41.89,0,75.84-32.15,75.84-71.8s-34-71.8-75.84-71.8-75.85,32.15-75.85,71.8S81.42,389.33,123.31,389.33Z"/><path class="cls-6" d="M521.25,297.94c0-2.47-2.23-4.36-5.15-4.36s-5.16,1.89-5.16,4.36,2.24,4.35,5.16,4.35S521.25,300.4,521.25,297.94Z"/><path class="cls-7" d="M557.34,352.36c0-2.46-2.24-4.35-5.16-4.35S547,349.9,547,352.36s2.23,4.36,5.15,4.36S557.34,354.69,557.34,352.36Z"/><path class="cls-8" d="M558.63,340.39c2.84,0,5.15-1.95,5.15-4.35s-2.31-4.36-5.15-4.36-5.16,1.95-5.16,4.36S555.78,340.39,558.63,340.39Z"/><path class="cls-9" d="M645,321.88c0-5.34-4.82-9.79-11-9.79-6,0-11,4.3-11,9.79s4.81,9.8,11,9.8C640,331.68,645,327.38,645,321.88Z"/><path class="cls-10" d="M563.78,317.53c0-5.34-4.81-9.8-10.95-9.8-6,0-11,4.31-11,9.8s4.81,9.8,11,9.8C558.8,327.33,563.78,322.87,563.78,317.53Z"/><path class="cls-11" d="M1119.27,311.52c0-12-10.91-22-24.82-22-13.54,0-24.82,9.66-24.82,22,0,12,10.91,22,24.82,22C1108,333.52,1119.27,323.52,1119.27,311.52Z"/></g></g></svg>