<svg width="257" height="256" viewBox="0 0 257 256" fill="none" xmlns="http://www.w3.org/2000/svg">
<path d="M84.1492 205.528L88.2962 199.817C88.8792 199.015 89.1174 198.278 89.0107 197.608C88.8954 196.932 88.4878 196.341 87.7879 195.835C87.0967 195.335 86.4157 195.138 85.7448 195.246C85.0652 195.347 84.4339 195.799 83.8509 196.601L79.7039 202.312L78.5245 201.459L82.6621 195.761C83.2075 195.01 83.8195 194.485 84.4981 194.186C85.1704 193.895 85.8566 193.812 86.5568 193.937C87.2484 194.055 87.9138 194.346 88.5532 194.808C89.1926 195.271 89.6805 195.815 90.0171 196.44C90.3451 197.059 90.4753 197.733 90.4079 198.461C90.3255 199.192 90.0116 199.933 89.4662 200.684L85.3285 206.382L84.1492 205.528Z" fill="white"/>
<path d="M72.7144 197.187L79.8727 188.631L80.9906 189.563L73.8324 198.119L72.7144 197.187Z" fill="white"/>
<path d="M61.4002 192.247L77.4537 183.381L78.4322 184.437L62.3896 193.314L61.4002 192.247Z" fill="white"/>
<path d="M58.223 183.605L64.2023 179.85C65.0429 179.322 65.5388 178.728 65.6899 178.067C65.8353 177.396 65.6779 176.696 65.2178 175.965C64.7633 175.244 64.2048 174.807 63.5424 174.657C62.8743 174.498 62.1199 174.682 61.2793 175.21L55.3 178.964L54.5245 177.733L60.4903 173.987C61.2767 173.493 62.0404 173.234 62.7816 173.209C63.5138 173.19 64.1813 173.368 64.7843 173.745C65.3817 174.113 65.8905 174.63 66.311 175.298C66.7314 175.965 66.9809 176.652 67.0597 177.357C67.1327 178.054 67.0021 178.728 66.6676 179.378C66.3184 180.026 65.7506 180.596 64.9642 181.09L58.9985 184.836L58.223 183.605Z" fill="white"/>
<path d="M53.3603 165.116L57.194 159.822L57.8261 161.343L54.828 165.477L59.8266 166.156L60.4464 167.647L53.9924 166.637L50.1438 171.937L49.5179 170.431L52.5247 166.276L47.5051 165.588L46.8791 164.082L53.3603 165.116Z" fill="white"/>
<path d="M41.0614 148.056C40.8893 146.853 40.9677 145.781 41.2967 144.84C41.6137 143.89 42.1563 143.123 42.9245 142.54C43.6913 141.945 44.6399 141.567 45.7704 141.405C46.901 141.243 47.9175 141.34 48.8202 141.695C49.7107 142.041 50.4413 142.626 51.0119 143.449C51.5704 144.262 51.9357 145.271 52.1078 146.474L52.5992 149.909L41.5528 151.491L41.0614 148.056ZM50.9191 146.644C50.7153 145.219 50.1847 144.186 49.3274 143.545C48.4595 142.904 47.344 142.682 45.9811 142.877C44.6075 143.074 43.5894 143.607 42.9269 144.478C42.2628 145.337 42.0319 146.474 42.2342 147.888L42.5195 149.883L51.2045 148.638L50.9191 146.644Z" fill="white"/>
<path d="M39.9771 134.161L43.7057 134.261L43.819 130.201L45.0192 130.233L44.9059 134.294L48.7465 134.397L48.8731 129.857L50.0733 129.89L49.9061 135.884L38.7364 135.583L38.9036 129.588L40.1038 129.621L39.9771 134.161Z" fill="white"/>
<path d="M50.5284 119.376C50.4033 120.101 50.1647 120.731 49.8126 121.266C49.4518 121.788 49.0171 122.173 48.5087 122.422C47.9897 122.668 47.4296 122.745 46.8283 122.653L47.0921 121.124C47.6165 121.16 48.0892 121.025 48.5103 120.718C48.9226 120.399 49.1904 119.883 49.3137 119.168C49.4315 118.485 49.3557 117.92 49.0862 117.474C48.8081 117.015 48.4008 116.74 47.8644 116.648C47.4437 116.576 47.082 116.633 46.7791 116.819C46.4763 117.005 46.2266 117.26 46.0301 117.583C45.8335 117.907 45.6056 118.349 45.3463 118.91C45.0319 119.603 44.742 120.154 44.4765 120.562C44.2129 120.961 43.8541 121.283 43.4 121.53C42.9373 121.765 42.3641 121.823 41.6805 121.706C41.081 121.603 40.5761 121.36 40.1659 120.976C39.7558 120.592 39.4716 120.105 39.3135 119.515C39.1571 118.915 39.1406 118.258 39.2639 117.544C39.4416 116.514 39.8443 115.717 40.472 115.154C41.1016 114.58 41.8496 114.325 42.716 114.387L42.444 115.963C42.0143 115.943 41.6081 116.101 41.2255 116.435C40.8324 116.768 40.5805 117.255 40.4699 117.896C40.3666 118.495 40.4401 119.011 40.6903 119.443C40.93 119.874 41.3286 120.137 41.886 120.232C42.2857 120.301 42.6308 120.246 42.9212 120.069C43.2135 119.881 43.4562 119.636 43.6491 119.333C43.8333 119.019 44.0612 118.576 44.3328 118.006C44.6578 117.316 44.9582 116.767 45.2342 116.36C45.4996 115.951 45.8646 115.624 46.3292 115.379C46.7833 115.132 47.3573 115.068 48.0515 115.187C48.5879 115.279 49.0682 115.507 49.4926 115.872C49.9169 116.237 50.2282 116.723 50.4266 117.33C50.625 117.938 50.659 118.62 50.5284 119.376Z" fill="white"/>
<path d="M41.0401 108.474L51.8804 111.105L51.5355 112.519L40.6952 109.888L41.0401 108.474Z" fill="white"/>
<path d="M48.5226 95.1675C47.8019 95.1828 47.1603 95.3856 46.5978 95.776C46.0257 96.162 45.5794 96.7099 45.2591 97.4196C44.9387 98.1293 44.8145 98.8452 44.8864 99.5675C44.9529 100.276 45.2181 100.933 45.6819 101.539C46.1403 102.131 46.7684 102.606 47.5663 102.964C48.3641 103.323 49.1371 103.477 49.8851 103.428C50.6376 103.368 51.3064 103.131 51.8918 102.716C52.4718 102.286 52.9219 101.717 53.2423 101.007C53.6899 100.015 53.7618 99.0655 53.4579 98.1572C53.154 97.2488 52.5202 96.5138 51.5566 95.9521L49.7267 100.006L48.6467 99.5208L51.1151 94.0523L52.1367 94.5114C52.9384 94.9652 53.5886 95.5731 54.0872 96.3351C54.5762 97.0927 54.8604 97.9279 54.9399 98.8407C55.0097 99.7491 54.8428 100.651 54.439 101.545C54.0134 102.488 53.4061 103.25 52.6172 103.831C51.8186 104.408 50.9221 104.747 49.9277 104.85C48.9377 104.943 47.9465 104.767 46.9541 104.321C45.9617 103.875 45.1723 103.251 44.5861 102.45C43.9945 101.634 43.6553 100.739 43.5686 99.7646C43.472 98.7857 43.6366 97.8248 44.0623 96.8818C44.5494 95.8027 45.247 94.9702 46.1552 94.3843C47.0677 93.7887 48.096 93.5199 49.2401 93.578L48.5226 95.1675Z" fill="white"/>
<path d="M62.5585 85.3361L61.7439 86.5432L51.0991 86.4457L58.4676 91.3983L57.653 92.6055L48.386 86.3768L49.2006 85.1696L59.8321 85.2582L52.4769 80.3145L53.2916 79.1074L62.5585 85.3361Z" fill="white"/>
<path d="M63.1478 66.0143C64.0627 65.2125 65.0047 64.6917 65.9736 64.4521C66.9435 64.1975 67.8831 64.2316 68.7925 64.5545C69.71 64.8704 70.5454 65.4566 71.2988 66.3131C72.0522 67.1697 72.5265 68.0725 72.7216 69.0214C72.9177 69.9553 72.8265 70.8858 72.4481 71.8129C72.0706 72.7249 71.4244 73.5819 70.5095 74.3838L67.8971 76.6734L60.5354 68.304L63.1478 66.0143ZM69.7173 73.4832C70.8008 72.5336 71.3775 71.5249 71.4474 70.4571C71.5103 69.3813 71.0875 68.3271 70.1792 67.2944C69.2638 66.2537 68.2602 65.6944 67.1683 65.6165C66.0845 65.5315 65.0048 65.9604 63.9294 66.9029L62.4125 68.2324L68.2005 74.8127L69.7173 73.4832Z" fill="white"/>
<path d="M74.1963 57.5023L76.1473 60.6762L79.6149 58.552L80.2429 59.5736L76.7753 61.6979L78.7849 64.9672L82.6621 62.592L83.2901 63.6137L78.1706 66.7499L72.3259 57.2417L77.4455 54.1054L78.0735 55.1271L74.1963 57.5023Z" fill="white"/>
<path d="M93.2446 45.592L93.676 57.4934L92.1254 58.1428L83.9258 49.4946L85.3583 48.8947L92.3137 56.3998L91.8268 46.1857L93.2446 45.592Z" fill="white"/>
<path d="M105.28 52.6688C104.263 52.8603 103.29 52.7993 102.362 52.4858C101.432 52.1619 100.641 51.6221 99.988 50.8663C99.3437 50.0982 98.9209 49.1798 98.7197 48.1113C98.5185 47.0428 98.5792 46.0389 98.9019 45.0996C99.2331 44.1478 99.774 43.3573 100.524 42.728C101.273 42.0882 102.156 41.6725 103.173 41.481C104.201 41.2875 105.18 41.3528 106.11 41.6767C107.038 41.9902 107.823 42.5257 108.465 43.2834C109.108 44.0411 109.531 44.9595 109.734 46.0384C109.937 47.1174 109.877 48.1266 109.554 49.0659C109.232 50.0052 108.696 50.7948 107.948 51.4346C107.197 52.0639 106.308 52.4753 105.28 52.6688ZM105.046 51.4274C105.812 51.2833 106.466 50.9759 107.007 50.5053C107.559 50.0326 107.946 49.4337 108.168 48.7086C108.4 47.9816 108.434 47.1833 108.27 46.3138C108.105 45.4339 107.782 44.7028 107.303 44.1204C106.833 43.5256 106.26 43.1074 105.585 42.8657C104.909 42.624 104.183 42.5763 103.407 42.7223C102.631 42.8684 101.972 43.1768 101.431 43.6475C100.889 44.1181 100.503 44.717 100.27 45.4441C100.046 46.1587 100.017 46.956 100.183 47.8359C100.347 48.7054 100.664 49.4375 101.134 50.0323C101.615 50.6252 102.193 51.0424 102.869 51.2841C103.555 51.5238 104.281 51.5715 105.046 51.4274Z" fill="white"/>
<path d="M123.515 41.7503C123.52 42.6778 123.204 43.4527 122.567 44.075C121.94 44.6865 120.976 44.9963 119.674 45.0044L117.529 45.0177L117.554 49.6711L116.097 49.6801L116.037 38.5344L119.639 38.5121C120.899 38.5043 121.855 38.8022 122.51 39.4058C123.175 40.0094 123.51 40.7909 123.515 41.7503ZM119.668 43.8051C120.479 43.8001 121.075 43.6205 121.458 43.2663C121.84 42.9121 122.029 42.4099 122.026 41.7596C122.019 40.3843 121.225 39.7016 119.646 39.7114L117.501 39.7247L117.522 43.8184L119.668 43.8051Z" fill="white"/>
<path d="M133.627 49.7346C132.898 49.635 132.26 49.4187 131.713 49.0858C131.179 48.7438 130.779 48.3233 130.514 47.8244C130.25 47.3149 130.154 46.7584 130.226 46.1548L131.765 46.3649C131.746 46.8897 131.897 47.3569 132.218 47.7665C132.551 48.1671 133.076 48.4164 133.795 48.5146C134.483 48.6084 135.045 48.513 135.483 48.2284C135.933 47.9347 136.195 47.5185 136.269 46.9798C136.327 46.5573 136.258 46.1981 136.062 45.9023C135.865 45.6064 135.602 45.3661 135.272 45.1811C134.942 44.9962 134.492 44.784 133.922 44.5448C133.218 44.255 132.658 43.9848 132.24 43.734C131.833 43.4847 131.498 43.1377 131.236 42.693C130.986 42.2392 130.908 41.669 131.003 40.9825C131.086 40.3804 131.313 39.8679 131.683 39.445C132.054 39.0221 132.531 38.7214 133.116 38.543C133.711 38.366 134.368 38.3266 135.087 38.4247C136.123 38.5662 136.934 38.9404 137.518 39.5475C138.113 40.156 138.394 40.8938 138.36 41.761L136.775 41.5445C136.78 41.1147 136.609 40.7147 136.261 40.3444C135.915 39.9636 135.419 39.7291 134.774 39.6411C134.172 39.5588 133.658 39.6501 133.234 39.915C132.811 40.1694 132.561 40.5765 132.484 41.1363C132.429 41.5377 132.495 41.8803 132.682 42.1641C132.88 42.4494 133.133 42.683 133.442 42.8651C133.763 43.038 134.213 43.2501 134.792 43.5014C135.494 43.8017 136.054 44.0825 136.47 44.3438C136.888 44.5946 137.227 44.9476 137.488 45.4029C137.749 45.8475 137.832 46.4185 137.737 47.1156C137.662 47.6543 137.45 48.1418 137.099 48.5782C136.748 49.0145 136.272 49.3423 135.671 49.5616C135.07 49.7808 134.389 49.8385 133.627 49.7346Z" fill="white"/>
<path d="M165.773 46.7287L157.868 55.2408L156.409 54.5093L158.129 45.3303L151.689 52.1426L150.237 51.4326L152.472 40.0591L153.859 40.7548L151.78 50.2907L158.436 43.0497L159.894 43.7812L157.944 53.3459L164.371 46.0259L165.773 46.7287Z" fill="white"/>
<path d="M172.91 51.2877L170.696 54.2882L173.969 56.6948L173.257 57.6606L169.983 55.254L167.702 58.3446L171.363 61.0355L170.65 62.0013L165.817 58.4482L172.45 49.4596L177.283 53.0127L176.57 53.9785L172.91 51.2877Z" fill="white"/>
<path d="M184.919 65.6553C185.15 65.9941 185.281 66.3752 185.313 66.7984C185.353 67.2293 185.294 67.6497 185.137 68.0596C184.988 68.4772 184.75 68.8394 184.423 69.146C184.011 69.5329 183.538 69.7785 183.006 69.8828C182.482 69.9798 181.933 69.9176 181.358 69.6964C180.799 69.4756 180.263 69.0935 179.752 68.55L176.902 65.522L185.04 57.8894L187.78 60.801C188.299 61.3523 188.648 61.9096 188.826 62.473C189.013 63.0292 189.042 63.5503 188.913 64.0364C188.784 64.5225 188.525 64.9481 188.136 65.3131C187.653 65.7657 187.128 66.0097 186.561 66.045C186.008 66.0808 185.461 65.9509 184.919 65.6553ZM182.523 62.2454L184.2 64.0273C184.668 64.5242 185.146 64.799 185.636 64.8517C186.125 64.9045 186.576 64.7374 186.988 64.3505C187.401 63.9635 187.596 63.5247 187.574 63.0339C187.552 62.5432 187.299 62.0416 186.817 61.5291L185.162 59.7705L182.523 62.2454ZM180.54 67.6356C181.037 68.1635 181.549 68.4582 182.075 68.5196C182.602 68.5811 183.087 68.4037 183.531 67.9876C183.982 67.5642 184.19 67.0767 184.155 66.5253C184.127 65.9665 183.869 65.427 183.379 64.9068L181.648 63.0667L178.775 65.7605L180.54 67.6356Z" fill="white"/>
<path d="M202.414 77.4675C202.996 78.5341 203.298 79.5654 203.319 80.5614C203.354 81.5616 203.114 82.4692 202.598 83.284C202.087 84.1082 201.33 84.7934 200.327 85.3395C199.324 85.8856 198.337 86.1497 197.367 86.1319C196.411 86.1183 195.522 85.8257 194.699 85.2542C193.891 84.6869 193.195 83.8699 192.613 82.8033L190.95 79.758L200.751 74.4221L202.414 77.4675ZM193.668 82.2292C194.357 83.4922 195.216 84.2747 196.244 84.5767C197.282 84.8735 198.405 84.6927 199.615 84.0343C200.833 83.3708 201.601 82.516 201.918 81.4698C202.239 80.433 202.058 79.2877 201.373 78.034L200.408 76.2657L192.702 80.4609L193.668 82.2292Z" fill="white"/>
<path d="M208.269 89.9509L204.742 91.1646L206.065 95.004L204.93 95.3947L203.606 91.5553L199.973 92.8055L201.453 97.0983L200.317 97.489L198.363 91.8206L208.931 88.1847L210.885 93.8531L209.749 94.2438L208.269 89.9509Z" fill="white"/>
<path d="M215.879 111.461L204.158 109.264L203.866 107.611L214.122 101.526L214.392 103.053L205.527 108.178L215.612 109.949L215.879 111.461Z" fill="white"/>
<path d="M216.065 117.141L212.335 117.178L212.372 121.239L211.171 121.251L211.135 117.189L207.293 117.227L207.334 121.769L206.133 121.781L206.079 115.784L217.252 115.674L217.307 121.67L216.106 121.682L216.065 117.141Z" fill="white"/>
<path d="M207.376 129.769L207.136 133.663L205.954 133.592L206.283 128.244L217.42 128.92L217.331 130.372L207.376 129.769Z" fill="white"/>
<path d="M205.278 139.942C205.519 138.936 205.973 138.074 206.639 137.356C207.316 136.64 208.133 136.139 209.09 135.852C210.056 135.578 211.068 135.568 212.127 135.82C213.185 136.073 214.078 136.538 214.804 137.216C215.538 137.906 216.039 138.722 216.307 139.663C216.585 140.606 216.603 141.581 216.362 142.587C216.118 143.603 215.658 144.469 214.981 145.184C214.315 145.902 213.504 146.4 212.549 146.676C211.594 146.952 210.582 146.963 209.513 146.708C208.444 146.453 207.547 145.986 206.82 145.309C206.094 144.631 205.592 143.821 205.314 142.877C205.046 141.936 205.034 140.958 205.278 139.942ZM206.508 140.235C206.326 140.992 206.339 141.713 206.548 142.399C206.754 143.095 207.143 143.692 207.714 144.19C208.284 144.699 208.999 145.056 209.86 145.261C210.732 145.469 211.532 145.474 212.26 145.275C212.996 145.089 213.613 144.737 214.11 144.22C214.607 143.703 214.948 143.06 215.132 142.293C215.316 141.526 215.304 140.799 215.096 140.114C214.887 139.428 214.498 138.831 213.929 138.322C213.368 137.827 212.651 137.475 211.779 137.267C210.918 137.061 210.119 137.052 209.383 137.238C208.645 137.434 208.027 137.791 207.53 138.308C207.03 138.836 206.689 139.478 206.508 140.235Z" fill="white"/>
<path d="M208.575 157.942C207.725 157.568 207.147 156.964 206.839 156.129C206.537 155.309 206.649 154.303 207.175 153.113L208.042 151.152L203.781 149.276L204.369 147.945L214.577 152.438L213.121 155.73C212.612 156.881 211.948 157.632 211.129 157.982C210.305 158.342 209.453 158.328 208.575 157.942ZM208.274 153.597C207.946 154.338 207.866 154.955 208.033 155.448C208.199 155.941 208.581 156.319 209.176 156.581C210.436 157.135 211.385 156.691 212.023 155.247L212.89 153.286L209.141 151.636L208.274 153.597Z" fill="white"/>
<path d="M201.393 178.548L192.81 171.558L193.732 170.43L200.132 175.642L196.062 167.58L196.71 166.787L205.462 169.147L199.051 163.925L199.972 162.797L208.555 169.787L207.562 171.001L197.875 168.396L202.375 177.346L201.393 178.548Z" fill="white"/>
<path d="M192.833 187.755L190.393 184.939L187.315 187.596L186.529 186.689L189.607 184.032L187.094 181.131L183.653 184.102L182.867 183.196L187.411 179.273L194.721 187.709L190.177 191.632L189.391 190.726L192.833 187.755Z" fill="white"/>
<path d="M170.676 192.783L171.921 192.026L181.548 196.561L176.928 188.983L178.174 188.227L183.983 197.756L182.738 198.513L173.119 193.992L177.73 201.556L176.485 202.312L170.676 192.783Z" fill="white"/>
<path d="M166.018 208.041L165.505 206.975L168.248 205.659L163.927 196.683L165.24 196.053L169.561 205.028L172.318 203.705L172.832 204.771L166.018 208.041Z" fill="white"/>
<path d="M143.26 206.535L148.09 205.933L148.673 203.363L150.198 203.173L147.563 214.668L145.895 214.876L140.539 204.376L142.064 204.186L143.26 206.535ZM143.819 207.658L146.516 212.994L147.823 207.159L143.819 207.658Z" fill="white"/>
<path d="M127.202 213.309C127.259 212.383 127.626 211.631 128.303 211.053C128.969 210.484 129.952 210.24 131.252 210.318L133.393 210.448L133.679 205.803L135.133 205.892L134.447 217.017L130.852 216.799C129.595 216.723 128.66 216.362 128.048 215.716C127.425 215.069 127.143 214.267 127.202 213.309ZM131.178 211.516C130.368 211.466 129.761 211.606 129.356 211.934C128.951 212.262 128.728 212.75 128.688 213.399C128.603 214.772 129.349 215.506 130.926 215.602L133.067 215.732L133.319 211.645L131.178 211.516Z" fill="white"/>
<path d="M111.837 211.753C112.061 210.852 112.558 210.178 113.328 209.732C114.086 209.292 115.097 209.229 116.36 209.541L118.442 210.054L119.563 205.537L120.977 205.885L118.293 216.706L114.796 215.844C113.574 215.542 112.72 215.018 112.235 214.272C111.739 213.524 111.606 212.684 111.837 211.753ZM116.071 210.705C115.284 210.511 114.662 210.538 114.204 210.788C113.746 211.037 113.439 211.478 113.283 212.109C112.951 213.444 113.552 214.301 115.085 214.679L117.167 215.193L118.154 211.219L116.071 210.705Z" fill="white"/>
</svg>
