<svg width="26" height="33" viewBox="0 0 26 33" fill="none" xmlns="http://www.w3.org/2000/svg">
<path fill-rule="evenodd" clip-rule="evenodd" d="M0.840022 31.8319L2.11261 32.7659L21.2704 6.75557C21.1227 7.51778 21.0266 8.29671 20.9836 9.088C20.8069 12.3403 21.534 15.6878 23.0924 18.7967L24.5501 18.266C23.1211 15.4152 22.4544 12.3457 22.6164 9.36339C22.7784 6.38111 23.7634 3.59021 25.4734 1.26882L25.3655 1.18963L25.3664 1.1883L24.1776 0.315836L24.1766 0.317163L24.0993 0.260466C23.8605 0.584667 23.6347 0.917266 23.422 1.25763C21.8566 3.05213 19.8614 4.45776 17.5664 5.37491C14.8839 6.44692 11.8776 6.81736 8.82231 6.45233L8.82264 7.79978C12.1144 8.19306 15.3535 7.79395 18.2436 6.63897C18.8486 6.39718 19.4342 6.1239 19.9985 5.82067L0.840022 31.8319Z" fill="white"/>
<path d="M2.11261 32.7659L2.02365 32.8867L2.14458 32.9754L2.23353 32.8546L2.11261 32.7659ZM0.840022 31.8319L0.719095 31.7432L0.630137 31.864L0.751067 31.9527L0.840022 31.8319ZM21.2704 6.75557L21.4178 6.78396L21.1495 6.66682L21.2704 6.75557ZM20.9836 9.088L21.1335 9.09604L20.9836 9.088ZM23.0924 18.7967L22.9581 18.8638L23.018 18.9833L23.1438 18.9375L23.0924 18.7967ZM24.5501 18.266L24.6014 18.4068L24.7597 18.3492L24.6843 18.1988L24.5501 18.266ZM25.4734 1.26882L25.5943 1.35758L25.6833 1.23679L25.5623 1.14804L25.4734 1.26882ZM25.3655 1.18963L25.2445 1.10088L25.1556 1.22166L25.2765 1.31041L25.3655 1.18963ZM25.3664 1.1883L25.4874 1.27705L25.5763 1.15627L25.4554 1.06752L25.3664 1.1883ZM24.1776 0.315836L24.2665 0.195056L24.1456 0.106315L24.0566 0.227086L24.1776 0.315836ZM24.1766 0.317163L24.0876 0.437943L24.2086 0.526683L24.2975 0.405912L24.1766 0.317163ZM24.0993 0.260466L24.1883 0.139685L24.0674 0.0509494L23.9784 0.17171L24.0993 0.260466ZM23.422 1.25763L23.5352 1.35603L23.5431 1.34703L23.5494 1.3369L23.422 1.25763ZM17.5664 5.37491L17.6221 5.51405L17.5664 5.37491ZM8.82231 6.45233L8.84022 6.30352L8.67215 6.28343L8.67219 6.45244L8.82231 6.45233ZM8.82264 7.79978L8.67252 7.79989L8.67255 7.9328L8.80473 7.94859L8.82264 7.79978ZM18.2436 6.63897L18.2993 6.77811L18.2436 6.63897ZM19.9985 5.82067L20.1195 5.90942L19.9274 5.68871L19.9985 5.82067ZM2.20156 32.6451L0.928977 31.7111L0.751067 31.9527L2.02365 32.8867L2.20156 32.6451ZM21.1495 6.66682L1.99168 32.6771L2.23353 32.8546L21.3913 6.84432L21.1495 6.66682ZM21.1335 9.09604C21.1761 8.31151 21.2714 7.53938 21.4178 6.78396L21.123 6.72717C20.974 7.49618 20.8771 8.28191 20.8337 9.07996L21.1335 9.09604ZM23.2267 18.7296C21.6791 15.6423 20.9583 12.3206 21.1335 9.09604L20.8337 9.07996C20.6555 12.36 21.3889 15.7332 22.9581 18.8638L23.2267 18.7296ZM24.4987 18.1252L23.041 18.6559L23.1438 18.9375L24.6014 18.4068L24.4987 18.1252ZM22.4665 9.35535C22.303 12.3654 22.976 15.4606 24.4158 18.3331L24.6843 18.1988C23.2662 15.3697 22.6058 12.3259 22.7663 9.37142L22.4665 9.35535ZM25.3525 1.18007C23.6245 3.52587 22.63 6.34506 22.4665 9.35535L22.7663 9.37142C22.9267 6.41717 23.9023 3.65455 25.5943 1.35758L25.3525 1.18007ZM25.2765 1.31041L25.3844 1.3896L25.5623 1.14804L25.4544 1.06885L25.2765 1.31041ZM25.2455 1.09955L25.2445 1.10088L25.4864 1.27838L25.4874 1.27705L25.2455 1.09955ZM24.0886 0.436616L25.2775 1.30908L25.4554 1.06752L24.2665 0.195056L24.0886 0.436616ZM24.2975 0.405912L24.2985 0.404585L24.0566 0.227086L24.0557 0.228413L24.2975 0.405912ZM24.0104 0.381247L24.0876 0.437943L24.2655 0.196382L24.1883 0.139685L24.0104 0.381247ZM23.5494 1.3369C23.76 0.999774 23.9837 0.670339 24.2202 0.349222L23.9784 0.17171C23.7373 0.498994 23.5093 0.834758 23.2947 1.17835L23.5494 1.3369ZM17.6221 5.51405C19.9385 4.58835 21.9537 3.16904 23.5352 1.35603L23.3088 1.15923C21.7596 2.93522 19.7843 4.32717 17.5107 5.23577L17.6221 5.51405ZM8.8044 6.60115C11.883 6.96896 14.9148 6.59601 17.6221 5.51405L17.5107 5.23577C14.8531 6.29784 11.8722 6.66576 8.84022 6.30352L8.8044 6.60115ZM8.97277 7.79967L8.97243 6.45222L8.67219 6.45244L8.67252 7.79989L8.97277 7.79967ZM18.1878 6.49983C15.3226 7.64487 12.109 8.04146 8.84056 7.65096L8.80473 7.94859C12.1198 8.34466 15.3843 7.94303 18.2993 6.77811L18.1878 6.49983ZM19.9274 5.68871C19.3682 5.98923 18.7876 6.26012 18.1878 6.49983L18.2993 6.77811C18.9095 6.53425 19.5003 6.25857 20.0696 5.95264L19.9274 5.68871ZM0.960949 31.9207L20.1195 5.90942L19.8776 5.73192L0.719095 31.7432L0.960949 31.9207Z" fill="white"/>
</svg>
