<svg width="24" height="24" viewBox="0 0 24 24" fill="none" xmlns="http://www.w3.org/2000/svg">
<path d="M11.9846 6.62256C9.02817 6.62256 6.60699 9.04373 6.60699 12.0001C6.60699 14.9565 9.02817 17.3777 11.9846 17.3777C14.9409 17.3777 17.3366 14.9565 17.3366 12.0001C17.3366 9.04373 14.9155 6.62256 11.9846 6.62256ZM11.9846 16.1034C9.71629 16.1034 7.8813 14.2684 7.8813 12.0001C7.8813 9.73186 9.71629 7.89686 11.9846 7.89686C14.2273 7.89686 16.0623 9.73186 16.0623 12.0001C16.0623 14.2684 14.2273 16.1034 11.9846 16.1034Z" fill="white" stroke="white" stroke-width="0.55"/>
<path d="M17.9735 3.58984C17.4128 3.58984 16.903 3.79373 16.5207 4.17602C16.1385 4.55831 15.9346 5.06804 15.9346 5.62873C15.9346 6.18942 16.1385 6.69914 16.5207 7.08143C16.903 7.46373 17.4128 7.66761 17.9735 7.66761C18.5341 7.66761 19.0439 7.46373 19.4262 7.08143C19.783 6.72463 20.0123 6.21491 20.0378 5.65422V5.62873C20.0378 5.09352 19.8085 4.5838 19.4516 4.227C19.0694 3.81922 18.5341 3.58984 17.9735 3.58984ZM18.5087 6.16394C18.2283 6.44428 17.6931 6.44428 17.4128 6.16394C17.2598 6.01102 17.1834 5.83262 17.1834 5.62873C17.1834 5.42484 17.2598 5.22095 17.4128 5.09352C17.5657 4.94061 17.7441 4.86415 17.948 4.86415C18.1519 4.86415 18.3557 4.94061 18.5087 5.09352C18.6361 5.22095 18.738 5.42484 18.738 5.60324C18.738 5.83262 18.6616 6.03651 18.5087 6.16394Z" fill="white"/>
<path d="M16.4446 1.01562H7.49895C3.90541 1.01562 1 3.92104 1 7.51457V16.4857C1 20.0792 3.90541 22.9846 7.49895 22.9846H16.47C20.0636 22.9846 22.969 20.0792 22.969 16.4857V7.51457C22.9435 3.92104 20.0381 1.01562 16.4446 1.01562ZM21.6692 16.4857C21.6692 19.3656 19.3245 21.7103 16.4446 21.7103H7.49895C4.61902 21.7103 2.2743 19.3656 2.2743 16.4857V7.51457C2.2743 4.63465 4.61902 2.28993 7.49895 2.28993H16.47C19.35 2.28993 21.6947 4.63465 21.6947 7.51457V16.4857H21.6692Z" fill="white" stroke="white" stroke-width="0.8"/>
</svg>
