<svg width="813" height="814" viewBox="0 0 813 814" fill="none" xmlns="http://www.w3.org/2000/svg">
<g opacity="0.4" filter="url(#filter0_f_148_16379)">
<path d="M406.5 593.676C509.501 593.676 593 510.177 593 407.176C593 304.175 509.501 220.676 406.5 220.676C303.499 220.676 220 304.175 220 407.176C220 510.177 303.499 593.676 406.5 593.676Z" fill="#F8FFFF"/>
</g>
<path opacity="0.9" d="M406.815 550.146C485.601 550.146 549.47 486.277 549.47 407.491C549.47 328.705 485.601 264.836 406.815 264.836C328.029 264.836 264.161 328.705 264.161 407.491C264.161 486.277 328.029 550.146 406.815 550.146Z" fill="#E5F6FE"/>
<path fill-rule="evenodd" clip-rule="evenodd" d="M273.624 407.381C273.624 333.095 333.787 272.738 408.267 272.738C471.526 272.738 524.532 316.265 538.847 374.881C541.362 385.327 542.716 396.161 542.716 407.188C542.716 412.217 542.523 417.054 541.943 421.696C534.591 489.212 477.523 541.637 408.073 541.637C333.981 542.024 273.624 481.667 273.624 407.381Z" fill="white"/>
<g opacity="0.31">
<path fill-rule="evenodd" clip-rule="evenodd" d="M318.311 458.26C324.308 458.066 329.725 462.709 334.561 465.998C338.624 468.706 342.686 473.155 344.621 477.411C345.201 478.766 345.395 479.733 345.781 481.087C345.975 481.28 347.329 485.343 347.329 485.343C347.329 487.664 345.394 490.373 343.653 492.114C338.817 497.144 331.273 493.468 326.436 490.566C321.793 487.664 317.344 484.569 313.475 480.7C311.54 478.959 309.025 477.218 307.671 475.09C305.93 472.188 306.511 468.513 306.511 464.837C306.511 459.227 299.353 453.036 308.058 451.682C311.54 451.295 321.987 454.004 322.761 458.26H318.311Z" fill="#635EB0"/>
<path fill-rule="evenodd" clip-rule="evenodd" d="M425.871 283.765C427.418 282.024 429.159 283.185 430.707 283.765C432.255 284.346 433.802 284.539 435.543 284.539C439.026 284.539 442.314 284.539 445.796 285.313C449.085 286.087 452.18 286.667 455.082 287.441C456.243 287.828 457.404 288.408 458.758 288.602C459.532 288.795 460.305 288.408 461.079 288.602C461.466 288.602 461.466 289.182 461.66 289.182C462.24 289.375 462.82 289.182 463.594 289.375C466.689 289.956 469.591 290.923 472.299 291.697C473.654 292.084 474.814 292.084 475.975 292.858C477.136 293.631 478.877 294.405 480.038 295.372C484.487 298.661 489.323 301.369 493.192 305.432C497.061 309.301 500.931 312.783 504.8 316.265C505.767 317.039 506.541 318.2 507.508 318.974C508.475 319.747 509.636 320.134 510.603 321.295C512.731 323.423 514.279 325.745 515.826 328.066C519.115 332.709 523.178 336.578 525.692 341.608C526.853 344.123 528.014 346.444 529.368 348.765C530.335 350.313 531.109 352.054 531.883 353.602C532.463 354.762 533.431 356.31 533.624 357.471C534.204 359.212 534.204 360.953 534.591 362.694C534.785 363.468 535.365 363.855 535.559 364.629C535.752 365.596 535.365 366.563 535.559 367.53C535.752 368.304 536.332 368.691 536.526 369.465C536.719 370.432 536.332 371.399 536.526 372.367C536.719 373.14 537.3 373.527 537.493 374.301C537.687 375.268 537.106 376.623 537.493 377.59C537.687 378.364 538.267 378.751 538.46 379.524C538.654 380.298 538.46 381.459 538.46 382.426C538.46 384.554 539.234 386.102 539.234 388.036C539.428 389.777 539.621 392.486 539.234 394.227C539.041 395.001 538.46 395.388 538.267 396.161C538.073 397.322 538.46 398.289 538.073 399.45C535.945 400.03 536.526 395.388 536.526 394.227C536.526 392.099 535.752 390.938 535.752 389.004C535.752 386.489 534.785 386.102 533.237 384.361C532.657 383.587 531.109 382.039 530.722 380.879C530.529 380.105 530.529 379.138 530.335 378.364C530.142 377.59 529.948 377.01 529.948 375.849C529.948 373.914 530.142 372.947 528.594 371.593C527.434 370.626 525.692 369.658 524.338 369.271C522.404 368.885 520.856 368.885 518.922 368.498C518.148 368.304 517.761 367.724 516.987 367.53C516.02 367.337 514.859 367.917 513.892 367.337C512.925 366.757 511.764 365.015 511.377 364.048C510.797 362.307 511.183 360.953 511.957 359.405C512.151 358.825 512.538 358.245 512.731 357.858C513.118 357.277 513.892 356.697 514.279 356.117C515.826 353.215 513.505 348.765 512.925 346.251C512.731 345.283 511.377 342.575 512.151 341.608C512.925 340.834 517.567 341.414 518.341 341.995C518.922 341.027 517.954 338.899 517.567 337.932C517.181 336.578 516.6 334.837 515.826 333.483C514.279 330.968 511.764 328.84 509.249 327.486C507.508 326.518 506.541 326.131 506.347 328.453C506.154 329.42 506.541 330 505.96 330.968C505.573 331.548 504.993 331.742 504.606 332.515C504.413 333.483 504.8 334.45 504.606 335.417C504.413 335.998 504.026 336.578 503.832 337.158C503.445 339.093 504.219 341.221 503.832 343.155C503.252 347.024 500.35 348.765 496.868 349.733C493.386 350.506 489.904 351.474 486.808 353.021C483.133 354.569 479.264 355.149 475.395 353.989C472.299 353.021 469.785 351.087 466.883 349.539C465.529 348.765 464.368 348.572 463.014 347.992C461.466 347.411 459.918 346.831 458.564 346.444C455.856 345.67 452.761 345.283 450.246 343.736C447.924 342.381 444.829 340.447 443.088 338.319C441.54 336.191 439.993 331.742 441.154 329.033C441.927 326.905 445.023 325.164 446.57 323.423C449.085 320.521 448.311 318.587 446.57 315.492C445.99 314.331 444.636 312.977 444.442 311.816C444.055 310.268 444.249 307.753 444.442 306.206C444.442 304.658 445.023 303.691 445.796 302.337C446.57 301.176 448.505 300.402 449.085 299.048C449.665 297.887 449.085 297.307 448.698 296.533C448.505 296.34 448.118 296.146 448.118 295.953C447.731 295.372 447.924 294.792 447.731 294.212C446.957 292.277 445.216 292.664 443.668 292.277C441.927 291.89 440.38 292.084 438.832 292.664C437.865 293.051 437.478 293.438 436.511 293.438C435.35 293.631 434.77 293.051 433.802 292.858C431.868 292.471 430.707 293.825 428.579 294.018C427.032 294.018 426.064 293.438 424.71 292.084C423.743 291.116 422.195 289.375 422.389 287.828C422.776 286.28 424.71 285.313 425.871 283.765Z" fill="#635EB0"/>
<path fill-rule="evenodd" clip-rule="evenodd" d="M441.347 344.896C440.766 345.09 440.38 345.477 439.993 345.67C438.639 344.122 437.284 342.768 435.737 341.801C433.415 340.253 432.255 341.221 431.674 343.736C431.481 345.09 432.061 345.863 432.255 346.831C432.448 347.991 432.255 349.152 433.415 349.733C434.963 350.7 439.606 350.119 439.025 347.411L441.347 344.896Z" fill="#635EB0"/>
<path fill-rule="evenodd" clip-rule="evenodd" d="M519.695 450.135C520.082 449.554 520.469 449.361 521.243 449.361C521.629 450.715 521.629 453.036 521.243 454.584C521.049 455.358 520.662 455.745 520.469 456.712C520.275 457.486 520.469 458.26 520.275 459.033C520.082 460.001 519.308 461.548 518.921 462.709C518.534 464.257 518.534 465.224 517.954 466.578C517.373 467.932 516.987 469.673 516.406 471.028C515.826 472.382 515.246 473.349 514.472 474.703C512.924 477.218 511.763 479.54 510.216 482.054C507.507 486.504 504.412 490.76 500.35 494.242C498.995 495.403 497.448 496.37 495.9 497.337C495.32 497.724 494.933 498.304 494.546 498.498C494.159 498.885 493.385 498.885 492.805 499.272C491.451 500.239 487.775 503.915 486.228 502.947C487.388 499.852 489.323 496.95 490.87 493.855C492.612 490.373 495.707 490.566 498.222 488.051C502.091 484.182 495.513 482.635 493.385 481.087C491.257 479.54 491.064 477.605 491.064 475.09C491.064 472.769 490.87 471.028 490.29 468.9C490.097 468.126 489.516 466.965 489.516 465.998C489.516 465.417 489.516 464.837 489.516 464.257C489.516 463.87 489.323 463.483 488.742 463.289C488.162 460.968 489.129 459.614 489.903 457.679C490.677 455.745 491.064 453.81 492.805 452.456C494.353 450.908 496.094 451.489 498.222 451.489C499.576 451.489 500.156 451.876 501.51 452.069C502.284 452.263 503.445 452.843 504.219 452.843C505.186 453.036 506.153 453.036 507.12 453.23C508.088 453.423 508.281 454.004 509.635 453.617C510.99 453.23 512.344 451.682 513.891 451.295C516.019 450.908 518.341 451.876 520.275 451.102C520.469 451.295 520.469 451.102 519.695 450.135Z" fill="#635EB0"/>
<path fill-rule="evenodd" clip-rule="evenodd" d="M367.254 346.057C369.575 346.057 372.671 343.349 374.025 341.414C375.959 338.706 372.284 335.804 370.349 334.45C369.575 333.87 368.995 333.483 368.028 333.096C367.447 332.902 366.48 332.128 365.9 332.128C364.546 332.128 363.965 335.611 363.385 336.771C361.644 340.447 364.352 342.962 367.061 345.09V346.057H367.254Z" fill="#635EB0"/>
<path fill-rule="evenodd" clip-rule="evenodd" d="M355.647 340.447C355.841 340.254 356.034 340.254 356.228 340.06C357.001 341.801 355.841 343.736 355.647 345.283C354.486 345.283 351.972 343.155 351.972 341.995C351.972 340.06 354.873 339.867 356.228 339.867L355.647 340.447Z" fill="#635EB0"/>
<path fill-rule="evenodd" clip-rule="evenodd" d="M334.368 419.569C335.142 422.471 339.204 419.182 340.365 418.215C341.139 417.441 341.913 416.861 342.3 415.894C342.88 414.733 342.88 413.379 342.88 411.831C342.88 410.283 343.46 409.123 343.46 407.575C343.46 406.027 343.267 404.48 342.88 402.932C342.106 400.417 340.172 398.289 338.044 396.935C336.883 396.161 335.529 395.581 334.368 395.001C332.82 394.227 332.82 393.84 331.079 394.614C329.145 395.581 327.21 396.548 325.663 398.096C323.922 399.837 322.181 401.578 321.02 403.706C319.472 406.414 321.213 408.542 322.567 411.057C324.308 413.959 326.823 416.28 329.145 418.795C329.725 419.376 330.692 420.923 331.466 421.31C333.014 422.084 334.561 420.923 334.368 419.569Z" fill="#635EB0"/>
<path fill-rule="evenodd" clip-rule="evenodd" d="M334.948 430.596C335.142 430.596 335.335 430.596 335.529 430.789C335.529 431.563 337.27 434.078 336.109 434.852C335.335 435.432 333.981 433.691 333.401 433.111C332.627 432.143 331.853 430.402 332.821 429.242C333.788 428.274 335.916 429.048 335.529 430.596H334.948Z" fill="#635EB0"/>
<path fill-rule="evenodd" clip-rule="evenodd" d="M361.644 297.307C362.418 298.274 364.933 298.661 366.287 298.468C367.835 298.081 368.996 297.5 370.543 297.307C373.639 296.726 377.314 295.179 380.023 293.631C383.892 291.31 390.469 284.732 384.085 281.444C381.57 280.09 378.281 280.283 375.186 280.283C373.639 280.283 372.865 280.863 371.317 280.863C369.576 280.863 368.222 281.444 366.674 281.831C363.966 282.411 361.451 283.378 358.743 284.346C356.421 285.313 354.68 287.054 352.746 288.795C350.424 290.923 350.231 294.018 352.552 296.34C353.906 297.694 355.067 297.5 357.002 297.5C358.743 297.307 360.484 297.307 361.644 297.307Z" fill="#635EB0"/>
<path fill-rule="evenodd" clip-rule="evenodd" d="M345.201 298.467C345.394 298.08 345.781 297.887 346.362 297.887C346.942 299.241 343.653 301.369 342.686 301.95C341.138 302.723 337.85 304.464 337.269 301.756C336.882 300.015 338.817 297.694 340.365 296.92C342.106 295.953 345.394 296.92 345.781 299.048L345.201 298.467Z" fill="#635EB0"/>
<path fill-rule="evenodd" clip-rule="evenodd" d="M294.71 413.572C294.903 413.572 295.096 413.572 295.29 413.379C296.064 410.864 294.903 408.543 294.71 406.221C294.516 403.9 294.71 401.385 294.71 398.87C294.71 396.355 294.71 394.034 294.71 391.519C294.71 390.552 294.71 389.584 294.516 388.617C294.516 388.23 294.129 387.843 293.936 387.263C293.742 386.489 293.936 385.522 293.936 384.748C293.936 383.587 294.129 382.427 293.742 381.266C293.742 381.072 293.355 380.105 293.355 379.912C293.162 379.138 293.355 379.138 292.969 378.557C291.808 376.816 289.68 375.849 287.939 376.816C286.391 377.59 285.23 378.751 283.683 379.331C281.361 380.299 280.394 381.459 279.427 383.587C278.46 385.328 278.266 387.263 277.686 389.004C277.492 389.584 277.105 389.584 277.105 390.165C276.912 390.745 277.105 391.325 276.912 391.906C276.912 392.293 276.525 392.68 276.332 393.26C276.332 393.647 276.332 394.034 276.332 394.614C276.332 395.001 276.138 395.194 275.751 395.388C275.558 396.355 275.751 397.322 275.558 398.29C275.558 399.644 274.977 400.611 274.977 401.965C274.977 403.319 274.397 404.287 274.397 405.641C274.397 406.802 274.397 408.156 274.397 409.316C274.397 411.831 274.397 414.153 274.397 416.668C274.397 417.828 274.784 418.602 274.977 419.763C275.171 420.924 275.364 422.278 275.558 423.439C275.751 424.212 276.525 425.18 276.718 425.953C277.105 427.114 277.105 427.694 277.879 428.855C279.233 430.79 280.007 431.757 282.135 432.724C284.263 433.692 286.971 433.305 288.906 431.757C289.486 431.177 290.647 430.209 290.84 429.436C291.034 428.855 290.841 428.275 291.034 427.694C291.227 427.114 291.614 426.727 291.421 425.76C291.421 423.439 290.84 420.15 291.421 417.828C291.614 416.668 292.388 415.313 292.775 414.153C293.549 412.799 293.549 411.444 294.71 413.572Z" fill="#635EB0"/>
<path fill-rule="evenodd" clip-rule="evenodd" d="M297.805 444.524C299.353 445.105 300.32 441.429 300.32 440.268C300.32 439.301 300.707 438.14 299.74 437.56C299.159 437.173 297.418 436.98 296.644 437.173C294.71 437.753 294.903 440.462 294.903 442.009C294.903 443.75 296.451 446.072 298.579 445.685L297.805 444.524Z" fill="#635EB0"/>
<path fill-rule="evenodd" clip-rule="evenodd" d="M506.54 447.039C506.54 447.233 506.541 447.426 506.734 447.62C507.314 447.62 507.701 448.2 508.282 448.2C508.862 448.393 509.636 448.2 510.409 448.2C511.957 448.2 512.731 448.587 514.085 448.78C514.666 448.78 515.633 448.78 516.213 448.78C516.987 448.78 517.374 448.393 517.954 448.393C519.308 448.006 520.276 448.2 521.436 447.426C523.177 446.072 524.532 443.944 525.692 442.009C527.046 439.688 528.207 437.173 528.207 434.271C528.207 433.111 528.207 431.95 527.433 430.983C526.66 430.015 526.273 429.241 525.886 428.081C524.725 425.566 523.758 424.599 520.856 424.599C518.148 424.599 515.826 426.146 513.505 427.307C512.538 427.887 511.57 428.661 510.603 429.435C509.829 430.015 508.862 430.402 508.282 431.369C506.734 433.497 506.541 436.399 505.767 438.721C505.38 440.075 505.186 441.816 505.573 443.17C505.573 443.364 505.96 443.557 505.96 443.75C506.154 444.137 505.96 444.718 506.154 445.105C506.154 445.685 506.734 446.265 506.54 447.039Z" fill="#635EB0"/>
<path fill-rule="evenodd" clip-rule="evenodd" d="M499.769 442.203C501.317 442.203 499.189 446.652 497.448 446.266C495.9 446.072 494.74 443.557 494.353 442.396C492.805 436.98 501.124 436.593 500.93 441.623L499.769 442.203Z" fill="#635EB0"/>
<path fill-rule="evenodd" clip-rule="evenodd" d="M479.844 432.337C480.038 430.983 481.199 430.209 481.586 429.242C481.972 428.081 481.392 427.114 480.618 426.146C480.038 425.372 479.071 424.212 477.91 424.405C476.943 424.599 476.362 425.953 475.588 426.533C474.041 427.694 471.139 429.048 473.074 431.369C473.847 432.337 475.202 432.724 476.362 432.917C478.103 433.111 478.877 432.724 480.231 431.756L479.844 432.337Z" fill="#635EB0"/>
<path fill-rule="evenodd" clip-rule="evenodd" d="M521.823 378.363C524.145 377.783 523.951 381.265 523.564 382.619C522.597 382.812 521.63 383.393 520.663 383.393C519.695 383.393 517.954 382.619 517.18 382.039C515.439 380.878 514.472 378.75 515.439 376.622C516.02 375.268 519.115 373.333 520.469 374.301C521.823 375.074 522.404 378.363 522.404 379.717L521.823 378.363Z" fill="#635EB0"/>
<path fill-rule="evenodd" clip-rule="evenodd" d="M350.037 509.138C350.618 510.298 351.005 510.685 350.037 511.652C349.264 512.426 348.103 512.426 347.136 512.039C345.781 511.652 344.234 509.911 343.266 508.751C342.686 508.17 341.719 506.816 341.719 506.042C341.719 505.075 342.106 504.301 342.686 503.527C343.653 502.173 345.201 501.013 346.362 499.852C348.103 498.111 349.263 499.078 350.618 500.819C351.778 502.173 352.552 503.721 353.713 505.075C353.906 505.462 354.874 507.203 354.874 507.59C354.874 508.364 354.68 509.138 354.1 509.911C353.133 511.266 351.004 513.007 349.457 513.587L350.037 509.138Z" fill="#635EB0"/>
<path fill-rule="evenodd" clip-rule="evenodd" d="M335.529 504.301C335.722 504.301 335.915 504.301 336.109 504.108C336.689 502.56 335.915 501.399 334.368 501.206C333.014 500.819 330.886 501.4 330.692 502.754C330.305 503.914 331.66 505.075 332.627 505.849C333.981 506.816 335.335 507.01 335.722 504.882V504.301H335.529Z" fill="#635EB0"/>
<path fill-rule="evenodd" clip-rule="evenodd" d="M344.62 348.378C344.427 347.798 345.2 346.057 345.394 345.476C345.587 344.703 346.168 343.542 346.555 342.575C346.941 341.607 347.328 340.64 347.522 339.479C347.715 338.319 348.296 337.545 348.489 336.384C348.876 334.063 346.168 332.515 344.233 332.902C342.492 333.289 340.751 334.837 339.203 335.804C338.236 336.578 337.849 336.384 337.269 337.545C336.688 338.512 336.495 339.673 336.302 340.834C335.915 341.994 335.721 342.575 335.721 343.929C335.721 345.09 335.528 346.444 335.915 347.604C337.269 353.408 343.653 349.732 344.814 345.863V348.378H344.62Z" fill="#635EB0"/>
<path fill-rule="evenodd" clip-rule="evenodd" d="M326.436 308.914C327.017 311.042 322.954 312.59 321.6 312.59C319.859 312.59 319.666 312.396 319.085 310.848C318.505 309.494 318.311 308.527 319.279 307.366C320.633 305.432 324.115 304.465 326.243 305.238C328.758 306.206 327.597 309.688 325.469 310.075L326.436 308.914Z" fill="#635EB0"/>
<path fill-rule="evenodd" clip-rule="evenodd" d="M352.552 352.634C353.326 352.828 354.293 353.795 354.487 354.375C354.68 354.956 354.487 355.536 354.68 356.116C354.874 356.503 355.067 356.89 355.261 357.47C355.261 358.051 355.067 358.825 355.261 359.405C355.454 359.985 355.841 360.566 355.841 361.146C356.035 362.307 355.648 363.661 355.841 364.822C356.035 365.982 357.195 367.143 356.421 368.304C355.841 369.271 354.487 369.078 353.52 369.078C352.552 368.884 351.585 368.497 350.424 368.304C349.07 367.917 347.523 367.337 346.555 366.563C344.814 365.402 343.073 364.048 342.493 362.113C342.106 360.179 342.299 356.89 342.88 355.149C343.267 353.601 344.04 351.473 345.588 350.506C347.136 349.539 350.811 350.119 352.359 350.893L352.552 352.634Z" fill="#635EB0"/>
<path fill-rule="evenodd" clip-rule="evenodd" d="M338.623 353.989C338.623 354.182 338.623 354.182 338.623 354.375C339.204 351.474 335.721 351.667 334.948 353.989C334.174 356.503 338.043 357.277 338.623 354.569V353.989Z" fill="#635EB0"/>
<path fill-rule="evenodd" clip-rule="evenodd" d="M295.677 372.366C294.903 374.108 294.323 375.655 294.903 377.783C295.29 379.718 296.451 381.459 297.225 383.393C297.805 384.747 297.805 385.908 297.418 387.456C297.031 389.197 297.031 391.131 297.418 393.066C297.805 395.194 298.385 397.322 298.579 399.45C298.772 401.771 298.579 404.286 298.579 406.801C298.579 411.637 300.9 415.506 305.35 417.634C306.704 418.408 308.058 418.408 309.606 418.408C311.153 418.408 311.734 418.021 312.894 416.861C314.055 415.506 314.442 414.152 315.216 412.605C315.99 411.25 316.57 410.09 316.957 408.542C317.537 406.221 316.57 402.739 318.118 400.804C318.505 400.224 319.278 399.837 319.859 399.45C320.632 398.869 321.019 398.289 321.793 397.515C323.341 395.968 323.341 394.614 324.115 392.872C324.695 391.325 325.469 389.777 326.629 388.616C328.177 386.875 330.305 385.908 331.853 384.361C333.013 383.006 333.207 381.846 333.207 380.105C333.207 379.137 333.4 377.783 333.207 376.816C332.82 375.655 332.433 374.881 332.24 373.527C332.24 372.173 332.24 371.206 332.82 369.852C333.4 368.11 333.981 366.563 333.787 364.628C333.594 360.566 331.079 356.89 329.144 353.602C328.177 352.054 327.21 350.506 326.823 348.572C326.436 346.444 327.016 344.316 327.597 342.188C328.177 340.06 329.531 338.706 330.499 336.771C331.659 335.03 332.82 333.096 334.561 331.741C336.302 330.387 337.85 329.42 340.171 329.033C340.945 328.84 341.719 328.646 342.493 328.646C343.46 328.646 344.427 329.033 345.394 329.226C349.457 329.613 352.939 327.098 357.002 326.905C358.743 326.905 360.29 327.098 361.644 328.066C362.805 328.84 364.159 329.42 365.514 329.613C368.802 330.387 373.252 328.453 375.96 331.161C376.927 332.128 377.121 333.482 378.088 334.45C379.829 336.191 382.15 336.578 384.472 336.965C387.761 337.738 391.243 338.125 394.338 339.286C397.433 340.447 400.335 342.575 403.624 343.735C406.719 344.896 411.749 344.316 414.844 343.349C416.779 342.768 419.68 341.801 420.648 339.866C421.228 338.706 421.615 337.932 422.582 336.965C423.549 335.997 424.517 335.997 425.871 335.804C429.74 334.837 431.674 331.935 432.448 328.259C433.029 325.551 432.642 323.036 433.029 320.328C433.609 317.426 434.576 314.717 435.737 312.009C436.511 309.881 437.091 307.947 436.898 305.625C436.704 303.691 436.511 300.402 434.576 299.241C433.029 298.467 430.901 298.467 429.159 298.661C426.064 298.854 422.969 299.628 420.067 298.661C417.359 297.887 416.198 295.953 414.844 293.438C413.103 290.342 412.329 286.86 410.395 283.572C409.04 281.057 407.106 279.122 404.204 278.929C402.27 278.929 400.722 279.896 399.561 281.25C397.82 283.185 396.853 285.7 395.305 287.634C393.951 289.375 392.597 291.116 390.856 292.47C387.954 294.792 383.892 294.792 380.603 296.146C376.927 297.5 374.025 300.209 370.156 300.982C365.127 302.143 360.097 301.176 355.067 301.756C351.972 302.143 349.263 302.917 346.362 304.078C343.847 305.045 342.106 306.399 339.784 307.56C337.463 308.72 335.528 310.075 333.207 311.042C330.692 312.009 328.177 312.59 325.856 313.557C323.534 314.524 321.6 315.685 319.085 316.459C316.377 317.232 313.668 318.587 311.54 320.328C309.412 322.069 307.671 324.39 306.317 326.905C305.543 328.453 305.156 330.194 304.189 331.741C303.415 333.289 302.061 334.643 301.094 335.804C299.353 337.738 297.612 339.479 296.064 341.414C294.129 343.735 292.775 346.831 291.421 349.539C290.26 351.667 289.873 353.795 288.906 355.923C287.939 358.051 287.165 360.372 285.811 362.307C285.037 363.468 284.07 365.209 284.07 366.563C284.07 367.143 284.263 367.917 284.457 368.497C284.65 369.078 285.231 369.658 285.424 370.238C285.811 371.399 285.424 373.14 286.391 374.108C287.165 374.881 288.132 374.688 288.906 374.301C289.873 373.721 290.647 373.14 291.615 372.947C292.388 372.173 294.323 371.399 295.677 372.366Z" fill="#635EB0"/>
</g>
<g opacity="0.18">
<path fill-rule="evenodd" clip-rule="evenodd" d="M400.528 296.726C401.495 295.565 397.82 299.627 397.626 300.401C397.626 300.788 397.82 301.175 397.82 301.562C397.82 302.336 397.82 303.11 397.433 303.883C396.852 305.818 395.305 307.752 394.338 309.494C393.951 310.267 393.37 310.654 392.79 311.235C392.21 311.815 392.016 312.395 391.436 313.169C389.695 314.91 387.954 316.651 386.406 318.586C383.698 322.068 383.504 326.324 386.212 329.806C386.986 330.773 388.534 332.128 389.695 332.321C390.469 332.514 391.242 332.321 392.016 332.128C393.37 331.741 394.918 331.547 396.466 331.16C398.207 330.773 399.561 330.967 401.302 331.741C402.076 332.128 403.043 332.321 403.817 332.708C404.591 333.095 405.171 333.675 406.138 333.869C407.879 334.449 409.62 333.869 411.361 333.288C412.522 332.901 413.683 332.321 414.844 331.547C416.198 330.773 417.939 330.386 419.486 329.806C420.647 329.226 421.808 328.452 422.775 327.678C423.549 327.098 424.129 326.13 424.903 325.357C426.644 323.229 426.064 320.133 426.838 317.812C427.611 315.684 429.352 313.943 429.739 311.622C430.126 309.494 428.966 307.559 427.611 306.011C426.064 304.27 423.742 303.303 421.421 303.303C419.68 303.303 417.939 303.496 416.198 303.303C414.843 303.303 413.876 302.723 412.716 302.142C411.361 301.562 410.394 300.788 409.04 300.014C407.879 299.434 407.105 298.467 405.945 298.08C404.784 297.499 404.01 296.919 402.849 296.919C401.882 296.532 401.302 297.113 400.528 296.726Z" fill="#635EB0"/>
<path fill-rule="evenodd" clip-rule="evenodd" d="M362.031 310.268C361.644 308.527 361.257 306.786 359.129 306.592C358.162 306.399 356.421 306.399 355.453 306.592C353.712 306.979 352.551 308.14 351.004 309.107C349.456 310.074 346.167 311.042 346.554 313.363C346.748 315.491 349.069 316.458 350.617 317.619C352.358 318.973 353.325 320.521 355.647 320.134C357.968 319.747 359.709 318.006 360.676 316.072C361.45 314.717 362.224 313.557 362.611 312.202C362.804 311.235 362.804 309.107 361.45 308.914L362.031 310.268Z" fill="#635EB0"/>
<path fill-rule="evenodd" clip-rule="evenodd" d="M390.469 383.586C390.082 382.232 389.888 380.878 388.341 380.684C387.567 380.491 386.406 380.684 385.439 380.684C384.085 380.878 383.117 381.845 381.957 382.619C380.796 383.392 378.281 384.166 378.474 385.907C378.668 387.455 380.409 388.229 381.57 389.196C382.924 390.163 383.698 391.324 385.439 391.131C387.373 390.937 388.534 389.39 389.308 388.035C389.888 387.068 390.469 386.101 390.855 385.134C391.049 384.36 391.049 382.812 389.888 382.619L390.469 383.586Z" fill="#635EB0"/>
<path fill-rule="evenodd" clip-rule="evenodd" d="M314.635 390.357C314.441 389.196 314.054 388.035 312.7 387.842C311.926 387.648 310.959 387.842 310.185 387.842C309.024 388.035 308.251 388.809 307.283 389.583C306.316 390.163 303.995 390.937 304.188 392.485C304.382 393.839 305.929 394.613 306.896 395.387C308.057 396.16 308.638 397.321 310.185 397.128C311.733 396.934 312.893 395.58 313.667 394.419C314.054 393.645 314.635 392.678 315.021 391.904C315.215 391.324 315.215 389.776 314.248 389.776L314.635 390.357Z" fill="#635EB0"/>
<path fill-rule="evenodd" clip-rule="evenodd" d="M286.971 383.393C286.778 382.425 286.197 381.845 285.423 381.458C284.843 382.038 284.069 382.425 283.489 383.006C282.328 384.166 280.974 386.101 280.781 387.842C280.587 389.003 280.781 390.163 280.781 391.324C280.781 393.065 280.394 394.419 280.2 396.16C280.007 399.256 279.813 402.157 282.715 404.092C284.456 405.446 286.391 405.446 287.938 403.899C289.679 402.157 290.453 400.029 290.84 397.708C291.034 396.547 291.034 395.193 291.227 394.032C291.421 393.065 291.614 392.098 292.001 390.937C292.581 388.809 292.775 386.294 291.42 384.36C290.26 382.425 289.293 381.071 286.971 383.393Z" fill="#635EB0"/>
<path fill-rule="evenodd" clip-rule="evenodd" d="M456.242 304.851C454.307 305.238 452.373 305.818 450.438 306.399C450.438 308.333 449.471 309.881 450.245 311.815C451.212 314.33 453.34 316.071 454.114 318.393C455.662 323.229 451.986 327.291 451.212 331.741C450.245 338.125 459.337 337.738 463.206 338.125C465.915 338.512 468.816 338.705 471.138 340.059C473.846 341.607 476.361 342.961 479.65 343.542C482.552 344.122 485.84 342.961 488.549 341.414C491.45 339.672 493.772 336.577 494.739 333.482C495.513 331.547 494.933 328.839 494.159 326.905C493.191 324.196 491.063 322.455 489.129 320.521C487.581 318.973 486.614 317.232 485.26 315.684C483.519 313.75 481.778 311.815 480.037 309.881C477.135 306.785 474.426 303.497 470.557 301.369C467.849 299.821 465.334 299.434 462.239 299.821C459.337 300.402 456.822 301.562 456.242 304.851Z" fill="#635EB0"/>
</g>
<path opacity="0.9" d="M406.027 549.357C484.813 549.357 548.682 485.489 548.682 406.703C548.682 327.917 484.813 264.048 406.027 264.048C327.241 264.048 263.372 327.917 263.372 406.703C263.372 485.489 327.241 549.357 406.027 549.357Z" fill="url(#paint0_radial_148_16379)"/>
<defs>
<filter id="filter0_f_148_16379" x="0" y="0.675781" width="813" height="813" filterUnits="userSpaceOnUse" color-interpolation-filters="sRGB">
<feFlood flood-opacity="0" result="BackgroundImageFix"/>
<feBlend mode="normal" in="SourceGraphic" in2="BackgroundImageFix" result="shape"/>
<feGaussianBlur stdDeviation="110" result="effect1_foregroundBlur_148_16379"/>
</filter>
<radialGradient id="paint0_radial_148_16379" cx="0" cy="0" r="1" gradientUnits="userSpaceOnUse" gradientTransform="translate(406.063 406.703) scale(341.471)">
<stop stop-color="#B7E5FC" stop-opacity="0"/>
<stop offset="0.1492" stop-color="#B1E4FB" stop-opacity="0.1492"/>
<stop offset="0.3496" stop-color="#A0E0FA" stop-opacity="0.3496"/>
<stop offset="0.579" stop-color="#84DAF7" stop-opacity="0.579"/>
<stop offset="0.8282" stop-color="#5DD1F4" stop-opacity="0.8282"/>
<stop offset="1" stop-color="#3ECAF1"/>
</radialGradient>
</defs>
</svg>
