<svg xmlns="http://www.w3.org/2000/svg" viewBox="0 0 38.41 17.99"><defs><style>.cls-1,.cls-2{fill:#fff;}.cls-1{fill-rule:evenodd;}</style></defs><g id="Слой_2" data-name="Слой 2"><g id="Слой_1-2" data-name="Слой 1"><path class="cls-1" d="M.16,7.94l0,1.46,30.47-.17a15,15,0,0,0-1.51.85,16.94,16.94,0,0,0-6.09,7l1.3.74A15.42,15.42,0,0,1,30,11.39a14.83,14.83,0,0,1,6-2.21,15.89,15.89,0,0,0,2.28.16L38.2,8H38l0-.49a15.65,15.65,0,0,0-2.66.22,16.46,16.46,0,0,1-4.9-1.8A17.59,17.59,0,0,1,24.27.21l-1,.72A19,19,0,0,0,29.82,7.1c.43.24.87.46,1.32.67Z"/><path class="cls-2" d="M.21,9.4H.06v.15H.22Zm0-1.46V7.79H0v.15ZM30.68,9.23l.07.13-.08-.28Zm-1.51.85L29.09,10Zm-6.09,7L22.94,17l-.06.13.13.07Zm1.3.74-.07.13.14.08.06-.15ZM30,11.39l.08.13Zm6-2.21L36,9h0Zm2.28.16v.15h.15V9.33ZM38.2,8h.15V7.87H38.2ZM38,8H37.8v.14H38Zm0-.49h.15V7.37h-.15Zm-2.66.22,0,.15h0Zm-4.9-1.8-.07.13ZM24.27.21,24.4.13,24.31,0l-.12.09Zm-1,.72L23.16.81l-.11.08.08.12ZM29.82,7.1,29.89,7Zm1.32.67v.15l.06-.29ZM.36,9.4l0-1.46H0l0,1.46Zm30.31-.32L.21,9.25v.3l30.46-.17Zm-1.41,1.13a16.84,16.84,0,0,1,1.49-.85l-.14-.27a17.45,17.45,0,0,0-1.52.86Zm-6.05,6.9a16.75,16.75,0,0,1,6.05-6.9L29.09,10a17.11,17.11,0,0,0-6.15,7Zm1.24.54-1.3-.74-.14.26,1.3.74Zm5.43-6.38a15.68,15.68,0,0,0-5.64,6.44l.27.13a15.45,15.45,0,0,1,5.54-6.32ZM36,9a15,15,0,0,0-6.08,2.24l.17.25a14.73,14.73,0,0,1,6-2.19Zm2.29.16A15.48,15.48,0,0,1,36,9l0,.3a17.51,17.51,0,0,0,2.29.16ZM38.05,8l.06,1.32h.3L38.35,8Zm-.1.14h.26v-.3H38Zm-.17-.64,0,.5h.3l0-.49Zm-2.48.37a15.31,15.31,0,0,1,2.63-.22v-.3a16,16,0,0,0-2.68.22Zm-5-1.82a16.43,16.43,0,0,0,4.95,1.82l0-.3a16.23,16.23,0,0,1-4.85-1.78ZM24.15.29A17.7,17.7,0,0,0,30.3,6.07l.14-.26a17.36,17.36,0,0,1-6-5.68Zm-.81.76,1-.71L24.19.09l-1,.72ZM29.89,7A18.94,18.94,0,0,1,23.38.85L23.13,1a19.11,19.11,0,0,0,6.62,6.22Zm1.31.66c-.44-.2-.88-.42-1.31-.66l-.14.26c.44.24.88.47,1.33.67Zm-31,.46,31-.17v-.3l-31,.17Z"/></g></g></svg>