<svg width="824" height="674" viewBox="0 0 824 674" fill="none" xmlns="http://www.w3.org/2000/svg">
<path d="M536.541 555.03C493.417 578.418 444.325 588.492 395.475 583.979C346.625 579.467 300.21 560.569 262.099 529.678C223.989 498.786 195.895 457.286 181.37 410.428C166.845 363.569 166.542 313.455 180.498 266.424C194.454 219.393 222.043 177.557 259.777 146.205C297.51 114.854 343.693 95.396 392.485 90.2918C441.277 85.1876 490.487 94.6666 533.891 117.53C577.296 140.393 612.946 175.614 636.334 218.739C667.619 276.583 674.683 344.474 655.974 407.519C637.266 470.564 594.314 523.614 536.541 555.03Z" fill="url(#paint0_linear_75_1205)"/>
<path d="M388.148 252.402C380.26 256.681 371.279 258.524 362.343 257.698C353.407 256.873 344.917 253.416 337.945 247.765C330.974 242.114 325.835 234.522 323.178 225.951C320.521 217.379 320.465 208.212 323.018 199.609C325.571 191.005 330.618 183.352 337.52 177.617C344.423 171.882 352.871 168.323 361.796 167.389C370.722 166.456 379.724 168.19 387.663 172.372C395.603 176.554 402.125 182.997 406.403 190.886C412.126 201.467 413.418 213.886 409.996 225.419C406.574 236.952 398.717 246.656 388.148 252.402ZM347.77 177.949C340.934 181.657 335.35 187.309 331.725 194.19C328.1 201.071 326.598 208.873 327.407 216.608C328.216 224.343 331.301 231.665 336.271 237.647C341.241 243.629 347.874 248.003 355.33 250.216C362.786 252.428 370.731 252.38 378.16 250.078C385.589 247.775 392.168 243.321 397.065 237.279C401.963 231.237 404.959 223.879 405.674 216.134C406.39 208.39 404.793 200.607 401.085 193.77C396.113 184.602 387.703 177.785 377.704 174.818C367.706 171.851 356.938 172.977 347.77 177.949Z" fill="url(#paint1_linear_75_1205)" fill-opacity="0.6"/>
<path d="M293.025 472.286C287.24 475.423 280.655 476.774 274.102 476.169C267.549 475.564 261.322 473.029 256.21 468.885C251.098 464.741 247.329 459.174 245.38 452.888C243.432 446.602 243.391 439.879 245.263 433.57C247.135 427.261 250.837 421.649 255.898 417.443C260.96 413.238 267.155 410.627 273.701 409.943C280.246 409.258 286.847 410.529 292.67 413.597C298.492 416.664 303.275 421.388 306.412 427.173C310.609 434.933 311.556 444.04 309.047 452.498C306.537 460.955 300.775 468.071 293.025 472.286ZM264.184 419.105C259.451 421.672 255.585 425.584 253.076 430.348C250.566 435.112 249.526 440.513 250.086 445.869C250.646 451.224 252.782 456.293 256.223 460.434C259.664 464.576 264.256 467.604 269.418 469.135C274.58 470.667 280.08 470.634 285.223 469.04C290.366 467.445 294.921 464.362 298.311 460.179C301.702 455.996 303.776 450.902 304.271 445.54C304.767 440.179 303.661 434.791 301.094 430.058C297.652 423.711 291.829 418.991 284.907 416.937C277.985 414.883 270.531 415.663 264.184 419.105Z" fill="url(#paint2_linear_75_1205)" fill-opacity="0.3"/>
<path d="M568.471 486.308C562.686 489.445 556.1 490.796 549.547 490.191C542.994 489.586 536.768 487.051 531.655 482.907C526.543 478.763 522.774 473.196 520.826 466.91C518.877 460.624 518.836 453.901 520.709 447.592C522.581 441.283 526.282 435.671 531.344 431.465C536.405 427.26 542.601 424.649 549.146 423.965C555.691 423.28 562.293 424.551 568.115 427.618C573.938 430.686 578.72 435.41 581.857 441.195C586.054 448.955 587.002 458.062 584.492 466.52C581.982 474.977 576.221 482.093 568.471 486.308ZM539.629 433.127C534.896 435.694 531.03 439.606 528.521 444.37C526.012 449.134 524.971 454.535 525.531 459.891C526.092 465.246 528.227 470.315 531.668 474.456C535.109 478.598 539.701 481.626 544.863 483.157C550.025 484.689 555.525 484.656 560.668 483.062C565.811 481.467 570.366 478.384 573.757 474.201C577.147 470.018 579.221 464.924 579.717 459.562C580.212 454.201 579.106 448.813 576.539 444.08C573.091 437.739 567.269 433.024 560.349 430.971C553.429 428.918 545.978 429.693 539.629 433.127Z" fill="url(#paint3_linear_75_1205)"/>
<path d="M427.115 574.932C293.304 581.641 179.373 478.268 172.643 344.042C165.913 209.816 268.933 95.5663 402.744 88.8573C536.555 82.1483 650.486 185.521 657.216 319.747C663.946 453.973 560.926 568.223 427.115 574.932Z" fill="url(#paint4_radial_75_1205)"/>
<path opacity="0.1" d="M548.031 157.927C550.216 158.538 552.222 159.157 554.237 159.957C560.818 162.328 563.794 171.543 557.939 176.519C555.352 178.629 551.959 178.979 548.781 180.039C545.602 181.099 542.308 183.425 542.479 186.838C542.623 189.712 545.05 191.571 547.298 193.439C555.341 199.879 562.238 208.537 563.288 218.749C564.339 228.961 557.555 240.466 547.375 241.517C543.982 241.867 539.979 240.807 538.214 237.834C535.491 233.649 537.692 227.416 534.449 223.617C531.789 220.689 527.133 220.922 523.436 222.368C519.738 223.814 516.444 226.14 512.522 226.697C506.64 227.532 501.07 223.85 496.905 219.556C495.391 218.012 493.86 216.108 493.572 213.961C492.765 208.599 499.068 205.402 504.18 203.525C509.113 201.657 515.173 197.211 512.951 192.28C511.733 189.46 508.625 188.355 506.046 187.044C503.467 185.733 500.807 182.805 501.746 180.056C502.212 178.592 503.599 177.622 505.005 177.012C512.033 173.958 520.459 177.317 527.496 174.443C528.203 174.228 528.901 173.833 529.233 173.276C530.074 172.153 529.823 170.725 529.223 169.495C527.449 166.342 523.276 165.471 520.974 162.525C520.589 162.004 520.204 161.483 520.347 160.756C520.32 160.217 520.66 159.84 521 159.462C524.043 155.708 529.406 155.259 534.268 155.556C538.772 155.87 543.482 156.714 548.031 157.927Z" fill="url(#paint5_linear_75_1205)"/>
<path opacity="0.1" d="M508.828 242.549C502.149 241.804 496.193 237.6 491.285 232.804C486.377 228.008 482.328 222.448 477.25 217.841C465.983 207.961 449.973 203.721 435.424 207.152C430.455 208.302 425.011 210.735 423.464 215.675C420.351 225.195 433.506 233.36 432.569 243.311C432.239 247.47 429.187 251.044 425.713 253.379C422.24 255.714 417.987 256.828 414.102 258.103C393.769 264.345 373.724 272.733 356.975 285.999C351.622 290.229 346.305 295.177 343.567 301.437C340.65 307.706 340.688 315.628 344.907 320.999C348.355 325.328 353.845 327.394 359.11 328.57C366.918 330.34 375.201 330.825 383.008 328.993C390.815 327.161 398.138 322.832 403.016 316.285C407.724 309.926 409.476 301.914 412.895 294.9C415.973 288.263 420.69 282.084 427.171 278.877C433.653 275.671 442.275 275.779 447.73 280.728C452.423 284.815 454.198 291.569 458.55 296.033C462.518 299.975 468.706 301.646 474.194 300.11C479.503 298.584 483.916 293.5 484.353 287.896C484.808 282.651 482.407 277.729 478.977 273.759C475.725 269.78 471.435 266.574 467.674 263.161C463.151 258.886 458.878 252.437 461.643 246.716C464.247 241.363 471.562 240.456 477.373 241.785C483.91 243.258 489.812 246.384 494.532 251.009C499.055 255.285 502.199 260.709 506.552 265.173C510.905 269.637 517.003 273.113 523.047 271.91C529.806 270.67 534.666 263.764 535.757 256.866C536.847 249.968 535.063 243.035 533.288 236.281C532.831 234.323 531.37 230.254 528.559 231.475C527.154 232.086 525.91 235.93 524.711 237.071C520.423 241.067 514.604 243.16 508.828 242.549Z" fill="url(#paint6_linear_75_1205)"/>
<path opacity="0.1" d="M337.39 335.782C344.96 347.108 357.229 355.497 370.767 356.979C384.306 358.461 398.702 351.977 405.467 340.112C407.114 337.149 408.376 333.664 410.577 331.032C416.485 323.533 427.757 322.788 437.025 325.024C453.564 329.057 468.35 341.101 473.468 357.232C478.585 373.363 472.753 393.104 458.304 402.112C446.12 409.746 430.46 408.91 416.303 405.839C402.146 402.767 388.427 397.692 374.047 397.332C365.425 397.224 355.487 399.524 351.388 407.292C348.766 412.286 349.242 418.205 349.522 423.773C350.035 434.012 350.011 444.278 347.453 454.13C344.895 463.983 339.257 473.27 330.744 478.919C322.051 484.577 311.164 485.843 300.848 484.199C290.712 482.547 280.978 478.172 271.933 473.224C252.375 462.679 233.505 447.958 225.817 427.094C223.944 421.966 223.091 415.706 226.663 411.745C228.704 409.482 231.882 408.422 234.908 407.91C247.523 405.297 260.543 407.165 273.454 406.878C278.468 406.627 283.652 406.187 288.209 403.977C292.766 401.768 296.507 397.618 297.339 392.715C298.277 386.365 293.834 380.105 288.461 376.772C282.908 373.449 276.56 372.147 270.202 370.665C249.84 365.563 229.762 355.405 217.24 338.385C213.971 334.047 211.202 328.963 210.923 323.395C210.644 317.826 213.4 311.925 218.512 310.048C223.973 307.974 230.036 310.731 235.033 313.722C248.914 322.03 262.204 332.889 278.313 335.503C282.298 336.203 286.604 336.167 289.702 333.491C292.79 330.635 293.272 325.929 293.602 321.77C294.173 315.259 295.094 308.55 298.038 302.82C302.951 293.389 319.772 285.163 325.623 298.015C327.639 302.416 327.059 308.748 328.018 313.562C329.668 321.403 332.92 328.983 337.39 335.782Z" fill="url(#paint7_linear_75_1205)"/>
<path opacity="0.1" d="M410.528 222.626C407.752 220.965 403.087 221.019 402.703 224.099C402.587 225.366 403.187 226.596 403.966 227.818C406.546 232.73 406.7 239.386 402.753 243.005C400.524 245.098 397.507 245.789 394.498 246.66C379.439 250.657 364.828 256.432 351.015 263.787C347.514 265.583 343.719 268.655 344.624 272.391C345.297 275.059 348.601 276.514 351.457 276.191C354.313 275.867 356.748 274.305 359.183 272.742C370.848 265.494 383.489 259.818 396.749 255.732C404 253.567 414.1 250.9 417.5 243.526C420.739 236.521 417.011 226.623 410.528 222.626Z" fill="url(#paint8_linear_75_1205)"/>
<path opacity="0.1" d="M281.294 301.858C280.408 305.685 280.445 310.005 278.1 313.364C274.404 318.411 266.498 318.267 260.963 315.303C255.429 312.339 251.577 307.13 246.705 303.052C241.072 298.113 234.078 294.681 226.816 293.065C219.921 291.61 211.863 292.014 207.477 297.636C204.944 300.824 203.755 305.746 199.69 307.03C196.682 307.901 193.162 305.737 191.944 302.917C190.725 300.097 191.082 296.477 192.192 293.54C194.25 288.035 198.51 283.499 203.783 281.254C211.33 277.814 220.195 279.17 227.717 282.395C235.239 285.619 241.956 290.685 248.825 295.203C252.909 297.879 257.53 300.529 262.32 299.388C268.703 297.808 271.907 290.084 277.887 287.623C281.226 286.195 291.685 287.111 289.099 292.823C288.445 294.117 285.598 294.62 284.578 295.751C282.85 297.098 281.714 299.496 281.294 301.858Z" fill="url(#paint9_linear_75_1205)"/>
<path opacity="0.1" d="M257.222 380.32C260.213 382.691 261.88 387.289 259.696 390.28C258.013 392.525 254.808 393.046 251.952 393.369C243.741 394.321 235.54 395.453 227.33 396.405C222.334 397.015 216.469 398.21 214.555 402.988C213.588 405.197 213.884 407.523 213.285 409.895C212.865 412.257 211.191 414.682 208.854 414.619C207.601 414.682 206.302 413.846 205.362 412.993C199.003 407.909 195.205 400.176 193.188 392.174C191.35 384.162 191.294 375.882 191.247 367.78C191.291 365.077 191.334 362.374 192.283 359.805C193.24 357.416 195.46 355.144 198.146 355.009C202.981 354.767 205.606 360.578 207.273 365.176C209.128 369.945 212.245 374.831 217.179 376.565C224.307 379.089 227.483 370.826 234.199 372.29C240.745 373.942 251.813 376.269 257.222 380.32Z" fill="url(#paint10_linear_75_1205)"/>
<path opacity="0.1" d="M585.996 224.094C587.922 230.3 589.151 236.901 588.043 243.44C586.925 249.799 583.292 256.103 577.706 259.265C572.988 261.842 567.078 262.139 563.319 265.929C559.38 269.728 558.782 275.7 559.41 281.071C559.86 286.451 561.383 291.777 560.749 297.031C560.133 302.645 556.983 307.845 552.292 310.961C547.601 314.078 541.53 314.742 536.22 312.668C528.519 309.452 524.129 300.668 516.428 297.453C509.64 294.552 500.974 297.147 497.161 303.461C492.024 312.002 496.325 322.591 499.847 331.959C505.42 346.446 509.114 362.828 503.916 377.315C502.189 382.264 499.397 387.446 501.252 392.215C503.528 398.224 511.497 399.625 517.953 399.482C533.013 399.087 548.762 394.515 559.163 383.549C573.314 368.613 574.66 345.316 570.06 325.197C568.68 319.144 566.762 313.117 567.351 306.965C567.949 300.992 570.535 295.28 573.318 289.918C575.77 285.113 578.383 279.94 582.716 276.842C587.389 273.366 593.629 272.513 598.884 269.908C606.772 266.091 612.482 258.242 613.661 249.539C614.331 245.003 613.739 240.351 612.968 235.707C611.685 228.028 609.686 220.385 607.159 212.948C604.65 205.871 601.595 198.641 596.65 193.126C591.697 187.432 584.497 183.471 576.967 183.668C573.565 183.839 570.028 184.917 568.194 187.71C564.694 193.108 573.068 198.99 575.773 202.817C580.037 209.086 583.638 216.468 585.996 224.094Z" fill="url(#paint11_linear_75_1205)"/>
<path opacity="0.1" d="M472.513 155.59C470.75 156.219 469.183 157.198 468.002 158.698C465.487 162.246 467.36 167.374 470.056 171.02C472.752 174.667 476.146 177.918 476.909 182.382C477.761 188.642 472.301 194.318 466.275 195.881C460.259 197.623 453.731 196.33 447.589 195.557C436.566 194.129 425.428 193.967 414.343 194.883C406.482 195.637 397.43 197.712 393.842 204.915C391.712 208.983 391.964 214.013 390.569 218.405C386.981 229.21 374.286 233.808 362.879 235.46C351.643 236.924 339.269 237.184 330.299 244.477C321.509 251.761 318.038 264.9 308.083 270.442C301.62 274.007 293.167 273.711 287.033 269.516C281.265 265.484 277.315 258.298 270.447 257.382C263.4 256.475 257.779 262.519 251.87 266.417C241.101 273.62 225.674 273.853 215.741 265.527C205.809 257.201 203.709 240.379 212.571 230.931C215.641 227.716 219.651 225.354 223.877 223.701C239.204 217.89 257.274 220.226 270.501 229.827C279.26 236.231 286.381 245.778 296.93 248.491C302.562 249.829 308.632 249.165 313.52 246.399C320.861 242.429 325.497 234.633 332.641 230.313C343.097 224.027 356.332 226.604 368.509 225.994C371.732 225.832 375.116 225.302 377.712 223.371C379.789 221.827 380.926 219.429 381.704 217.049C385.595 205.148 381.069 190.068 389.6 181.177C397.289 173.408 410.326 175.636 420.257 180.36C430.188 185.085 439.87 191.982 450.784 191.255C453.828 191.103 457.365 190.025 458.653 187.079C460.255 183.217 457.183 179.229 454.343 176.31C450.94 172.879 447.527 169.269 444.124 165.838C440.335 161.886 436.162 157.413 435.882 151.845C435.621 146.635 438.789 141.794 442.952 138.884C447.106 135.795 452.245 134.457 457.205 133.128C467.662 130.442 491.46 125.287 500.363 134.565C505.289 139.721 502.614 147.238 496.83 150.049C489.31 154.028 480.258 152.501 472.513 155.59Z" fill="url(#paint12_linear_75_1205)"/>
<path opacity="0.1" d="M356.24 95.8709C388.328 87.7792 420.409 86.711 451.158 91.292C451.409 92.7201 451.123 94.1751 450.649 95.4594C448.752 100.597 443.909 104.261 438.797 106.138C433.694 108.195 428.161 108.832 422.834 110C415.375 111.634 408.133 113.978 401.284 117.023C395.491 119.654 388.93 124.845 390.669 130.881C391.547 134.078 394.341 136.099 396.956 138.129C404.972 144.03 413.157 149.742 421.172 155.643C424.146 157.655 427.334 160.377 427.514 163.969C427.793 169.538 420.756 172.412 415.187 172.331C400.458 172.169 386.371 163.331 371.759 165.504C367.838 166.061 363.791 167.704 362.18 171.387C360.409 175.437 362.434 180.018 364.064 183.898C366.116 189.017 367.631 194.164 368.626 199.696C370.887 212.549 362.569 214.947 352.477 210.59C342.573 206.405 331.927 208.919 324.014 215.799C318.16 220.775 311.186 224.906 303.316 225.481C295.446 226.055 288.917 221.16 283.463 216.212C276.316 209.727 269.232 204.5 259.329 203.916C249.784 203.314 239.129 205.649 230.75 210.391C226.032 212.968 222.111 217.127 216.999 219.004C211.717 221.069 205.915 219.92 201.106 217.099C232.284 158.631 287.095 113.204 356.24 95.8709Z" fill="url(#paint13_linear_75_1205)"/>
<path opacity="0.1" d="M436.673 131.816C450.951 122.997 469.056 122.449 485.228 126.32C492.499 128.117 499.994 130.802 507.452 129.168C509.054 128.907 510.639 128.288 511.462 126.806C512.286 125.324 511.828 123.366 510.852 121.794C508.881 118.291 505.335 115.588 501.672 114.151C497.831 112.723 493.676 112.211 489.727 112.229C477.147 111.959 464.917 115.093 452.633 117.15C443.724 118.497 434.789 119.305 425.817 119.395C420.973 119.457 415.941 119.35 411.545 121.191C407.149 123.032 403.229 127.19 403.472 132.04C403.688 136.351 407.271 139.773 410.817 142.477C414.364 145.18 418.08 147.695 422.128 149.653C425.074 151.126 429.113 152.904 427.956 147.74C427.248 144.354 426.29 143.142 428.276 139.8C430.084 136.468 433.36 133.783 436.673 131.816Z" fill="url(#paint14_linear_75_1205)"/>
<path opacity="0.5" d="M427.115 575.222C293.304 581.931 179.373 478.558 172.643 344.333C165.913 210.107 268.933 95.8567 402.744 89.1477C536.555 82.4387 650.486 185.811 657.216 320.037C663.946 454.263 560.926 568.513 427.115 575.222Z" fill="url(#paint15_radial_75_1205)"/>
<path opacity="0.2" d="M534.84 120.411C673.538 72.399 780.157 61.2908 798.219 99.2825C823.287 151.689 669.668 278.064 454.932 381.392C240.196 484.719 45.6862 525.985 20.6182 473.578C3.78381 438.586 66.7988 370.598 174.492 298.569" stroke="url(#paint16_linear_75_1205)" stroke-width="0.5" stroke-miterlimit="10"/>
<path opacity="0.4" d="M538.707 122.378C659.295 81.9369 750.406 73.0469 766.058 105.937C788.707 153.063 645.694 269.001 446.733 364.695C247.771 460.388 68.2501 499.823 45.5921 452.517C31.3469 422.618 83.0564 365.461 173.284 303.132" stroke="url(#paint17_linear_75_1205)" stroke-width="0.5" stroke-miterlimit="10"/>
<path opacity="0.75" d="M542.577 124.345C642.751 92.1306 716.556 85.3689 729.385 112.098C749.033 153.071 618.159 256.876 437.075 343.93C255.992 430.984 93.4376 468.667 73.79 427.693C62.367 403.955 101.93 358.752 172.811 308.018" stroke="url(#paint18_linear_75_1205)" stroke-width="0.5" stroke-miterlimit="10"/>
<path d="M546.455 126.492C633.2 98.5522 695.687 91.6376 705.909 112.915C722.35 147.206 597.463 241.527 427.078 323.542C256.693 405.557 105.322 444.3 88.8817 410.009C79.8687 391.373 112.871 354.962 171.954 312.383" stroke="url(#paint19_linear_75_1205)" stroke-width="0.5" stroke-miterlimit="10"/>
<defs>
<linearGradient id="paint0_linear_75_1205" x1="178.081" y1="178.197" x2="559.239" y2="514.6" gradientUnits="userSpaceOnUse">
<stop stop-color="#6B32FF"/>
<stop offset="0.830087" stop-color="#2F1057"/>
</linearGradient>
<linearGradient id="paint1_linear_75_1205" x1="344.886" y1="172.631" x2="380.268" y2="238.056" gradientUnits="userSpaceOnUse">
<stop stop-color="#2C0E84"/>
<stop offset="1" stop-color="#4B03CE"/>
</linearGradient>
<linearGradient id="paint2_linear_75_1205" x1="261.3" y1="413.787" x2="293.025" y2="472.286" gradientUnits="userSpaceOnUse">
<stop stop-color="#43B6E4"/>
<stop offset="1" stop-color="#360D83"/>
</linearGradient>
<linearGradient id="paint3_linear_75_1205" x1="536.745" y1="427.808" x2="568.471" y2="486.308" gradientUnits="userSpaceOnUse">
<stop stop-color="#2C0E84"/>
<stop offset="1" stop-color="#1E0748"/>
</linearGradient>
<radialGradient id="paint4_radial_75_1205" cx="0" cy="0" r="1" gradientUnits="userSpaceOnUse" gradientTransform="translate(259.852 136.454) rotate(165.963) scale(445.343 446.619)">
<stop stop-color="#FC49EF"/>
<stop offset="0.1014" stop-color="#F246E8" stop-opacity="0.8986"/>
<stop offset="0.2729" stop-color="#D83DD6" stop-opacity="0.7271"/>
<stop offset="0.4936" stop-color="#AD30B8" stop-opacity="0.5064"/>
<stop offset="0.7517" stop-color="#711D8E" stop-opacity="0.2483"/>
<stop offset="1" stop-color="#320962" stop-opacity="0"/>
</radialGradient>
<linearGradient id="paint5_linear_75_1205" x1="562.506" y1="197.214" x2="492.943" y2="200.702" gradientUnits="userSpaceOnUse">
<stop stop-color="#FC49EF"/>
<stop offset="0.1005" stop-color="#F54FEF"/>
<stop offset="0.2431" stop-color="#E35EEF"/>
<stop offset="0.4109" stop-color="#C478EF"/>
<stop offset="0.5979" stop-color="#9A9DEF"/>
<stop offset="0.799" stop-color="#64CBEF"/>
<stop offset="1" stop-color="#26FFEF"/>
</linearGradient>
<linearGradient id="paint6_linear_75_1205" x1="536.414" y1="261.877" x2="339.369" y2="271.757" gradientUnits="userSpaceOnUse">
<stop stop-color="#FC49EF"/>
<stop offset="0.1005" stop-color="#F54FEF"/>
<stop offset="0.2431" stop-color="#E35EEF"/>
<stop offset="0.4109" stop-color="#C478EF"/>
<stop offset="0.5979" stop-color="#9A9DEF"/>
<stop offset="0.799" stop-color="#64CBEF"/>
<stop offset="1" stop-color="#26FFEF"/>
</linearGradient>
<linearGradient id="paint7_linear_75_1205" x1="475.859" y1="379.997" x2="214.45" y2="393.103" gradientUnits="userSpaceOnUse">
<stop stop-color="#FC49EF"/>
<stop offset="0.1005" stop-color="#F54FEF"/>
<stop offset="0.2431" stop-color="#E35EEF"/>
<stop offset="0.4109" stop-color="#C478EF"/>
<stop offset="0.5979" stop-color="#9A9DEF"/>
<stop offset="0.799" stop-color="#64CBEF"/>
<stop offset="1" stop-color="#26FFEF"/>
</linearGradient>
<linearGradient id="paint8_linear_75_1205" x1="419.168" y1="246.817" x2="343.48" y2="250.612" gradientUnits="userSpaceOnUse">
<stop stop-color="#FC49EF"/>
<stop offset="0.1005" stop-color="#F54FEF"/>
<stop offset="0.2431" stop-color="#E35EEF"/>
<stop offset="0.4109" stop-color="#C478EF"/>
<stop offset="0.5979" stop-color="#9A9DEF"/>
<stop offset="0.799" stop-color="#64CBEF"/>
<stop offset="1" stop-color="#26FFEF"/>
</linearGradient>
<linearGradient id="paint9_linear_75_1205" x1="289.775" y1="295.694" x2="191.343" y2="300.629" gradientUnits="userSpaceOnUse">
<stop stop-color="#FC49EF"/>
<stop offset="0.1005" stop-color="#F54FEF"/>
<stop offset="0.2431" stop-color="#E35EEF"/>
<stop offset="0.4109" stop-color="#C478EF"/>
<stop offset="0.5979" stop-color="#9A9DEF"/>
<stop offset="0.799" stop-color="#64CBEF"/>
<stop offset="1" stop-color="#26FFEF"/>
</linearGradient>
<linearGradient id="paint10_linear_75_1205" x1="260.387" y1="381.992" x2="191.689" y2="385.436" gradientUnits="userSpaceOnUse">
<stop stop-color="#FC49EF"/>
<stop offset="0.1005" stop-color="#F54FEF"/>
<stop offset="0.2431" stop-color="#E35EEF"/>
<stop offset="0.4109" stop-color="#C478EF"/>
<stop offset="0.5979" stop-color="#9A9DEF"/>
<stop offset="0.799" stop-color="#64CBEF"/>
<stop offset="1" stop-color="#26FFEF"/>
</linearGradient>
<linearGradient id="paint11_linear_75_1205" x1="615.966" y1="287.854" x2="493.795" y2="293.979" gradientUnits="userSpaceOnUse">
<stop stop-color="#FC49EF"/>
<stop offset="0.1005" stop-color="#F54FEF"/>
<stop offset="0.2431" stop-color="#E35EEF"/>
<stop offset="0.4109" stop-color="#C478EF"/>
<stop offset="0.5979" stop-color="#9A9DEF"/>
<stop offset="0.799" stop-color="#64CBEF"/>
<stop offset="1" stop-color="#26FFEF"/>
</linearGradient>
<linearGradient id="paint12_linear_75_1205" x1="505.547" y1="195.469" x2="204.946" y2="210.541" gradientUnits="userSpaceOnUse">
<stop stop-color="#FC49EF"/>
<stop offset="0.1005" stop-color="#F54FEF"/>
<stop offset="0.2431" stop-color="#E35EEF"/>
<stop offset="0.4109" stop-color="#C478EF"/>
<stop offset="0.5979" stop-color="#9A9DEF"/>
<stop offset="0.799" stop-color="#64CBEF"/>
<stop offset="1" stop-color="#26FFEF"/>
</linearGradient>
<linearGradient id="paint13_linear_75_1205" x1="454.356" y1="152.159" x2="198.489" y2="164.988" gradientUnits="userSpaceOnUse">
<stop stop-color="#FC49EF"/>
<stop offset="0.1005" stop-color="#F54FEF"/>
<stop offset="0.2431" stop-color="#E35EEF"/>
<stop offset="0.4109" stop-color="#C478EF"/>
<stop offset="0.5979" stop-color="#9A9DEF"/>
<stop offset="0.799" stop-color="#64CBEF"/>
<stop offset="1" stop-color="#26FFEF"/>
</linearGradient>
<linearGradient id="paint14_linear_75_1205" x1="512.012" y1="128.855" x2="403.386" y2="134.302" gradientUnits="userSpaceOnUse">
<stop stop-color="#FC49EF"/>
<stop offset="0.1005" stop-color="#F54FEF"/>
<stop offset="0.2431" stop-color="#E35EEF"/>
<stop offset="0.4109" stop-color="#C478EF"/>
<stop offset="0.5979" stop-color="#9A9DEF"/>
<stop offset="0.799" stop-color="#64CBEF"/>
<stop offset="1" stop-color="#26FFEF"/>
</linearGradient>
<radialGradient id="paint15_radial_75_1205" cx="0" cy="0" r="1" gradientUnits="userSpaceOnUse" gradientTransform="translate(330.748 117.226) rotate(160.929) scale(242.976 106.551)">
<stop stop-color="white"/>
<stop offset="0.181" stop-color="#FED5FB" stop-opacity="0.819"/>
<stop offset="0.463" stop-color="#FD99F6" stop-opacity="0.537"/>
<stop offset="0.7035" stop-color="#FD6EF2" stop-opacity="0.2965"/>
<stop offset="0.8901" stop-color="#FC53F0" stop-opacity="0.1099"/>
<stop offset="1" stop-color="#FC49EF" stop-opacity="0"/>
</radialGradient>
<linearGradient id="paint16_linear_75_1205" x1="800.737" y1="103.606" x2="21.4866" y2="476.654" gradientUnits="userSpaceOnUse">
<stop stop-color="#26FFEF"/>
<stop offset="0.3425" stop-color="#74BDEF"/>
<stop offset="0.7959" stop-color="#D56AEF"/>
<stop offset="1" stop-color="#FC49EF"/>
</linearGradient>
<linearGradient id="paint17_linear_75_1205" x1="768.773" y1="110.597" x2="46.9658" y2="456.121" gradientUnits="userSpaceOnUse">
<stop stop-color="#26FFEF"/>
<stop offset="0.3425" stop-color="#74BDEF"/>
<stop offset="0.7959" stop-color="#D56AEF"/>
<stop offset="1" stop-color="#FC49EF"/>
</linearGradient>
<linearGradient id="paint18_linear_75_1205" x1="732.202" y1="117.424" x2="75.2121" y2="431.904" gradientUnits="userSpaceOnUse">
<stop stop-color="#26FFEF"/>
<stop offset="0.3425" stop-color="#74BDEF"/>
<stop offset="0.7959" stop-color="#D56AEF"/>
<stop offset="1" stop-color="#FC49EF"/>
</linearGradient>
<linearGradient id="paint19_linear_75_1205" x1="708.75" y1="118.092" x2="90.4271" y2="414.029" gradientUnits="userSpaceOnUse">
<stop stop-color="#26FFEF"/>
<stop offset="0.3425" stop-color="#74BDEF"/>
<stop offset="0.7959" stop-color="#D56AEF"/>
<stop offset="1" stop-color="#FC49EF"/>
</linearGradient>
</defs>
</svg>
