<svg width="973" height="975" viewBox="0 0 973 975" fill="none" xmlns="http://www.w3.org/2000/svg">
<path d="M354.615 701.788C309.792 677.164 273.689 640.511 250.871 596.464C228.054 552.417 219.546 502.953 226.425 454.329C233.304 405.705 255.26 360.104 289.517 323.292C323.774 286.481 368.793 260.112 418.881 247.52C468.969 234.929 521.876 236.68 570.912 252.553C619.949 268.425 662.912 297.707 694.369 336.694C725.826 375.681 744.363 422.622 747.637 471.583C750.911 520.543 738.775 569.323 712.763 611.754C677.826 668.594 620.498 709.996 553.355 726.875C486.213 743.753 414.739 734.731 354.615 701.788Z" fill="url(#paint0_linear_300_321)"/>
<path d="M485.836 403.698C477.636 399.194 471.032 392.489 466.858 384.431C462.684 376.374 461.128 367.326 462.386 358.431C463.645 349.537 467.661 341.195 473.927 334.461C480.194 327.727 488.429 322.904 497.591 320.6C506.754 318.297 516.432 318.617 525.402 321.521C534.372 324.424 542.231 329.781 547.986 336.913C553.74 344.044 557.131 352.631 557.73 361.587C558.329 370.543 556.109 379.467 551.35 387.228C544.96 397.626 534.473 405.2 522.191 408.287C509.908 411.375 496.834 409.725 485.836 403.698ZM530.744 330.442C523.638 326.539 515.469 324.717 507.269 325.209C499.07 325.7 491.208 328.482 484.679 333.203C478.15 337.924 473.246 344.372 470.587 351.731C467.929 359.09 467.636 367.03 469.745 374.547C471.853 382.064 476.269 388.82 482.434 393.961C488.6 399.102 496.237 402.397 504.38 403.43C512.523 404.462 520.807 403.185 528.184 399.761C535.561 396.337 541.699 390.919 545.823 384.192C551.353 375.171 552.871 364.441 550.043 354.361C547.215 344.281 540.273 335.677 530.744 330.442Z" fill="url(#paint1_linear_300_321)" fill-opacity="0.6"/>
<path d="M294.893 450.999C288.88 447.696 284.037 442.779 280.976 436.87C277.915 430.962 276.774 424.326 277.697 417.804C278.619 411.281 281.565 405.164 286.16 400.226C290.756 395.287 296.795 391.75 303.514 390.061C310.233 388.372 317.33 388.607 323.908 390.736C330.486 392.865 336.25 396.793 340.47 402.023C344.689 407.253 347.176 413.55 347.615 420.118C348.055 426.686 346.426 433.23 342.937 438.922C338.25 446.547 330.56 452.1 321.553 454.365C312.546 456.629 302.958 455.419 294.893 450.999ZM326.971 398.674C322.051 395.971 316.395 394.71 310.719 395.05C305.042 395.391 299.599 397.317 295.079 400.585C290.559 403.853 287.164 408.317 285.323 413.412C283.483 418.507 283.28 424.004 284.74 429.208C286.2 434.412 289.257 439.089 293.525 442.648C297.793 446.208 303.08 448.489 308.718 449.204C314.356 449.918 320.091 449.034 325.198 446.664C330.305 444.293 334.555 440.542 337.409 435.885C341.238 429.64 342.289 422.211 340.331 415.233C338.373 408.254 333.568 402.298 326.971 398.674Z" fill="url(#paint2_linear_300_321)" fill-opacity="0.3"/>
<path d="M433.85 693.411C427.837 690.108 422.994 685.191 419.933 679.282C416.872 673.373 415.731 666.738 416.654 660.215C417.576 653.693 420.522 647.575 425.117 642.637C429.713 637.699 435.752 634.162 442.471 632.473C449.19 630.784 456.287 631.019 462.865 633.148C469.443 635.277 475.207 639.205 479.427 644.435C483.646 649.665 486.133 655.962 486.572 662.53C487.012 669.098 485.383 675.641 481.894 681.333C477.207 688.958 469.517 694.512 460.51 696.776C451.503 699.041 441.915 697.83 433.85 693.411ZM465.928 641.086C461.008 638.383 455.352 637.122 449.676 637.462C443.999 637.802 438.556 639.728 434.036 642.997C429.516 646.265 426.121 650.729 424.28 655.824C422.44 660.918 422.237 666.416 423.697 671.62C425.157 676.824 428.214 681.501 432.482 685.06C436.75 688.62 442.038 690.901 447.675 691.615C453.313 692.33 459.048 691.446 464.155 689.076C469.262 686.705 473.512 682.954 476.367 678.297C480.186 672.05 481.232 664.624 479.275 657.648C477.318 650.672 472.518 644.716 465.928 641.086Z" fill="url(#paint3_linear_300_321)"/>
<path d="M487.808 737.87C343.099 737.87 225.789 625.822 225.789 487.603C225.789 349.384 343.099 237.335 487.808 237.335C632.517 237.335 749.827 349.384 749.827 487.603C749.827 625.822 632.517 737.87 487.808 737.87Z" fill="url(#paint4_radial_300_321)"/>
<path opacity="0.1" d="M723.553 471.918C724.648 474.009 725.378 476.101 726.472 478.192C729.392 484.815 723.918 493.529 715.525 492.483C711.875 492.135 709.321 489.346 706.036 487.603C703.117 485.86 698.738 484.815 696.183 487.255C693.994 489.346 693.994 492.483 694.359 495.272C694.724 505.728 692.899 517.231 685.235 524.899C677.937 532.568 663.705 535.356 655.676 528.036C652.757 525.596 650.932 521.762 652.027 518.277C653.487 513.397 660.055 510.957 660.785 505.728C661.15 501.546 657.866 498.409 653.852 496.317C650.202 494.574 645.823 493.529 642.539 490.74C637.795 486.558 636.7 479.935 637.065 473.661C637.065 471.221 637.43 469.129 639.254 467.387C642.904 463.204 650.202 465.992 655.311 468.432C660.42 471.221 668.084 472.615 670.638 467.735C672.098 464.947 670.638 461.81 669.909 458.673C669.179 455.535 669.543 451.701 672.463 450.656C673.923 449.958 675.747 450.656 677.207 451.004C684.506 454.49 688.155 463.204 695.454 466.689C696.183 467.038 696.913 467.387 697.643 467.387C699.103 467.387 700.197 465.992 700.562 464.598C702.022 461.112 699.468 457.278 700.198 453.444C700.198 452.747 700.563 452.05 700.927 451.701C701.292 451.353 702.022 451.353 702.387 451.353C707.496 451.353 711.875 455.187 714.795 459.021C718.444 463.552 721.363 467.735 723.553 471.918Z" fill="url(#paint5_linear_300_321)"/>
<path opacity="0.1" d="M627.211 499.454C622.832 493.877 622.102 486.209 622.467 479.237C622.832 472.266 624.657 465.295 624.657 458.324C624.657 442.987 616.628 427.65 603.491 418.588C599.112 415.45 592.908 413.011 587.799 415.102C577.946 419.285 580.5 434.97 572.107 440.896C568.457 443.335 563.349 443.684 558.969 442.29C554.59 441.244 550.576 438.804 546.927 436.364C527.221 424.862 506.055 415.102 483.429 410.919C476.131 409.525 468.467 408.828 461.533 410.919C454.6 413.011 448.031 418.239 446.571 425.21C445.477 430.787 447.666 436.364 450.586 441.244C454.6 448.564 460.074 455.187 467.372 460.066C474.306 464.946 483.064 467.735 491.822 467.038C500.216 466.341 507.879 462.158 516.273 460.066C523.936 457.975 532.33 457.278 539.628 460.066C546.927 462.855 552.766 469.478 552.766 477.146C552.766 483.769 548.751 489.346 548.022 495.968C547.657 501.894 550.576 507.82 555.685 510.608C560.794 513.745 568.093 513.745 572.837 510.259C577.216 507.122 579.77 501.894 580.5 496.317C581.23 491.088 580.865 485.512 581.23 480.283C581.595 474.009 583.784 466.341 590.353 464.598C596.557 462.855 602.396 468.083 605.68 473.312C609.33 479.237 610.789 486.209 610.424 492.831C610.059 499.105 608.235 505.38 607.505 511.654C607.14 517.928 608.6 525.248 613.709 529.082C619.548 533.613 628.671 532.567 634.875 528.733C641.078 524.899 645.458 518.625 649.837 512.699C650.932 510.957 653.121 507.122 650.202 505.728C648.742 505.031 644.728 506.774 642.903 506.425C636.699 507.122 630.495 504.334 627.211 499.454Z" fill="url(#paint6_linear_300_321)"/>
<path opacity="0.1" d="M429.418 430.09C425.769 443.684 427.594 459.021 435.987 470.175C444.38 481.677 460.072 488.3 474.305 485.512C477.954 484.814 481.603 483.42 485.252 483.072C495.47 482.723 504.229 490.74 508.973 499.454C517.366 514.791 518.461 534.659 508.973 549.647C499.485 564.635 479.414 573.349 461.897 568.469C446.935 564.287 436.352 551.738 428.688 538.493C421.025 525.596 415.551 511.305 405.333 499.803C399.129 492.831 390.371 486.906 381.248 488.997C375.409 490.391 370.665 494.574 366.651 498.757C358.987 506.077 350.594 513.048 340.741 517.928C330.888 522.459 319.575 524.55 308.992 521.762C298.044 518.973 289.286 511.305 283.447 502.242C277.608 493.18 274.324 482.723 271.769 472.266C266.295 449.958 264.836 425.21 276.148 405.342C279.068 400.462 283.447 395.582 288.921 395.582C292.205 395.582 295.49 397.325 298.044 399.417C308.992 407.434 317.02 418.936 326.508 428.696C330.158 432.53 334.172 436.016 339.281 438.107C344.39 440.198 350.229 440.198 354.973 437.41C360.812 433.924 362.637 426.256 361.542 419.633C360.447 413.011 356.798 407.434 353.513 401.508C342.93 382.337 337.091 359.681 341.835 338.418C342.93 332.841 345.12 327.264 349.499 323.43C353.878 319.596 360.447 317.504 365.556 320.293C371.03 323.081 373.219 329.704 374.314 335.63C377.599 352.012 378.328 369.789 387.452 384.08C389.641 387.565 392.926 391.051 397.305 391.4C401.684 392.097 406.063 388.96 409.712 386.52C415.186 382.337 421.39 378.503 428.324 377.109C439.636 374.669 457.883 381.988 452.044 395.234C449.854 399.765 444.38 403.599 441.096 407.782C435.257 414.405 431.243 422.073 429.418 430.09Z" fill="url(#paint7_linear_300_321)"/>
<path opacity="0.1" d="M572.836 409.525C572.106 406.388 568.821 402.554 565.902 404.297C564.807 404.994 564.077 406.388 563.712 407.782C561.523 413.011 556.414 417.891 550.575 417.194C547.291 416.845 544.371 415.102 541.817 413.359C527.949 404.297 512.622 396.977 496.93 391.4C492.916 390.006 487.807 388.96 485.253 392.446C483.428 394.886 484.888 398.371 487.077 400.463C489.267 402.554 492.551 403.251 495.471 403.948C509.703 408.131 523.205 414.056 535.978 421.376C542.911 425.559 552.4 431.485 560.793 429.045C569.186 426.953 574.295 417.194 572.836 409.525Z" fill="url(#paint8_linear_300_321)"/>
<path opacity="0.1" d="M416.647 363.515C412.998 365.606 409.349 368.395 404.97 368.743C398.401 369.44 392.562 363.166 391.102 356.892C389.643 350.618 391.103 343.995 390.738 337.721C390.738 330.053 388.548 322.384 384.534 315.413C380.885 309.139 374.681 303.214 367.017 303.562C362.638 303.911 357.894 306.002 353.88 303.911C350.96 302.168 350.231 297.985 351.69 295.197C353.15 292.06 356.069 290.317 359.354 288.922C365.193 286.831 371.761 286.831 377.6 289.271C385.629 292.757 391.102 300.425 394.022 308.442C396.941 316.459 397.306 325.173 398.766 333.538C399.496 338.418 400.591 343.995 404.97 346.784C410.809 350.618 419.202 347.83 425.406 350.967C429.055 352.709 435.624 361.423 429.055 363.166C427.595 363.515 425.041 361.772 423.581 361.423C421.392 361.423 418.837 362.469 416.647 363.515Z" fill="url(#paint9_linear_300_321)"/>
<path opacity="0.1" d="M335.997 398.371C336.362 402.205 333.808 406.737 329.793 407.085C326.874 407.434 323.954 405.342 321.765 403.251C315.196 397.674 308.263 391.748 301.694 386.171C297.68 382.686 292.571 378.852 287.097 380.594C284.542 381.291 282.718 383.034 280.528 384.429C278.338 385.474 275.054 386.171 273.594 384.08C272.499 383.034 272.5 381.64 272.5 380.246C272.135 371.88 275.419 363.515 280.528 356.544C285.637 349.572 292.206 343.995 298.774 338.418C300.964 336.675 303.154 334.933 306.073 333.887C308.627 332.841 312.277 333.19 314.101 335.281C317.751 338.767 314.831 344.692 312.277 349.224C309.722 354.104 307.898 359.681 310.087 364.56C313.007 371.88 322.13 368.743 325.779 375.017C329.428 381.291 335.267 391.4 335.997 398.371Z" fill="url(#paint10_linear_300_321)"/>
<path opacity="0.1" d="M697.277 546.51C693.628 552.087 689.249 557.664 683.045 561.149C677.206 564.635 669.542 566.029 662.974 563.938C657.5 562.195 653.121 557.664 647.282 557.315C641.443 556.967 636.334 560.452 632.32 564.635C628.305 568.818 625.021 573.349 620.277 576.486C615.168 579.623 608.964 581.018 603.125 579.623C597.287 578.229 592.178 573.698 590.353 568.469C587.433 560.452 591.448 551.041 588.528 542.676C585.974 535.356 577.58 530.476 569.917 531.87C559.334 533.613 553.86 544.419 548.751 553.481C541.088 567.772 530.505 581.715 514.813 587.64C509.704 589.732 503.5 591.126 500.945 595.657C497.661 601.583 502.04 608.554 506.784 613.434C518.097 624.936 532.694 633.999 549.116 634.348C571.377 635.045 591.083 620.405 604.22 603.325C608.235 598.097 611.884 592.52 616.993 588.686C622.102 584.852 628.67 583.457 634.874 581.715C640.713 580.32 646.552 578.926 652.026 579.972C658.23 581.366 663.339 585.549 669.178 587.64C677.936 591.126 688.519 590.08 696.182 585.2C700.196 582.412 703.846 578.926 706.765 575.441C712.239 569.166 716.983 562.544 720.998 555.224C725.012 548.601 728.661 541.281 729.391 533.613C730.486 525.945 728.661 517.579 722.822 512.002C720.268 509.562 716.983 507.471 713.334 507.819C706.4 508.865 707.86 519.322 706.4 524.202C704.941 531.522 701.656 539.539 697.277 546.51Z" fill="url(#paint11_linear_300_321)"/>
<path opacity="0.1" d="M671.366 411.965C669.542 411.268 667.717 410.571 665.527 410.571C660.783 410.919 657.864 416.148 657.134 420.679C656.039 425.21 656.039 430.09 652.755 433.576C648.376 438.456 639.982 438.107 634.143 434.621C628.305 431.136 624.655 425.21 621.006 419.982C614.437 410.571 606.409 401.508 597.651 393.84C591.447 388.263 583.419 382.686 575.025 384.777C570.281 385.823 566.267 389.657 561.888 391.4C550.575 395.931 537.802 389.308 528.314 381.64C518.826 373.972 510.068 364.56 497.66 362.469C485.618 360.726 472.48 367 460.802 363.166C453.139 360.726 447.665 353.755 446.57 346.087C445.841 339.115 448.76 331.098 444.381 324.824C440.002 318.899 431.243 318.55 423.945 316.459C410.442 312.973 399.13 301.122 398.765 287.877C398.4 274.631 410.442 261.386 424.31 261.734C429.054 261.734 433.798 263.477 438.177 265.569C453.869 273.237 464.817 288.922 466.641 306.002C467.736 317.156 465.182 329.356 470.656 339.115C473.575 344.344 478.319 348.526 484.158 350.618C492.551 353.406 502.404 351.664 510.798 354.452C523.205 358.286 530.869 370.137 539.992 379.2C542.546 381.64 545.101 383.731 548.75 384.428C551.305 384.777 554.224 384.08 556.779 383.383C569.186 378.503 577.945 364.56 591.447 365.257C603.125 365.955 610.788 377.457 614.072 388.611C617.357 399.417 618.816 411.616 626.845 419.633C629.034 422.073 632.684 423.816 635.968 422.77C640.347 421.376 641.442 416.496 641.442 411.965C641.807 407.085 642.172 401.856 642.537 396.977C642.902 391.4 643.632 385.126 648.011 380.943C652.025 377.109 658.229 376.411 663.703 377.457C669.177 378.503 673.921 381.64 678.3 384.428C687.788 390.703 708.954 405.691 707.859 418.936C707.129 426.256 699.466 429.393 692.897 426.604C684.504 423.816 679.395 415.799 671.366 411.965Z" fill="url(#paint12_linear_300_321)"/>
<path opacity="0.1" d="M636.7 281.602C666.259 301.122 689.98 325.173 708.226 352.012C707.131 353.058 706.037 353.755 704.577 354.452C699.103 356.543 692.534 355.149 687.425 352.709C682.316 350.269 677.572 346.435 672.828 342.949C666.259 338.418 659.326 334.235 651.662 331.098C645.458 328.31 636.7 326.916 632.686 332.144C630.861 334.932 630.861 338.418 631.226 341.904C632.321 352.012 633.416 362.469 634.51 372.577C634.875 376.411 635.24 380.594 632.321 383.034C627.942 387.217 620.643 383.731 616.629 379.2C606.411 367.697 603.126 350.618 591.084 340.858C587.799 338.418 583.42 336.327 579.406 337.372C575.027 338.767 572.837 343.298 570.648 347.481C568.093 352.709 564.809 357.24 561.16 361.772C552.401 372.229 544.738 367.349 540.724 356.543C537.074 346.086 527.221 339.464 516.273 338.07C507.88 337.024 499.852 334.235 493.648 328.658C487.809 323.081 486.714 314.716 486.714 307.048C486.714 297.288 485.984 288.225 479.416 280.208C472.847 272.54 463.724 265.917 453.871 262.432C448.397 260.689 442.193 260.34 437.084 257.552C431.61 254.763 428.326 249.535 427.231 243.958C497.297 228.272 573.202 239.775 636.7 281.602Z" fill="url(#paint13_linear_300_321)"/>
<path opacity="0.1" d="M664.797 368.046C681.949 373.275 695.451 386.52 703.845 401.857C707.494 408.828 710.778 416.148 717.347 421.028C718.807 422.073 720.266 422.77 722.091 422.422C723.916 422.073 725.01 420.33 725.74 418.588C727.2 414.753 726.835 410.222 725.375 406.388C723.915 402.554 721.361 399.068 718.442 395.583C709.683 385.823 698.371 378.503 688.153 370.137C680.854 364.212 673.555 357.589 667.352 350.967C663.702 347.132 660.418 343.298 655.674 341.207C650.93 339.115 644.726 338.767 641.077 342.252C637.792 345.39 637.427 350.618 637.792 355.149C638.157 359.681 638.887 364.212 639.982 368.743C640.712 371.88 642.172 376.412 645.456 371.88C647.646 369.092 648.01 367.349 652.025 366.652C656.404 366.303 660.783 366.652 664.797 368.046Z" fill="url(#paint14_linear_300_321)"/>
<path opacity="0.5" d="M487.808 737.87C343.099 737.87 225.789 625.822 225.789 487.603C225.789 349.384 343.099 237.335 487.808 237.335C632.517 237.335 749.827 349.384 749.827 487.603C749.827 625.822 632.517 737.87 487.808 737.87Z" fill="url(#paint15_radial_300_321)"/>
<path opacity="0.2" d="M744.353 436.364C882.296 510.956 967.325 585.897 949.808 625.633C925.358 680.706 713.335 647.593 476.496 552.087C239.657 456.232 67.0462 333.887 91.4964 278.814C107.918 241.866 207.544 244.655 342.932 278.814" stroke="url(#paint16_linear_300_321)" stroke-width="0.25" stroke-miterlimit="10"/>
<path opacity="0.4" d="M745.449 440.547C864.415 506.425 936.671 570.909 921.344 605.068C899.449 654.564 703.482 622.845 484.16 534.31C264.473 445.427 104.634 333.538 126.53 283.694C140.397 252.323 223.601 253.369 338.553 280.905" stroke="url(#paint17_linear_300_321)" stroke-width="0.25" stroke-miterlimit="10"/>
<path opacity="0.75" d="M746.543 444.73C843.978 500.151 902.367 552.784 889.959 581.017C870.983 623.891 693.628 593.217 493.647 512.699C293.666 431.833 147.33 331.447 166.306 288.574C177.254 263.477 242.211 263.477 333.808 283.694" stroke="url(#paint18_linear_300_321)" stroke-width="0.25" stroke-miterlimit="10"/>
<path d="M747.639 449.261C832.302 497.362 882.663 540.933 872.445 563.241C856.388 599.143 691.075 566.726 503.137 490.74C315.199 414.753 175.431 323.778 191.488 287.877C200.246 268.357 253.161 269.054 329.796 285.785" stroke="url(#paint19_linear_300_321)" stroke-width="0.25" stroke-miterlimit="10"/>
<defs>
<linearGradient id="paint0_linear_300_321" x1="382.746" y1="285.122" x2="620.665" y2="687.356" gradientUnits="userSpaceOnUse">
<stop stop-color="#207597"/>
<stop offset="1" stop-color="#669F69"/>
</linearGradient>
<linearGradient id="paint1_linear_300_321" x1="533.952" y1="325.21" x2="497.584" y2="391.232" gradientUnits="userSpaceOnUse">
<stop stop-color="#73840E"/>
<stop offset="1" stop-color="#03CE79"/>
</linearGradient>
<linearGradient id="paint2_linear_300_321" x1="330.178" y1="393.441" x2="297.709" y2="452.546" gradientUnits="userSpaceOnUse">
<stop stop-color="#43B6E4"/>
<stop offset="1" stop-color="#360D83"/>
</linearGradient>
<linearGradient id="paint3_linear_300_321" x1="469.135" y1="635.853" x2="436.666" y2="694.958" gradientUnits="userSpaceOnUse">
<stop stop-color="#519377"/>
<stop offset="1" stop-color="#488D7D"/>
</linearGradient>
<radialGradient id="paint4_radial_300_321" cx="0" cy="0" r="1" gradientUnits="userSpaceOnUse" gradientTransform="translate(534.827 234.42) rotate(-146.635) scale(537.861 528.674)">
<stop stop-color="#26FFEF"/>
<stop offset="0.0874181" stop-color="#26F5E9" stop-opacity="0.9126"/>
<stop offset="0.2352" stop-color="#28DBDA" stop-opacity="0.7648"/>
<stop offset="0.4255" stop-color="#2AAFC1" stop-opacity="0.5745"/>
<stop offset="0.6507" stop-color="#2D749F" stop-opacity="0.3493"/>
<stop offset="0.9026" stop-color="#302874" stop-opacity="0.0973511"/>
<stop offset="1" stop-color="#320962" stop-opacity="0"/>
</radialGradient>
<linearGradient id="paint5_linear_300_321" x1="702.06" y1="509.934" x2="651.991" y2="456.185" gradientUnits="userSpaceOnUse">
<stop stop-color="#FC49EF"/>
<stop offset="0.1005" stop-color="#F54FEF"/>
<stop offset="0.2431" stop-color="#E35EEF"/>
<stop offset="0.4109" stop-color="#C478EF"/>
<stop offset="0.5979" stop-color="#9A9DEF"/>
<stop offset="0.799" stop-color="#64CBEF"/>
<stop offset="1" stop-color="#26FFEF"/>
</linearGradient>
<linearGradient id="paint6_linear_300_321" x1="631.176" y1="533.736" x2="489.351" y2="381.487" gradientUnits="userSpaceOnUse">
<stop stop-color="#FC49EF"/>
<stop offset="0.1005" stop-color="#F54FEF"/>
<stop offset="0.2431" stop-color="#E35EEF"/>
<stop offset="0.4109" stop-color="#C478EF"/>
<stop offset="0.5979" stop-color="#9A9DEF"/>
<stop offset="0.799" stop-color="#64CBEF"/>
<stop offset="1" stop-color="#26FFEF"/>
</linearGradient>
<linearGradient id="paint7_linear_300_321" x1="492.478" y1="567.239" x2="304.327" y2="365.26" gradientUnits="userSpaceOnUse">
<stop stop-color="#FC49EF"/>
<stop offset="0.1005" stop-color="#F54FEF"/>
<stop offset="0.2431" stop-color="#E35EEF"/>
<stop offset="0.4109" stop-color="#C478EF"/>
<stop offset="0.5979" stop-color="#9A9DEF"/>
<stop offset="0.799" stop-color="#64CBEF"/>
<stop offset="1" stop-color="#26FFEF"/>
</linearGradient>
<linearGradient id="paint8_linear_300_321" x1="559.543" y1="432.772" x2="505.066" y2="374.291" gradientUnits="userSpaceOnUse">
<stop stop-color="#FC49EF"/>
<stop offset="0.1005" stop-color="#F54FEF"/>
<stop offset="0.2431" stop-color="#E35EEF"/>
<stop offset="0.4109" stop-color="#C478EF"/>
<stop offset="0.5979" stop-color="#9A9DEF"/>
<stop offset="0.799" stop-color="#64CBEF"/>
<stop offset="1" stop-color="#26FFEF"/>
</linearGradient>
<linearGradient id="paint9_linear_300_321" x1="427.585" y1="365.906" x2="356.738" y2="289.852" gradientUnits="userSpaceOnUse">
<stop stop-color="#FC49EF"/>
<stop offset="0.1005" stop-color="#F54FEF"/>
<stop offset="0.2431" stop-color="#E35EEF"/>
<stop offset="0.4109" stop-color="#C478EF"/>
<stop offset="0.5979" stop-color="#9A9DEF"/>
<stop offset="0.799" stop-color="#64CBEF"/>
<stop offset="1" stop-color="#26FFEF"/>
</linearGradient>
<linearGradient id="paint10_linear_300_321" x1="336.867" y1="401.877" x2="287.422" y2="348.797" gradientUnits="userSpaceOnUse">
<stop stop-color="#FC49EF"/>
<stop offset="0.1005" stop-color="#F54FEF"/>
<stop offset="0.2431" stop-color="#E35EEF"/>
<stop offset="0.4109" stop-color="#C478EF"/>
<stop offset="0.5979" stop-color="#9A9DEF"/>
<stop offset="0.799" stop-color="#64CBEF"/>
<stop offset="1" stop-color="#26FFEF"/>
</linearGradient>
<linearGradient id="paint11_linear_300_321" x1="667.048" y1="612.963" x2="579.114" y2="518.566" gradientUnits="userSpaceOnUse">
<stop stop-color="#FC49EF"/>
<stop offset="0.1005" stop-color="#F54FEF"/>
<stop offset="0.2431" stop-color="#E35EEF"/>
<stop offset="0.4109" stop-color="#C478EF"/>
<stop offset="0.5979" stop-color="#9A9DEF"/>
<stop offset="0.799" stop-color="#64CBEF"/>
<stop offset="1" stop-color="#26FFEF"/>
</linearGradient>
<linearGradient id="paint12_linear_300_321" x1="662.759" y1="464.674" x2="446.398" y2="232.412" gradientUnits="userSpaceOnUse">
<stop stop-color="#FC49EF"/>
<stop offset="0.1005" stop-color="#F54FEF"/>
<stop offset="0.2431" stop-color="#E35EEF"/>
<stop offset="0.4109" stop-color="#C478EF"/>
<stop offset="0.5979" stop-color="#9A9DEF"/>
<stop offset="0.799" stop-color="#64CBEF"/>
<stop offset="1" stop-color="#26FFEF"/>
</linearGradient>
<linearGradient id="paint13_linear_300_321" x1="661.161" y1="395.602" x2="476.997" y2="197.903" gradientUnits="userSpaceOnUse">
<stop stop-color="#FC49EF"/>
<stop offset="0.1005" stop-color="#F54FEF"/>
<stop offset="0.2431" stop-color="#E35EEF"/>
<stop offset="0.4109" stop-color="#C478EF"/>
<stop offset="0.5979" stop-color="#9A9DEF"/>
<stop offset="0.799" stop-color="#64CBEF"/>
<stop offset="1" stop-color="#26FFEF"/>
</linearGradient>
<linearGradient id="paint14_linear_300_321" x1="721.191" y1="424.36" x2="643.006" y2="340.429" gradientUnits="userSpaceOnUse">
<stop stop-color="#FC49EF"/>
<stop offset="0.1005" stop-color="#F54FEF"/>
<stop offset="0.2431" stop-color="#E35EEF"/>
<stop offset="0.4109" stop-color="#C478EF"/>
<stop offset="0.5979" stop-color="#9A9DEF"/>
<stop offset="0.799" stop-color="#64CBEF"/>
<stop offset="1" stop-color="#26FFEF"/>
</linearGradient>
<radialGradient id="paint15_radial_300_321" cx="0" cy="0" r="1" gradientUnits="userSpaceOnUse" gradientTransform="translate(601.263 275.936) rotate(-151.55) scale(259.619 110.817)">
<stop stop-color="white"/>
<stop offset="0.2802" stop-color="#B3FFF9" stop-opacity="0.7198"/>
<stop offset="0.5299" stop-color="#76FFF5" stop-opacity="0.4701"/>
<stop offset="0.7404" stop-color="#4BFFF2" stop-opacity="0.2596"/>
<stop offset="0.9038" stop-color="#30FFF0" stop-opacity="0.0962161"/>
<stop offset="1" stop-color="#26FFEF" stop-opacity="0"/>
</radialGradient>
<linearGradient id="paint16_linear_300_321" x1="947.916" y1="630.568" x2="101.229" y2="255.381" gradientUnits="userSpaceOnUse">
<stop stop-color="#26FFEF"/>
<stop offset="0.3425" stop-color="#74BDEF"/>
<stop offset="0.7959" stop-color="#D56AEF"/>
<stop offset="1" stop-color="#FC49EF"/>
</linearGradient>
<linearGradient id="paint17_linear_300_321" x1="918.637" y1="610.304" x2="135.145" y2="263.113" gradientUnits="userSpaceOnUse">
<stop stop-color="#26FFEF"/>
<stop offset="0.3425" stop-color="#74BDEF"/>
<stop offset="0.7959" stop-color="#D56AEF"/>
<stop offset="1" stop-color="#FC49EF"/>
</linearGradient>
<linearGradient id="paint18_linear_300_321" x1="887.774" y1="586.946" x2="173.935" y2="270.651" gradientUnits="userSpaceOnUse">
<stop stop-color="#26FFEF"/>
<stop offset="0.3425" stop-color="#74BDEF"/>
<stop offset="0.7959" stop-color="#D56AEF"/>
<stop offset="1" stop-color="#FC49EF"/>
</linearGradient>
<linearGradient id="paint19_linear_300_321" x1="870.471" y1="569.263" x2="198.7" y2="271.505" gradientUnits="userSpaceOnUse">
<stop stop-color="#26FFEF"/>
<stop offset="0.3425" stop-color="#74BDEF"/>
<stop offset="0.7959" stop-color="#D56AEF"/>
<stop offset="1" stop-color="#FC49EF"/>
</linearGradient>
</defs>
</svg>
