<svg width="438" height="517" viewBox="0 0 438 517" fill="none" xmlns="http://www.w3.org/2000/svg">
<path opacity="0.5" d="M110.45 131.844C120.05 123.544 127.6 116.744 133.1 111.444C138.7 106.044 143.35 100.444 147.05 94.6445C150.75 88.8445 152.6 83.0445 152.6 77.2445C152.6 71.2445 151.15 66.5445 148.25 63.1445C145.45 59.7445 141 58.0445 134.9 58.0445C129 58.0445 124.4 59.9445 121.1 63.7445C117.9 67.4445 116.2 72.4445 116 78.7445H99.5C99.8 67.3445 103.2 58.6445 109.7 52.6445C116.3 46.5445 124.65 43.4945 134.75 43.4945C145.65 43.4945 154.15 46.4945 160.25 52.4945C166.45 58.4945 169.55 66.4945 169.55 76.4945C169.55 83.6945 167.7 90.6445 164 97.3445C160.4 103.944 156.05 109.894 150.95 115.194C145.95 120.394 139.55 126.444 131.75 133.344L125 139.344H172.55V153.594H99.65V141.144L110.45 131.844Z" fill="#43B6E4"/>
<g filter="url(#filter0_dddii_0_1)">
<circle cx="177" cy="172.094" r="65" fill="#2D1085"/>
</g>
<defs>
<filter id="filter0_dddii_0_1" x="0.0506363" y="0.742588" width="437.861" height="516.225" filterUnits="userSpaceOnUse" color-interpolation-filters="sRGB">
<feFlood flood-opacity="0" result="BackgroundImageFix"/>
<feColorMatrix in="SourceAlpha" type="matrix" values="0 0 0 0 0 0 0 0 0 0 0 0 0 0 0 0 0 0 127 0" result="hardAlpha"/>
<feOffset dy="5.59747"/>
<feGaussianBlur stdDeviation="55.9747"/>
<feColorMatrix type="matrix" values="0 0 0 0 0.2 0 0 0 0 0.109804 0 0 0 0 0.545098 0 0 0 1 0"/>
<feBlend mode="normal" in2="BackgroundImageFix" result="effect1_dropShadow_0_1"/>
<feColorMatrix in="SourceAlpha" type="matrix" values="0 0 0 0 0 0 0 0 0 0 0 0 0 0 0 0 0 0 127 0" result="hardAlpha"/>
<feOffset dx="83.962" dy="167.924"/>
<feGaussianBlur stdDeviation="55.9747"/>
<feColorMatrix type="matrix" values="0 0 0 0 0.0375 0 0 0 0 0.0375 0 0 0 0 0.0375 0 0 0 0.2 0"/>
<feBlend mode="normal" in2="effect1_dropShadow_0_1" result="effect2_dropShadow_0_1"/>
<feColorMatrix in="SourceAlpha" type="matrix" values="0 0 0 0 0 0 0 0 0 0 0 0 0 0 0 0 0 0 127 0" result="hardAlpha"/>
<feOffset/>
<feGaussianBlur stdDeviation="13.9937"/>
<feColorMatrix type="matrix" values="0 0 0 0 0.176471 0 0 0 0 0.0666667 0 0 0 0 0.521569 0 0 0 1 0"/>
<feBlend mode="normal" in2="effect2_dropShadow_0_1" result="effect3_dropShadow_0_1"/>
<feBlend mode="normal" in="SourceGraphic" in2="effect3_dropShadow_0_1" result="shape"/>
<feColorMatrix in="SourceAlpha" type="matrix" values="0 0 0 0 0 0 0 0 0 0 0 0 0 0 0 0 0 0 127 0" result="hardAlpha"/>
<feOffset dx="13.9937" dy="27.9873"/>
<feGaussianBlur stdDeviation="69.9684"/>
<feComposite in2="hardAlpha" operator="arithmetic" k2="-1" k3="1"/>
<feColorMatrix type="matrix" values="0 0 0 0 0.12549 0 0 0 0 0.0470588 0 0 0 0 0.298039 0 0 0 1 0"/>
<feBlend mode="normal" in2="shape" result="effect4_innerShadow_0_1"/>
<feColorMatrix in="SourceAlpha" type="matrix" values="0 0 0 0 0 0 0 0 0 0 0 0 0 0 0 0 0 0 127 0" result="hardAlpha"/>
<feOffset dy="2.79873"/>
<feGaussianBlur stdDeviation="6.99684"/>
<feComposite in2="hardAlpha" operator="arithmetic" k2="-1" k3="1"/>
<feColorMatrix type="matrix" values="0 0 0 0 1 0 0 0 0 1 0 0 0 0 1 0 0 0 0.58 0"/>
<feBlend mode="normal" in2="effect4_innerShadow_0_1" result="effect5_innerShadow_0_1"/>
</filter>
</defs>
</svg>
