<svg width="1172" height="1341" viewBox="0 0 1172 1341" fill="none" xmlns="http://www.w3.org/2000/svg">
<g opacity="0.38" filter="url(#filter0_f_0_1)">
<path d="M50.1546 566.846L53.0255 598.975L85.1546 601.846L53.0255 604.717L50.1546 636.846L47.2837 604.717L15.1546 601.846L47.2837 598.975L50.1546 566.846Z" fill="white"/>
</g>
<g opacity="0.38" filter="url(#filter1_f_0_1)">
<path d="M450.586 282.94L453.457 315.069L485.586 317.94L453.457 320.811L450.586 352.94L447.716 320.811L415.586 317.94L447.716 315.069L450.586 282.94Z" fill="white"/>
</g>
<g opacity="0.38" filter="url(#filter2_f_0_1)">
<path d="M1116.59 609.94L1119.46 642.069L1151.59 644.94L1119.46 647.811L1116.59 679.94L1113.72 647.811L1081.59 644.94L1113.72 642.069L1116.59 609.94Z" fill="white"/>
</g>
<g opacity="0.38" filter="url(#filter3_f_0_1)">
<path d="M401 1256L403.871 1288.13L436 1291L403.871 1293.87L401 1326L398.13 1293.87L366 1291L398.13 1288.13L401 1256Z" fill="white"/>
</g>
<path opacity="0.1" d="M747.312 283.019C747.312 280.551 745.078 278.665 742.157 278.665C739.236 278.665 737.002 280.551 737.002 283.019C737.002 285.486 739.236 287.373 742.157 287.373C744.906 287.373 747.312 285.341 747.312 283.019Z" fill="url(#paint0_radial_0_1)"/>
<path opacity="0.1" d="M775.662 288.461C775.662 285.994 773.429 284.107 770.507 284.107C767.586 284.107 765.353 285.994 765.353 288.461C765.353 290.929 767.586 292.815 770.507 292.815C773.429 292.815 775.662 290.784 775.662 288.461Z" fill="url(#paint1_radial_0_1)"/>
<path opacity="0.1" d="M787.262 274.31C787.262 271.843 785.028 269.956 782.107 269.956C779.186 269.956 776.952 271.843 776.952 274.31C776.952 276.778 779.186 278.665 782.107 278.665C785.028 278.519 787.262 276.633 787.262 274.31Z" fill="url(#paint2_radial_0_1)"/>
<path opacity="0.5" d="M655.813 140.421C655.813 137.954 653.579 136.067 650.658 136.067C647.737 136.067 645.504 137.954 645.504 140.421C645.504 142.888 647.737 144.775 650.658 144.775C653.579 144.775 655.813 142.888 655.813 140.421Z" fill="url(#paint3_radial_0_1)"/>
<path opacity="0.5" d="M614.574 169.811C617.421 169.811 619.729 167.862 619.729 165.457C619.729 163.052 617.421 161.103 614.574 161.103C611.727 161.103 609.42 163.052 609.42 165.457C609.42 167.862 611.727 169.811 614.574 169.811Z" fill="url(#paint4_radial_0_1)"/>
<path opacity="0.5" d="M691.897 194.848C691.897 192.38 689.663 190.493 686.742 190.493C683.821 190.493 681.587 192.38 681.587 194.848C681.587 197.315 683.821 199.202 686.742 199.202C689.663 199.202 691.897 197.17 691.897 194.848Z" fill="url(#paint5_radial_0_1)"/>
<path opacity="0.1" d="M831.077 145.864C831.077 143.396 828.843 141.51 825.922 141.51C823.001 141.51 820.767 143.396 820.767 145.864C820.767 148.331 823.001 150.218 825.922 150.218C828.843 150.073 831.077 148.186 831.077 145.864Z" fill="url(#paint6_radial_0_1)"/>
<path opacity="0.1" d="M584.935 198.113C584.935 195.646 582.701 193.759 579.78 193.759C576.859 193.759 574.625 195.646 574.625 198.113C574.625 200.58 576.859 202.467 579.78 202.467C582.701 202.467 584.935 200.435 584.935 198.113Z" fill="url(#paint7_radial_0_1)"/>
<path opacity="0.1" d="M787.261 204.644C790.108 204.644 792.416 202.695 792.416 200.29C792.416 197.885 790.108 195.936 787.261 195.936C784.414 195.936 782.106 197.885 782.106 200.29C782.106 202.695 784.414 204.644 787.261 204.644Z" fill="url(#paint8_radial_0_1)"/>
<path opacity="0.2" d="M824.634 249.274C824.634 246.807 822.4 244.92 819.479 244.92C816.558 244.92 814.324 246.807 814.324 249.274C814.324 251.741 816.558 253.628 819.479 253.628C822.4 253.628 824.634 251.741 824.634 249.274Z" fill="url(#paint9_radial_0_1)"/>
<path opacity="0.2" d="M669.99 267.779C669.99 265.312 667.756 263.425 664.835 263.425C661.914 263.425 659.68 265.312 659.68 267.779C659.68 270.247 661.914 272.133 664.835 272.133C667.756 271.988 669.99 270.101 669.99 267.779Z" fill="url(#paint10_radial_0_1)"/>
<path opacity="0.2" d="M565.603 249.274C568.45 249.274 570.758 247.325 570.758 244.92C570.758 242.515 568.45 240.566 565.603 240.566C562.756 240.566 560.448 242.515 560.448 244.92C560.448 247.325 562.756 249.274 565.603 249.274Z" fill="url(#paint11_radial_0_1)"/>
<path opacity="0.2" d="M590.089 244.92C590.089 242.453 587.855 240.566 584.934 240.566C582.013 240.566 579.779 242.453 579.779 244.92C579.779 247.387 582.013 249.274 584.934 249.274C587.855 249.274 590.089 247.387 590.089 244.92Z" fill="url(#paint12_radial_0_1)"/>
<path opacity="0.5" d="M693.186 182.874C696.033 182.874 698.341 180.924 698.341 178.52C698.341 176.115 696.033 174.166 693.186 174.166C690.339 174.166 688.031 176.115 688.031 178.52C688.031 180.924 690.339 182.874 693.186 182.874Z" fill="url(#paint13_radial_0_1)"/>
<path opacity="0.5" d="M824.634 272.133C824.634 269.666 822.4 267.779 819.479 267.779C816.558 267.779 814.324 269.666 814.324 272.133C814.324 274.601 816.558 276.488 819.479 276.488C822.4 276.488 824.634 274.601 824.634 272.133Z" fill="url(#paint14_radial_0_1)"/>
<path d="M779.528 164.369C779.528 159.025 774.714 154.572 768.574 154.572C762.599 154.572 757.62 158.877 757.62 164.369C757.62 169.861 762.433 174.166 768.574 174.166C774.548 174.166 779.528 169.861 779.528 164.369Z" fill="url(#paint15_radial_0_1)"/>
<path opacity="0.3" d="M686.742 293.36C686.742 288.313 681.929 284.107 675.788 284.107C669.813 284.107 664.834 288.173 664.834 293.36C664.834 298.547 669.647 302.612 675.788 302.612C681.763 302.612 686.742 298.407 686.742 293.36Z" fill="url(#paint16_radial_0_1)"/>
<path opacity="0.3" d="M715.094 284.107C715.094 278.763 709.998 274.31 703.496 274.31C697.17 274.31 691.898 278.615 691.898 284.107C691.898 289.599 696.994 293.904 703.496 293.904C709.998 293.904 715.094 289.599 715.094 284.107Z" fill="url(#paint17_radial_0_1)"/>
<path d="M698.34 160.015C698.34 154.671 693.527 150.218 687.386 150.218C681.411 150.218 676.432 154.522 676.432 160.015C676.432 165.358 681.245 169.811 687.386 169.811C693.361 169.811 698.34 165.358 698.34 160.015Z" fill="url(#paint18_radial_0_1)"/>
<path opacity="0.05" d="M1423.97 59.9342C1427.06 43.08 1414.18 26.807 1397.19 18.2346C1375.05 6.90164 1346.55 3.70516 1321.32 1.52574C1268.27 -3.26898 1212.65 2.8334 1165.79 25.6446C1125.97 44.9688 1094.21 75.626 1080.65 113.257C1073.09 133.889 1069.66 156.41 1054.73 174.572C1040.31 192.298 1015.42 202.613 990.353 203.485C965.806 204.357 941.773 195.93 923.749 181.982C903.149 166.144 895.081 144.931 883.752 124.009C874.482 107.01 860.063 89.1384 837.403 83.9078C821.267 80.2754 805.646 84.9248 792.943 93.3519C766.507 111.223 750.543 144.931 715.352 152.051C688.917 157.427 663.511 142.461 647.718 125.898C630.724 108.027 619.909 86.6684 602.743 68.9424C570.986 36.2511 523.435 17.3629 475.199 9.37165C446.703 4.72223 417.692 3.41457 388.682 3.70516C364.306 3.99575 339.758 5.15811 315.554 8.93577C294.268 12.2775 272.982 17.6534 254.271 27.0976C237.277 35.8153 218.051 50.3447 213.244 67.4895C208.094 86.2325 230.582 97.4202 250.151 95.2407C262.511 93.7878 273.669 88.7025 284.655 84.0531C298.216 78.3866 312.121 73.3013 326.369 69.0877C378.039 53.9771 435.202 48.7465 488.245 62.4042C534.765 74.3183 576.307 99.8902 599.31 136.65C609.781 153.504 618.192 172.537 636.56 184.597C655.443 196.947 680.334 198.69 703.164 196.22C730.115 193.315 755.521 184.452 782.3 180.238C809.251 176.025 834.657 179.366 858.518 190.554C899.373 209.588 930.787 241.407 977.135 251.723C1024.51 262.33 1074.81 251.868 1111.72 224.989C1149.65 197.383 1174.2 159.316 1213.86 133.163C1254.37 106.574 1302.95 90.5913 1351.7 78.6772C1373.67 73.3013 1395.99 68.6518 1418.48 64.293C1418.48 66.1818 1422.08 66.763 1422.77 64.7289C1422.94 64.293 1423.11 63.8571 1423.28 63.2759C1423.45 63.2759 1423.63 63.2759 1423.8 63.1306C1425.69 62.8401 1425.51 60.6606 1423.97 59.9342Z" fill="url(#paint19_linear_0_1)"/>
<path opacity="0.1" d="M671.144 377.861C661.524 370.466 647.954 368.001 635.242 368.726C621.843 369.451 609.132 373.511 598.481 380.182C578.212 393.087 567.39 413.387 548.322 427.308C538.703 434.413 526.506 440.503 513.279 441.083C501.255 441.518 490.605 436.733 482.875 429.193C475.488 421.942 470.85 412.662 467.586 403.527C463.464 391.927 461.059 379.891 457.795 368.146C451.955 346.831 442.85 324.065 421.722 310C411.587 303.185 399.219 298.835 386.507 296.95C379.808 295.935 373.108 295.499 366.237 295.499C359.366 295.499 352.323 295.499 345.452 294.194C320.716 289.119 314.017 265.484 309.035 247.503C306.287 237.933 303.366 228.073 297.354 219.373C291.686 210.672 282.581 204.292 271.244 201.247C245.993 194.577 220.226 205.162 201.674 219.373C183.294 233.293 169.895 251.853 163.195 271.864C159.932 281.724 157.699 292.454 158.557 302.605C159.245 310.87 163.367 320.73 174.017 322.905C181.576 324.5 191.195 322.035 193.085 315.075C239.293 303.475 289.624 310.725 332.912 327.69C344.765 332.33 356.274 337.695 367.268 343.786C378.777 350.166 390.114 357.271 399.219 366.116C408.495 374.961 414.851 385.547 420.691 396.132C426.703 406.862 432.372 417.737 439.071 428.178C451.783 448.188 467.586 467.329 488.543 481.829C508.126 495.459 532.003 504.884 557.77 506.044C584.052 507.205 610.506 500.099 631.635 487.194C651.733 474.869 667.536 457.613 677.328 438.328C686.947 419.187 691.413 393.522 671.144 377.861Z" fill="url(#paint20_linear_0_1)"/>
<path opacity="0.1" d="M1590.08 164.777C1582.18 149.133 1563.47 141.89 1544.76 138.848C1524.5 135.517 1503.55 134.648 1482.95 135.082C1400.72 136.82 1319.69 163.763 1258.24 209.971C1224.07 235.61 1197.81 267.188 1175.32 300.504C1169.48 309.195 1163.82 318.031 1158.32 326.867C1153.17 335.124 1148.37 343.67 1142.19 351.347C1135.66 359.314 1127.42 366.557 1116.44 369.889C1106.48 373.075 1095.15 372.786 1086.39 367.281C1071.46 357.866 1068.2 340.049 1057.72 327.736C1046.22 314.41 1028.54 306.153 1010.17 301.518C988.025 295.869 964.506 295.579 941.502 294.565C916.438 293.551 892.232 290.654 868.885 282.687C857.726 278.921 847.082 274.141 837.126 268.492C827.684 263.132 819.1 256.469 808.628 252.268C789.401 244.736 766.569 248.647 748.886 257.338C710.604 276.314 696.698 314.989 700.132 350.623C702.878 378.58 719.359 414.358 756.955 418.559C777.727 420.877 797.298 411.896 812.062 400.308C828.542 387.561 839.701 370.903 853.949 356.562C868.37 341.932 886.395 330.923 908.198 325.564C928.455 320.494 950.257 320.494 970.343 326.143C989.57 331.647 1006.91 342.222 1019.1 355.838C1032.32 370.468 1039.01 388.14 1039.7 406.391C1040.38 427.105 1033.86 447.53 1026.31 467.085C1022.36 477.08 1018.07 486.785 1013.78 496.635C1010.51 504.167 1006.91 511.555 1006.05 519.522C1005.36 525.75 1006.22 532.848 1012.06 537.194C1019.27 542.698 1029.91 541.105 1038.5 539.366C1057.55 535.455 1074.55 526.185 1088.45 514.597C1121.41 487.075 1134.8 448.833 1153.17 413.924C1170.51 380.608 1195.23 350.478 1225.79 324.839C1291.54 269.795 1379.78 238.217 1470.94 228.078C1490.85 225.905 1510.94 224.746 1530.85 224.311C1531.19 224.601 1531.71 224.746 1532.22 224.891C1551.11 226.05 1570.68 219.821 1582.69 207.219C1594.37 195.92 1597.29 178.828 1590.08 164.777ZM857.383 324.984C852.233 326.288 847.426 328.171 842.962 330.633C818.242 343.96 802.62 378.869 769.659 378.58C748.886 378.435 734.809 363.08 732.578 346.712C729.831 327.012 738.414 302.967 757.985 290.944C772.749 281.963 790.088 283.556 805.881 289.35C811.032 291.233 816.01 292.972 820.988 294.71C833.692 298.911 846.396 302.532 860.13 304.85C863.391 305.429 866.825 306.008 869.572 307.457C883.477 315.134 864.936 323.101 857.383 324.984Z" fill="url(#paint21_linear_0_1)"/>
<path d="M521.73 310.141L606.978 280.583C608.003 280.293 608.345 279.278 608.003 278.554C607.661 277.685 606.465 277.395 605.611 277.685L520.363 307.243C519.338 307.533 518.997 308.547 519.338 309.272C519.68 309.996 520.876 310.431 521.73 310.141Z" fill="url(#paint22_linear_0_1)"/>
<g opacity="0.5">
<path d="M1066.04 298.627C1107.93 298.627 1141.89 266.481 1141.89 226.827C1141.89 187.173 1107.93 155.027 1066.04 155.027C1024.15 155.027 990.19 187.173 990.19 226.827C990.19 266.481 1024.15 298.627 1066.04 298.627Z" fill="url(#paint23_radial_0_1)"/>
<path opacity="0.1" d="M997.797 222.326C997.48 222.926 997.269 223.526 996.952 224.126C996.107 226.026 997.691 228.526 1000.12 228.226C1001.18 228.126 1001.92 227.326 1002.87 226.826C1003.71 226.326 1004.98 226.026 1005.72 226.726C1006.35 227.326 1006.35 228.226 1006.25 229.026C1006.14 232.026 1006.67 235.326 1008.89 237.526C1011 239.726 1015.12 240.526 1017.45 238.426C1018.29 237.726 1018.82 236.626 1018.5 235.626C1018.08 234.226 1016.18 233.526 1015.97 232.026C1015.86 230.826 1016.81 229.926 1017.97 229.326C1019.03 228.826 1020.3 228.526 1021.25 227.726C1022.62 226.526 1022.94 224.626 1022.83 222.826C1022.83 222.126 1022.73 221.526 1022.2 221.026C1021.14 219.826 1019.03 220.626 1017.55 221.326C1016.07 222.126 1013.85 222.526 1013.11 221.126C1012.69 220.326 1013.11 219.426 1013.33 218.526C1013.54 217.626 1013.43 216.526 1012.59 216.226C1012.16 216.026 1011.64 216.226 1011.21 216.326C1009.1 217.326 1008.04 219.826 1005.93 220.826C1005.72 220.926 1005.51 221.026 1005.3 221.026C1004.87 221.026 1004.56 220.626 1004.45 220.226C1004.03 219.226 1004.77 218.126 1004.56 217.026C1004.56 216.826 1004.45 216.626 1004.35 216.526C1004.24 216.426 1004.03 216.426 1003.92 216.426C1002.44 216.426 1001.18 217.526 1000.33 218.626C999.276 219.926 998.431 221.126 997.797 222.326Z" fill="url(#paint24_linear_0_1)"/>
<path opacity="0.1" d="M1025.68 230.226C1026.95 228.626 1027.16 226.426 1027.06 224.426C1026.95 222.426 1026.42 220.426 1026.42 218.426C1026.42 214.026 1028.75 209.626 1032.55 207.026C1033.82 206.126 1035.61 205.426 1037.09 206.026C1039.94 207.226 1039.21 211.726 1041.64 213.426C1042.69 214.126 1044.17 214.226 1045.44 213.826C1046.71 213.526 1047.87 212.826 1048.92 212.126C1054.63 208.826 1060.76 206.026 1067.31 204.826C1069.42 204.426 1071.64 204.226 1073.64 204.826C1075.65 205.426 1077.55 206.926 1077.97 208.926C1078.29 210.526 1077.66 212.126 1076.81 213.526C1075.65 215.626 1074.07 217.526 1071.95 218.926C1069.95 220.326 1067.41 221.126 1064.88 220.926C1062.45 220.726 1060.23 219.526 1057.8 218.926C1055.58 218.326 1053.15 218.126 1051.04 218.926C1048.92 219.726 1047.23 221.626 1047.23 223.826C1047.23 225.726 1048.4 227.326 1048.61 229.226C1048.71 230.926 1047.87 232.626 1046.39 233.426C1044.91 234.326 1042.8 234.326 1041.42 233.326C1040.16 232.426 1039.42 230.926 1039.21 229.326C1038.99 227.826 1039.1 226.226 1038.99 224.726C1038.89 222.926 1038.25 220.726 1036.35 220.226C1034.56 219.726 1032.87 221.226 1031.92 222.726C1030.86 224.426 1030.44 226.426 1030.54 228.326C1030.65 230.126 1031.18 231.926 1031.39 233.726C1031.49 235.526 1031.07 237.626 1029.59 238.726C1027.9 240.026 1025.26 239.726 1023.47 238.626C1021.67 237.526 1020.4 235.726 1019.13 234.026C1018.82 233.526 1018.18 232.426 1019.03 232.026C1019.45 231.826 1020.61 232.326 1021.14 232.226C1022.94 232.426 1024.73 231.626 1025.68 230.226Z" fill="url(#paint25_linear_0_1)"/>
<path opacity="0.1" d="M1082.94 210.326C1084 214.226 1083.47 218.626 1081.04 221.826C1078.61 225.126 1074.07 227.026 1069.95 226.226C1068.89 226.026 1067.84 225.626 1066.78 225.526C1063.82 225.426 1061.29 227.726 1059.91 230.226C1057.48 234.626 1057.17 240.326 1059.91 244.626C1062.66 248.926 1068.47 251.426 1073.54 250.026C1077.87 248.826 1080.93 245.226 1083.15 241.426C1085.37 237.726 1086.96 233.626 1089.91 230.326C1091.71 228.326 1094.24 226.626 1096.89 227.226C1098.58 227.626 1099.95 228.826 1101.11 230.026C1103.33 232.126 1105.76 234.126 1108.61 235.526C1111.46 236.826 1114.74 237.426 1117.8 236.626C1120.97 235.826 1123.51 233.626 1125.2 231.026C1126.89 228.426 1127.84 225.426 1128.58 222.426C1130.16 216.026 1130.58 208.926 1127.31 203.226C1126.46 201.826 1125.2 200.426 1123.61 200.426C1122.66 200.426 1121.71 200.926 1120.97 201.526C1117.8 203.826 1115.48 207.126 1112.73 209.926C1111.67 211.026 1110.51 212.026 1109.03 212.626C1107.55 213.226 1105.86 213.226 1104.49 212.426C1102.8 211.426 1102.27 209.226 1102.59 207.326C1102.91 205.426 1103.96 203.826 1104.91 202.126C1107.98 196.626 1109.67 190.126 1108.29 184.026C1107.98 182.426 1107.34 180.826 1106.08 179.726C1104.81 178.626 1102.91 178.026 1101.43 178.826C1099.84 179.626 1099.21 181.526 1098.89 183.226C1097.94 187.926 1097.73 193.026 1095.09 197.126C1094.46 198.126 1093.51 199.126 1092.24 199.226C1090.97 199.426 1089.7 198.526 1088.65 197.826C1087.06 196.626 1085.27 195.526 1083.26 195.126C1079.98 194.426 1074.7 196.526 1076.39 200.326C1077.03 201.626 1078.61 202.726 1079.56 203.926C1081.25 205.826 1082.41 208.026 1082.94 210.326Z" fill="url(#paint26_linear_0_1)"/>
<path opacity="0.1" d="M1041.42 204.427C1041.64 203.527 1042.59 202.427 1043.43 202.927C1043.75 203.127 1043.96 203.527 1044.06 203.927C1044.7 205.427 1046.18 206.827 1047.87 206.627C1048.82 206.527 1049.66 206.027 1050.4 205.527C1054.42 202.927 1058.85 200.827 1063.4 199.227C1064.56 198.827 1066.04 198.527 1066.78 199.527C1067.31 200.227 1066.88 201.227 1066.25 201.827C1065.61 202.427 1064.66 202.627 1063.82 202.827C1059.7 204.027 1055.79 205.727 1052.09 207.827C1050.09 209.027 1047.34 210.727 1044.91 210.027C1042.48 209.427 1041 206.627 1041.42 204.427Z" fill="url(#paint27_linear_0_1)"/>
<path opacity="0.1" d="M1086.64 191.226C1087.69 191.826 1088.75 192.626 1090.02 192.726C1091.92 192.926 1093.61 191.126 1094.03 189.326C1094.45 187.526 1094.03 185.626 1094.14 183.826C1094.14 181.626 1094.77 179.426 1095.93 177.426C1096.99 175.626 1098.79 173.926 1101 174.026C1102.27 174.126 1103.65 174.726 1104.81 174.126C1105.65 173.626 1105.86 172.426 1105.44 171.626C1105.02 170.726 1104.17 170.226 1103.22 169.826C1101.53 169.226 1099.63 169.226 1097.94 169.926C1095.62 170.926 1094.03 173.126 1093.19 175.426C1092.34 177.726 1092.24 180.226 1091.81 182.626C1091.6 184.026 1091.29 185.626 1090.02 186.426C1088.33 187.526 1085.9 186.726 1084.1 187.626C1083.05 188.126 1081.14 190.626 1083.05 191.126C1083.47 191.226 1084.21 190.726 1084.63 190.626C1085.26 190.626 1086 190.926 1086.64 191.226Z" fill="url(#paint28_linear_0_1)"/>
<path opacity="0.1" d="M1109.98 201.227C1109.88 202.327 1110.62 203.627 1111.78 203.727C1112.62 203.827 1113.47 203.227 1114.1 202.627C1116 201.027 1118.01 199.327 1119.91 197.727C1121.08 196.727 1122.55 195.627 1124.14 196.127C1124.88 196.327 1125.41 196.827 1126.04 197.227C1126.67 197.527 1127.62 197.727 1128.05 197.127C1128.36 196.827 1128.36 196.427 1128.36 196.027C1128.47 193.627 1127.52 191.227 1126.04 189.227C1124.56 187.227 1122.66 185.627 1120.76 184.027C1120.12 183.527 1119.49 183.027 1118.65 182.727C1117.91 182.427 1116.85 182.527 1116.32 183.127C1115.27 184.127 1116.11 185.827 1116.85 187.127C1117.59 188.527 1118.12 190.127 1117.48 191.527C1116.64 193.627 1114 192.727 1112.94 194.527C1111.88 196.327 1110.19 199.227 1109.98 201.227Z" fill="url(#paint29_linear_0_1)"/>
<path opacity="0.1" d="M1005.4 243.726C1006.46 245.326 1007.73 246.926 1009.52 247.926C1011.21 248.926 1013.43 249.326 1015.33 248.726C1016.92 248.226 1018.18 246.926 1019.87 246.826C1021.56 246.726 1023.04 247.726 1024.21 248.926C1025.37 250.126 1026.32 251.426 1027.69 252.326C1029.17 253.226 1030.97 253.626 1032.66 253.226C1034.35 252.826 1035.83 251.526 1036.35 250.026C1037.2 247.726 1036.04 245.026 1036.88 242.626C1037.62 240.526 1040.05 239.126 1042.27 239.526C1045.33 240.026 1046.92 243.126 1048.4 245.726C1050.61 249.826 1053.68 253.826 1058.22 255.526C1059.7 256.126 1061.5 256.526 1062.24 257.826C1063.19 259.526 1061.92 261.526 1060.54 262.926C1057.27 266.226 1053.04 268.826 1048.29 268.926C1041.85 269.126 1036.14 264.926 1032.34 260.026C1031.18 258.526 1030.12 256.926 1028.64 255.826C1027.16 254.726 1025.26 254.326 1023.47 253.826C1021.78 253.426 1020.09 253.026 1018.5 253.326C1016.71 253.726 1015.23 254.926 1013.54 255.526C1011 256.526 1007.94 256.226 1005.72 254.826C1004.56 254.026 1003.5 253.026 1002.66 252.026C1001.07 250.226 999.697 248.326 998.535 246.226C997.373 244.326 996.317 242.226 996.106 240.026C995.789 237.826 996.317 235.426 998.007 233.826C998.747 233.126 999.697 232.526 1000.75 232.626C1002.76 232.926 1002.34 235.926 1002.76 237.326C1003.18 239.426 1004.13 241.726 1005.4 243.726Z" fill="url(#paint30_linear_0_1)"/>
<path opacity="0.1" d="M1012.9 205.127C1013.43 204.927 1013.96 204.727 1014.59 204.727C1015.96 204.827 1016.81 206.327 1017.02 207.627C1017.34 208.927 1017.34 210.327 1018.29 211.327C1019.56 212.727 1021.99 212.627 1023.68 211.627C1025.37 210.627 1026.42 208.927 1027.48 207.427C1029.38 204.727 1031.71 202.127 1034.24 199.927C1036.04 198.327 1038.36 196.727 1040.79 197.327C1042.16 197.627 1043.33 198.727 1044.59 199.227C1047.87 200.527 1051.56 198.627 1054.31 196.427C1057.06 194.227 1059.59 191.527 1063.19 190.927C1066.67 190.427 1070.47 192.227 1073.85 191.127C1076.07 190.427 1077.66 188.427 1077.97 186.227C1078.19 184.227 1077.34 181.927 1078.61 180.127C1079.88 178.427 1082.41 178.327 1084.52 177.727C1088.43 176.727 1091.71 173.327 1091.81 169.527C1091.92 165.727 1088.43 161.927 1084.42 162.027C1083.05 162.027 1081.67 162.527 1080.4 163.127C1075.86 165.327 1072.69 169.827 1072.16 174.727C1071.85 177.927 1072.59 181.427 1071 184.227C1070.16 185.727 1068.78 186.927 1067.09 187.527C1064.66 188.327 1061.81 187.827 1059.38 188.627C1055.79 189.727 1053.57 193.127 1050.93 195.727C1050.19 196.427 1049.45 197.027 1048.4 197.227C1047.66 197.327 1046.81 197.127 1046.07 196.927C1042.48 195.527 1039.94 191.527 1036.04 191.727C1032.66 191.927 1030.44 195.227 1029.49 198.427C1028.54 201.527 1028.11 205.027 1025.79 207.327C1025.16 208.027 1024.1 208.527 1023.15 208.227C1021.88 207.827 1021.56 206.427 1021.56 205.127C1021.46 203.727 1021.35 202.227 1021.25 200.827C1021.14 199.227 1020.93 197.427 1019.66 196.227C1018.5 195.127 1016.7 194.927 1015.12 195.227C1013.54 195.527 1012.16 196.427 1010.89 197.227C1008.15 199.027 1002.02 203.327 1002.34 207.127C1002.55 209.227 1004.77 210.127 1006.67 209.327C1009.1 208.527 1010.58 206.227 1012.9 205.127Z" fill="url(#paint31_linear_0_1)"/>
<path opacity="0.1" d="M1022.94 167.727C1014.38 173.327 1007.51 180.227 1002.23 187.927C1002.55 188.227 1002.87 188.427 1003.29 188.627C1004.87 189.227 1006.78 188.827 1008.25 188.127C1009.73 187.427 1011.11 186.327 1012.48 185.327C1014.38 184.027 1016.39 182.827 1018.61 181.927C1020.4 181.127 1022.94 180.727 1024.1 182.227C1024.63 183.027 1024.63 184.027 1024.52 185.027C1024.21 187.927 1023.89 190.927 1023.57 193.827C1023.47 194.927 1023.36 196.127 1024.21 196.827C1025.47 198.027 1027.59 197.027 1028.75 195.727C1031.71 192.427 1032.66 187.527 1036.14 184.727C1037.09 184.027 1038.36 183.427 1039.52 183.727C1040.79 184.127 1041.42 185.427 1042.06 186.627C1042.8 188.127 1043.75 189.427 1044.81 190.727C1047.34 193.727 1049.56 192.327 1050.72 189.227C1051.78 186.227 1054.63 184.327 1057.8 183.927C1060.23 183.627 1062.55 182.827 1064.35 181.227C1066.04 179.627 1066.36 177.227 1066.36 175.027C1066.36 172.227 1066.57 169.627 1068.47 167.327C1070.37 165.127 1073.01 163.227 1075.86 162.227C1077.45 161.727 1079.24 161.627 1080.72 160.827C1082.31 160.027 1083.26 158.527 1083.57 156.927C1063.29 152.427 1041.32 155.727 1022.94 167.727Z" fill="url(#paint32_linear_0_1)"/>
<path opacity="0.1" d="M1014.8 192.526C1009.84 194.026 1005.93 197.826 1003.5 202.226C1002.44 204.226 1001.49 206.326 999.592 207.726C999.169 208.026 998.747 208.226 998.219 208.126C997.691 208.026 997.374 207.526 997.162 207.026C996.74 205.926 996.845 204.626 997.268 203.526C997.691 202.426 998.43 201.426 999.275 200.426C1001.81 197.626 1005.09 195.526 1008.04 193.126C1010.16 191.426 1012.27 189.526 1014.06 187.626C1015.12 186.526 1016.07 185.426 1017.44 184.826C1018.82 184.226 1020.61 184.126 1021.67 185.126C1022.62 186.026 1022.73 187.526 1022.62 188.826C1022.52 190.126 1022.3 191.426 1021.99 192.726C1021.78 193.626 1021.35 194.926 1020.4 193.626C1019.77 192.826 1019.66 192.326 1018.5 192.126C1017.23 192.026 1015.97 192.126 1014.8 192.526Z" fill="url(#paint33_linear_0_1)"/>
<path opacity="0.5" d="M1066.04 298.627C1107.93 298.627 1141.89 266.481 1141.89 226.827C1141.89 187.173 1107.93 155.027 1066.04 155.027C1024.15 155.027 990.19 187.173 990.19 226.827C990.19 266.481 1024.15 298.627 1066.04 298.627Z" fill="url(#paint34_radial_0_1)"/>
<path opacity="0.1" d="M991.774 212.127C951.843 233.527 927.229 255.027 932.3 266.427C939.378 282.227 1000.75 272.727 1069.31 245.327C1137.87 217.827 1187.84 182.727 1180.76 166.927C1176.01 156.327 1147.17 157.127 1107.98 166.927" stroke="url(#paint35_linear_0_1)" stroke-width="0.25" stroke-miterlimit="10"/>
<path opacity="0.3" d="M991.458 213.327C957.02 232.227 936.104 250.727 940.541 260.527C946.879 274.727 1003.61 265.627 1067.1 240.227C1130.69 214.727 1176.96 182.627 1170.62 168.327C1166.61 159.327 1142.52 159.627 1109.24 167.527" stroke="url(#paint36_linear_0_1)" stroke-width="0.25" stroke-miterlimit="10"/>
<path opacity="0.6" d="M991.14 214.527C962.935 230.427 946.033 245.527 949.625 253.627C955.118 265.927 1006.46 257.127 1064.35 234.027C1122.24 210.827 1164.6 182.027 1159.1 169.727C1155.94 162.527 1137.13 162.527 1110.62 168.327" stroke="url(#paint37_linear_0_1)" stroke-width="0.25" stroke-miterlimit="10"/>
<path d="M990.824 215.827C966.316 229.627 951.738 242.127 954.696 248.527C959.344 258.827 1007.2 249.527 1061.6 227.727C1116 205.927 1156.46 179.827 1151.82 169.527C1149.28 163.927 1133.96 164.127 1111.78 168.927" stroke="url(#paint38_linear_0_1)" stroke-width="0.25" stroke-miterlimit="10"/>
</g>
<g opacity="0.75">
<path d="M916.657 468.688C934.363 481.33 959.737 477.808 973.33 460.822C986.923 443.835 983.589 419.816 965.883 407.173C948.176 394.531 922.803 398.053 909.209 415.04C895.616 432.026 898.95 456.045 916.657 468.688Z" fill="url(#paint39_radial_0_1)"/>
<path opacity="0.1" d="M918.232 411.138C917.872 411.259 917.512 411.38 917.152 411.502C916.071 411.866 915.609 413.429 916.614 414.146C917.032 414.445 917.644 414.503 918.191 414.641C918.738 414.78 919.24 415.138 919.234 415.639C919.228 416.139 918.887 416.401 918.482 416.742C917.203 417.848 916.027 419.154 915.88 420.816C915.734 422.478 916.875 424.176 918.625 424.29C919.236 424.348 919.809 424.126 920.194 423.644C920.625 422.941 920.193 422.002 920.791 421.419C921.176 420.937 922 420.894 922.566 421.173C923.197 421.371 923.699 421.729 924.459 421.767C925.45 421.843 926.343 421.22 927.005 420.557C927.198 420.316 927.455 419.994 927.564 419.694C927.679 418.892 926.63 418.396 925.768 418.158C924.905 417.921 923.901 417.204 924.247 416.442C924.485 415.981 924.993 415.839 925.334 415.577C925.758 415.376 926.144 414.894 926.002 414.414C925.899 414.214 925.648 414.035 925.416 413.995C924.219 413.519 922.797 414.145 921.684 413.728C921.6 413.668 921.452 413.689 921.433 413.549C921.329 413.349 921.374 413.129 921.419 412.908C921.721 412.367 922.377 412.204 922.763 411.722C922.827 411.642 922.891 411.562 922.872 411.422C922.852 411.281 922.852 411.281 922.769 411.222C922.311 410.643 921.32 410.566 920.58 410.669C919.776 410.852 919.036 410.955 918.232 411.138Z" fill="url(#paint40_linear_0_1)"/>
<path opacity="0.1" d="M925.12 424.425C926.306 424.261 927.266 423.555 927.994 422.81C928.786 421.984 929.495 421.099 930.307 420.414C932.123 418.802 934.818 418.07 937.288 418.442C938.133 418.54 939.017 418.918 939.282 419.74C939.793 421.243 937.641 422.615 937.855 424.16C937.952 424.862 938.475 425.362 938.979 425.721C939.63 426.06 940.262 426.258 940.959 426.376C944.397 427.187 947.745 428.44 950.597 430.477C951.52 431.136 952.378 431.875 952.895 432.877C953.412 433.878 953.439 435.162 952.795 435.967C952.215 436.692 951.281 437.036 950.475 437.22C949.16 437.545 947.741 437.671 946.496 437.414C945.252 437.158 943.884 436.561 943.135 435.52C942.321 434.559 941.998 433.316 941.461 432.174C940.944 431.173 940.131 430.212 939.079 429.714C938.028 429.216 936.525 429.282 935.585 430.128C934.773 430.813 934.548 431.918 933.82 432.663C933.157 433.327 932.138 433.612 931.274 433.374C930.41 433.136 929.699 432.376 929.499 431.474C929.382 430.631 929.794 429.787 930.393 429.203C930.908 428.559 931.591 428.035 932.19 427.451C932.918 426.706 933.607 425.68 933.11 424.819C932.696 424.017 931.471 423.901 930.517 424.105C929.414 424.33 928.435 424.895 927.707 425.64C926.979 426.385 926.419 427.25 925.755 427.915C925.027 428.66 924.047 429.225 922.97 429.089C921.809 428.892 920.996 427.932 920.84 426.808C920.62 425.766 920.909 424.58 921.217 423.536C921.327 423.234 921.461 422.572 922.01 422.71C922.242 422.75 922.488 423.431 922.655 423.551C923.198 424.191 924.23 424.549 925.12 424.425Z" fill="url(#paint41_linear_0_1)"/>
<path opacity="0.1" d="M954.321 438.223C953.138 440.03 951.074 441.459 948.853 441.767C946.633 442.076 944.173 441.203 943.013 439.365C942.723 438.905 942.497 438.365 942.143 437.986C941.079 436.848 939.264 436.814 937.655 437.18C934.966 437.911 932.451 439.902 931.681 442.509C930.911 445.115 931.931 448.115 934.385 449.489C936.504 450.623 939.04 450.414 941.369 449.805C943.699 449.196 945.989 448.306 948.396 448.258C949.896 448.192 951.518 448.467 952.221 449.726C952.698 450.446 952.603 451.387 952.591 452.389C952.509 453.971 952.594 455.673 953.104 457.174C953.614 458.674 954.568 460.112 955.972 460.989C957.441 461.785 959.275 461.958 960.968 461.652C962.66 461.346 964.211 460.559 965.761 459.773C968.991 458.039 972.123 455.605 973.24 452.236C973.503 451.414 973.663 450.392 973.057 449.834C972.703 449.454 972.155 449.316 971.692 449.238C969.606 448.884 967.405 449.333 965.21 449.28C964.386 449.323 963.543 449.226 962.744 448.908C961.946 448.591 961.257 447.972 961.224 447.191C961.087 446.211 961.775 445.187 962.605 444.643C963.499 444.019 964.535 443.875 965.616 443.511C969.027 442.538 972.34 440.864 974.294 438.093C974.872 437.37 975.284 436.528 975.315 435.666C975.346 434.805 974.914 433.865 973.968 433.568C973.021 433.271 972.108 433.755 971.194 434.239C968.897 435.629 966.724 437.359 964.014 437.949C963.358 438.112 962.598 438.074 962.096 437.715C961.51 437.297 961.477 436.516 961.463 435.875C961.391 434.814 961.172 433.773 960.675 432.914C959.869 431.455 956.991 430.283 955.995 432.349C955.648 433.112 955.784 434.093 955.65 434.754C955.509 435.916 955.009 437.2 954.321 438.223Z" fill="url(#paint42_linear_0_1)"/>
<path opacity="0.1" d="M941.49 420.779C941.981 420.496 942.659 420.473 942.802 420.955C942.905 421.156 942.712 421.398 942.583 421.559C942.235 422.325 942.158 423.411 942.914 423.951C943.334 424.251 943.8 424.33 944.349 424.468C946.926 425.042 949.31 425.858 951.649 426.896C952.217 427.175 952.889 427.655 952.735 428.179C952.645 428.621 952.07 428.844 951.605 428.766C951.14 428.687 950.74 428.527 950.32 428.227C948.278 427.149 946.191 426.291 943.995 425.736C942.813 425.399 941.101 425.063 940.415 423.939C939.833 423.017 940.445 421.426 941.49 420.779Z" fill="url(#paint43_linear_0_1)"/>
<path opacity="0.1" d="M963.407 432.638C963.568 433.258 963.582 433.899 963.956 434.419C964.6 435.258 965.868 435.153 966.846 434.589C967.76 434.105 968.403 433.301 969.13 432.558C970.069 431.713 971.195 431.128 972.444 430.883C973.609 430.579 974.98 430.674 975.689 431.433C976.127 431.872 976.392 432.692 977.023 432.891C977.57 433.029 978.124 432.666 978.278 432.145C978.515 431.683 978.438 431.123 978.147 430.663C977.799 429.783 977.026 429.105 976.227 428.787C974.945 428.251 973.484 428.596 972.191 429.061C970.981 429.587 969.894 430.452 968.723 431.257C968.105 431.7 967.256 432.104 966.56 431.986C965.55 431.769 964.93 430.569 963.9 430.212C963.352 430.074 961.64 430.24 962.053 431.04C962.156 431.24 962.62 431.319 962.787 431.438C963.161 431.958 963.284 432.298 963.407 432.638Z" fill="url(#paint44_linear_0_1)"/>
<path opacity="0.1" d="M967.787 444.911C967.317 445.333 967.035 446.014 967.409 446.533C967.679 446.853 968.226 446.991 968.753 446.989C970.124 447.084 971.494 447.18 972.864 447.275C973.706 447.372 974.633 447.529 975.026 448.188C975.148 448.528 975.123 448.888 975.245 449.228C975.368 449.567 975.574 449.967 976.018 449.905C976.25 449.945 976.378 449.784 976.59 449.683C977.676 448.819 978.26 447.596 978.529 446.274C978.798 444.953 978.771 443.672 978.744 442.391C978.686 441.971 978.775 441.531 978.569 441.131C978.363 440.731 978.009 440.352 977.565 440.414C976.742 440.457 976.331 441.299 976.068 442.12C975.721 442.882 975.227 443.664 974.443 443.987C973.298 444.432 972.744 443.153 971.58 443.457C970.5 443.821 968.68 444.288 967.787 444.911Z" fill="url(#paint45_linear_0_1)"/>
<path opacity="0.1" d="M912.286 421.786C911.978 422.829 911.818 423.852 912.038 424.893C912.258 425.935 912.839 426.855 913.806 427.292C914.605 427.61 915.597 427.687 916.203 428.246C916.809 428.805 917.01 429.706 916.914 430.649C916.883 431.511 916.619 432.334 916.736 433.175C916.853 434.016 917.35 434.877 918.168 435.335C918.987 435.793 919.979 435.869 920.829 435.466C922.104 434.86 922.817 433.474 924.028 432.949C925.174 432.504 926.649 432.799 927.314 433.779C928.249 435.079 927.51 436.825 926.964 438.33C926.071 440.598 925.533 443.246 926.456 445.548C926.785 446.288 927.198 447.089 926.935 447.911C926.543 448.895 925.294 449.14 924.237 449.143C921.744 449.132 919.09 448.5 917.272 446.823C914.847 444.586 914.554 440.839 915.246 437.67C915.49 436.707 915.734 435.744 915.598 434.762C915.461 433.781 915.048 432.98 914.551 432.12C914.138 431.32 913.661 430.6 912.991 430.121C912.236 429.583 911.16 429.446 910.213 429.149C908.931 428.612 907.931 427.393 907.672 426.071C907.575 425.37 907.626 424.648 907.741 423.846C907.946 422.603 908.234 421.419 908.671 420.215C909.044 419.091 909.564 417.947 910.336 416.982C911.192 416.077 912.299 415.352 913.588 415.387C914.116 415.385 914.747 415.584 915.102 415.963C915.747 416.803 914.299 417.79 913.932 418.413C913.16 419.377 912.575 420.602 912.286 421.786Z" fill="url(#paint46_linear_0_1)"/>
<path opacity="0.1" d="M930.768 410.585C931.084 410.684 931.336 410.864 931.588 411.044C932.047 411.625 931.699 412.389 931.332 413.013C930.881 413.577 930.281 414.162 930.23 414.885C930.07 415.91 931.013 416.71 932.11 416.987C933.123 417.204 934.227 416.979 935.265 416.835C937.11 416.507 938.995 416.461 940.814 416.494C942.105 416.53 943.667 416.886 944.268 417.948C944.662 418.61 944.611 419.333 944.857 420.015C945.472 421.72 947.602 422.355 949.589 422.509C951.428 422.683 953.545 422.675 955.056 423.755C956.567 424.834 957.156 426.9 958.86 427.738C959.996 428.296 961.416 428.171 962.377 427.464C963.337 426.758 963.943 425.671 965.046 425.447C966.233 425.282 967.195 426.222 968.183 426.801C969.991 427.839 972.637 427.83 974.261 426.459C975.886 425.087 976.193 422.395 974.707 420.954C974.184 420.454 973.532 420.115 972.816 419.856C970.202 419.002 967.169 419.495 965.055 421.149C963.539 422.219 962.463 423.729 960.722 424.257C959.851 424.521 958.773 424.384 957.889 424.006C956.669 423.387 955.899 422.205 954.595 421.527C952.807 420.63 950.601 421.079 948.633 421.066C948.104 421.068 947.491 421.01 947.071 420.71C946.735 420.47 946.528 420.069 946.405 419.728C945.687 417.823 946.414 415.43 944.948 414.13C943.65 412.95 941.443 413.399 939.889 414.188C938.27 415.057 936.607 416.148 934.787 416.114C934.258 416.116 933.709 415.977 933.419 415.516C933.108 414.915 933.624 414.27 934.159 413.766C934.758 413.182 935.21 412.618 935.809 412.033C936.473 411.368 937.053 410.643 937.084 409.78C937.116 408.916 936.573 408.275 935.902 407.796C935.23 407.316 934.301 407.159 933.52 406.981C931.809 406.645 927.776 405.916 926.255 407.488C925.462 408.314 925.934 409.538 926.967 409.896C928.019 410.394 929.503 410.188 930.768 410.585Z" fill="url(#paint47_linear_0_1)"/>
<path opacity="0.1" d="M949.946 400.446C944.583 399.401 939.208 399.359 934.033 400.221C933.988 400.442 934.092 400.643 934.195 400.843C934.525 401.585 935.365 402.185 936.23 402.423C937.094 402.66 938.024 402.818 938.953 402.975C940.199 403.232 941.444 403.489 942.645 403.966C943.678 404.324 944.769 405.104 944.46 406.149C944.306 406.672 943.9 407.015 943.41 407.298C942.107 408.266 940.805 409.235 939.418 410.143C938.928 410.426 938.393 410.93 938.387 411.432C938.356 412.296 939.556 412.774 940.531 412.71C943.008 412.581 945.375 411.106 947.763 411.419C948.376 411.477 949.092 411.736 949.403 412.337C949.713 412.939 949.365 413.703 949.146 414.306C948.799 415.071 948.619 415.955 948.439 416.839C948.119 418.889 949.448 419.206 951.235 418.456C952.873 417.728 954.667 418.123 956.01 419.082C957.018 419.802 958.238 420.42 959.528 420.456C960.819 420.491 961.928 419.764 962.785 418.858C963.92 417.769 965.093 416.962 966.81 416.795C968.377 416.649 970.236 416.964 971.624 417.702C972.36 418.101 973.051 418.721 973.916 418.959C974.781 419.197 975.82 419.053 976.587 418.588C970.893 409.711 961.621 402.835 949.946 400.446Z" fill="url(#paint48_linear_0_1)"/>
<path opacity="0.1" d="M936.657 406.533C934.285 405.219 931.264 405.209 928.572 405.94C927.406 406.245 926.112 406.71 924.952 406.514C924.72 406.475 924.405 406.376 924.301 406.176C924.114 405.916 924.223 405.615 924.416 405.373C924.719 404.831 925.337 404.388 925.974 404.085C926.611 403.782 927.288 403.76 927.964 403.737C930.057 403.59 932.081 404.024 934.232 404.297C935.688 404.452 937.209 404.527 938.709 404.461C939.534 404.418 940.358 404.375 941.074 404.634C941.789 404.892 942.479 405.511 942.512 406.292C942.461 407.014 941.927 407.517 941.309 407.96C940.691 408.403 940.073 408.846 939.435 409.149C938.946 409.431 938.309 409.734 938.424 408.932C938.578 408.41 938.707 408.25 938.333 407.73C937.81 407.231 937.224 406.812 936.657 406.533Z" fill="url(#paint49_linear_0_1)"/>
<path opacity="0.5" d="M916.657 468.688C934.363 481.33 959.737 477.808 973.33 460.822C986.923 443.835 983.589 419.816 965.883 407.173C948.176 394.531 922.803 398.053 909.209 415.04C895.616 432.026 898.95 456.045 916.657 468.688Z" fill="url(#paint50_radial_0_1)"/>
<path opacity="0.1" d="M920.393 405.239C897.049 398.441 879.105 397.273 876.259 403.473C872.286 411.907 898.473 430.995 934.786 446.172C971.163 461.268 1003.78 466.71 1007.81 458.195C1010.51 452.519 999.677 442.123 981.462 431.389" stroke="url(#paint51_linear_0_1)" stroke-width="0.25" stroke-miterlimit="10"/>
<path opacity="0.3" d="M919.743 405.551C899.351 399.849 884.176 399.014 881.658 404.308C878.098 411.897 902.398 429.384 936.057 443.425C969.716 457.465 999.941 462.593 1003.5 455.004C1005.78 450.173 996.924 441.439 981.551 432.102" stroke="url(#paint52_linear_0_1)" stroke-width="0.25" stroke-miterlimit="10"/>
<path opacity="0.6" d="M919.026 405.945C902.134 401.477 889.774 400.753 887.733 405.122C884.564 411.725 906.875 427.411 937.544 440.076C968.149 452.82 995.56 457.837 998.644 451.174C1000.53 447.328 993.665 440.396 981.638 432.817" stroke="url(#paint53_linear_0_1)" stroke-width="0.25" stroke-miterlimit="10"/>
<path d="M918.695 406.291C904.062 402.298 893.606 401.668 891.957 405.051C889.394 410.568 910.601 424.833 939.355 436.761C968.193 448.75 993.677 454.035 996.304 448.438C997.779 445.438 992.083 439.847 982.032 433.427" stroke="url(#paint54_linear_0_1)" stroke-width="0.25" stroke-miterlimit="10"/>
</g>
<path d="M435.675 623.928L489.35 600.394C489.995 600.164 490.211 599.356 489.995 598.779C489.78 598.087 489.027 597.856 488.489 598.087L434.814 621.621C434.169 621.852 433.954 622.659 434.169 623.236C434.384 623.813 435.137 624.159 435.675 623.928Z" fill="url(#paint55_linear_0_1)"/>
<path d="M961.751 523.87L1015.43 501.297C1016.07 501.075 1016.29 500.301 1016.07 499.747C1015.86 499.083 1015.1 498.862 1014.57 499.083L960.891 521.657C960.246 521.878 960.03 522.653 960.245 523.206C960.461 523.87 961.106 524.202 961.751 523.87Z" fill="url(#paint56_linear_0_1)"/>
<path d="M744.157 511.92L768.225 502.234C768.878 502.018 769.096 501.265 768.878 500.727C768.661 500.081 767.898 499.866 767.354 500.081L743.286 509.767C742.632 509.983 742.415 510.736 742.632 511.274C742.85 511.92 743.613 512.135 744.157 511.92Z" fill="url(#paint57_linear_0_1)"/>
<defs>
<filter id="filter0_f_0_1" x="0.154602" y="551.846" width="100" height="100" filterUnits="userSpaceOnUse" color-interpolation-filters="sRGB">
<feFlood flood-opacity="0" result="BackgroundImageFix"/>
<feBlend mode="normal" in="SourceGraphic" in2="BackgroundImageFix" result="shape"/>
<feGaussianBlur stdDeviation="7.5" result="effect1_foregroundBlur_0_1"/>
</filter>
<filter id="filter1_f_0_1" x="400.586" y="267.94" width="100" height="100" filterUnits="userSpaceOnUse" color-interpolation-filters="sRGB">
<feFlood flood-opacity="0" result="BackgroundImageFix"/>
<feBlend mode="normal" in="SourceGraphic" in2="BackgroundImageFix" result="shape"/>
<feGaussianBlur stdDeviation="7.5" result="effect1_foregroundBlur_0_1"/>
</filter>
<filter id="filter2_f_0_1" x="1066.59" y="594.94" width="100" height="100" filterUnits="userSpaceOnUse" color-interpolation-filters="sRGB">
<feFlood flood-opacity="0" result="BackgroundImageFix"/>
<feBlend mode="normal" in="SourceGraphic" in2="BackgroundImageFix" result="shape"/>
<feGaussianBlur stdDeviation="7.5" result="effect1_foregroundBlur_0_1"/>
</filter>
<filter id="filter3_f_0_1" x="351" y="1241" width="100" height="100" filterUnits="userSpaceOnUse" color-interpolation-filters="sRGB">
<feFlood flood-opacity="0" result="BackgroundImageFix"/>
<feBlend mode="normal" in="SourceGraphic" in2="BackgroundImageFix" result="shape"/>
<feGaussianBlur stdDeviation="7.5" result="effect1_foregroundBlur_0_1"/>
</filter>
<radialGradient id="paint0_radial_0_1" cx="0" cy="0" r="1" gradientUnits="userSpaceOnUse" gradientTransform="translate(742.154 282.967) scale(4.75412 4.01566)">
<stop stop-color="#26FFEF"/>
<stop offset="0.00722521" stop-color="#26FDEE" stop-opacity="0.9928"/>
<stop offset="0.2923" stop-color="#2AA7BD" stop-opacity="0.7077"/>
<stop offset="0.5439" stop-color="#2E6396" stop-opacity="0.4561"/>
<stop offset="0.7526" stop-color="#30327A" stop-opacity="0.2474"/>
<stop offset="0.9109" stop-color="#311468" stop-opacity="0.0891204"/>
<stop offset="1" stop-color="#320962" stop-opacity="0"/>
</radialGradient>
<radialGradient id="paint1_radial_0_1" cx="0" cy="0" r="1" gradientUnits="userSpaceOnUse" gradientTransform="translate(770.544 288.418) scale(4.75412 4.01566)">
<stop stop-color="#26FFEF"/>
<stop offset="0.00722521" stop-color="#26FDEE" stop-opacity="0.9928"/>
<stop offset="0.2923" stop-color="#2AA7BD" stop-opacity="0.7077"/>
<stop offset="0.5439" stop-color="#2E6396" stop-opacity="0.4561"/>
<stop offset="0.7526" stop-color="#30327A" stop-opacity="0.2474"/>
<stop offset="0.9109" stop-color="#311468" stop-opacity="0.0891204"/>
<stop offset="1" stop-color="#320962" stop-opacity="0"/>
</radialGradient>
<radialGradient id="paint2_radial_0_1" cx="0" cy="0" r="1" gradientUnits="userSpaceOnUse" gradientTransform="translate(782.111 274.242) scale(4.75412 4.01566)">
<stop stop-color="#26FFEF"/>
<stop offset="0.00722521" stop-color="#26FDEE" stop-opacity="0.9928"/>
<stop offset="0.2923" stop-color="#2AA7BD" stop-opacity="0.7077"/>
<stop offset="0.5439" stop-color="#2E6396" stop-opacity="0.4561"/>
<stop offset="0.7526" stop-color="#30327A" stop-opacity="0.2474"/>
<stop offset="0.9109" stop-color="#311468" stop-opacity="0.0891204"/>
<stop offset="1" stop-color="#320962" stop-opacity="0"/>
</radialGradient>
<radialGradient id="paint3_radial_0_1" cx="0" cy="0" r="1" gradientUnits="userSpaceOnUse" gradientTransform="translate(650.68 140.448) scale(4.75412 4.01566)">
<stop stop-color="#26FFEF"/>
<stop offset="0.00722521" stop-color="#26FDEE" stop-opacity="0.9928"/>
<stop offset="0.2923" stop-color="#2AA7BD" stop-opacity="0.7077"/>
<stop offset="0.5439" stop-color="#2E6396" stop-opacity="0.4561"/>
<stop offset="0.7526" stop-color="#30327A" stop-opacity="0.2474"/>
<stop offset="0.9109" stop-color="#311468" stop-opacity="0.0891204"/>
<stop offset="1" stop-color="#320962" stop-opacity="0"/>
</radialGradient>
<radialGradient id="paint4_radial_0_1" cx="0" cy="0" r="1" gradientUnits="userSpaceOnUse" gradientTransform="translate(614.658 165.458) scale(4.75412 4.01566)">
<stop stop-color="#26FFEF"/>
<stop offset="0.00722521" stop-color="#26FDEE" stop-opacity="0.9928"/>
<stop offset="0.2923" stop-color="#2AA7BD" stop-opacity="0.7077"/>
<stop offset="0.5439" stop-color="#2E6396" stop-opacity="0.4561"/>
<stop offset="0.7526" stop-color="#30327A" stop-opacity="0.2474"/>
<stop offset="0.9109" stop-color="#311468" stop-opacity="0.0891204"/>
<stop offset="1" stop-color="#320962" stop-opacity="0"/>
</radialGradient>
<radialGradient id="paint5_radial_0_1" cx="0" cy="0" r="1" gradientUnits="userSpaceOnUse" gradientTransform="translate(686.722 194.804) scale(4.75412 4.01566)">
<stop stop-color="#FC49EF"/>
<stop offset="0.171" stop-color="#CA39CC" stop-opacity="0.829"/>
<stop offset="0.379" stop-color="#9428A7" stop-opacity="0.621"/>
<stop offset="0.5732" stop-color="#6A1B89" stop-opacity="0.4268"/>
<stop offset="0.7475" stop-color="#4B1174" stop-opacity="0.2525"/>
<stop offset="0.8956" stop-color="#390B67" stop-opacity="0.1044"/>
<stop offset="1" stop-color="#320962" stop-opacity="0"/>
</radialGradient>
<radialGradient id="paint6_radial_0_1" cx="0" cy="0" r="1" gradientUnits="userSpaceOnUse" gradientTransform="translate(825.96 145.805) scale(4.75412 4.01566)">
<stop stop-color="#FFFFE4"/>
<stop offset="0.00722521" stop-color="#FDFDE3" stop-opacity="0.9928"/>
<stop offset="0.2923" stop-color="#B6A7B6" stop-opacity="0.7077"/>
<stop offset="0.5439" stop-color="#7D6392" stop-opacity="0.4561"/>
<stop offset="0.7526" stop-color="#553278" stop-opacity="0.2474"/>
<stop offset="0.9109" stop-color="#3B1468" stop-opacity="0.0891204"/>
<stop offset="1" stop-color="#320962" stop-opacity="0"/>
</radialGradient>
<radialGradient id="paint7_radial_0_1" cx="0" cy="0" r="1" gradientUnits="userSpaceOnUse" gradientTransform="translate(579.88 198.051) scale(4.75412 4.01566)">
<stop stop-color="#FFFFE4"/>
<stop offset="0.00722521" stop-color="#FDFDE3" stop-opacity="0.9928"/>
<stop offset="0.2923" stop-color="#B6A7B6" stop-opacity="0.7077"/>
<stop offset="0.5439" stop-color="#7D6392" stop-opacity="0.4561"/>
<stop offset="0.7526" stop-color="#553278" stop-opacity="0.2474"/>
<stop offset="0.9109" stop-color="#3B1468" stop-opacity="0.0891204"/>
<stop offset="1" stop-color="#320962" stop-opacity="0"/>
</radialGradient>
<radialGradient id="paint8_radial_0_1" cx="0" cy="0" r="1" gradientUnits="userSpaceOnUse" gradientTransform="translate(787.237 200.316) scale(4.75412 4.01566)">
<stop stop-color="#FFFFE4"/>
<stop offset="0.00722521" stop-color="#FDFDE3" stop-opacity="0.9928"/>
<stop offset="0.2923" stop-color="#B6A7B6" stop-opacity="0.7077"/>
<stop offset="0.5439" stop-color="#7D6392" stop-opacity="0.4561"/>
<stop offset="0.7526" stop-color="#553278" stop-opacity="0.2474"/>
<stop offset="0.9109" stop-color="#3B1468" stop-opacity="0.0891204"/>
<stop offset="1" stop-color="#320962" stop-opacity="0"/>
</radialGradient>
<radialGradient id="paint9_radial_0_1" cx="0" cy="0" r="1" gradientUnits="userSpaceOnUse" gradientTransform="translate(819.581 249.309) scale(4.75412 4.01566)">
<stop stop-color="#FFFFE4"/>
<stop offset="0.00722521" stop-color="#FDFDE3" stop-opacity="0.9928"/>
<stop offset="0.2923" stop-color="#B6A7B6" stop-opacity="0.7077"/>
<stop offset="0.5439" stop-color="#7D6392" stop-opacity="0.4561"/>
<stop offset="0.7526" stop-color="#553278" stop-opacity="0.2474"/>
<stop offset="0.9109" stop-color="#3B1468" stop-opacity="0.0891204"/>
<stop offset="1" stop-color="#320962" stop-opacity="0"/>
</radialGradient>
<radialGradient id="paint10_radial_0_1" cx="0" cy="0" r="1" gradientUnits="userSpaceOnUse" gradientTransform="translate(664.931 267.719) scale(4.75412 4.01566)">
<stop stop-color="#FFFFE4"/>
<stop offset="0.00722521" stop-color="#FDFDE3" stop-opacity="0.9928"/>
<stop offset="0.2923" stop-color="#B6A7B6" stop-opacity="0.7077"/>
<stop offset="0.5439" stop-color="#7D6392" stop-opacity="0.4561"/>
<stop offset="0.7526" stop-color="#553278" stop-opacity="0.2474"/>
<stop offset="0.9109" stop-color="#3B1468" stop-opacity="0.0891204"/>
<stop offset="1" stop-color="#320962" stop-opacity="0"/>
</radialGradient>
<radialGradient id="paint11_radial_0_1" cx="0" cy="0" r="1" gradientUnits="userSpaceOnUse" gradientTransform="translate(565.549 244.972) scale(4.75412 4.01566)">
<stop stop-color="#FFFFE4"/>
<stop offset="0.00722521" stop-color="#FDFDE3" stop-opacity="0.9928"/>
<stop offset="0.2923" stop-color="#B6A7B6" stop-opacity="0.7077"/>
<stop offset="0.5439" stop-color="#7D6392" stop-opacity="0.4561"/>
<stop offset="0.7526" stop-color="#553278" stop-opacity="0.2474"/>
<stop offset="0.9109" stop-color="#3B1468" stop-opacity="0.0891204"/>
<stop offset="1" stop-color="#320962" stop-opacity="0"/>
</radialGradient>
<radialGradient id="paint12_radial_0_1" cx="0" cy="0" r="1" gradientUnits="userSpaceOnUse" gradientTransform="translate(584.948 244.972) scale(4.75412 4.01566)">
<stop stop-color="#FFFFE4"/>
<stop offset="0.00722521" stop-color="#FDFDE3" stop-opacity="0.9928"/>
<stop offset="0.2923" stop-color="#B6A7B6" stop-opacity="0.7077"/>
<stop offset="0.5439" stop-color="#7D6392" stop-opacity="0.4561"/>
<stop offset="0.7526" stop-color="#553278" stop-opacity="0.2474"/>
<stop offset="0.9109" stop-color="#3B1468" stop-opacity="0.0891204"/>
<stop offset="1" stop-color="#320962" stop-opacity="0"/>
</radialGradient>
<radialGradient id="paint13_radial_0_1" cx="0" cy="0" r="1" gradientUnits="userSpaceOnUse" gradientTransform="translate(693.103 178.581) scale(4.75412 4.01566)">
<stop stop-color="#FFFFE4"/>
<stop offset="0.00722521" stop-color="#FDFDE3" stop-opacity="0.9928"/>
<stop offset="0.2923" stop-color="#B6A7B6" stop-opacity="0.7077"/>
<stop offset="0.5439" stop-color="#7D6392" stop-opacity="0.4561"/>
<stop offset="0.7526" stop-color="#553278" stop-opacity="0.2474"/>
<stop offset="0.9109" stop-color="#3B1468" stop-opacity="0.0891204"/>
<stop offset="1" stop-color="#320962" stop-opacity="0"/>
</radialGradient>
<radialGradient id="paint14_radial_0_1" cx="0" cy="0" r="1" gradientUnits="userSpaceOnUse" gradientTransform="translate(819.581 272.201) scale(4.75412 4.01566)">
<stop stop-color="#FFFFE4"/>
<stop offset="0.00722521" stop-color="#FDFDE3" stop-opacity="0.9928"/>
<stop offset="0.2923" stop-color="#B6A7B6" stop-opacity="0.7077"/>
<stop offset="0.5439" stop-color="#7D6392" stop-opacity="0.4561"/>
<stop offset="0.7526" stop-color="#553278" stop-opacity="0.2474"/>
<stop offset="0.9109" stop-color="#3B1468" stop-opacity="0.0891204"/>
<stop offset="1" stop-color="#320962" stop-opacity="0"/>
</radialGradient>
<radialGradient id="paint15_radial_0_1" cx="0" cy="0" r="1" gradientUnits="userSpaceOnUse" gradientTransform="translate(768.552 164.401) scale(10.1149 9.04629)">
<stop stop-color="#26FFEF"/>
<stop offset="0.00722521" stop-color="#26FDEE" stop-opacity="0.9928"/>
<stop offset="0.2923" stop-color="#2AA7BD" stop-opacity="0.7077"/>
<stop offset="0.5439" stop-color="#2E6396" stop-opacity="0.4561"/>
<stop offset="0.7526" stop-color="#30327A" stop-opacity="0.2474"/>
<stop offset="0.9109" stop-color="#311468" stop-opacity="0.0891204"/>
<stop offset="1" stop-color="#320962" stop-opacity="0"/>
</radialGradient>
<radialGradient id="paint16_radial_0_1" cx="0" cy="0" r="1" gradientUnits="userSpaceOnUse" gradientTransform="translate(675.8 293.374) scale(10.1147 8.54358)">
<stop stop-color="#26FFEF"/>
<stop offset="0.00722521" stop-color="#26FDEE" stop-opacity="0.9928"/>
<stop offset="0.2923" stop-color="#2AA7BD" stop-opacity="0.7077"/>
<stop offset="0.5439" stop-color="#2E6396" stop-opacity="0.4561"/>
<stop offset="0.7526" stop-color="#30327A" stop-opacity="0.2474"/>
<stop offset="0.9109" stop-color="#311468" stop-opacity="0.0891204"/>
<stop offset="1" stop-color="#320962" stop-opacity="0"/>
</radialGradient>
<radialGradient id="paint17_radial_0_1" cx="0" cy="0" r="1" gradientUnits="userSpaceOnUse" gradientTransform="translate(703.554 284.15) scale(10.7097 9.04614)">
<stop stop-color="#FC49EF"/>
<stop offset="0.171" stop-color="#CA39CC" stop-opacity="0.829"/>
<stop offset="0.379" stop-color="#9428A7" stop-opacity="0.621"/>
<stop offset="0.5732" stop-color="#6A1B89" stop-opacity="0.4268"/>
<stop offset="0.7475" stop-color="#4B1174" stop-opacity="0.2525"/>
<stop offset="0.8956" stop-color="#390B67" stop-opacity="0.1044"/>
<stop offset="1" stop-color="#320962" stop-opacity="0"/>
</radialGradient>
<radialGradient id="paint18_radial_0_1" cx="0" cy="0" r="1" gradientUnits="userSpaceOnUse" gradientTransform="translate(687.366 159.986) scale(10.1147 9.04614)">
<stop stop-color="#FC49EF"/>
<stop offset="0.171" stop-color="#CA39CC" stop-opacity="0.829"/>
<stop offset="0.379" stop-color="#9428A7" stop-opacity="0.621"/>
<stop offset="0.5732" stop-color="#6A1B89" stop-opacity="0.4268"/>
<stop offset="0.7475" stop-color="#4B1174" stop-opacity="0.2525"/>
<stop offset="0.8956" stop-color="#390B67" stop-opacity="0.1044"/>
<stop offset="1" stop-color="#320962" stop-opacity="0"/>
</radialGradient>
<linearGradient id="paint19_linear_0_1" x1="246.88" y1="98.8679" x2="1425.62" y2="151.525" gradientUnits="userSpaceOnUse">
<stop stop-color="#FC49EF"/>
<stop offset="0.2524" stop-color="#320962" stop-opacity="0"/>
<stop offset="0.2648" stop-color="#471071" stop-opacity="0.0500984"/>
<stop offset="0.2955" stop-color="#771F92" stop-opacity="0.174"/>
<stop offset="0.3272" stop-color="#A02CAF" stop-opacity="0.3019"/>
<stop offset="0.3593" stop-color="#C136C6" stop-opacity="0.4317"/>
<stop offset="0.3921" stop-color="#DB3FD8" stop-opacity="0.5642"/>
<stop offset="0.4258" stop-color="#ED44E5" stop-opacity="0.7003"/>
<stop offset="0.461" stop-color="#F848ED" stop-opacity="0.8424"/>
<stop offset="0.5" stop-color="#FC49EF"/>
<stop offset="0.7533" stop-color="#320962" stop-opacity="0"/>
<stop offset="1" stop-color="#FC49EF"/>
</linearGradient>
<linearGradient id="paint20_linear_0_1" x1="193.641" y1="226.688" x2="605.66" y2="539.595" gradientUnits="userSpaceOnUse">
<stop stop-color="#FC49EF"/>
<stop offset="0.2524" stop-color="#320962" stop-opacity="0"/>
<stop offset="0.2648" stop-color="#471071" stop-opacity="0.0500984"/>
<stop offset="0.2955" stop-color="#771F92" stop-opacity="0.174"/>
<stop offset="0.3272" stop-color="#A02CAF" stop-opacity="0.3019"/>
<stop offset="0.3593" stop-color="#C136C6" stop-opacity="0.4317"/>
<stop offset="0.3921" stop-color="#DB3FD8" stop-opacity="0.5642"/>
<stop offset="0.4258" stop-color="#ED44E5" stop-opacity="0.7003"/>
<stop offset="0.461" stop-color="#F848ED" stop-opacity="0.8424"/>
<stop offset="0.5" stop-color="#FC49EF"/>
<stop offset="0.7533" stop-color="#320962" stop-opacity="0"/>
<stop offset="1" stop-color="#FC49EF"/>
</linearGradient>
<linearGradient id="paint21_linear_0_1" x1="699.586" y1="338.308" x2="1593.99" y2="338.308" gradientUnits="userSpaceOnUse">
<stop/>
<stop offset="0.1706" stop-color="#5D5D5D"/>
<stop offset="0.3913" stop-color="#D1D1D1"/>
<stop offset="0.4893" stop-color="white"/>
<stop offset="0.5326" stop-color="#F6F6F6"/>
<stop offset="0.6046" stop-color="#DCDCDC"/>
<stop offset="0.6962" stop-color="#B3B3B3"/>
<stop offset="0.8039" stop-color="#7A7A7A"/>
<stop offset="0.9238" stop-color="#323232"/>
<stop offset="1"/>
</linearGradient>
<linearGradient id="paint22_linear_0_1" x1="607.972" y1="278.545" x2="523.993" y2="318.961" gradientUnits="userSpaceOnUse">
<stop stop-color="#26FFEF"/>
<stop offset="0.0751937" stop-color="#27E4DF" stop-opacity="0.9248"/>
<stop offset="0.2696" stop-color="#2BA2BA" stop-opacity="0.7304"/>
<stop offset="0.4547" stop-color="#2D6B9A" stop-opacity="0.5453"/>
<stop offset="0.6252" stop-color="#2F4182" stop-opacity="0.3748"/>
<stop offset="0.7783" stop-color="#312270" stop-opacity="0.2217"/>
<stop offset="0.9084" stop-color="#321066" stop-opacity="0.0916342"/>
<stop offset="1" stop-color="#320962" stop-opacity="0"/>
</linearGradient>
<radialGradient id="paint23_radial_0_1" cx="0" cy="0" r="1" gradientUnits="userSpaceOnUse" gradientTransform="translate(1052.43 154.19) rotate(-33.1295) scale(155.279 152.082)">
<stop stop-color="#26FFEF"/>
<stop offset="0.0874181" stop-color="#26F5E9" stop-opacity="0.9126"/>
<stop offset="0.2352" stop-color="#28DBDA" stop-opacity="0.7648"/>
<stop offset="0.4255" stop-color="#2AAFC1" stop-opacity="0.5745"/>
<stop offset="0.6507" stop-color="#2D749F" stop-opacity="0.3493"/>
<stop offset="0.9026" stop-color="#302874" stop-opacity="0.0973511"/>
<stop offset="1" stop-color="#320962" stop-opacity="0"/>
</radialGradient>
<linearGradient id="paint24_linear_0_1" x1="1004.02" y1="233.233" x2="1018.37" y2="217.685" gradientUnits="userSpaceOnUse">
<stop stop-color="#FC49EF"/>
<stop offset="0.1005" stop-color="#F54FEF"/>
<stop offset="0.2431" stop-color="#E35EEF"/>
<stop offset="0.4109" stop-color="#C478EF"/>
<stop offset="0.5979" stop-color="#9A9DEF"/>
<stop offset="0.799" stop-color="#64CBEF"/>
<stop offset="1" stop-color="#26FFEF"/>
</linearGradient>
<linearGradient id="paint25_linear_0_1" x1="1024.54" y1="240.062" x2="1065.2" y2="196.019" gradientUnits="userSpaceOnUse">
<stop stop-color="#FC49EF"/>
<stop offset="0.1005" stop-color="#F54FEF"/>
<stop offset="0.2431" stop-color="#E35EEF"/>
<stop offset="0.4109" stop-color="#C478EF"/>
<stop offset="0.5979" stop-color="#9A9DEF"/>
<stop offset="0.799" stop-color="#64CBEF"/>
<stop offset="1" stop-color="#26FFEF"/>
</linearGradient>
<linearGradient id="paint26_linear_0_1" x1="1064.69" y1="249.674" x2="1118.63" y2="191.245" gradientUnits="userSpaceOnUse">
<stop stop-color="#FC49EF"/>
<stop offset="0.1005" stop-color="#F54FEF"/>
<stop offset="0.2431" stop-color="#E35EEF"/>
<stop offset="0.4109" stop-color="#C478EF"/>
<stop offset="0.5979" stop-color="#9A9DEF"/>
<stop offset="0.799" stop-color="#64CBEF"/>
<stop offset="1" stop-color="#26FFEF"/>
</linearGradient>
<linearGradient id="paint27_linear_0_1" x1="1045.27" y1="211.096" x2="1060.89" y2="194.179" gradientUnits="userSpaceOnUse">
<stop stop-color="#FC49EF"/>
<stop offset="0.1005" stop-color="#F54FEF"/>
<stop offset="0.2431" stop-color="#E35EEF"/>
<stop offset="0.4109" stop-color="#C478EF"/>
<stop offset="0.5979" stop-color="#9A9DEF"/>
<stop offset="0.799" stop-color="#64CBEF"/>
<stop offset="1" stop-color="#26FFEF"/>
</linearGradient>
<linearGradient id="paint28_linear_0_1" x1="1083.47" y1="191.912" x2="1103.78" y2="169.911" gradientUnits="userSpaceOnUse">
<stop stop-color="#FC49EF"/>
<stop offset="0.1005" stop-color="#F54FEF"/>
<stop offset="0.2431" stop-color="#E35EEF"/>
<stop offset="0.4109" stop-color="#C478EF"/>
<stop offset="0.5979" stop-color="#9A9DEF"/>
<stop offset="0.799" stop-color="#64CBEF"/>
<stop offset="1" stop-color="#26FFEF"/>
</linearGradient>
<linearGradient id="paint29_linear_0_1" x1="1109.73" y1="202.232" x2="1123.91" y2="186.877" gradientUnits="userSpaceOnUse">
<stop stop-color="#FC49EF"/>
<stop offset="0.1005" stop-color="#F54FEF"/>
<stop offset="0.2431" stop-color="#E35EEF"/>
<stop offset="0.4109" stop-color="#C478EF"/>
<stop offset="0.5979" stop-color="#9A9DEF"/>
<stop offset="0.799" stop-color="#64CBEF"/>
<stop offset="1" stop-color="#26FFEF"/>
</linearGradient>
<linearGradient id="paint30_linear_0_1" x1="1014.15" y1="262.791" x2="1039.36" y2="235.484" gradientUnits="userSpaceOnUse">
<stop stop-color="#FC49EF"/>
<stop offset="0.1005" stop-color="#F54FEF"/>
<stop offset="0.2431" stop-color="#E35EEF"/>
<stop offset="0.4109" stop-color="#C478EF"/>
<stop offset="0.5979" stop-color="#9A9DEF"/>
<stop offset="0.799" stop-color="#64CBEF"/>
<stop offset="1" stop-color="#26FFEF"/>
</linearGradient>
<linearGradient id="paint31_linear_0_1" x1="1015.39" y1="220.249" x2="1077.42" y2="153.06" gradientUnits="userSpaceOnUse">
<stop stop-color="#FC49EF"/>
<stop offset="0.1005" stop-color="#F54FEF"/>
<stop offset="0.2431" stop-color="#E35EEF"/>
<stop offset="0.4109" stop-color="#C478EF"/>
<stop offset="0.5979" stop-color="#9A9DEF"/>
<stop offset="0.799" stop-color="#64CBEF"/>
<stop offset="1" stop-color="#26FFEF"/>
</linearGradient>
<linearGradient id="paint32_linear_0_1" x1="1015.86" y1="200.432" x2="1068.66" y2="143.242" gradientUnits="userSpaceOnUse">
<stop stop-color="#FC49EF"/>
<stop offset="0.1005" stop-color="#F54FEF"/>
<stop offset="0.2431" stop-color="#E35EEF"/>
<stop offset="0.4109" stop-color="#C478EF"/>
<stop offset="0.5979" stop-color="#9A9DEF"/>
<stop offset="0.799" stop-color="#64CBEF"/>
<stop offset="1" stop-color="#26FFEF"/>
</linearGradient>
<linearGradient id="paint33_linear_0_1" x1="998.479" y1="208.682" x2="1020.89" y2="184.403" gradientUnits="userSpaceOnUse">
<stop stop-color="#FC49EF"/>
<stop offset="0.1005" stop-color="#F54FEF"/>
<stop offset="0.2431" stop-color="#E35EEF"/>
<stop offset="0.4109" stop-color="#C478EF"/>
<stop offset="0.5979" stop-color="#9A9DEF"/>
<stop offset="0.799" stop-color="#64CBEF"/>
<stop offset="1" stop-color="#26FFEF"/>
</linearGradient>
<radialGradient id="paint34_radial_0_1" cx="0" cy="0" r="1" gradientUnits="userSpaceOnUse" gradientTransform="translate(1033.2 166.101) rotate(-28.235) scale(75.0016 31.857)">
<stop stop-color="white"/>
<stop offset="0.2802" stop-color="#B3FFF9" stop-opacity="0.7198"/>
<stop offset="0.5299" stop-color="#76FFF5" stop-opacity="0.4701"/>
<stop offset="0.7404" stop-color="#4BFFF2" stop-opacity="0.2596"/>
<stop offset="0.9038" stop-color="#30FFF0" stop-opacity="0.0962161"/>
<stop offset="1" stop-color="#26FFEF" stop-opacity="0"/>
</radialGradient>
<linearGradient id="paint35_linear_0_1" x1="932.848" y1="267.842" x2="1177.22" y2="158.581" gradientUnits="userSpaceOnUse">
<stop stop-color="#26FFEF"/>
<stop offset="0.3425" stop-color="#74BDEF"/>
<stop offset="0.7959" stop-color="#D56AEF"/>
<stop offset="1" stop-color="#FC49EF"/>
</linearGradient>
<linearGradient id="paint36_linear_0_1" x1="941.325" y1="262.029" x2="1167.46" y2="160.921" gradientUnits="userSpaceOnUse">
<stop stop-color="#26FFEF"/>
<stop offset="0.3425" stop-color="#74BDEF"/>
<stop offset="0.7959" stop-color="#D56AEF"/>
<stop offset="1" stop-color="#FC49EF"/>
</linearGradient>
<linearGradient id="paint37_linear_0_1" x1="950.257" y1="255.328" x2="1156.28" y2="163.217" gradientUnits="userSpaceOnUse">
<stop stop-color="#26FFEF"/>
<stop offset="0.3425" stop-color="#74BDEF"/>
<stop offset="0.7959" stop-color="#D56AEF"/>
<stop offset="1" stop-color="#FC49EF"/>
</linearGradient>
<linearGradient id="paint38_linear_0_1" x1="955.267" y1="250.254" x2="1149.15" y2="163.542" gradientUnits="userSpaceOnUse">
<stop stop-color="#26FFEF"/>
<stop offset="0.3425" stop-color="#74BDEF"/>
<stop offset="0.7959" stop-color="#D56AEF"/>
<stop offset="1" stop-color="#FC49EF"/>
</linearGradient>
<radialGradient id="paint39_radial_0_1" cx="0" cy="0" r="1" gradientUnits="userSpaceOnUse" gradientTransform="translate(966.4 406.256) rotate(11.3159) scale(62.905 60.2947)">
<stop stop-color="#FC49EF"/>
<stop offset="0.1014" stop-color="#F246E8" stop-opacity="0.8986"/>
<stop offset="0.2729" stop-color="#D83DD6" stop-opacity="0.7271"/>
<stop offset="0.4936" stop-color="#AD30B8" stop-opacity="0.5064"/>
<stop offset="0.7517" stop-color="#711D8E" stop-opacity="0.2483"/>
<stop offset="1" stop-color="#320962" stop-opacity="0"/>
</radialGradient>
<linearGradient id="paint40_linear_0_1" x1="915.974" y1="417.479" x2="927.582" y2="417.82" gradientUnits="userSpaceOnUse">
<stop stop-color="#FC49EF"/>
<stop offset="0.1005" stop-color="#F54FEF"/>
<stop offset="0.2431" stop-color="#E35EEF"/>
<stop offset="0.4109" stop-color="#C478EF"/>
<stop offset="0.5979" stop-color="#9A9DEF"/>
<stop offset="0.799" stop-color="#64CBEF"/>
<stop offset="1" stop-color="#26FFEF"/>
</linearGradient>
<linearGradient id="paint41_linear_0_1" x1="920.635" y1="427.625" x2="953.587" y2="428.595" gradientUnits="userSpaceOnUse">
<stop stop-color="#FC49EF"/>
<stop offset="0.1005" stop-color="#F54FEF"/>
<stop offset="0.2431" stop-color="#E35EEF"/>
<stop offset="0.4109" stop-color="#C478EF"/>
<stop offset="0.5979" stop-color="#9A9DEF"/>
<stop offset="0.799" stop-color="#64CBEF"/>
<stop offset="1" stop-color="#26FFEF"/>
</linearGradient>
<linearGradient id="paint42_linear_0_1" x1="931.329" y1="446.013" x2="974.965" y2="447.296" gradientUnits="userSpaceOnUse">
<stop stop-color="#FC49EF"/>
<stop offset="0.1005" stop-color="#F54FEF"/>
<stop offset="0.2431" stop-color="#E35EEF"/>
<stop offset="0.4109" stop-color="#C478EF"/>
<stop offset="0.5979" stop-color="#9A9DEF"/>
<stop offset="0.799" stop-color="#64CBEF"/>
<stop offset="1" stop-color="#26FFEF"/>
</linearGradient>
<linearGradient id="paint43_linear_0_1" x1="940.129" y1="424.629" x2="952.805" y2="425.002" gradientUnits="userSpaceOnUse">
<stop stop-color="#FC49EF"/>
<stop offset="0.1005" stop-color="#F54FEF"/>
<stop offset="0.2431" stop-color="#E35EEF"/>
<stop offset="0.4109" stop-color="#C478EF"/>
<stop offset="0.5979" stop-color="#9A9DEF"/>
<stop offset="0.799" stop-color="#64CBEF"/>
<stop offset="1" stop-color="#26FFEF"/>
</linearGradient>
<linearGradient id="paint44_linear_0_1" x1="961.978" y1="431.744" x2="978.412" y2="432.227" gradientUnits="userSpaceOnUse">
<stop stop-color="#FC49EF"/>
<stop offset="0.1005" stop-color="#F54FEF"/>
<stop offset="0.2431" stop-color="#E35EEF"/>
<stop offset="0.4109" stop-color="#C478EF"/>
<stop offset="0.5979" stop-color="#9A9DEF"/>
<stop offset="0.799" stop-color="#64CBEF"/>
<stop offset="1" stop-color="#26FFEF"/>
</linearGradient>
<linearGradient id="paint45_linear_0_1" x1="967.315" y1="445.192" x2="978.774" y2="445.529" gradientUnits="userSpaceOnUse">
<stop stop-color="#FC49EF"/>
<stop offset="0.1005" stop-color="#F54FEF"/>
<stop offset="0.2431" stop-color="#E35EEF"/>
<stop offset="0.4109" stop-color="#C478EF"/>
<stop offset="0.5979" stop-color="#9A9DEF"/>
<stop offset="0.799" stop-color="#64CBEF"/>
<stop offset="1" stop-color="#26FFEF"/>
</linearGradient>
<linearGradient id="paint46_linear_0_1" x1="907.501" y1="432.048" x2="927.91" y2="432.648" gradientUnits="userSpaceOnUse">
<stop stop-color="#FC49EF"/>
<stop offset="0.1005" stop-color="#F54FEF"/>
<stop offset="0.2431" stop-color="#E35EEF"/>
<stop offset="0.4109" stop-color="#C478EF"/>
<stop offset="0.5979" stop-color="#9A9DEF"/>
<stop offset="0.799" stop-color="#64CBEF"/>
<stop offset="1" stop-color="#26FFEF"/>
</linearGradient>
<linearGradient id="paint47_linear_0_1" x1="925.422" y1="417.084" x2="975.723" y2="418.563" gradientUnits="userSpaceOnUse">
<stop stop-color="#FC49EF"/>
<stop offset="0.1005" stop-color="#F54FEF"/>
<stop offset="0.2431" stop-color="#E35EEF"/>
<stop offset="0.4109" stop-color="#C478EF"/>
<stop offset="0.5979" stop-color="#9A9DEF"/>
<stop offset="0.799" stop-color="#64CBEF"/>
<stop offset="1" stop-color="#26FFEF"/>
</linearGradient>
<linearGradient id="paint48_linear_0_1" x1="933.767" y1="409.985" x2="976.583" y2="411.244" gradientUnits="userSpaceOnUse">
<stop stop-color="#FC49EF"/>
<stop offset="0.1005" stop-color="#F54FEF"/>
<stop offset="0.2431" stop-color="#E35EEF"/>
<stop offset="0.4109" stop-color="#C478EF"/>
<stop offset="0.5979" stop-color="#9A9DEF"/>
<stop offset="0.799" stop-color="#64CBEF"/>
<stop offset="1" stop-color="#26FFEF"/>
</linearGradient>
<linearGradient id="paint49_linear_0_1" x1="924.05" y1="406.513" x2="942.196" y2="407.047" gradientUnits="userSpaceOnUse">
<stop stop-color="#FC49EF"/>
<stop offset="0.1005" stop-color="#F54FEF"/>
<stop offset="0.2431" stop-color="#E35EEF"/>
<stop offset="0.4109" stop-color="#C478EF"/>
<stop offset="0.5979" stop-color="#9A9DEF"/>
<stop offset="0.799" stop-color="#64CBEF"/>
<stop offset="1" stop-color="#26FFEF"/>
</linearGradient>
<radialGradient id="paint50_radial_0_1" cx="0" cy="0" r="1" gradientUnits="userSpaceOnUse" gradientTransform="translate(954.498 403.61) rotate(16.1455) scale(40.1768 16.9542)">
<stop stop-color="white"/>
<stop offset="0.181" stop-color="#FED5FB" stop-opacity="0.819"/>
<stop offset="0.463" stop-color="#FD99F6" stop-opacity="0.537"/>
<stop offset="0.7035" stop-color="#FD6EF2" stop-opacity="0.2965"/>
<stop offset="0.8901" stop-color="#FC53F0" stop-opacity="0.1099"/>
<stop offset="1" stop-color="#FC49EF" stop-opacity="0"/>
</radialGradient>
<linearGradient id="paint51_linear_0_1" x1="875.735" y1="404.112" x2="1004.55" y2="465.185" gradientUnits="userSpaceOnUse">
<stop stop-color="#26FFEF"/>
<stop offset="0.3425" stop-color="#74BDEF"/>
<stop offset="0.7959" stop-color="#D56AEF"/>
<stop offset="1" stop-color="#FC49EF"/>
</linearGradient>
<linearGradient id="paint52_linear_0_1" x1="881.099" y1="405.047" x2="1000.42" y2="461.619" gradientUnits="userSpaceOnUse">
<stop stop-color="#26FFEF"/>
<stop offset="0.3425" stop-color="#74BDEF"/>
<stop offset="0.7959" stop-color="#D56AEF"/>
<stop offset="1" stop-color="#FC49EF"/>
</linearGradient>
<linearGradient id="paint53_linear_0_1" x1="887.235" y1="405.922" x2="995.85" y2="457.41" gradientUnits="userSpaceOnUse">
<stop stop-color="#26FFEF"/>
<stop offset="0.3425" stop-color="#74BDEF"/>
<stop offset="0.7959" stop-color="#D56AEF"/>
<stop offset="1" stop-color="#FC49EF"/>
</linearGradient>
<linearGradient id="paint54_linear_0_1" x1="891.66" y1="406.017" x2="993.709" y2="454.387" gradientUnits="userSpaceOnUse">
<stop stop-color="#26FFEF"/>
<stop offset="0.3425" stop-color="#74BDEF"/>
<stop offset="0.7959" stop-color="#D56AEF"/>
<stop offset="1" stop-color="#FC49EF"/>
</linearGradient>
<linearGradient id="paint55_linear_0_1" x1="489.976" y1="598.772" x2="433.092" y2="620.422" gradientUnits="userSpaceOnUse">
<stop stop-color="#26FFEF"/>
<stop offset="0.0751937" stop-color="#27E4DF" stop-opacity="0.9248"/>
<stop offset="0.2696" stop-color="#2BA2BA" stop-opacity="0.7304"/>
<stop offset="0.4547" stop-color="#2D6B9A" stop-opacity="0.5453"/>
<stop offset="0.6252" stop-color="#2F4182" stop-opacity="0.3748"/>
<stop offset="0.7783" stop-color="#312270" stop-opacity="0.2217"/>
<stop offset="0.9084" stop-color="#321066" stop-opacity="0.0916342"/>
<stop offset="1" stop-color="#320962" stop-opacity="0"/>
</linearGradient>
<linearGradient id="paint56_linear_0_1" x1="1016.01" y1="499.801" x2="959.743" y2="522.126" gradientUnits="userSpaceOnUse">
<stop stop-color="#26FFEF"/>
<stop offset="0.0751937" stop-color="#27E4DF" stop-opacity="0.9248"/>
<stop offset="0.2696" stop-color="#2BA2BA" stop-opacity="0.7304"/>
<stop offset="0.4547" stop-color="#2D6B9A" stop-opacity="0.5453"/>
<stop offset="0.6252" stop-color="#2F4182" stop-opacity="0.3748"/>
<stop offset="0.7783" stop-color="#312270" stop-opacity="0.2217"/>
<stop offset="0.9084" stop-color="#321066" stop-opacity="0.0916342"/>
<stop offset="1" stop-color="#320962" stop-opacity="0"/>
</linearGradient>
<linearGradient id="paint57_linear_0_1" x1="768.906" y1="500.664" x2="742.711" y2="511.483" gradientUnits="userSpaceOnUse">
<stop stop-color="#FC49EF"/>
<stop offset="0.1014" stop-color="#F246E8" stop-opacity="0.8986"/>
<stop offset="0.2729" stop-color="#D83DD6" stop-opacity="0.7271"/>
<stop offset="0.4936" stop-color="#AD30B8" stop-opacity="0.5064"/>
<stop offset="0.7517" stop-color="#711D8E" stop-opacity="0.2483"/>
<stop offset="1" stop-color="#320962" stop-opacity="0"/>
</linearGradient>
</defs>
</svg>
