<svg width="1776" height="472" viewBox="0 0 1776 472" fill="none" xmlns="http://www.w3.org/2000/svg">
<g opacity="0.75">
<path d="M1506.25 101.514C1525.78 111.127 1550.24 103.555 1560.9 84.5999C1571.55 65.6453 1564.36 42.4866 1544.83 32.8734C1525.31 23.2603 1500.84 30.833 1490.19 49.7876C1479.54 68.7422 1486.73 91.901 1506.25 101.514Z" fill="url(#paint0_radial_0_1)"/>
<path opacity="0.1" d="M1498.28 44.3144C1497.95 44.4925 1497.61 44.6706 1497.28 44.8487C1496.27 45.3829 1496.07 47.0001 1497.17 47.5452C1497.64 47.7723 1498.25 47.7304 1498.81 47.7783C1499.37 47.8261 1499.93 48.0986 1500 48.5934C1500.08 49.0883 1499.78 49.4014 1499.44 49.8042C1498.36 51.1022 1497.41 52.5807 1497.53 54.2445C1497.66 55.9083 1499.06 57.3988 1500.8 57.2279C1501.42 57.1861 1501.94 56.8741 1502.25 56.3363C1502.56 55.5737 1501.98 54.7167 1502.47 54.045C1502.78 53.5071 1503.58 53.3315 1504.19 53.5144C1504.84 53.6076 1505.39 53.8801 1506.15 53.7941C1507.14 53.7092 1507.92 52.9491 1508.47 52.1877C1508.62 51.9188 1508.82 51.5602 1508.88 51.2459C1508.86 50.4367 1507.75 50.1164 1506.86 50.0219C1505.97 49.9275 1504.86 49.3824 1505.08 48.5744C1505.24 48.0808 1505.72 47.8585 1506.01 47.5453C1506.4 47.2776 1506.7 46.7398 1506.48 46.2891C1506.35 46.1087 1506.07 45.9724 1505.84 45.9712C1504.58 45.6951 1503.28 46.5425 1502.11 46.3118C1502.02 46.2663 1501.87 46.3106 1501.83 46.1755C1501.7 45.995 1501.71 45.7703 1501.72 45.5456C1501.93 44.9623 1502.55 44.6958 1502.85 44.1579C1502.9 44.0683 1502.95 43.9787 1502.91 43.8436C1502.87 43.7085 1502.87 43.7085 1502.77 43.6631C1502.23 43.1659 1501.24 43.2507 1500.52 43.4718C1499.76 43.7826 1499.05 44.0037 1498.28 44.3144Z" fill="url(#paint1_linear_0_1)"/>
<path opacity="0.1" d="M1507.31 56.4441C1508.45 56.0884 1509.29 55.234 1509.89 54.3783C1510.54 53.4325 1511.09 52.441 1511.79 51.631C1513.32 49.7406 1515.87 48.5785 1518.37 48.5461C1519.22 48.5053 1520.16 48.736 1520.55 49.5064C1521.3 50.9113 1519.4 52.619 1519.86 54.1129C1520.07 54.7919 1520.67 55.2017 1521.22 55.4758C1521.92 55.7053 1522.58 55.7991 1523.29 55.8027C1526.82 56.0467 1530.34 56.7426 1533.49 58.2954C1534.51 58.7978 1535.48 59.3903 1536.15 60.2977C1536.83 61.2051 1537.06 62.4718 1536.56 63.3731C1536.1 64.1843 1535.23 64.6771 1534.46 64.9895C1533.22 65.5255 1531.83 65.88 1530.56 65.8283C1529.29 65.7766 1527.84 65.4076 1526.93 64.499C1525.97 63.6806 1525.44 62.5028 1524.73 61.4596C1524.05 60.5522 1523.09 59.7338 1521.97 59.4117C1520.85 59.0896 1519.38 59.3984 1518.58 60.3887C1517.89 61.1987 1517.85 62.3284 1517.25 63.184C1516.7 63.9496 1515.74 64.3966 1514.85 64.3017C1513.95 64.2067 1513.13 63.5697 1512.78 62.7092C1512.53 61.8944 1512.8 60.9919 1513.3 60.3165C1513.7 59.5954 1514.29 58.9657 1514.79 58.2903C1515.39 57.4346 1515.91 56.3073 1515.27 55.5357C1514.73 54.8098 1513.5 54.8939 1512.59 55.2509C1511.54 55.6522 1510.66 56.3709 1510.06 57.2266C1509.46 58.0823 1509.05 59.0293 1508.5 59.7948C1507.9 60.6505 1507.03 61.3691 1505.94 61.4088C1504.76 61.4027 1503.8 60.5843 1503.46 59.4979C1503.07 58.5016 1503.17 57.2817 1503.3 56.1977C1503.36 55.8816 1503.39 55.2038 1503.95 55.2519C1504.19 55.2531 1504.54 55.8877 1504.73 55.979C1505.37 56.5246 1506.45 56.7109 1507.31 56.4441Z" fill="url(#paint2_linear_0_1)"/>
<path opacity="0.1" d="M1538.52 65.491C1537.64 67.4657 1535.84 69.2108 1533.69 69.8746C1531.55 70.5384 1528.98 70.0755 1527.54 68.4487C1527.18 68.042 1526.87 67.5456 1526.46 67.2286C1525.22 66.2777 1523.43 66.5384 1521.9 67.1604C1519.36 68.317 1517.2 70.69 1516.86 73.3873C1516.53 76.0845 1518.02 78.8811 1520.66 79.8392C1522.94 80.6156 1525.41 79.9984 1527.61 79.02C1529.81 78.0417 1531.93 76.7929 1534.3 76.3552C1535.77 76.0478 1537.41 76.0563 1538.31 77.1854C1538.9 77.8182 1538.96 78.7631 1539.11 79.7535C1539.28 81.3288 1539.64 82.995 1540.39 84.3933C1541.13 85.7916 1542.31 87.0571 1543.84 87.6946C1545.42 88.2425 1547.26 88.117 1548.88 87.5405C1550.5 86.964 1551.9 85.9365 1553.3 84.9091C1556.21 82.6748 1558.91 79.7647 1559.46 76.2589C1559.59 75.4049 1559.58 74.3702 1558.89 73.9169C1558.48 73.5999 1557.92 73.552 1557.45 73.5496C1555.33 73.5388 1553.23 74.3378 1551.06 74.6416C1550.25 74.8174 1549.4 74.858 1548.56 74.6738C1547.72 74.4896 1546.94 73.9908 1546.78 73.2252C1546.49 72.2791 1547 71.1572 1547.74 70.4862C1548.52 69.7254 1549.52 69.4157 1550.52 68.881C1553.73 67.368 1556.73 65.1792 1558.21 62.1279C1558.66 61.3205 1558.93 60.4222 1558.83 59.567C1558.72 58.7118 1558.14 57.8541 1557.16 57.7142C1556.17 57.5742 1555.35 58.1998 1554.53 58.8253C1552.48 60.5692 1550.62 62.6289 1548.04 63.6503C1547.42 63.9171 1546.66 64.0031 1546.11 63.7304C1545.46 63.4122 1545.3 62.6467 1545.19 62.0164C1544.94 60.9805 1544.56 59.9889 1543.93 59.221C1542.9 57.9112 1539.87 57.221 1539.22 59.4219C1539 60.2304 1539.29 61.1766 1539.27 61.8512C1539.32 63.021 1539.03 64.369 1538.52 65.491Z" fill="url(#paint3_linear_0_1)"/>
<path opacity="0.1" d="M1522.85 50.2509C1523.29 49.8898 1523.95 49.757 1524.17 50.2123C1524.31 50.3946 1524.16 50.6663 1524.06 50.8475C1523.83 51.6638 1523.94 52.7543 1524.77 53.1673C1525.24 53.3968 1525.71 53.3992 1526.28 53.4475C1528.92 53.5973 1531.42 54.0188 1533.9 54.6673C1534.51 54.8521 1535.26 55.2193 1535.19 55.7639C1535.17 56.218 1534.64 56.5331 1534.16 56.5307C1533.69 56.5283 1533.27 56.4353 1532.8 56.2058C1530.61 55.468 1528.4 54.9571 1526.13 54.7638C1524.91 54.6213 1523.16 54.5669 1522.3 53.5634C1521.57 52.7422 1521.92 51.0636 1522.85 50.2509Z" fill="url(#paint4_linear_0_1)"/>
<path opacity="0.1" d="M1546.47 58.6265C1546.73 59.2128 1546.85 59.8435 1547.3 60.2958C1548.07 61.0198 1549.31 60.7111 1550.18 59.9955C1551 59.3697 1551.51 58.4722 1552.11 57.6202C1552.9 56.6342 1553.91 55.8743 1555.11 55.4304C1556.21 54.941 1557.58 54.813 1558.4 55.4472C1558.9 55.8098 1559.3 56.5769 1559.95 56.6702C1560.52 56.7181 1561 56.2706 1561.07 55.7309C1561.23 55.2367 1561.06 54.6958 1560.7 54.2889C1560.22 53.4764 1559.34 52.9319 1558.5 52.7476C1557.15 52.4256 1555.76 53.0036 1554.56 53.6725C1553.45 54.3869 1552.52 55.4172 1551.49 56.402C1550.96 56.9393 1550.18 57.4754 1549.48 57.4718C1548.44 57.4215 1547.64 56.3373 1546.56 56.1518C1546 56.1039 1544.34 56.5454 1544.87 57.2682C1545.01 57.4489 1545.48 57.4513 1545.66 57.5423C1546.12 57.9946 1546.29 58.3105 1546.47 58.6265Z" fill="url(#paint5_linear_0_1)"/>
<path opacity="0.1" d="M1552.91 70.0613C1552.52 70.5533 1552.35 71.2709 1552.8 71.7223C1553.12 71.9934 1553.68 72.0412 1554.2 71.954C1555.57 71.8263 1556.93 71.6985 1558.3 71.5708C1559.15 71.5302 1560.09 71.535 1560.58 72.1213C1560.76 72.4366 1560.79 72.7961 1560.96 73.1113C1561.14 73.4266 1561.41 73.7872 1561.84 73.6547C1562.07 73.6559 1562.17 73.4767 1562.36 73.343C1563.3 72.3149 1563.67 71.0144 1563.72 69.6674C1563.78 68.3204 1563.54 67.0618 1563.31 65.8032C1563.18 65.3984 1563.2 64.9493 1562.93 64.5887C1562.66 64.2281 1562.25 63.9116 1561.82 64.0442C1561.02 64.2197 1560.75 65.1165 1560.62 65.9691C1560.41 66.7763 1560.05 67.6278 1559.32 68.0732C1558.27 68.6965 1557.51 67.525 1556.42 68.0134C1555.41 68.5471 1553.69 69.3018 1552.91 70.0613Z" fill="url(#paint6_linear_0_1)"/>
<path opacity="0.1" d="M1494.27 55.752C1494.14 56.8329 1494.15 57.8694 1494.53 58.8629C1494.92 59.8563 1495.64 60.6712 1496.67 60.9468C1497.51 61.1314 1498.5 61.0463 1499.19 61.5005C1499.88 61.9547 1500.23 62.8127 1500.28 63.7594C1500.39 64.6162 1500.27 65.4718 1500.52 66.2843C1500.77 67.0968 1501.4 67.8661 1502.28 68.1861C1503.17 68.506 1504.16 68.421 1504.93 67.8841C1506.09 67.0789 1506.58 65.5942 1507.69 64.8788C1508.75 64.2533 1510.25 64.306 1511.07 65.1665C1512.2 66.2989 1511.76 68.1443 1511.46 69.7201C1510.95 72.106 1510.84 74.8094 1512.13 76.9341C1512.57 77.6124 1513.11 78.3362 1512.99 79.1918C1512.76 80.2272 1511.56 80.6717 1510.52 80.8467C1508.06 81.2397 1505.33 81.0455 1503.26 79.6829C1500.5 77.8662 1499.61 74.2112 1499.78 70.9673C1499.86 69.9763 1499.94 68.9853 1499.65 68.0374C1499.36 67.0895 1498.82 66.3657 1498.19 65.5964C1497.65 64.8726 1497.06 64.2386 1496.32 63.8743C1495.49 63.4645 1494.4 63.504 1493.42 63.3638C1492.07 63.0414 1490.88 61.9988 1490.41 60.7346C1490.2 60.0575 1490.13 59.3361 1490.12 58.5248C1490.12 57.263 1490.21 56.0467 1490.45 54.786C1490.63 53.6153 1490.96 52.4002 1491.57 51.3217C1492.27 50.2887 1493.24 49.3924 1494.52 49.2187C1495.04 49.1312 1495.7 49.2247 1496.11 49.5422C1496.88 50.2673 1495.61 51.4776 1495.35 52.1522C1494.75 53.2307 1494.37 54.5357 1494.27 55.752Z" fill="url(#paint7_linear_0_1)"/>
<path opacity="0.1" d="M1510.49 41.9743C1510.82 42.0212 1511.1 42.1585 1511.38 42.2958C1511.93 42.7967 1511.71 43.6106 1511.44 44.2885C1511.09 44.9207 1510.59 45.5974 1510.66 46.3222C1510.67 47.3638 1511.73 48.0032 1512.86 48.0995C1513.9 48.1501 1514.95 47.748 1515.96 47.4361C1517.73 46.8112 1519.59 46.4585 1521.39 46.196C1522.68 46.0214 1524.28 46.1202 1525.05 47.0751C1525.55 47.6663 1525.61 48.3912 1525.97 49.0269C1526.85 50.6164 1529.07 50.8994 1531.06 50.7284C1532.91 50.602 1535 50.2505 1536.67 51.0741C1538.34 51.8977 1539.26 53.8496 1541.08 54.4023C1542.3 54.7708 1543.68 54.4156 1544.52 53.5595C1545.36 52.7034 1545.78 51.5282 1546.83 51.1261C1547.98 50.7697 1549.09 51.5451 1550.16 51.9581C1552.12 52.6927 1554.73 52.2532 1556.12 50.6301C1557.5 49.007 1557.37 46.2894 1555.67 45.1033C1555.07 44.6927 1554.37 44.4627 1553.61 44.323C1550.89 43.9016 1547.97 44.8828 1546.14 46.8659C1544.82 48.1724 1544 49.8436 1542.36 50.6504C1541.54 51.0537 1540.45 51.0934 1539.51 50.8622C1538.21 50.448 1537.25 49.4016 1535.85 48.9416C1533.94 48.3431 1531.83 49.1474 1529.88 49.4545C1529.35 49.5423 1528.74 49.5845 1528.27 49.3557C1527.9 49.1727 1527.63 48.809 1527.45 48.4911C1526.43 46.7199 1526.76 44.231 1525.1 43.181C1523.63 42.2225 1521.51 43.0268 1520.1 44.0611C1518.64 45.1857 1517.17 46.5367 1515.37 46.7992C1514.84 46.8871 1514.28 46.8389 1513.92 46.4295C1513.51 45.884 1513.92 45.1616 1514.36 44.5752C1514.86 43.8985 1515.22 43.2663 1515.72 42.5896C1516.27 41.8226 1516.72 41.0099 1516.61 40.1489C1516.5 39.288 1515.86 38.7413 1515.12 38.3753C1514.38 38.0092 1513.43 38.0044 1512.63 37.955C1510.88 37.9008 1506.77 37.8345 1505.52 39.6394C1504.87 40.587 1505.54 41.7225 1506.62 41.9092C1507.74 42.2319 1509.17 41.7864 1510.49 41.9743Z" fill="url(#paint8_linear_0_1)"/>
<path opacity="0.1" d="M1527.76 28.8665C1522.28 28.7027 1516.96 29.5358 1511.98 31.2311C1511.97 31.4574 1512.1 31.6393 1512.24 31.8211C1512.68 32.5026 1513.61 32.9602 1514.51 33.0553C1515.4 33.1505 1516.35 33.1553 1517.29 33.1601C1518.57 33.2119 1519.84 33.2637 1521.11 33.5419C1522.19 33.7286 1523.39 34.3234 1523.26 35.4095C1523.19 35.9526 1522.84 36.3583 1522.41 36.7183C1521.27 37.8899 1520.14 39.0615 1518.92 40.1873C1518.48 40.5473 1518.03 41.1337 1518.11 41.6322C1518.22 42.4931 1519.48 42.7713 1520.44 42.5498C1522.87 42.0188 1524.97 40.173 1527.38 40.0947C1528 40.0526 1528.75 40.1923 1529.16 40.7377C1529.56 41.2832 1529.34 42.0972 1529.22 42.7305C1529 43.5445 1528.97 44.45 1528.93 45.3554C1528.95 47.4385 1530.32 47.5361 1531.96 46.503C1533.47 45.5145 1535.31 45.6145 1536.79 46.3466C1537.91 46.8957 1539.21 47.3099 1540.5 47.1353C1541.78 46.9608 1542.76 46.0601 1543.46 45.0222C1544.41 43.7591 1545.44 42.7681 1547.11 42.3239C1548.64 41.9241 1550.53 41.9338 1552.02 42.4396C1552.81 42.7153 1553.6 43.2174 1554.49 43.3126C1555.39 43.4077 1556.39 43.0959 1557.08 42.5107C1550 34.6406 1539.7 29.3351 1527.76 28.8665Z" fill="url(#paint9_linear_0_1)"/>
<path opacity="0.1" d="M1515.61 36.8956C1513.05 35.9812 1510.07 36.4617 1507.53 37.6204C1506.42 38.1105 1505.22 38.7803 1504.04 38.7743C1503.81 38.7731 1503.48 38.7263 1503.34 38.5454C1503.12 38.3189 1503.18 38.0037 1503.33 37.7341C1503.54 37.1494 1504.08 36.6114 1504.66 36.2087C1505.24 35.8061 1505.9 35.6743 1506.57 35.5425C1508.61 35.0572 1510.68 35.158 1512.85 35.0789C1514.31 34.9963 1515.83 34.8237 1517.3 34.5158C1518.11 34.3397 1518.92 34.1635 1519.66 34.3025C1520.41 34.4416 1521.2 34.9413 1521.35 35.7082C1521.42 36.4296 1520.98 37.0131 1520.44 37.5512C1519.9 38.0892 1519.36 38.6272 1518.78 39.0298C1518.34 39.3881 1517.76 39.7907 1517.74 38.9795C1517.81 38.439 1517.91 38.2593 1517.46 37.8063C1516.86 37.3977 1516.21 37.0789 1515.61 36.8956Z" fill="url(#paint10_linear_0_1)"/>
<path opacity="0.5" d="M1506.25 101.514C1525.78 111.127 1550.24 103.555 1560.9 84.5999C1571.55 65.6453 1564.36 42.4866 1544.83 32.8734C1525.31 23.2603 1500.84 30.833 1490.19 49.7876C1479.54 68.7422 1486.73 91.901 1506.25 101.514Z" fill="url(#paint11_radial_0_1)"/>
<path opacity="0.1" d="M1499.44 38.1881C1475.22 35.1972 1457.27 36.9178 1455.47 43.5154C1452.93 52.5074 1482 67.218 1520.44 76.4298C1558.93 85.5514 1592.11 85.7121 1594.7 76.6299C1596.42 70.5751 1583.99 62.0132 1564.19 54.301" stroke="url(#paint12_linear_0_1)" stroke-width="0.25" stroke-miterlimit="10"/>
<path opacity="0.3" d="M1498.84 38.6085C1477.72 36.2294 1462.56 37.8356 1460.94 43.4843C1458.67 51.5736 1485.61 65.0016 1521.24 73.5138C1556.86 82.026 1587.62 82.2589 1589.89 74.1697C1591.35 69.0179 1581.15 61.7852 1564.39 55.001" stroke="url(#paint13_linear_0_1)" stroke-width="0.25" stroke-miterlimit="10"/>
<path opacity="0.6" d="M1498.18 39.1222C1480.73 37.4047 1468.37 38.6699 1467.07 43.3254C1465.03 50.3759 1489.7 62.3393 1522.14 69.9681C1554.53 77.687 1582.49 78.2611 1584.44 71.1647C1585.68 67.0522 1577.74 61.285 1564.58 55.7047" stroke="url(#paint14_linear_0_1)" stroke-width="0.25" stroke-miterlimit="10"/>
<path d="M1497.9 39.5269C1482.76 37.9169 1472.3 38.9705 1471.23 42.5873C1469.6 48.4656 1492.95 59.2002 1523.38 66.4088C1553.9 73.6634 1579.99 74.8126 1581.67 68.8441C1582.63 65.6343 1576.07 61.008 1565.07 56.2575" stroke="url(#paint15_linear_0_1)" stroke-width="0.25" stroke-miterlimit="10"/>
</g>
<g opacity="0.75">
<path d="M1878.38 335.631C1916.13 321.524 1933.73 280.25 1917.69 243.445C1901.65 206.639 1858.05 188.238 1820.3 202.346C1782.56 216.454 1764.96 257.727 1781 294.533C1797.04 331.339 1840.64 349.739 1878.38 335.631Z" fill="url(#paint16_radial_0_1)"/>
<path opacity="0.1" d="M1793.84 258.577C1794.3 258.2 1794.84 257.998 1795.38 257.796C1796.79 257.678 1797.76 258.951 1798.47 260.116C1799.01 261.348 1799.44 262.823 1800.62 263.611C1802.21 264.858 1804.44 264.228 1805.93 262.852C1807.24 261.543 1807.89 259.664 1808.61 257.962C1809.77 254.867 1811.44 251.99 1813.19 249.289C1814.45 247.385 1816.5 245.388 1818.86 245.529C1820.35 245.586 1821.53 246.373 1822.91 246.674C1826.37 247.426 1829.43 244.85 1831.54 242.014C1833.54 239.422 1835.5 236.235 1838.73 235.025C1841.96 233.815 1846.01 234.96 1849.01 233.222C1851.02 232.064 1852.12 229.808 1851.82 227.67C1851.52 225.532 1850.24 223.555 1850.88 221.676C1851.71 219.731 1854.19 219.209 1856.09 218.293C1859.53 216.597 1861.98 212.613 1861.16 208.824C1860.35 205.035 1856.07 201.928 1852.25 202.744C1850.92 203.039 1849.74 203.686 1848.63 204.508C1844.75 207.596 1842.77 212.637 1843.61 217.44C1844.01 220.768 1845.57 223.869 1844.85 227.005C1844.48 228.573 1843.25 230.058 1841.79 231.015C1839.61 232.241 1836.89 232.234 1834.53 233.527C1831.34 235.332 1830.05 239.089 1828.2 242.034C1827.71 242.83 1827.05 243.695 1826.15 244.031C1825.43 244.299 1824.56 244.216 1823.86 244.066C1819.97 243.273 1816.59 239.83 1813.02 240.755C1809.82 241.545 1808.53 245.302 1808.42 248.413C1808.39 251.699 1808.69 255.271 1806.94 257.972C1806.45 258.768 1805.71 259.456 1804.66 259.441C1803.35 259.316 1802.74 257.908 1802.38 256.609C1801.95 255.133 1801.41 253.901 1800.98 252.426C1800.47 250.775 1799.78 249.191 1798.34 248.295C1796.91 247.399 1795.32 247.585 1793.88 248.123C1792.44 248.66 1791.31 249.902 1790.29 250.901C1788.13 253.141 1783.14 258.485 1784.39 262.316C1785.06 264.319 1787.57 264.812 1789.13 263.611C1790.96 262.52 1791.99 260.088 1793.84 258.577Z" fill="url(#paint17_linear_0_1)"/>
<path opacity="0.1" d="M1794.67 219.99C1787.92 227.021 1782.85 235.057 1779.5 243.678C1779.83 243.963 1780.27 244.004 1780.7 244.046C1782.27 244.279 1784.06 243.607 1785.27 242.541C1786.48 241.476 1787.61 240.234 1788.74 238.992C1790.33 237.373 1791.93 235.753 1793.85 234.419C1795.42 233.219 1797.75 232.345 1799.24 233.836C1799.98 234.582 1800.18 235.529 1800.21 236.543C1800.64 239.452 1801.07 242.361 1801.32 245.337C1801.34 246.351 1801.7 247.651 1802.54 248.153C1803.98 249.049 1805.9 247.714 1806.7 246.188C1808.79 242.338 1808.49 237.333 1811.24 234.053C1811.91 233.189 1813.01 232.366 1814.32 232.491C1815.62 232.616 1816.6 233.889 1817.42 234.811C1818.39 236.084 1819.72 237.223 1821.05 238.363C1824.22 240.858 1826 239.172 1826.39 235.751C1826.68 232.573 1829.01 230.266 1831.89 229.19C1834.04 228.384 1836.23 227.158 1837.49 225.254C1838.75 223.35 1838.54 220.969 1837.81 218.79C1837.02 216.015 1836.74 213.458 1838.05 210.716C1839.26 208.217 1841.52 205.733 1844.06 204.373C1845.42 203.659 1847.12 203.23 1848.32 202.165C1849.53 201.099 1850.25 199.396 1850.18 197.787C1829.84 197.619 1809.57 204.795 1794.67 219.99Z" fill="url(#paint18_linear_0_1)"/>
<path opacity="0.1" d="M1792.28 246.098C1787.86 248.358 1785.04 252.865 1783.78 257.604C1783.22 259.644 1782.81 262.034 1781.4 263.576C1781.12 263.884 1780.66 264.259 1780.22 264.218C1779.61 264.243 1779.2 263.786 1778.98 263.261C1778.34 262.279 1778.16 260.922 1778.24 259.673C1778.32 258.424 1778.91 257.391 1779.5 256.358C1781.19 253.085 1783.8 250.485 1786.25 247.535C1787.87 245.511 1789.4 243.311 1790.68 241.004C1791.37 239.729 1792.07 238.455 1793.17 237.638C1794.26 236.821 1795.95 236.395 1797.3 237.11C1798.47 237.892 1798.83 239.182 1799.01 240.539C1799.18 241.896 1799.36 243.253 1799.28 244.502C1799.3 245.51 1799.22 246.759 1797.97 245.802C1797.24 245.062 1797.08 244.712 1795.86 244.763C1794.53 245.056 1793.28 245.523 1792.28 246.098Z" fill="url(#paint19_linear_0_1)"/>
<path opacity="0.5" d="M1878.38 335.631C1916.13 321.524 1933.73 280.25 1917.69 243.445C1901.65 206.639 1858.05 188.238 1820.3 202.346C1782.56 216.454 1764.96 257.727 1781 294.533C1797.04 331.339 1840.64 349.739 1878.38 335.631Z" fill="url(#paint20_radial_0_1)"/>
<path opacity="0.1" d="M1774.61 268.753C1741.21 297.233 1722.39 323.068 1730.2 333.367C1740.72 347.531 1797.56 326.718 1857.29 286.886C1916.95 246.879 1956.76 203.15 1946.16 188.811C1939.1 179.251 1911.37 185.426 1876.13 202.375" stroke="url(#paint21_linear_0_1)" stroke-width="0.25" stroke-miterlimit="10"/>
<path opacity="0.3" d="M1774.55 270.059C1745.77 295.17 1730.12 317.168 1736.7 326.096C1746.18 338.822 1798.54 319.286 1853.87 282.335C1909.19 245.383 1946.23 204.934 1936.75 192.209C1930.73 184.089 1907.65 188.916 1877.44 202.952" stroke="url(#paint22_linear_0_1)" stroke-width="0.25" stroke-miterlimit="10"/>
<path opacity="0.6" d="M1774.57 271.555C1751.16 292.607 1738.34 310.485 1743.8 317.799C1751.99 328.978 1799.44 310.68 1849.63 276.88C1899.9 243.256 1934.11 206.923 1925.75 195.811C1921.02 189.238 1902.86 192.825 1878.76 203.54" stroke="url(#paint23_linear_0_1)" stroke-width="0.25" stroke-miterlimit="10"/>
<path d="M1774.87 272.429C1754.39 290.553 1743.5 305.667 1747.67 311.435C1754.59 320.652 1798.61 302.625 1845.76 270.976C1893.1 239.26 1925.96 206.072 1918.97 196.679C1915.28 191.545 1900.48 194.678 1880.2 203.552" stroke="url(#paint24_linear_0_1)" stroke-width="0.25" stroke-miterlimit="10"/>
</g>
<path opacity="0.5" d="M247.763 438.582C250.61 438.582 252.918 436.633 252.918 434.228C252.918 431.823 250.61 429.874 247.763 429.874C244.916 429.874 242.608 431.823 242.608 434.228C242.608 436.633 244.916 438.582 247.763 438.582Z" fill="url(#paint25_radial_0_1)"/>
<path opacity="0.1" d="M218.123 466.884C218.123 464.417 215.889 462.53 212.968 462.53C210.047 462.53 207.813 464.417 207.813 466.884C207.813 469.352 210.047 471.239 212.968 471.239C215.889 471.239 218.123 469.207 218.123 466.884Z" fill="url(#paint26_radial_0_1)"/>
<path d="M1670.47 314.087L1754.57 281.54C1755.58 281.22 1755.92 280.104 1755.58 279.306C1755.25 278.349 1754.07 278.03 1753.22 278.349L1669.12 310.896C1668.11 311.215 1667.77 312.332 1668.11 313.13C1668.45 314.087 1669.46 314.566 1670.47 314.087Z" fill="url(#paint27_linear_0_1)"/>
<g opacity="0.38" filter="url(#filter0_f_0_1)">
<path d="M39.5096 208.544L41.4998 230.817L63.7729 232.807L41.4998 234.798L39.5096 257.071L37.5194 234.798L15.2463 232.807L37.5194 230.817L39.5096 208.544Z" fill="white"/>
</g>
<path opacity="0.5" d="M1713.11 147.729C1713.11 142.346 1708.08 138.229 1701.49 138.229C1694.91 138.229 1689.87 142.346 1689.87 147.729C1689.87 153.112 1694.91 157.229 1701.49 157.229C1708.08 157.229 1713.11 152.796 1713.11 147.729Z" fill="url(#paint28_radial_0_1)"/>
<path opacity="0.5" d="M1716.28 120.229C1722.7 120.229 1727.9 115.976 1727.9 110.729C1727.9 105.482 1716.28 101.229 1716.28 101.229C1716.28 101.229 1704.66 105.482 1704.66 110.729C1704.66 115.976 1709.87 120.229 1716.28 120.229Z" fill="url(#paint29_radial_0_1)"/>
<path opacity="0.5" d="M1482.82 272.229C1512.58 272.229 1536.7 252.306 1536.7 227.729C1536.7 203.152 1482.82 183.229 1482.82 183.229C1482.82 183.229 1428.95 203.152 1428.95 227.729C1428.95 252.306 1453.07 272.229 1482.82 272.229Z" fill="url(#paint30_radial_0_1)"/>
<path opacity="0.3" d="M1826.15 334.229C1826.15 322.229 1814.54 312.229 1799.74 312.229C1785.33 312.229 1773.33 321.896 1773.33 334.229C1773.33 346.562 1784.93 356.229 1799.74 356.229C1814.54 356.229 1826.15 346.562 1826.15 334.229Z" fill="url(#paint31_radial_0_1)"/>
<path opacity="0.5" d="M1713.11 273.729C1713.11 268.346 1708.08 264.229 1701.49 264.229C1694.91 264.229 1689.87 268.346 1689.87 273.729C1689.87 279.112 1694.91 283.229 1701.49 283.229C1708.08 283.229 1713.11 278.796 1713.11 273.729Z" fill="url(#paint32_radial_0_1)"/>
<path opacity="0.5" d="M1716.28 246.229C1722.7 246.229 1727.9 241.976 1727.9 236.729C1727.9 231.482 1716.28 227.229 1716.28 227.229C1716.28 227.229 1704.66 231.482 1704.66 236.729C1704.66 241.976 1709.87 246.229 1716.28 246.229Z" fill="url(#paint33_radial_0_1)"/>
<path d="M1727.9 195.229C1727.9 183.229 1717 173.229 1703.08 173.229C1689.54 173.229 1678.25 182.896 1678.25 195.229C1678.25 207.229 1689.16 217.229 1703.08 217.229C1716.62 217.229 1727.9 207.229 1727.9 195.229Z" fill="url(#paint34_radial_0_1)"/>
<defs>
<filter id="filter0_f_0_1" x="0.246277" y="193.544" width="78.5267" height="78.5266" filterUnits="userSpaceOnUse" color-interpolation-filters="sRGB">
<feFlood flood-opacity="0" result="BackgroundImageFix"/>
<feBlend mode="normal" in="SourceGraphic" in2="BackgroundImageFix" result="shape"/>
<feGaussianBlur stdDeviation="7.5" result="effect1_foregroundBlur_0_1"/>
</filter>
<radialGradient id="paint0_radial_0_1" cx="0" cy="0" r="1" gradientUnits="userSpaceOnUse" gradientTransform="translate(1545.19 31.885) rotate(2.01808) scale(62.9077 60.2767)">
<stop stop-color="#FC49EF"/>
<stop offset="0.1014" stop-color="#F246E8" stop-opacity="0.8986"/>
<stop offset="0.2729" stop-color="#D83DD6" stop-opacity="0.7271"/>
<stop offset="0.4936" stop-color="#AD30B8" stop-opacity="0.5064"/>
<stop offset="0.7517" stop-color="#711D8E" stop-opacity="0.2483"/>
<stop offset="1" stop-color="#320962" stop-opacity="0"/>
</radialGradient>
<linearGradient id="paint1_linear_0_1" x1="1497.08" y1="50.9369" x2="1508.59" y2="49.3925" gradientUnits="userSpaceOnUse">
<stop stop-color="#FC49EF"/>
<stop offset="0.1005" stop-color="#F54FEF"/>
<stop offset="0.2431" stop-color="#E35EEF"/>
<stop offset="0.4109" stop-color="#C478EF"/>
<stop offset="0.5979" stop-color="#9A9DEF"/>
<stop offset="0.799" stop-color="#64CBEF"/>
<stop offset="1" stop-color="#26FFEF"/>
</linearGradient>
<linearGradient id="paint2_linear_0_1" x1="1503.39" y1="60.34" x2="1536.14" y2="55.949" gradientUnits="userSpaceOnUse">
<stop stop-color="#FC49EF"/>
<stop offset="0.1005" stop-color="#F54FEF"/>
<stop offset="0.2431" stop-color="#E35EEF"/>
<stop offset="0.4109" stop-color="#C478EF"/>
<stop offset="0.5979" stop-color="#9A9DEF"/>
<stop offset="0.799" stop-color="#64CBEF"/>
<stop offset="1" stop-color="#26FFEF"/>
</linearGradient>
<linearGradient id="paint3_linear_0_1" x1="1517.08" y1="76.903" x2="1560.36" y2="71.0954" gradientUnits="userSpaceOnUse">
<stop stop-color="#FC49EF"/>
<stop offset="0.1005" stop-color="#F54FEF"/>
<stop offset="0.2431" stop-color="#E35EEF"/>
<stop offset="0.4109" stop-color="#C478EF"/>
<stop offset="0.5979" stop-color="#9A9DEF"/>
<stop offset="0.799" stop-color="#64CBEF"/>
<stop offset="1" stop-color="#26FFEF"/>
</linearGradient>
<linearGradient id="paint4_linear_0_1" x1="1522.12" y1="54.295" x2="1534.74" y2="52.6064" gradientUnits="userSpaceOnUse">
<stop stop-color="#FC49EF"/>
<stop offset="0.1005" stop-color="#F54FEF"/>
<stop offset="0.2431" stop-color="#E35EEF"/>
<stop offset="0.4109" stop-color="#C478EF"/>
<stop offset="0.5979" stop-color="#9A9DEF"/>
<stop offset="0.799" stop-color="#64CBEF"/>
<stop offset="1" stop-color="#26FFEF"/>
</linearGradient>
<linearGradient id="paint5_linear_0_1" x1="1544.91" y1="57.9754" x2="1561.22" y2="55.7878" gradientUnits="userSpaceOnUse">
<stop stop-color="#FC49EF"/>
<stop offset="0.1005" stop-color="#F54FEF"/>
<stop offset="0.2431" stop-color="#E35EEF"/>
<stop offset="0.4109" stop-color="#C478EF"/>
<stop offset="0.5979" stop-color="#9A9DEF"/>
<stop offset="0.799" stop-color="#64CBEF"/>
<stop offset="1" stop-color="#26FFEF"/>
</linearGradient>
<linearGradient id="paint6_linear_0_1" x1="1552.49" y1="70.4147" x2="1563.84" y2="68.8911" gradientUnits="userSpaceOnUse">
<stop stop-color="#FC49EF"/>
<stop offset="0.1005" stop-color="#F54FEF"/>
<stop offset="0.2431" stop-color="#E35EEF"/>
<stop offset="0.4109" stop-color="#C478EF"/>
<stop offset="0.5979" stop-color="#9A9DEF"/>
<stop offset="0.799" stop-color="#64CBEF"/>
<stop offset="1" stop-color="#26FFEF"/>
</linearGradient>
<linearGradient id="paint7_linear_0_1" x1="1491.21" y1="66.6677" x2="1511.47" y2="63.9495" gradientUnits="userSpaceOnUse">
<stop stop-color="#FC49EF"/>
<stop offset="0.1005" stop-color="#F54FEF"/>
<stop offset="0.2431" stop-color="#E35EEF"/>
<stop offset="0.4109" stop-color="#C478EF"/>
<stop offset="0.5979" stop-color="#9A9DEF"/>
<stop offset="0.799" stop-color="#64CBEF"/>
<stop offset="1" stop-color="#26FFEF"/>
</linearGradient>
<linearGradient id="paint8_linear_0_1" x1="1506.26" y1="49.2831" x2="1556.28" y2="42.5801" gradientUnits="userSpaceOnUse">
<stop stop-color="#FC49EF"/>
<stop offset="0.1005" stop-color="#F54FEF"/>
<stop offset="0.2431" stop-color="#E35EEF"/>
<stop offset="0.4109" stop-color="#C478EF"/>
<stop offset="0.5979" stop-color="#9A9DEF"/>
<stop offset="0.799" stop-color="#64CBEF"/>
<stop offset="1" stop-color="#26FFEF"/>
</linearGradient>
<linearGradient id="paint9_linear_0_1" x1="1513.3" y1="40.9498" x2="1555.88" y2="35.2443" gradientUnits="userSpaceOnUse">
<stop stop-color="#FC49EF"/>
<stop offset="0.1005" stop-color="#F54FEF"/>
<stop offset="0.2431" stop-color="#E35EEF"/>
<stop offset="0.4109" stop-color="#C478EF"/>
<stop offset="0.5979" stop-color="#9A9DEF"/>
<stop offset="0.799" stop-color="#64CBEF"/>
<stop offset="1" stop-color="#26FFEF"/>
</linearGradient>
<linearGradient id="paint10_linear_0_1" x1="1503.15" y1="38.9194" x2="1521.17" y2="36.5026" gradientUnits="userSpaceOnUse">
<stop stop-color="#FC49EF"/>
<stop offset="0.1005" stop-color="#F54FEF"/>
<stop offset="0.2431" stop-color="#E35EEF"/>
<stop offset="0.4109" stop-color="#C478EF"/>
<stop offset="0.5979" stop-color="#9A9DEF"/>
<stop offset="0.799" stop-color="#64CBEF"/>
<stop offset="1" stop-color="#26FFEF"/>
</linearGradient>
<radialGradient id="paint11_radial_0_1" cx="0" cy="0" r="1" gradientUnits="userSpaceOnUse" gradientTransform="translate(1533.02 31.1969) rotate(6.84565) scale(40.1815 16.9479)">
<stop stop-color="white"/>
<stop offset="0.181" stop-color="#FED5FB" stop-opacity="0.819"/>
<stop offset="0.463" stop-color="#FD99F6" stop-opacity="0.537"/>
<stop offset="0.7035" stop-color="#FD6EF2" stop-opacity="0.2965"/>
<stop offset="0.8901" stop-color="#FC53F0" stop-opacity="0.1099"/>
<stop offset="1" stop-color="#FC49EF" stop-opacity="0"/>
</radialGradient>
<linearGradient id="paint12_linear_0_1" x1="1455.06" y1="44.2329" x2="1592.78" y2="83.5036" gradientUnits="userSpaceOnUse">
<stop stop-color="#26FFEF"/>
<stop offset="0.3425" stop-color="#74BDEF"/>
<stop offset="0.7959" stop-color="#D56AEF"/>
<stop offset="1" stop-color="#FC49EF"/>
</linearGradient>
<linearGradient id="paint13_linear_0_1" x1="1460.51" y1="44.3068" x2="1588.09" y2="80.6823" gradientUnits="userSpaceOnUse">
<stop stop-color="#26FFEF"/>
<stop offset="0.3425" stop-color="#74BDEF"/>
<stop offset="0.7959" stop-color="#D56AEF"/>
<stop offset="1" stop-color="#FC49EF"/>
</linearGradient>
<linearGradient id="paint14_linear_0_1" x1="1466.71" y1="44.1982" x2="1582.85" y2="77.3018" gradientUnits="userSpaceOnUse">
<stop stop-color="#26FFEF"/>
<stop offset="0.3425" stop-color="#74BDEF"/>
<stop offset="0.7959" stop-color="#D56AEF"/>
<stop offset="1" stop-color="#FC49EF"/>
</linearGradient>
<linearGradient id="paint15_linear_0_1" x1="1471.09" y1="43.5925" x2="1580.22" y2="74.6891" gradientUnits="userSpaceOnUse">
<stop stop-color="#26FFEF"/>
<stop offset="0.3425" stop-color="#74BDEF"/>
<stop offset="0.7959" stop-color="#D56AEF"/>
<stop offset="1" stop-color="#FC49EF"/>
</linearGradient>
<radialGradient id="paint16_radial_0_1" cx="0" cy="0" r="1" gradientUnits="userSpaceOnUse" gradientTransform="translate(1819.24 200.682) rotate(-45.7105) scale(111.748 116.015)">
<stop stop-color="#FC49EF"/>
<stop offset="0.1014" stop-color="#F246E8" stop-opacity="0.8986"/>
<stop offset="0.2729" stop-color="#D83DD6" stop-opacity="0.7271"/>
<stop offset="0.4936" stop-color="#AD30B8" stop-opacity="0.5064"/>
<stop offset="0.7517" stop-color="#711D8E" stop-opacity="0.2483"/>
<stop offset="1" stop-color="#320962" stop-opacity="0"/>
</radialGradient>
<linearGradient id="paint17_linear_0_1" x1="1799.88" y1="272.997" x2="1846.53" y2="197.259" gradientUnits="userSpaceOnUse">
<stop stop-color="#FC49EF"/>
<stop offset="0.1005" stop-color="#F54FEF"/>
<stop offset="0.2431" stop-color="#E35EEF"/>
<stop offset="0.4109" stop-color="#C478EF"/>
<stop offset="0.5979" stop-color="#9A9DEF"/>
<stop offset="0.799" stop-color="#64CBEF"/>
<stop offset="1" stop-color="#26FFEF"/>
</linearGradient>
<linearGradient id="paint18_linear_0_1" x1="1795.8" y1="253.673" x2="1835.51" y2="189.206" gradientUnits="userSpaceOnUse">
<stop stop-color="#FC49EF"/>
<stop offset="0.1005" stop-color="#F54FEF"/>
<stop offset="0.2431" stop-color="#E35EEF"/>
<stop offset="0.4109" stop-color="#C478EF"/>
<stop offset="0.5979" stop-color="#9A9DEF"/>
<stop offset="0.799" stop-color="#64CBEF"/>
<stop offset="1" stop-color="#26FFEF"/>
</linearGradient>
<linearGradient id="paint19_linear_0_1" x1="1780.56" y1="264.923" x2="1797.29" y2="237.705" gradientUnits="userSpaceOnUse">
<stop stop-color="#FC49EF"/>
<stop offset="0.1005" stop-color="#F54FEF"/>
<stop offset="0.2431" stop-color="#E35EEF"/>
<stop offset="0.4109" stop-color="#C478EF"/>
<stop offset="0.5979" stop-color="#9A9DEF"/>
<stop offset="0.799" stop-color="#64CBEF"/>
<stop offset="1" stop-color="#26FFEF"/>
</linearGradient>
<radialGradient id="paint20_radial_0_1" cx="0" cy="0" r="1" gradientUnits="userSpaceOnUse" gradientTransform="translate(1803.73 215.86) rotate(-40.5147) scale(71.8713 32.3958)">
<stop stop-color="white"/>
<stop offset="0.181" stop-color="#FED5FB" stop-opacity="0.819"/>
<stop offset="0.463" stop-color="#FD99F6" stop-opacity="0.537"/>
<stop offset="0.7035" stop-color="#FD6EF2" stop-opacity="0.2965"/>
<stop offset="0.8901" stop-color="#FC53F0" stop-opacity="0.1099"/>
<stop offset="1" stop-color="#FC49EF" stop-opacity="0"/>
</radialGradient>
<linearGradient id="paint21_linear_0_1" x1="1730.79" y1="334.777" x2="1939.91" y2="180.209" gradientUnits="userSpaceOnUse">
<stop stop-color="#26FFEF"/>
<stop offset="0.3425" stop-color="#74BDEF"/>
<stop offset="0.7959" stop-color="#D56AEF"/>
<stop offset="1" stop-color="#FC49EF"/>
</linearGradient>
<linearGradient id="paint22_linear_0_1" x1="1737.42" y1="327.656" x2="1931.15" y2="184.478" gradientUnits="userSpaceOnUse">
<stop stop-color="#26FFEF"/>
<stop offset="0.3425" stop-color="#74BDEF"/>
<stop offset="0.7959" stop-color="#D56AEF"/>
<stop offset="1" stop-color="#FC49EF"/>
</linearGradient>
<linearGradient id="paint23_linear_0_1" x1="1744.69" y1="319.324" x2="1921.04" y2="188.989" gradientUnits="userSpaceOnUse">
<stop stop-color="#26FFEF"/>
<stop offset="0.3425" stop-color="#74BDEF"/>
<stop offset="0.7959" stop-color="#D56AEF"/>
<stop offset="1" stop-color="#FC49EF"/>
</linearGradient>
<linearGradient id="paint24_linear_0_1" x1="1749.03" y1="312.821" x2="1914.76" y2="190.365" gradientUnits="userSpaceOnUse">
<stop stop-color="#26FFEF"/>
<stop offset="0.3425" stop-color="#74BDEF"/>
<stop offset="0.7959" stop-color="#D56AEF"/>
<stop offset="1" stop-color="#FC49EF"/>
</linearGradient>
<radialGradient id="paint25_radial_0_1" cx="0" cy="0" r="1" gradientUnits="userSpaceOnUse" gradientTransform="translate(247.847 434.229) scale(4.75412 4.01566)">
<stop stop-color="#26FFEF"/>
<stop offset="0.00722521" stop-color="#26FDEE" stop-opacity="0.9928"/>
<stop offset="0.2923" stop-color="#2AA7BD" stop-opacity="0.7077"/>
<stop offset="0.5439" stop-color="#2E6396" stop-opacity="0.4561"/>
<stop offset="0.7526" stop-color="#30327A" stop-opacity="0.2474"/>
<stop offset="0.9109" stop-color="#311468" stop-opacity="0.0891204"/>
<stop offset="1" stop-color="#320962" stop-opacity="0"/>
</radialGradient>
<radialGradient id="paint26_radial_0_1" cx="0" cy="0" r="1" gradientUnits="userSpaceOnUse" gradientTransform="translate(213.069 466.822) scale(4.75412 4.01566)">
<stop stop-color="#FFFFE4"/>
<stop offset="0.00722521" stop-color="#FDFDE3" stop-opacity="0.9928"/>
<stop offset="0.2923" stop-color="#B6A7B6" stop-opacity="0.7077"/>
<stop offset="0.5439" stop-color="#7D6392" stop-opacity="0.4561"/>
<stop offset="0.7526" stop-color="#553278" stop-opacity="0.2474"/>
<stop offset="0.9109" stop-color="#3B1468" stop-opacity="0.0891204"/>
<stop offset="1" stop-color="#320962" stop-opacity="0"/>
</radialGradient>
<linearGradient id="paint27_linear_0_1" x1="1755.48" y1="279.383" x2="1669.44" y2="316.484" gradientUnits="userSpaceOnUse">
<stop stop-color="#26FFEF"/>
<stop offset="0.0751937" stop-color="#27E4DF" stop-opacity="0.9248"/>
<stop offset="0.2696" stop-color="#2BA2BA" stop-opacity="0.7304"/>
<stop offset="0.4547" stop-color="#2D6B9A" stop-opacity="0.5453"/>
<stop offset="0.6252" stop-color="#2F4182" stop-opacity="0.3748"/>
<stop offset="0.7783" stop-color="#312270" stop-opacity="0.2217"/>
<stop offset="0.9084" stop-color="#321066" stop-opacity="0.0916342"/>
<stop offset="1" stop-color="#320962" stop-opacity="0"/>
</linearGradient>
<radialGradient id="paint28_radial_0_1" cx="0" cy="0" r="1" gradientUnits="userSpaceOnUse" gradientTransform="translate(1701.45 147.635) scale(10.7169 8.76153)">
<stop stop-color="#FC49EF"/>
<stop offset="0.171" stop-color="#CA39CC" stop-opacity="0.829"/>
<stop offset="0.379" stop-color="#9428A7" stop-opacity="0.621"/>
<stop offset="0.5732" stop-color="#6A1B89" stop-opacity="0.4268"/>
<stop offset="0.7475" stop-color="#4B1174" stop-opacity="0.2525"/>
<stop offset="0.8956" stop-color="#390B67" stop-opacity="0.1044"/>
<stop offset="1" stop-color="#320962" stop-opacity="0"/>
</radialGradient>
<radialGradient id="paint29_radial_0_1" cx="0" cy="0" r="1" gradientUnits="userSpaceOnUse" gradientTransform="translate(1716.1 110.864) scale(10.7169 8.76153)">
<stop stop-color="#FFFFE4"/>
<stop offset="0.00722521" stop-color="#FDFDE3" stop-opacity="0.9928"/>
<stop offset="0.2923" stop-color="#B6A7B6" stop-opacity="0.7077"/>
<stop offset="0.5439" stop-color="#7D6392" stop-opacity="0.4561"/>
<stop offset="0.7526" stop-color="#553278" stop-opacity="0.2474"/>
<stop offset="0.9109" stop-color="#3B1468" stop-opacity="0.0891204"/>
<stop offset="1" stop-color="#320962" stop-opacity="0"/>
</radialGradient>
<radialGradient id="paint30_radial_0_1" cx="0" cy="0" r="1" gradientUnits="userSpaceOnUse" gradientTransform="translate(1481.96 228.361) scale(49.6874 41.0409)">
<stop stop-color="#FFFFE4"/>
<stop offset="0.00722521" stop-color="#FDFDE3" stop-opacity="0.9928"/>
<stop offset="0.2923" stop-color="#B6A7B6" stop-opacity="0.7077"/>
<stop offset="0.5439" stop-color="#7D6392" stop-opacity="0.4561"/>
<stop offset="0.7526" stop-color="#553278" stop-opacity="0.2474"/>
<stop offset="0.9109" stop-color="#3B1468" stop-opacity="0.0891204"/>
<stop offset="1" stop-color="#320962" stop-opacity="0"/>
</radialGradient>
<radialGradient id="paint31_radial_0_1" cx="0" cy="0" r="1" gradientUnits="userSpaceOnUse" gradientTransform="translate(1799.87 334.325) scale(24.3859 20.3143)">
<stop stop-color="#FC49EF"/>
<stop offset="0.171" stop-color="#CA39CC" stop-opacity="0.829"/>
<stop offset="0.379" stop-color="#9428A7" stop-opacity="0.621"/>
<stop offset="0.5732" stop-color="#6A1B89" stop-opacity="0.4268"/>
<stop offset="0.7475" stop-color="#4B1174" stop-opacity="0.2525"/>
<stop offset="0.8956" stop-color="#390B67" stop-opacity="0.1044"/>
<stop offset="1" stop-color="#320962" stop-opacity="0"/>
</radialGradient>
<radialGradient id="paint32_radial_0_1" cx="0" cy="0" r="1" gradientUnits="userSpaceOnUse" gradientTransform="translate(1701.45 273.635) scale(10.7169 8.76153)">
<stop stop-color="#FC49EF"/>
<stop offset="0.171" stop-color="#CA39CC" stop-opacity="0.829"/>
<stop offset="0.379" stop-color="#9428A7" stop-opacity="0.621"/>
<stop offset="0.5732" stop-color="#6A1B89" stop-opacity="0.4268"/>
<stop offset="0.7475" stop-color="#4B1174" stop-opacity="0.2525"/>
<stop offset="0.8956" stop-color="#390B67" stop-opacity="0.1044"/>
<stop offset="1" stop-color="#320962" stop-opacity="0"/>
</radialGradient>
<radialGradient id="paint33_radial_0_1" cx="0" cy="0" r="1" gradientUnits="userSpaceOnUse" gradientTransform="translate(1716.1 236.864) scale(10.7169 8.76153)">
<stop stop-color="#FFFFE4"/>
<stop offset="0.00722521" stop-color="#FDFDE3" stop-opacity="0.9928"/>
<stop offset="0.2923" stop-color="#B6A7B6" stop-opacity="0.7077"/>
<stop offset="0.5439" stop-color="#7D6392" stop-opacity="0.4561"/>
<stop offset="0.7526" stop-color="#553278" stop-opacity="0.2474"/>
<stop offset="0.9109" stop-color="#3B1468" stop-opacity="0.0891204"/>
<stop offset="1" stop-color="#320962" stop-opacity="0"/>
</radialGradient>
<radialGradient id="paint34_radial_0_1" cx="0" cy="0" r="1" gradientUnits="userSpaceOnUse" gradientTransform="translate(1703.03 195.164) scale(22.9228 20.3143)">
<stop stop-color="#FC49EF"/>
<stop offset="0.171" stop-color="#CA39CC" stop-opacity="0.829"/>
<stop offset="0.379" stop-color="#9428A7" stop-opacity="0.621"/>
<stop offset="0.5732" stop-color="#6A1B89" stop-opacity="0.4268"/>
<stop offset="0.7475" stop-color="#4B1174" stop-opacity="0.2525"/>
<stop offset="0.8956" stop-color="#390B67" stop-opacity="0.1044"/>
<stop offset="1" stop-color="#320962" stop-opacity="0"/>
</radialGradient>
</defs>
</svg>
