<svg width="137" height="129" viewBox="0 0 137 129" fill="none" xmlns="http://www.w3.org/2000/svg">
<path d="M100.683 120.757C88.9252 126.793 75.541 129.393 62.2225 128.228C48.904 127.064 36.2495 122.186 25.8591 114.214C15.4687 106.241 7.80922 95.5302 3.84916 83.4365C-0.110909 71.3428 -0.1937 58.4091 3.61132 46.2709C7.41634 34.1327 14.9382 23.3352 25.2258 15.2437C35.5134 7.15231 48.1046 2.13042 61.4072 0.813096C74.7098 -0.504233 88.1264 1.94216 99.9602 7.84295C111.794 13.7437 121.514 22.8339 127.89 33.9638C136.42 48.8926 138.345 66.4147 133.245 82.6859C128.144 98.9571 116.434 112.649 100.683 120.757Z" fill="url(#paint0_linear_0_1)"/>
<path d="M111.512 57.5784C108.95 58.8937 106.034 59.4603 103.132 59.2065C100.229 58.9527 97.4718 57.8899 95.2076 56.1526C92.9434 54.4152 91.2743 52.0813 90.4114 49.446C89.5485 46.8106 89.5304 43.9922 90.3595 41.3472C91.1887 38.7022 92.8278 36.3493 95.0696 34.5861C97.3113 32.8229 100.055 31.7286 102.954 31.4415C105.853 31.1544 108.776 31.6875 111.355 32.9734C113.934 34.2592 116.052 36.2401 117.441 38.6654C119.3 41.9185 119.719 45.7368 118.608 49.2824C117.497 52.8281 114.945 55.8116 111.512 57.5784ZM98.7391 35.2826C96.6429 36.3588 94.9308 37.9992 93.8195 39.9965C92.7081 41.9937 92.2473 44.2581 92.4954 46.5033C92.7435 48.7484 93.6894 50.8735 95.2133 52.6097C96.7373 54.346 98.7709 55.6155 101.057 56.2577C103.343 56.8999 105.779 56.8859 108.057 56.2176C110.335 55.5492 112.352 54.2565 113.853 52.5029C115.355 50.7492 116.274 48.6135 116.493 46.3656C116.712 44.1178 116.223 41.8589 115.086 39.8746C113.559 37.2162 110.98 35.2397 107.915 34.3789C104.851 33.518 101.551 33.843 98.7391 35.2826Z" fill="url(#paint1_linear_0_1)"/>
<defs>
<linearGradient id="paint0_linear_0_1" x1="2.95239" y1="23.5004" x2="101.85" y2="115.707" gradientUnits="userSpaceOnUse">
<stop stop-color="#6B32FF"/>
<stop offset="0.830087" stop-color="#2F1057"/>
</linearGradient>
<linearGradient id="paint1_linear_0_1" x1="97.4618" y1="33.053" x2="110.357" y2="58.1715" gradientUnits="userSpaceOnUse">
<stop stop-color="#2C0E84"/>
<stop offset="1" stop-color="#1E0748"/>
</linearGradient>
</defs>
</svg>
