<svg width="951" height="808" viewBox="0 0 951 808" fill="none" xmlns="http://www.w3.org/2000/svg">
<path d="M582.332 603.171C539.813 624.999 491.412 634.402 443.248 630.19C395.084 625.978 349.322 608.341 311.747 579.508C274.172 550.676 246.473 511.944 232.152 468.209C217.832 424.475 217.532 377.703 231.292 333.807C245.052 289.912 272.254 250.865 309.457 221.604C346.66 192.343 392.194 174.182 440.3 169.418C488.406 164.654 536.924 173.501 579.719 194.84C622.514 216.179 657.663 249.052 680.722 289.301C711.568 343.288 718.532 406.653 700.086 465.495C681.641 524.337 639.293 573.849 582.332 603.171Z" fill="url(#paint0_linear_1_939)"/>
<path d="M436.024 320.721C428.247 324.713 419.393 326.434 410.582 325.663C401.772 324.893 393.4 321.666 386.527 316.392C379.654 311.118 374.587 304.033 371.967 296.032C369.347 288.032 369.293 279.476 371.81 271.447C374.327 263.417 379.303 256.274 386.108 250.922C392.914 245.569 401.243 242.247 410.043 241.376C418.843 240.504 427.718 242.122 435.546 246.026C443.375 249.929 449.804 255.943 454.023 263.305C459.665 273.181 460.939 284.772 457.565 295.536C454.191 306.3 446.444 315.357 436.024 320.721ZM396.214 251.231C389.473 254.692 383.968 259.967 380.394 266.389C376.82 272.812 375.339 280.093 376.137 287.313C376.934 294.532 379.976 301.366 384.876 306.949C389.777 312.532 396.316 316.615 403.668 318.68C411.019 320.745 418.852 320.7 426.176 318.551C433.501 316.401 439.988 312.244 444.816 306.605C449.645 300.966 452.599 294.098 453.304 286.87C454.009 279.642 452.435 272.378 448.779 265.997C443.877 257.441 435.585 251.078 425.727 248.309C415.869 245.54 405.253 246.591 396.214 251.231Z" fill="url(#paint1_linear_1_939)" fill-opacity="0.6"/>
<path d="M342.238 525.943C336.534 528.871 330.041 530.133 323.58 529.568C317.119 529.003 310.981 526.637 305.94 522.769C300.9 518.901 297.184 513.705 295.263 507.838C293.342 501.972 293.301 495.697 295.147 489.809C296.993 483.921 300.642 478.682 305.633 474.757C310.623 470.832 316.732 468.396 323.185 467.757C329.638 467.118 336.147 468.304 341.888 471.167C347.628 474.03 352.343 478.439 355.437 483.839C359.574 491.081 360.509 499.581 358.034 507.474C355.56 515.368 349.879 522.01 342.238 525.943ZM313.802 476.308C309.135 478.704 305.324 482.356 302.85 486.802C300.376 491.248 299.35 496.289 299.902 501.287C300.455 506.286 302.56 511.016 305.953 514.882C309.345 518.747 313.873 521.573 318.962 523.003C324.052 524.433 329.475 524.401 334.545 522.914C339.616 521.426 344.107 518.548 347.45 514.644C350.793 510.74 352.838 505.985 353.326 500.981C353.814 495.977 352.724 490.948 350.193 486.53C346.8 480.607 341.059 476.202 334.234 474.285C327.409 472.367 320.06 473.095 313.802 476.308Z" fill="url(#paint2_linear_1_939)" fill-opacity="0.3"/>
<path d="M613.811 539.03C608.108 541.958 601.615 543.22 595.154 542.655C588.693 542.09 582.554 539.724 577.513 535.856C572.473 531.988 568.757 526.792 566.836 520.926C564.915 515.059 564.875 508.784 566.721 502.896C568.567 497.008 572.216 491.77 577.206 487.844C582.197 483.919 588.305 481.483 594.758 480.844C601.212 480.205 607.72 481.391 613.461 484.254C619.202 487.117 623.917 491.526 627.01 496.926C631.148 504.168 632.082 512.668 629.608 520.561C627.133 528.455 621.453 535.097 613.811 539.03ZM585.375 489.395C580.709 491.791 576.897 495.443 574.423 499.889C571.949 504.335 570.923 509.376 571.476 514.374C572.028 519.373 574.134 524.103 577.526 527.969C580.919 531.834 585.446 534.66 590.536 536.09C595.625 537.52 601.048 537.488 606.119 536.001C611.19 534.513 615.68 531.635 619.023 527.731C622.366 523.827 624.411 519.072 624.899 514.068C625.388 509.064 624.298 504.035 621.767 499.618C618.367 493.699 612.626 489.299 605.804 487.383C598.982 485.466 591.635 486.19 585.375 489.395Z" fill="url(#paint3_linear_1_939)"/>
<g filter="url(#filter0_b_1_939)">
<path d="M607.396 605.026C495.21 670.927 344.748 634.664 271.331 524.03C197.914 413.397 229.342 270.288 341.529 204.387C453.715 138.486 604.177 174.749 677.594 285.382C751.011 396.016 719.582 539.125 607.396 605.026Z" fill="url(#paint4_radial_1_939)"/>
<path opacity="0.1" d="M534.056 191.234C536.441 190.764 538.663 190.39 540.997 190.182C548.484 189.275 556.526 196.654 553.919 204.237C552.716 207.504 549.755 209.476 547.401 212.022C545.047 214.569 543.308 218.383 545.42 221.565C547.198 224.245 550.522 224.852 553.684 225.554C564.858 227.834 576.235 232.788 583.054 242.049C589.873 251.31 590.134 265.586 581.252 271.502C578.292 273.474 573.957 274.391 570.613 272.399C565.683 269.71 564.168 262.686 558.975 260.616C554.823 259.099 550.619 261.568 548.002 264.735C545.385 267.902 543.647 271.716 540.313 274.14C535.311 277.777 528.016 276.942 521.682 274.844C519.388 274.097 516.872 273.015 515.377 271.1C511.559 266.361 515.601 260.263 519.289 256.001C522.815 251.835 525.918 244.659 521.028 241.015C518.28 238.905 514.754 239.347 511.602 239.337C508.449 239.327 504.297 237.81 503.6 234.728C503.196 233.104 503.934 231.506 504.894 230.244C509.694 223.933 519.464 223.081 524.375 216.938C524.91 216.391 525.335 215.676 525.325 214.983C525.466 213.504 524.415 212.259 523.153 211.372C519.697 209.212 515.312 210.392 511.483 208.684C510.827 208.372 510.17 208.06 509.887 207.295C509.554 206.792 509.655 206.268 509.756 205.743C510.443 200.684 515.182 197.667 519.881 195.605C524.256 193.733 529.126 192.269 534.056 191.234Z" fill="url(#paint5_linear_1_939)"/>
<path opacity="0.1" d="M544.575 291.239C537.898 293.759 529.911 292.606 522.564 290.377C515.217 288.147 508.235 284.767 500.837 282.801C484.621 278.768 467.206 282.454 455.565 292.8C451.577 296.312 447.882 301.289 449.272 306.785C451.828 317.44 468.826 318.91 473.666 328.925C475.746 333.08 474.944 337.994 473.036 341.921C471.128 345.847 467.788 348.978 464.886 352.086C449.449 367.936 435.514 385.709 427.464 406.571C424.886 413.229 422.754 420.561 423.788 427.902C424.661 435.339 429.247 442.932 436.279 446.048C441.992 448.536 448.315 447.861 453.917 446.44C462.238 444.356 470.266 440.809 476.518 435.265C482.77 429.722 487.134 422.014 487.937 413.359C488.688 404.969 485.726 396.422 484.895 388.026C483.962 380.157 484.825 371.935 489.047 365.713C493.27 359.492 501.399 355.417 509.345 357.529C516.083 359.181 521.623 364.81 528.26 366.99C534.237 368.855 540.986 367.462 545.238 363.327C549.328 359.287 550.537 352.265 547.726 346.668C545.139 341.408 540.065 337.843 534.575 335.691C529.248 333.444 523.392 332.442 517.912 330.985C511.225 329.069 503.523 324.944 502.823 318.107C502.184 311.702 508.507 307.286 514.708 305.747C521.67 303.995 528.986 304.138 536.06 306.295C542.747 308.211 548.805 311.9 555.442 314.079C562.079 316.259 569.781 316.643 574.744 312.558C580.356 308.092 580.936 299.101 577.993 291.945C575.051 284.789 569.399 278.992 563.859 273.363C562.306 271.703 558.602 268.502 556.674 271.038C555.71 272.305 556.755 276.601 556.288 278.279C554.572 284.196 550.33 289.027 544.575 291.239Z" fill="url(#paint6_linear_1_939)"/>
<path opacity="0.1" d="M435.736 463.29C449.309 470.494 465.589 472.606 479.092 467.476C492.595 462.346 502.328 449.156 501.843 434.497C501.681 430.856 500.861 426.901 501.408 423.31C502.626 413.255 512.733 407.084 522.678 404.745C540.449 400.61 561.179 405.012 575.218 418.014C589.257 431.016 595.135 452.783 586.8 468.42C579.794 481.642 564.679 488.42 549.686 492.324C534.692 496.228 518.959 497.997 505.314 504.612C497.193 508.682 489.225 515.698 489.852 525.136C490.268 531.197 494.109 536.647 497.565 541.855C503.92 551.432 509.789 561.294 513.052 571.987C516.315 582.679 516.375 594.32 511.66 603.861C506.783 613.498 497.335 619.982 486.751 623.397C476.33 626.717 464.723 627.23 453.43 626.859C429.1 626.206 403.018 621.213 383.86 604.913C379.167 600.898 374.778 595.303 375.843 589.774C376.451 586.614 378.814 584.059 381.348 582.103C391.638 573.49 404.878 568.982 416.78 562.457C421.321 559.789 425.914 556.858 428.905 552.533C431.896 548.207 433.011 542.415 430.974 537.306C428.207 530.759 420.463 526.902 413.529 526.305C406.433 525.803 399.752 527.626 392.96 529.281C371.002 534.24 346.41 534.209 324.94 523.938C319.395 521.357 313.891 517.819 310.434 512.61C306.978 507.402 306.168 500.406 309.868 496.13C313.782 491.496 321.03 491.208 327.416 491.66C345.156 492.914 363.809 496.902 380.363 491.614C384.489 490.358 388.494 488.239 389.852 484.171C391.1 479.936 388.85 475.187 386.772 471.036C383.569 464.512 380.579 457.628 380.043 450.705C379.223 439.277 390.223 423.242 403.066 432.743C407.475 435.991 410.567 442.348 414.226 446.503C420.267 453.228 427.657 458.929 435.736 463.29Z" fill="url(#paint7_linear_1_939)"/>
<path opacity="0.1" d="M440.999 320.422C437.449 320.171 433.118 322.482 434.528 325.625C435.146 326.897 436.414 327.788 437.844 328.583C443.077 332.051 447.041 338.366 445.428 343.752C444.546 346.84 442.122 348.965 439.809 351.258C428.024 362.387 417.678 375.006 408.985 388.757C406.743 392.177 404.958 396.964 407.949 400.112C410.109 402.348 414.034 402.145 416.519 400.451C419.004 398.758 420.384 396.078 421.763 393.399C428.509 380.792 437.069 369.222 447.121 358.878C452.659 353.288 460.57 345.837 459.516 337.112C458.523 328.817 449.355 321.12 440.999 320.422Z" fill="url(#paint8_linear_1_939)"/>
<path opacity="0.1" d="M364.179 459.644C365.551 463.76 368.072 467.903 367.807 472.278C367.248 478.936 359.753 482.639 352.859 482.472C345.965 482.306 339.356 479.159 332.442 477.598C324.318 475.577 315.787 475.67 308.049 477.64C300.748 479.588 293.427 483.893 292.552 491.439C292.012 495.741 293.73 501.06 290.659 504.272C288.341 506.572 283.795 506.197 281.03 504.072C278.264 501.948 276.516 498.288 275.865 494.92C274.626 488.617 276.009 482.178 279.66 477.453C284.755 470.473 293.845 467.473 302.753 466.924C311.66 466.376 320.872 467.992 329.911 469.007C335.28 469.601 341.137 469.909 344.971 466.483C350.045 461.859 348.602 452.862 352.792 447.587C355.1 444.589 365.431 440.39 366.295 447.149C366.427 448.712 364.047 450.58 363.742 452.166C362.898 454.303 363.213 457.165 364.179 459.644Z" fill="url(#paint9_linear_1_939)"/>
<path opacity="0.1" d="M385.477 545.897C389.629 546.724 393.821 550.326 393.496 554.249C393.213 557.214 390.519 559.263 388.037 560.954C380.918 565.836 373.91 570.885 366.79 575.767C362.476 578.768 357.686 582.748 358.637 588.253C359.001 590.838 360.611 592.925 361.411 595.487C362.373 597.955 362.2 601.088 359.983 602.158C358.848 602.824 357.157 602.651 355.79 602.288C346.94 600.489 338.96 594.913 332.49 588.217C326.182 581.427 321.382 573.516 316.694 565.774C315.186 563.161 313.677 560.548 313.09 557.628C312.614 554.875 313.384 551.624 315.815 550.196C320.19 547.626 325.972 551.927 330.164 555.529C334.629 559.204 340.341 562.38 345.941 561.657C354.042 560.63 352.271 551.174 359.38 549.331C366.438 547.75 378.105 544.63 385.477 545.897Z" fill="url(#paint10_linear_1_939)"/>
<path opacity="0.1" d="M601.496 238.493C606.739 243.54 611.597 249.278 614.375 256.006C617.041 262.568 617.475 270.21 614.399 275.734C611.748 280.312 606.746 283.251 605.629 288.553C604.36 293.944 607.259 299.905 610.887 304.74C614.364 309.664 618.75 314.054 621.206 319.346C623.884 324.972 624.108 331.343 621.789 336.422C619.47 341.501 614.539 344.864 608.703 345.275C600.121 345.674 591.245 339.278 582.663 339.677C575.061 339.965 568.965 346.336 569.247 354.066C569.647 364.515 579.479 372.671 587.93 380.014C601.11 391.312 613.731 405.261 617.486 421.403C618.811 426.895 619.338 433.088 623.694 436.798C629.13 441.5 636.906 439.252 642.473 436.212C655.426 429.064 666.587 417.626 669.403 402.5C673.227 381.904 661.051 359.099 645.496 341.997C640.819 336.85 635.687 331.97 632.676 325.842C629.776 319.882 628.766 313.276 628.128 306.916C627.52 301.235 626.841 295.13 628.857 290.229C630.954 284.816 635.926 281.197 639.032 276.352C643.746 269.168 644.244 259.121 640.288 250.298C638.275 245.675 635.09 241.508 631.754 237.43C626.231 230.69 620.101 224.305 613.627 218.356C607.375 212.74 600.558 207.225 593.071 204.193C585.473 200.994 576.903 200.458 570.426 204.032C567.547 205.725 565.07 208.342 565.065 211.828C565.097 218.545 575.796 220.386 580.356 222.815C587.68 226.871 595.063 232.287 601.496 238.493Z" fill="url(#paint11_linear_1_939)"/>
<path opacity="0.1" d="M461.006 226.476C459.715 227.938 458.81 229.641 458.566 231.659C458.251 236.296 462.957 240.324 467.581 242.526C472.206 244.727 477.258 246.209 480.54 250.137C484.941 255.75 483.09 263.867 478.343 268.297C473.708 272.896 466.846 274.821 460.646 277.06C449.495 281.037 438.964 286.29 429.103 292.555C422.171 297.098 414.882 303.491 415.664 312.169C416.009 317.12 419.139 321.84 420.358 326.747C423.214 338.891 413.963 349.483 404.224 356.613C394.537 363.479 383.091 369.739 378.882 381.116C374.835 392.397 379.143 406.733 373.003 416.903C368.997 423.475 360.906 427.294 352.744 426.234C345.019 425.152 337.183 420.152 330.22 422.605C323.094 425.154 321.304 433.703 318.01 440.325C312.063 452.49 297.74 460.206 283.642 457.012C269.544 453.819 257.897 438.642 260.764 425.242C261.791 420.656 264.191 416.434 267.2 412.791C278.219 399.753 296.496 393.228 314.416 396.049C326.309 397.961 338.475 403.695 349.921 401.185C355.969 399.738 361.275 396.151 364.264 391.114C368.859 383.727 368.718 373.97 372.927 366.342C379.108 355.211 392.993 351.267 404.053 344.766C406.98 343.045 409.847 340.891 411.169 337.771C412.226 335.276 411.911 332.415 411.271 329.745C408.07 316.398 395.152 304.077 398.03 291.374C400.766 280.16 414.265 275.974 426.289 275.7C438.314 275.426 451.355 277.366 461.165 271.366C463.93 269.741 466.623 266.986 466.136 263.524C465.415 259.028 460.241 256.68 455.901 255.249C450.737 253.598 445.462 251.779 440.299 250.128C434.475 248.163 427.99 245.883 424.524 240.657C421.282 235.769 421.466 229.569 423.692 224.746C425.807 219.755 429.853 215.971 433.736 212.282C441.99 204.619 461.325 188.1 475.006 192.709C482.589 195.281 484.407 203.818 480.605 209.333C475.848 216.815 466.486 219.741 461.006 226.476Z" fill="url(#paint12_linear_1_939)"/>
<path opacity="0.1" d="M318.118 226.317C343.514 202.966 372.942 186.374 404.371 175.863C405.427 177.115 405.996 178.653 406.29 180.119C407.468 185.98 405.04 191.855 401.332 196.14C397.735 200.595 392.92 203.892 388.603 207.6C382.559 212.79 377.124 218.559 372.461 224.81C368.55 230.152 365.39 238.329 370.489 243.291C373.15 245.94 376.928 246.529 380.544 247.212C391.443 249 402.393 250.524 413.292 252.311C417.233 252.804 421.784 253.875 424.018 257.243C427.481 262.464 422.544 268.643 417.282 271.267C403.396 278.257 385.123 276.59 372.689 285.769C369.337 288.207 366.492 291.751 367.101 296.075C367.771 300.831 372.301 304.255 376.059 307.196C380.924 311.125 385.302 315.34 389.415 320.179C398.922 331.446 392.512 337.787 380.556 338.493C368.875 339.272 360.352 346.856 356.897 357.312C354.276 364.939 350.12 372.296 343.081 376.667C336.041 381.038 327.113 379.497 319.16 377.383C308.738 374.612 299.099 373.021 289.489 377.264C280.205 381.315 271.57 388.73 266.45 397.357C263.514 402.125 262.233 408.028 258.525 412.313C254.767 416.863 248.672 418.572 242.547 418.192C238.125 346.824 263.333 276.535 318.118 226.317Z" fill="url(#paint13_linear_1_939)"/>
<path opacity="0.1" d="M415.147 221.273C423.464 205.818 440.136 196.481 457.541 192.348C465.399 190.543 473.979 189.487 480.035 184.282C481.389 183.251 482.519 181.882 482.438 180.052C482.356 178.222 480.799 176.555 478.978 175.514C475.11 173.094 470.225 172.212 465.96 172.607C461.533 173.099 457.339 174.626 453.644 176.565C441.685 182.425 432.015 191.399 421.673 199.359C414.09 204.993 406.171 210.12 397.804 214.572C393.295 216.989 388.511 219.333 385.447 223.248C382.383 227.163 381.1 233.082 384.123 237.642C386.809 241.695 392.143 243.253 397.028 244.136C401.913 245.018 406.85 245.636 411.776 245.556C415.389 245.543 420.203 245.294 416.142 240.875C413.527 237.953 411.929 237.25 411.868 233.06C411.645 228.966 413.172 224.782 415.147 221.273Z" fill="url(#paint14_linear_1_939)"/>
<path opacity="0.5" d="M597.544 591.312C485.633 657.051 337.521 623.86 266.726 517.179C195.932 410.498 229.263 270.724 341.174 204.985C453.085 139.246 601.197 172.436 671.992 279.117C742.787 385.798 709.456 525.573 597.544 591.312Z" fill="url(#paint15_radial_1_939)"/>
<path opacity="0.2" d="M477.747 167.939C575.949 63.1054 664.44 4.45496 699.527 28.4221C748.062 61.4127 676.187 239.761 538.762 426.72C401.337 613.678 250.483 738.533 201.948 705.542C169.456 683.559 190.8 596.669 249.536 485.724" stroke="url(#paint16_linear_1_939)" stroke-width="0.5" stroke-miterlimit="10"/>
<path opacity="0.4" d="M482.211 167.917C568.248 77.8758 644.174 28.2662 674.564 49.0089C718.304 78.6268 650.528 243.213 523.172 416.408C395.816 589.602 257.262 705.987 213.424 676.221C185.783 657.372 202.609 584.906 250.821 490.265" stroke="url(#paint17_linear_1_939)" stroke-width="0.5" stroke-miterlimit="10"/>
<path opacity="0.75" d="M486.696 167.917C558.868 94.2869 620.596 54.4721 645.391 71.2795C683.383 97.0529 620.201 245.73 504.263 403.337C388.325 560.943 263.856 668.016 225.864 642.242C203.818 627.329 215.95 570.63 252.935 494.772" stroke="url(#paint18_linear_1_939)" stroke-width="0.5" stroke-miterlimit="10"/>
<path d="M491.275 168.044C553.756 104.239 605.424 69.5133 625.172 82.8899C656.968 104.464 594.283 242.331 485.237 390.735C376.191 539.14 262.116 641.965 230.319 620.391C212.97 608.701 223.745 562.502 254.43 499.015" stroke="url(#paint19_linear_1_939)" stroke-width="0.5" stroke-miterlimit="10"/>
</g>
<defs>
<filter id="filter0_b_1_939" x="175.498" y="11.8468" width="552.755" height="710.226" filterUnits="userSpaceOnUse" color-interpolation-filters="sRGB">
<feFlood flood-opacity="0" result="BackgroundImageFix"/>
<feGaussianBlur in="BackgroundImage" stdDeviation="5.5"/>
<feComposite in2="SourceAlpha" operator="in" result="effect1_backgroundBlur_1_939"/>
<feBlend mode="normal" in="SourceGraphic" in2="effect1_backgroundBlur_1_939" result="shape"/>
</filter>
<linearGradient id="paint0_linear_1_939" x1="228.909" y1="251.462" x2="586.554" y2="584.91" gradientUnits="userSpaceOnUse">
<stop stop-color="#6B32FF"/>
<stop offset="0.830087" stop-color="#48A3C4"/>
</linearGradient>
<linearGradient id="paint1_linear_1_939" x1="393.37" y1="246.268" x2="425.383" y2="308.801" gradientUnits="userSpaceOnUse">
<stop stop-color="#2C0E84"/>
<stop offset="1" stop-color="#4B03CE"/>
</linearGradient>
<linearGradient id="paint2_linear_1_939" x1="310.958" y1="471.344" x2="339.666" y2="527.263" gradientUnits="userSpaceOnUse">
<stop stop-color="#43B6E4"/>
<stop offset="1" stop-color="#360D83"/>
</linearGradient>
<linearGradient id="paint3_linear_1_939" x1="582.532" y1="484.431" x2="611.24" y2="540.35" gradientUnits="userSpaceOnUse">
<stop stop-color="#2C0E84"/>
<stop offset="1" stop-color="#1E0748"/>
</linearGradient>
<radialGradient id="paint4_radial_1_939" cx="0" cy="0" r="1" gradientUnits="userSpaceOnUse" gradientTransform="translate(242.093 308.999) rotate(138.107) scale(428.169 445.023)">
<stop stop-color="#FC49EF"/>
<stop offset="0.1014" stop-color="#F246E8" stop-opacity="0.8986"/>
<stop offset="0.2729" stop-color="#D83DD6" stop-opacity="0.7271"/>
<stop offset="0.4936" stop-color="#AD30B8" stop-opacity="0.5064"/>
<stop offset="0.7517" stop-color="#711D8E" stop-opacity="0.2483"/>
<stop offset="1" stop-color="#320962" stop-opacity="0"/>
</radialGradient>
<linearGradient id="paint5_linear_1_939" x1="570.008" y1="221.828" x2="509.409" y2="262.04" gradientUnits="userSpaceOnUse">
<stop stop-color="#FC49EF"/>
<stop offset="0.1005" stop-color="#F54FEF"/>
<stop offset="0.2431" stop-color="#E35EEF"/>
<stop offset="0.4109" stop-color="#C478EF"/>
<stop offset="0.5979" stop-color="#9A9DEF"/>
<stop offset="0.799" stop-color="#64CBEF"/>
<stop offset="1" stop-color="#26FFEF"/>
</linearGradient>
<linearGradient id="paint6_linear_1_939" x1="581.487" y1="296.441" x2="409.063" y2="410.843" gradientUnits="userSpaceOnUse">
<stop stop-color="#FC49EF"/>
<stop offset="0.1005" stop-color="#F54FEF"/>
<stop offset="0.2431" stop-color="#E35EEF"/>
<stop offset="0.4109" stop-color="#C478EF"/>
<stop offset="0.5979" stop-color="#9A9DEF"/>
<stop offset="0.799" stop-color="#64CBEF"/>
<stop offset="1" stop-color="#26FFEF"/>
</linearGradient>
<linearGradient id="paint7_linear_1_939" x1="590.516" y1="438.702" x2="362.041" y2="590.318" gradientUnits="userSpaceOnUse">
<stop stop-color="#FC49EF"/>
<stop offset="0.1005" stop-color="#F54FEF"/>
<stop offset="0.2431" stop-color="#E35EEF"/>
<stop offset="0.4109" stop-color="#C478EF"/>
<stop offset="0.5979" stop-color="#9A9DEF"/>
<stop offset="0.799" stop-color="#64CBEF"/>
<stop offset="1" stop-color="#26FFEF"/>
</linearGradient>
<linearGradient id="paint8_linear_1_939" x1="462.965" y1="339.463" x2="396.781" y2="383.381" gradientUnits="userSpaceOnUse">
<stop stop-color="#FC49EF"/>
<stop offset="0.1005" stop-color="#F54FEF"/>
<stop offset="0.2431" stop-color="#E35EEF"/>
<stop offset="0.4109" stop-color="#C478EF"/>
<stop offset="0.5979" stop-color="#9A9DEF"/>
<stop offset="0.799" stop-color="#64CBEF"/>
<stop offset="1" stop-color="#26FFEF"/>
</linearGradient>
<linearGradient id="paint9_linear_1_939" x1="368.58" y1="449.586" x2="282.247" y2="506.832" gradientUnits="userSpaceOnUse">
<stop stop-color="#FC49EF"/>
<stop offset="0.1005" stop-color="#F54FEF"/>
<stop offset="0.2431" stop-color="#E35EEF"/>
<stop offset="0.4109" stop-color="#C478EF"/>
<stop offset="0.5979" stop-color="#9A9DEF"/>
<stop offset="0.799" stop-color="#64CBEF"/>
<stop offset="1" stop-color="#26FFEF"/>
</linearGradient>
<linearGradient id="paint10_linear_1_939" x1="389.39" y1="545.97" x2="329.412" y2="585.774" gradientUnits="userSpaceOnUse">
<stop stop-color="#FC49EF"/>
<stop offset="0.1005" stop-color="#F54FEF"/>
<stop offset="0.2431" stop-color="#E35EEF"/>
<stop offset="0.4109" stop-color="#C478EF"/>
<stop offset="0.5979" stop-color="#9A9DEF"/>
<stop offset="0.799" stop-color="#64CBEF"/>
<stop offset="1" stop-color="#26FFEF"/>
</linearGradient>
<linearGradient id="paint11_linear_1_939" x1="664.265" y1="285.771" x2="564.46" y2="351.962" gradientUnits="userSpaceOnUse">
<stop stop-color="#FC49EF"/>
<stop offset="0.1005" stop-color="#F54FEF"/>
<stop offset="0.2431" stop-color="#E35EEF"/>
<stop offset="0.4109" stop-color="#C478EF"/>
<stop offset="0.5979" stop-color="#9A9DEF"/>
<stop offset="0.799" stop-color="#64CBEF"/>
<stop offset="1" stop-color="#26FFEF"/>
</linearGradient>
<linearGradient id="paint12_linear_1_939" x1="514.907" y1="248.831" x2="251.365" y2="423.606" gradientUnits="userSpaceOnUse">
<stop stop-color="#FC49EF"/>
<stop offset="0.1005" stop-color="#F54FEF"/>
<stop offset="0.2431" stop-color="#E35EEF"/>
<stop offset="0.4109" stop-color="#C478EF"/>
<stop offset="0.5979" stop-color="#9A9DEF"/>
<stop offset="0.799" stop-color="#64CBEF"/>
<stop offset="1" stop-color="#26FFEF"/>
</linearGradient>
<linearGradient id="paint13_linear_1_939" x1="442.363" y1="232.861" x2="218.227" y2="381.538" gradientUnits="userSpaceOnUse">
<stop stop-color="#FC49EF"/>
<stop offset="0.1005" stop-color="#F54FEF"/>
<stop offset="0.2431" stop-color="#E35EEF"/>
<stop offset="0.4109" stop-color="#C478EF"/>
<stop offset="0.5979" stop-color="#9A9DEF"/>
<stop offset="0.799" stop-color="#64CBEF"/>
<stop offset="1" stop-color="#26FFEF"/>
</linearGradient>
<linearGradient id="paint14_linear_1_939" x1="484.134" y1="181.761" x2="388.74" y2="244.986" gradientUnits="userSpaceOnUse">
<stop stop-color="#FC49EF"/>
<stop offset="0.1005" stop-color="#F54FEF"/>
<stop offset="0.2431" stop-color="#E35EEF"/>
<stop offset="0.4109" stop-color="#C478EF"/>
<stop offset="0.5979" stop-color="#9A9DEF"/>
<stop offset="0.799" stop-color="#64CBEF"/>
<stop offset="1" stop-color="#26FFEF"/>
</linearGradient>
<radialGradient id="paint15_radial_1_939" cx="0" cy="0" r="1" gradientUnits="userSpaceOnUse" gradientTransform="translate(292.811 260.355) rotate(133.406) scale(231.655 102.987)">
<stop stop-color="white"/>
<stop offset="0.181" stop-color="#FED5FB" stop-opacity="0.819"/>
<stop offset="0.463" stop-color="#FD99F6" stop-opacity="0.537"/>
<stop offset="0.7035" stop-color="#FD6EF2" stop-opacity="0.2965"/>
<stop offset="0.8901" stop-color="#FC53F0" stop-opacity="0.1099"/>
<stop offset="1" stop-color="#FC49EF" stop-opacity="0"/>
</radialGradient>
<linearGradient id="paint16_linear_1_939" x1="703.928" y1="30.9361" x2="231.576" y2="726.309" gradientUnits="userSpaceOnUse">
<stop stop-color="#26FFEF"/>
<stop offset="0.3425" stop-color="#74BDEF"/>
<stop offset="0.7959" stop-color="#D56AEF"/>
<stop offset="1" stop-color="#FC49EF"/>
</linearGradient>
<linearGradient id="paint17_linear_1_939" x1="679.309" y1="51.7182" x2="241.745" y2="695.833" gradientUnits="userSpaceOnUse">
<stop stop-color="#26FFEF"/>
<stop offset="0.3425" stop-color="#74BDEF"/>
<stop offset="0.7959" stop-color="#D56AEF"/>
<stop offset="1" stop-color="#FC49EF"/>
</linearGradient>
<linearGradient id="paint18_linear_1_939" x1="650.561" y1="74.5086" x2="252.255" y2="660.801" gradientUnits="userSpaceOnUse">
<stop stop-color="#26FFEF"/>
<stop offset="0.3425" stop-color="#74BDEF"/>
<stop offset="0.7959" stop-color="#D56AEF"/>
<stop offset="1" stop-color="#FC49EF"/>
</linearGradient>
<linearGradient id="paint19_linear_1_939" x1="630.289" y1="85.9814" x2="255.352" y2="637.802" gradientUnits="userSpaceOnUse">
<stop stop-color="#26FFEF"/>
<stop offset="0.3425" stop-color="#74BDEF"/>
<stop offset="0.7959" stop-color="#D56AEF"/>
<stop offset="1" stop-color="#FC49EF"/>
</linearGradient>
</defs>
</svg>
