<svg width="257" height="257" viewBox="0 0 257 257" fill="none" xmlns="http://www.w3.org/2000/svg">
<path d="M84.1502 206.12L88.2908 200.407C88.8729 199.603 89.1105 198.867 89.0035 198.196C88.8878 197.52 88.4802 196.928 87.7806 196.421C87.0897 195.92 86.409 195.723 85.7387 195.83C85.0597 195.931 84.4292 196.383 83.847 197.186L79.7065 202.9L78.5275 202.045L82.6587 196.345C83.2033 195.593 83.8145 195.068 84.4923 194.769C85.1639 194.478 85.8496 194.396 86.5493 194.521C87.2405 194.64 87.9056 194.931 88.5447 195.394C89.1839 195.857 89.6718 196.402 90.0085 197.028C90.3365 197.648 90.4671 198.322 90.4001 199.05C90.3182 199.781 90.0049 200.523 89.4604 201.274L85.3292 206.975L84.1502 206.12Z" fill="	#000000"/>
<path d="M72.7124 197.764L79.8604 189.204L80.978 190.137L73.83 198.697L72.7124 197.764Z" fill="	#000000"/>
<path d="M61.4042 192.813L77.4392 183.945L78.4174 185.001L62.3932 193.882L61.4042 192.813Z" fill="	#000000"/>
<path d="M58.2233 184.156L64.1959 180.399C65.0356 179.871 65.5308 179.276 65.6815 178.614C65.8265 177.943 65.669 177.242 65.2089 176.511C64.7546 175.788 64.1964 175.352 63.5346 175.201C62.867 175.041 62.1134 175.226 61.2737 175.754L55.3011 179.511L54.5259 178.278L60.4849 174.53C61.2704 174.036 62.0334 173.776 62.7739 173.751C63.5054 173.732 64.1725 173.911 64.7751 174.288C65.372 174.656 65.8806 175.174 66.3009 175.843C66.7212 176.511 66.9708 177.198 67.0498 177.904C67.123 178.602 66.9927 179.276 66.6588 179.927C66.3102 180.575 65.7431 181.146 64.9576 181.64L58.9986 185.389L58.2233 184.156Z" fill="	#000000"/>
<path d="M53.3559 165.638L57.1849 160.341L57.817 161.863L54.8226 165.999L59.8175 166.68L60.4373 168.172L53.988 167.16L50.1442 172.464L49.5183 170.957L52.5213 166.799L47.5055 166.11L46.8796 164.603L53.3559 165.638Z" fill="	#000000"/>
<path d="M41.0628 148.545C40.8903 147.342 40.9682 146.269 41.2966 145.328C41.613 144.377 42.1549 143.61 42.9225 143.026C43.6885 142.431 44.6364 142.053 45.7662 141.891C46.896 141.729 47.912 141.826 48.8143 142.181C49.7044 142.528 50.4348 143.113 51.0054 143.936C51.5639 144.75 51.9295 145.759 52.102 146.963L52.5946 150.4L41.5554 151.982L41.0628 148.545ZM50.9141 147.133C50.7098 145.708 50.1791 144.674 49.322 144.032C48.4543 143.391 47.3394 143.169 45.9773 143.364C44.6047 143.561 43.5875 144.094 42.9256 144.965C42.2623 145.825 42.032 146.963 42.2348 148.377L42.5209 150.373L51.2002 149.129L50.9141 147.133Z" fill="	#000000"/>
<path d="M39.9724 134.613L43.699 134.716L43.8107 130.653L45.0103 130.686L44.8985 134.749L48.7371 134.854L48.862 130.312L50.0616 130.345L49.8966 136.343L38.7328 136.036L38.8978 130.038L40.0973 130.071L39.9724 134.613Z" fill="	#000000"/>
<path d="M50.5182 119.81C50.3935 120.535 50.1553 121.165 49.8035 121.7C49.4431 122.222 49.0089 122.608 48.5008 122.856C47.9822 123.102 47.4224 123.179 46.8214 123.086L47.0844 121.557C47.6086 121.593 48.081 121.458 48.5017 121.151C48.9136 120.832 49.1811 120.316 49.304 119.601C49.4215 118.917 49.3455 118.352 49.076 117.906C48.7978 117.447 48.3906 117.171 47.8545 117.079C47.434 117.006 47.0724 117.063 46.7698 117.249C46.4673 117.435 46.2178 117.69 46.0215 118.014C45.8252 118.337 45.5976 118.779 45.3387 119.341C45.0247 120.034 44.7352 120.585 44.47 120.994C44.2067 121.392 43.8482 121.715 43.3945 121.961C42.9321 122.196 42.3592 122.254 41.6759 122.137C41.0767 122.034 40.5721 121.79 40.1619 121.406C39.7518 121.021 39.4676 120.534 39.3093 119.944C39.1528 119.343 39.136 118.686 39.2589 117.971C39.4361 116.941 39.8382 116.144 40.4654 115.581C41.0944 115.007 41.8419 114.751 42.7078 114.814L42.4367 116.391C42.0072 116.371 41.6013 116.528 41.219 116.863C40.8263 117.196 40.5747 117.683 40.4645 118.324C40.3614 118.924 40.4351 119.44 40.6854 119.872C40.9252 120.303 41.3236 120.566 41.8808 120.662C42.2803 120.731 42.6251 120.677 42.9154 120.499C43.2074 120.311 43.4498 120.066 43.6425 119.764C43.8265 119.449 44.0541 119.007 44.3254 118.436C44.6498 117.745 44.9499 117.196 45.2255 116.789C45.4907 116.38 45.8553 116.053 46.3196 115.808C46.7733 115.561 47.347 115.498 48.0408 115.617C48.577 115.709 49.0572 115.938 49.4814 116.303C49.9057 116.668 50.2171 117.155 50.4156 117.763C50.6141 118.37 50.6483 119.053 50.5182 119.81Z" fill="	#000000"/>
<path d="M41.0365 108.884L51.8723 111.521L51.528 112.936L40.6922 110.299L41.0365 108.884Z" fill="	#000000"/>
<path d="M48.5118 95.5615C47.7915 95.5763 47.1505 95.779 46.5886 96.1694C46.017 96.5554 45.5714 97.1034 45.2516 97.8134C44.9319 98.5234 44.8081 99.2397 44.8804 99.9625C44.9473 100.671 45.2127 101.329 45.6765 101.935C46.135 102.528 46.763 103.004 47.5605 103.363C48.358 103.722 49.1306 103.877 49.8781 103.828C50.63 103.768 51.2984 103.531 51.8831 103.116C52.4625 102.687 52.912 102.117 53.2317 101.407C53.6785 100.415 53.7498 99.4645 53.4456 98.5554C53.1414 97.6463 52.5076 96.9105 51.5443 96.348L49.7179 100.404L48.6383 99.9176L51.102 94.4467L52.1232 94.9066C52.9246 95.3611 53.5747 95.9697 54.0735 96.7325C54.5626 97.4909 54.8471 98.3267 54.9271 99.2401C54.9973 100.149 54.831 101.051 54.428 101.946C54.0032 102.889 53.3967 103.651 52.6087 104.232C51.8109 104.809 50.9151 105.149 49.9215 105.251C48.9322 105.343 47.9415 105.166 46.9495 104.72C45.9575 104.273 45.1683 103.648 44.5819 102.846C43.9903 102.03 43.6508 101.134 43.5635 100.159C43.4665 99.1795 43.6305 98.218 44.0553 97.2746C44.5415 96.195 45.2382 95.3624 46.1454 94.7765C47.057 94.181 48.0845 93.9126 49.228 93.9713L48.5118 95.5615Z" fill="	#000000"/>
<path d="M62.5439 85.7094L61.7307 86.9171L51.0941 86.8144L58.4597 91.7744L57.6465 92.9821L48.383 86.7442L49.1963 85.5364L59.8196 85.6302L52.4672 80.6791L53.2804 79.4714L62.5439 85.7094Z" fill="	#000000"/>
<path d="M63.1414 66.347C64.0551 65.5447 64.9959 65.0237 65.9638 64.7841C66.9327 64.5295 67.8714 64.564 68.7801 64.8875C69.6968 65.2039 70.5317 65.7909 71.2849 66.6485C72.038 67.5061 72.5122 68.4099 72.7076 69.3598C72.9039 70.2946 72.8133 71.226 72.4356 72.1538C72.059 73.0666 71.4138 73.9242 70.5001 74.7266L67.8913 77.0176L60.5326 68.638L63.1414 66.347ZM69.7083 73.8249C70.7903 72.8747 71.366 71.8652 71.4353 70.7965C71.4976 69.7197 71.0747 68.6643 70.1668 67.6304C69.2518 66.5884 68.2488 66.0283 67.158 65.95C66.0751 65.8646 64.9967 66.2935 63.9227 67.2367L62.4079 68.567L68.1935 75.1552L69.7083 73.8249Z" fill="	#000000"/>
<path d="M74.1921 57.8162L76.1423 60.9934L79.6059 58.8675L80.2336 59.8902L76.77 62.0162L78.7788 65.2888L82.6514 62.9118L83.2792 63.9345L78.1656 67.0732L72.3235 57.5552L77.437 54.4165L78.0648 55.4392L74.1921 57.8162Z" fill="	#000000"/>
<path d="M93.2348 45.8862L93.669 57.7978L92.1198 58.4478L83.925 49.7922L85.3561 49.1918L92.3075 56.7033L91.8184 46.4805L93.2348 45.8862Z" fill="	#000000"/>
<path d="M105.28 52.9589C104.263 53.1505 103.291 53.0894 102.363 52.7757C101.434 52.4516 100.643 51.9114 99.9901 51.1552C99.346 50.3865 98.9232 49.4675 98.7217 48.3984C98.5202 47.3292 98.5806 46.3246 98.9028 45.3847C99.2335 44.4323 99.7737 43.6413 100.523 43.0116C101.271 42.3714 102.153 41.9555 103.17 41.7639C104.197 41.5703 105.176 41.6356 106.105 41.9598C107.033 42.2735 107.817 42.8094 108.46 43.5676C109.102 44.3258 109.525 45.2447 109.728 46.3244C109.931 47.4041 109.872 48.4139 109.55 49.3538C109.228 50.2937 108.693 51.0838 107.945 51.7239C107.195 52.3537 106.307 52.7653 105.28 52.9589ZM105.046 51.7167C105.811 51.5725 106.464 51.265 107.005 50.794C107.556 50.3211 107.942 49.7218 108.164 48.9963C108.396 48.2687 108.43 47.47 108.266 46.5999C108.1 45.7194 107.777 44.9878 107.299 44.4051C106.828 43.8099 106.255 43.3914 105.58 43.1495C104.905 42.9077 104.18 42.8599 103.404 43.006C102.628 43.1522 101.97 43.4608 101.429 43.9317C100.889 44.4027 100.502 45.0019 100.27 45.7294C100.047 46.4445 100.018 47.2423 100.184 48.1228C100.348 48.9928 100.665 49.7255 101.135 50.3206C101.616 50.9139 102.194 51.3314 102.869 51.5732C103.555 51.8131 104.28 51.8609 105.046 51.7167Z" fill="	#000000"/>
<path d="M123.516 42.0303C123.521 42.9583 123.206 43.7335 122.57 44.356C121.944 44.9677 120.98 45.2775 119.679 45.2853L117.535 45.2981L117.563 49.954L116.107 49.9627L116.04 38.8109L119.64 38.7894C120.899 38.7819 121.855 39.0802 122.51 39.6843C123.175 40.2883 123.51 41.0703 123.516 42.0303ZM119.672 44.0853C120.483 44.0805 121.079 43.9009 121.461 43.5466C121.843 43.1923 122.032 42.6899 122.028 42.0392C122.02 40.6632 121.226 39.9799 119.647 39.9894L117.504 40.0022L117.528 44.0981L119.672 44.0853Z" fill="	#000000"/>
<path d="M133.626 50.0196C132.897 49.9196 132.259 49.7029 131.713 49.3696C131.178 49.0272 130.778 48.6063 130.513 48.107C130.249 47.5971 130.153 47.0402 130.225 46.4364L131.763 46.6472C131.745 47.1723 131.896 47.6398 132.217 48.0498C132.549 48.4507 133.075 48.7004 133.793 48.799C134.48 48.8931 135.042 48.798 135.48 48.5134C135.929 48.2197 136.191 47.8034 136.265 47.2644C136.323 46.8417 136.254 46.4823 136.057 46.1863C135.861 45.8902 135.598 45.6496 135.268 45.4644C134.938 45.2792 134.488 45.0667 133.918 44.8271C133.215 44.5369 132.655 44.2663 132.237 44.0152C131.83 43.7656 131.495 43.4182 131.233 42.9732C130.983 42.519 130.905 41.9485 130.999 41.2616C131.082 40.6592 131.308 40.1466 131.678 39.7236C132.049 39.3006 132.526 39 133.11 38.8217C133.705 38.6449 134.362 38.6057 135.08 38.7042C136.116 38.8462 136.926 39.221 137.51 39.8287C138.105 40.4378 138.386 41.1761 138.353 42.0437L136.768 41.8264C136.773 41.3964 136.602 40.9961 136.254 40.6255C135.908 40.2443 135.413 40.0095 134.768 39.9211C134.166 39.8385 133.653 39.9297 133.229 40.1945C132.806 40.4489 132.557 40.8561 132.48 41.4162C132.425 41.8177 132.491 42.1605 132.678 42.4446C132.876 42.7301 133.129 42.964 133.438 43.1463C133.759 43.3195 134.209 43.5319 134.788 43.7836C135.489 44.0843 136.048 44.3655 136.465 44.6272C136.883 44.8782 137.222 45.2316 137.482 45.6872C137.744 46.1322 137.827 46.7035 137.732 47.401C137.658 47.9399 137.446 48.4276 137.095 48.8641C136.745 49.3005 136.269 49.6283 135.668 49.8474C135.068 50.0665 134.387 50.1239 133.626 50.0196Z" fill="	#000000"/>
<path d="M165.765 47.0215L157.87 55.5354L156.412 54.8028L158.126 45.6185L151.694 52.4323L150.243 51.7211L152.469 40.3411L153.856 41.0379L151.784 50.5792L158.431 43.3365L159.889 44.0692L157.946 53.6394L164.364 46.3176L165.765 47.0215Z" fill="	#000000"/>
<path d="M172.911 51.5883L170.7 54.5901L173.972 57L173.261 57.9663L169.988 55.5564L167.711 58.6484L171.37 61.3429L170.658 62.3092L165.827 58.7512L172.45 49.7586L177.281 53.3166L176.569 54.2828L172.911 51.5883Z" fill="	#000000"/>
<path d="M184.923 65.9772C185.154 66.3164 185.286 66.6978 185.318 67.1214C185.357 67.5528 185.299 67.9735 185.143 68.3837C184.994 68.8017 184.756 69.164 184.43 69.4708C184.018 69.8579 183.546 70.1036 183.015 70.2078C182.491 70.3047 181.942 70.2423 181.368 70.0207C180.809 69.7996 180.274 69.4169 179.762 68.8728L176.914 65.8411L185.041 58.2046L187.78 61.1196C188.298 61.6716 188.647 62.2295 188.826 62.7935C189.012 63.3501 189.041 63.8717 188.913 64.3582C188.785 64.8447 188.526 65.2706 188.137 65.6358C187.655 66.0887 187.131 66.3327 186.564 66.3679C186.012 66.4035 185.465 66.2733 184.923 65.9772ZM182.528 62.5635L184.204 64.3475C184.672 64.845 185.15 65.1203 185.639 65.1732C186.128 65.2261 186.578 65.0591 186.99 64.6719C187.402 64.2848 187.597 63.8457 187.575 63.3545C187.552 62.8633 187.3 62.3611 186.818 61.8481L185.163 60.0874L182.528 62.5635ZM180.549 67.9578C181.046 68.4864 181.557 68.7815 182.084 68.8432C182.61 68.9048 183.095 68.7275 183.538 68.3111C183.989 67.8875 184.196 67.3997 184.161 66.8477C184.133 66.2884 183.874 65.7484 183.385 65.2275L181.654 63.3852L178.785 66.0805L180.549 67.9578Z" fill="	#000000"/>
<path d="M202.413 77.8168C202.995 78.8844 203.297 79.9166 203.318 80.9134C203.354 81.9146 203.114 82.8229 202.599 83.6384C202.089 84.4632 201.333 85.1489 200.331 85.6953C199.329 86.2418 198.343 86.506 197.373 86.4881C196.418 86.4744 195.53 86.1814 194.707 85.6093C193.899 85.0414 193.204 84.2237 192.622 83.1561L190.96 80.1079L200.751 74.7686L202.413 77.8168ZM193.676 82.5816C194.365 83.8458 195.224 84.6291 196.251 84.9314C197.288 85.2286 198.41 85.0478 199.618 84.389C200.836 83.7251 201.602 82.8696 201.918 81.8225C202.239 80.7848 202.058 79.6385 201.373 78.3837L200.408 76.6137L192.71 80.8117L193.676 82.5816Z" fill="	#000000"/>
<path d="M208.27 90.3239L204.746 91.5385L206.07 95.3807L204.935 95.7717L203.611 91.9294L199.981 93.1804L201.461 97.4765L200.326 97.8674L198.372 92.1947L208.93 88.5564L210.885 94.2291L209.751 94.62L208.27 90.3239Z" fill="	#000000"/>
<path d="M215.88 111.864L204.165 109.665L203.872 108.011L214.119 101.922L214.39 103.451L205.533 108.578L215.612 110.351L215.88 111.864Z" fill="	#000000"/>
<path d="M216.065 117.563L212.337 117.599L212.376 121.663L211.176 121.674L211.137 117.61L207.297 117.648L207.341 122.191L206.141 122.203L206.083 116.203L217.251 116.095L217.309 122.095L216.109 122.106L216.065 117.563Z" fill="	#000000"/>
<path d="M207.385 130.218L207.147 134.115L205.965 134.043L206.292 128.693L217.424 129.374L217.335 130.827L207.385 130.218Z" fill="	#000000"/>
<path d="M205.287 140.405C205.528 139.399 205.981 138.537 206.646 137.818C207.322 137.103 208.139 136.602 209.096 136.315C210.06 136.042 211.072 136.031 212.13 136.285C213.188 136.538 214.08 137.004 214.806 137.682C215.54 138.373 216.041 139.189 216.309 140.131C216.588 141.075 216.607 142.05 216.366 143.057C216.123 144.073 215.663 144.939 214.987 145.655C214.322 146.373 213.512 146.87 212.558 147.146C211.603 147.423 210.592 147.433 209.523 147.177C208.455 146.921 207.557 146.454 206.831 145.776C206.105 145.098 205.603 144.287 205.324 143.342C205.056 142.401 205.044 141.422 205.287 140.405ZM206.516 140.699C206.335 141.457 206.349 142.178 206.557 142.864C206.764 143.561 207.153 144.158 207.724 144.657C208.293 145.166 209.008 145.524 209.869 145.73C210.741 145.938 211.54 145.943 212.268 145.745C213.003 145.559 213.619 145.207 214.116 144.69C214.613 144.173 214.953 143.53 215.137 142.762C215.321 141.995 215.308 141.268 215.099 140.582C214.891 139.896 214.502 139.298 213.933 138.789C213.371 138.293 212.655 137.94 211.784 137.732C210.923 137.526 210.124 137.516 209.389 137.702C208.651 137.898 208.034 138.255 207.537 138.772C207.038 139.3 206.698 139.942 206.516 140.699Z" fill="	#000000"/>
<path d="M208.584 158.436C207.735 158.062 207.157 157.457 206.849 156.621C206.547 155.8 206.658 154.794 207.184 153.604L208.049 151.642L203.789 149.763L204.376 148.431L214.58 152.931L213.127 156.225C212.619 157.377 211.956 158.128 211.137 158.478C210.314 158.837 209.463 158.823 208.584 158.436ZM208.281 154.088C207.954 154.83 207.874 155.447 208.041 155.941C208.208 156.434 208.59 156.812 209.185 157.075C210.444 157.63 211.392 157.185 212.029 155.741L212.894 153.779L209.147 152.126L208.281 154.088Z" fill="	#000000"/>
<path d="M201.407 179.078L192.828 172.079L193.748 170.951L200.145 176.17L196.074 168.099L196.722 167.306L205.468 169.671L199.058 164.442L199.979 163.314L208.558 170.313L207.566 171.528L197.886 168.916L202.388 177.876L201.407 179.078Z" fill="	#000000"/>
<path d="M192.837 188.312L190.398 185.492L187.325 188.151L186.54 187.244L189.613 184.585L187.101 181.681L183.664 184.654L182.879 183.746L187.417 179.821L194.723 188.267L190.186 192.192L189.401 191.285L192.837 188.312Z" fill="	#000000"/>
<path d="M170.689 193.354L171.932 192.597L181.552 197.137L176.935 189.552L178.178 188.795L183.985 198.334L182.742 199.091L173.131 194.565L177.74 202.136L176.496 202.893L170.689 193.354Z" fill="	#000000"/>
<path d="M166.027 208.634L165.514 207.567L168.254 206.25L163.934 197.266L165.246 196.635L169.566 205.619L172.32 204.295L172.833 205.362L166.027 208.634Z" fill="	#000000"/>
<path d="M143.26 207.14L148.087 206.538L148.669 203.966L150.193 203.776L147.564 215.278L145.897 215.485L140.54 204.98L142.064 204.789L143.26 207.14ZM143.819 208.263L146.517 213.602L147.82 207.764L143.819 208.263Z" fill="	#000000"/>
<path d="M127.211 213.916C127.267 212.99 127.634 212.238 128.311 211.659C128.976 211.091 129.958 210.846 131.257 210.926L133.397 211.057L133.681 206.409L135.135 206.498L134.454 217.63L130.86 217.41C129.604 217.333 128.67 216.971 128.057 216.325C127.434 215.677 127.152 214.875 127.211 213.916ZM131.184 212.124C130.375 212.074 129.768 212.213 129.363 212.541C128.958 212.869 128.736 213.358 128.696 214.007C128.612 215.381 129.358 216.116 130.934 216.212L133.074 216.343L133.324 212.255L131.184 212.124Z" fill="	#000000"/>
<path d="M111.843 212.36C112.066 211.459 112.562 210.785 113.332 210.338C114.089 209.899 115.099 209.836 116.362 210.148L118.443 210.663L119.561 206.144L120.975 206.493L118.296 217.319L114.802 216.454C113.58 216.152 112.726 215.627 112.241 214.881C111.745 214.132 111.612 213.291 111.843 212.36ZM116.074 211.313C115.287 211.118 114.665 211.146 114.207 211.395C113.75 211.645 113.443 212.085 113.287 212.717C112.957 214.053 113.558 214.91 115.09 215.289L117.171 215.804L118.155 211.828L116.074 211.313Z" fill="	#000000"/>
</svg>
