<svg width="11" height="22" viewBox="0 0 11 22" fill="none" xmlns="http://www.w3.org/2000/svg">
<path d="M7.25195 21.9825C7.14486 21.9869 7.07632 21.9956 7.00779 21.9956C5.54284 21.9956 4.08217 21.9913 2.61721 22C2.4116 22 2.35592 21.9432 2.35592 21.7337C2.3602 18.2584 2.3602 14.7787 2.3602 11.3034C2.3602 11.2118 2.3602 11.1201 2.3602 11.0022C1.56347 11.0022 0.788162 11.0022 0 11.0022C0 9.76226 0 8.54416 0 7.29114C0.0813863 7.29114 0.158489 7.29114 0.231308 7.29114C0.873832 7.29114 1.51635 7.28677 2.15888 7.2955C2.32165 7.2955 2.36449 7.24748 2.36449 7.08594C2.35592 6.11233 2.35592 5.13436 2.36449 4.16076C2.36877 3.47967 2.47586 2.81604 2.78427 2.20045C3.22547 1.33162 3.92368 0.768417 4.80607 0.419142C5.5257 0.130989 6.28388 0.0262066 7.04634 0.0131088C8.28855 -0.00435502 9.53076 0.00437686 10.773 1.09149e-05C10.8886 1.09149e-05 10.9829 -0.00435503 10.9829 0.161551C10.9786 1.36219 10.9786 2.56282 10.9786 3.76345C10.9786 3.77655 10.9743 3.78965 10.9572 3.84641C10.8843 3.84641 10.803 3.84641 10.7216 3.84641C9.95055 3.84641 9.17952 3.84204 8.40849 3.84641C7.96301 3.84641 7.60319 4.02978 7.37617 4.42708C7.30763 4.54496 7.2648 4.69777 7.2648 4.83748C7.25195 5.57969 7.2648 6.3219 7.25623 7.06411C7.25623 7.23875 7.30763 7.28677 7.47469 7.28677C8.54556 7.27804 9.61643 7.2824 10.6873 7.2824C10.773 7.2824 10.8544 7.2824 11 7.2824C10.8501 8.53106 10.7044 9.75353 10.5545 10.9891C9.44081 10.9891 8.35709 10.9891 7.25195 10.9891C7.25195 14.6609 7.25195 18.3108 7.25195 21.9825Z" fill="white"/>
</svg>
