<svg width="27" height="26" viewBox="0 0 27 26" fill="none" xmlns="http://www.w3.org/2000/svg">
<path d="M9.74384 25.6581C9.74384 25.5303 9.74384 25.4079 9.74384 25.2855C9.74384 19.5523 9.74384 13.8245 9.74384 8.09138C9.74384 7.93169 9.73396 7.80393 9.95133 7.80393C11.5223 7.81457 13.0982 7.80925 14.6692 7.80925C14.7087 7.80925 14.7482 7.8199 14.8124 7.83054C14.8124 8.5758 14.8124 9.31041 14.8124 10.0503C14.8322 10.0557 14.847 10.0663 14.8668 10.0716C15.0644 9.79482 15.2521 9.50737 15.4596 9.23588C16.0623 8.43739 16.8181 7.85184 17.7073 7.5005C18.1915 7.30887 18.7201 7.19175 19.2289 7.16514C19.9304 7.1332 20.6467 7.14385 21.3384 7.2716C22.4746 7.47921 23.4774 8.02218 24.3074 8.91116C25.0929 9.74691 25.6116 10.753 25.8932 11.8869C26.0414 12.4884 26.1352 13.1059 26.2242 13.7181C26.2834 14.1439 26.3131 14.5804 26.3131 15.0063C26.318 18.4664 26.318 21.9265 26.318 25.3866C26.318 25.4718 26.3131 25.5569 26.3081 25.6687C26.2143 25.6687 26.1352 25.6687 26.0562 25.6687C24.5396 25.6687 23.0279 25.6634 21.5113 25.6741C21.2593 25.6741 21.2148 25.5836 21.2148 25.3387C21.2198 22.1554 21.2297 18.9668 21.2099 15.7835C21.205 15.2245 21.1556 14.6443 21.0222 14.1066C20.7801 13.1644 20.2268 12.4831 19.3475 12.137C18.6065 11.8443 17.8556 11.791 17.0948 11.9986C16.2549 12.2275 15.677 12.8291 15.2422 13.6222C14.9063 14.2344 14.8421 14.9105 14.8371 15.5865C14.8174 18.8177 14.8272 22.0436 14.8272 25.2748C14.8272 25.3972 14.8272 25.5197 14.8272 25.6528C13.1229 25.6581 11.4482 25.6581 9.74384 25.6581Z" fill="white"/>
<path d="M3.66958 0.327237C5.3303 0.286855 6.32471 1.49328 6.32976 2.97228C6.33481 4.48661 5.27477 5.61732 3.609 5.61227C2.05933 5.61227 0.963964 4.50176 0.969012 2.93189C0.974059 1.46299 2.03914 0.276759 3.66958 0.327237Z" fill="white"/>
<path d="M0.968994 7.9577C0.968994 7.80685 0.968994 7.73142 1.01586 7.68456C1.06272 7.6377 1.13814 7.6377 1.28899 7.6377H3.89386L6.01125 7.6377C6.1621 7.6377 6.23752 7.6377 6.28439 7.68456C6.33125 7.73142 6.33125 7.80685 6.33125 7.9577V25.3544C6.33125 25.5052 6.33125 25.5806 6.28439 25.6275C6.23752 25.6744 6.1621 25.6744 6.01125 25.6744L1.28899 25.6744C1.13814 25.6744 1.06272 25.6744 1.01586 25.6275C0.968994 25.5806 0.968994 25.5052 0.968994 25.3544V7.9577Z" fill="white"/>
</svg>
