<svg width="85" height="73" viewBox="0 0 85 73" fill="none" xmlns="http://www.w3.org/2000/svg">
<path d="M49.5512 57.5706L51.1758 41.4456L57.4472 43.9615L60.3358 62.0962C60.5516 63.4535 60.0129 64.7879 58.973 65.6646L46.9827 60.8543C48.4069 60.3066 49.4022 59.046 49.5512 57.5706Z" fill="#E5E5E5"/>
<path d="M57.1132 44.2135L59.9698 62.1495C60.212 63.6679 59.4283 65.1688 58.0153 65.883L53.6844 68.0727C53.232 68.3022 52.703 68.3224 52.2311 68.1344L41.4061 63.7914C41.239 63.7229 41.2279 63.5725 41.2279 63.5282C41.2293 63.4839 41.246 63.3349 41.4158 63.2732L47.0497 61.2205C48.6534 60.6365 49.7531 59.251 49.9188 57.6064L51.4947 41.958L57.1132 44.2135ZM52.8909 68.9735C53.2821 68.9735 53.6705 68.8835 54.0269 68.7036L58.3591 66.514C60.0492 65.6588 60.9916 63.8612 60.6993 62.0407L57.8106 43.9074C57.7912 43.7852 57.7076 43.6818 57.5879 43.6335L51.3165 41.1163C51.2107 41.072 51.0854 41.0814 50.9851 41.1391C50.8849 41.1968 50.8195 41.2975 50.807 41.4103L49.1838 57.5366C49.0445 58.91 48.1271 60.0672 46.7879 60.5559L41.1555 62.6073C40.7573 62.7509 40.497 63.108 40.49 63.5175C40.4831 63.9256 40.7309 64.2908 41.1221 64.4479L51.9485 68.7922C52.252 68.9144 52.5708 68.9735 52.8909 68.9735Z" fill="#401F71"/>
<path d="M76.2698 66.3199C76.3269 66.3199 76.3826 66.3078 76.4341 66.2823L79.5385 64.7854C80.1858 64.3987 80.5547 63.761 80.5547 63.0629V26.5103C80.5547 24.8147 79.5051 23.3003 77.8833 22.6492L44.0398 8.98908C43.8532 8.9139 43.6347 8.99848 43.5553 9.17972C43.476 9.36095 43.5665 9.57039 43.7544 9.64557L77.5993 23.3057C78.9455 23.8467 79.8155 25.1046 79.8155 26.5103V63.0629C79.8155 63.514 79.5775 63.9248 79.1793 64.1651L76.1056 65.6446C75.9218 65.7332 75.848 65.9467 75.9399 66.1225C76.004 66.2474 76.1334 66.3199 76.2698 66.3199Z" fill="#401F71"/>
<path d="M39.2302 7.80954C39.3764 7.80954 39.5142 7.7263 39.5726 7.58668C39.6492 7.4041 39.5573 7.19735 39.3694 7.12351L33.6743 4.91105C33.1105 4.68551 31.9564 4.39418 31.2117 4.75397L28.3216 6.01728C28.1365 6.09783 28.053 6.30861 28.1379 6.48716C28.2228 6.66572 28.4386 6.74492 28.6265 6.66437L31.5291 5.39704C31.9425 5.19969 32.7973 5.32991 33.3945 5.57157L39.0924 7.78403C39.1383 7.80148 39.1843 7.80954 39.2302 7.80954Z" fill="#401F71"/>
<path d="M74.9436 24.3302L29.9382 6.27332C28.8106 5.82089 27.5688 6.61969 27.5688 7.79707V44.0893C27.5688 45.6278 28.5238 47.016 29.9925 47.6134L75.009 65.9361C76.138 66.3952 77.3868 65.5964 77.3868 64.415V27.8623C77.3868 26.3171 76.422 24.9235 74.9436 24.3302Z" fill="white"/>
<path d="M72.6641 27.967V23.4159L70.4493 22.5271V27.0783L72.6641 27.967Z" fill="#E5E5E5"/>
<path d="M29.9384 6.27304H29.9301H29.9384ZM29.2758 6.49992C29.4512 6.49992 29.6266 6.53349 29.7964 6.60196L74.8033 24.6575C76.1466 25.1998 77.0167 26.4578 77.0167 27.862V64.4147C77.0167 64.8577 76.7982 65.2511 76.4153 65.4941C76.0339 65.7398 75.5731 65.7814 75.1527 65.6069L30.1375 47.2856C28.8011 46.7418 27.938 45.4866 27.938 44.0877V7.79679C27.938 7.35779 28.1552 6.96444 28.5352 6.7201C28.7621 6.57511 29.0183 6.49992 29.2758 6.49992ZM75.6747 66.4231C76.0784 66.4231 76.478 66.3104 76.8232 66.0888C77.4079 65.7156 77.7559 65.09 77.7559 64.4147V27.862C77.7559 26.1678 76.7077 24.6521 75.0859 24.0023L30.0804 5.94413C29.4387 5.68636 28.7078 5.75348 28.1245 6.12805C27.5454 6.49992 27.1988 7.1242 27.1988 7.79679V44.0877C27.1988 45.7752 28.2387 47.2869 29.8493 47.9421L74.8645 66.2647C75.1248 66.3694 75.4005 66.4231 75.6747 66.4231Z" fill="#401F71"/>
<path d="M54.3301 52.5387V48.7152L52.1153 47.8265V51.65L54.3301 52.5387Z" fill="#E5E5E5"/>
<path d="M27.5683 41.6426L77.3848 61.9293L27.5683 41.6426Z" fill="#E5E5E5"/>
<path d="M77.3866 62.2864C77.5314 62.2864 77.6678 62.2045 77.7276 62.0689C77.8056 61.8877 77.7179 61.6782 77.5314 61.6017L27.7134 41.3136C27.5213 41.2358 27.3069 41.3244 27.229 41.5043C27.151 41.6855 27.2387 41.8949 27.4253 41.9715L77.2418 62.2582C77.2905 62.2784 77.3393 62.2864 77.3866 62.2864Z" fill="#401F71"/>
<path d="M27.5683 41.6425V44.0832C27.5683 45.6191 28.5247 47.0099 29.9989 47.6073L75.0057 65.9394C76.1445 66.3918 77.3848 65.5997 77.3848 64.4197V61.9293L27.5683 41.6425Z" fill="#E5E5E5"/>
<path d="M77.0168 62.1664V64.4191C77.0168 64.8568 76.8024 65.2461 76.4252 65.4891C76.0438 65.7362 75.5788 65.7805 75.1458 65.6086L30.1432 47.2792C28.804 46.7355 27.9395 45.4816 27.9395 44.0827V42.179L77.0168 62.1664ZM75.6748 66.4222C76.0841 66.4222 76.4892 66.3067 76.8373 66.0825C77.4122 65.7106 77.756 65.0877 77.756 64.4191V61.9301C77.756 61.7865 77.6656 61.6576 77.5305 61.6025L27.714 41.3144C27.5984 41.2701 27.4676 41.2782 27.366 41.3467C27.2629 41.4124 27.2003 41.5239 27.2003 41.642V44.0827C27.2003 45.7689 28.243 47.2806 29.8564 47.9357L74.8619 66.2664C75.125 66.3712 75.4006 66.4222 75.6748 66.4222Z" fill="#401F71"/>
<path d="M73.7481 28.4022L30.6582 11.1147V39.1464L73.7481 56.6837V28.4022Z" fill="#A666F5"/>
<path d="M73.3794 28.6402V56.147L31.0288 38.9104V11.6479L73.3794 28.6402ZM73.7483 57.0397C73.8207 57.0397 73.8917 57.0209 73.953 56.9793C74.056 56.9149 74.1172 56.8035 74.1172 56.684V28.4025C74.1172 28.2589 74.0282 28.1287 73.8903 28.0736L30.8004 10.7847C30.6877 10.7404 30.5568 10.7525 30.4552 10.8182C30.3522 10.884 30.2895 10.9955 30.2895 11.1136V39.1467C30.2895 39.2903 30.3786 39.4192 30.5151 39.4756L73.605 57.0115C73.6509 57.0303 73.6996 57.0397 73.7483 57.0397Z" fill="#401F71"/>
<path d="M77.3866 61.929L27.5686 41.6517L77.3866 61.929Z" fill="white"/>
<path d="M77.3866 62.2851C77.5314 62.2851 77.6678 62.2032 77.7276 62.0676C77.8056 61.8864 77.7179 61.6769 77.5314 61.6004L27.712 41.3244C27.5213 41.2452 27.3055 41.3338 27.2276 41.5137C27.1482 41.6963 27.2373 41.9044 27.4239 41.9809L77.2418 62.2569C77.2905 62.277 77.3393 62.2851 77.3866 62.2851Z" fill="#401F71"/>
<path d="M50.9248 25.1947L10.8711 9.12482C10.0707 8.80396 9.18947 9.37049 9.18947 10.2069V35.0757C9.18947 35.9281 9.71847 36.6974 10.5329 37.029L50.4125 53.26C51.2993 53.6212 52.2794 52.9942 52.2794 52.0665V27.1521C52.2794 26.2969 51.7448 25.5237 50.9248 25.1947Z" fill="white"/>
<path d="M69.1101 12.7778L57.4122 7.985C56.4628 7.59567 55.409 8.26827 55.409 9.26307V33.815C55.409 34.6541 55.9226 35.4153 56.7189 35.7549L68.3639 40.7196C69.3453 41.1384 70.4493 40.4444 70.4493 39.4106V14.7298C70.4493 13.8786 69.9217 13.1107 69.1101 12.7778Z" fill="white"/>
<path d="M69.1087 12.7778H69.1004H69.1087ZM56.8443 8.22797C56.9863 8.22797 57.1283 8.25616 57.2675 8.31255L68.964 13.1067C69.6419 13.3832 70.079 14.0209 70.079 14.7298V39.4092C70.079 39.7798 69.8939 40.1074 69.5723 40.3114C69.2479 40.5128 68.8665 40.5437 68.5129 40.3947L56.8679 35.43C56.2053 35.1468 55.7765 34.5131 55.7765 33.815V9.26305C55.7765 8.91131 55.9519 8.59716 56.2582 8.4025C56.4378 8.28704 56.6396 8.22797 56.8443 8.22797ZM68.964 41.1988C69.3175 41.1988 69.6697 41.1022 69.976 40.9088C70.5036 40.5772 70.8182 40.0161 70.8182 39.4092V14.7298C70.8182 13.7336 70.2029 12.8395 69.2535 12.4502L57.5556 7.6574C56.996 7.42649 56.3584 7.48421 55.8503 7.80776C55.3408 8.13265 55.0387 8.67637 55.0387 9.26305V33.815C55.0387 34.795 55.6387 35.6838 56.5686 36.0798L68.2136 41.0458C68.4544 41.1491 68.7106 41.1988 68.964 41.1988Z" fill="#401F71"/>
<path d="M57.9522 17.7749L67.5021 21.6064V24.1156L57.9703 20.2921L57.9522 17.7749Z" fill="white"/>
<path d="M67.1321 21.845V23.5809L58.3382 20.0527L58.3256 18.3115L67.1321 21.845ZM67.501 24.4723C67.5734 24.4723 67.6444 24.4508 67.707 24.4119C67.8087 24.3448 67.8713 24.2347 67.8713 24.1152V21.6074C67.8713 21.4637 67.7808 21.3335 67.643 21.2784L58.0931 17.4469C57.9818 17.3972 57.8509 17.4147 57.7465 17.4791C57.6435 17.5463 57.5822 17.659 57.5836 17.7785L57.6003 20.2944C57.6017 20.4353 57.6908 20.5642 57.8286 20.6193L67.3604 24.4441C67.405 24.4629 67.4537 24.4723 67.501 24.4723Z" fill="#401F71"/>
<path d="M57.9522 22.14L67.5021 25.9715V28.4807L57.9703 24.6572L57.9522 22.14Z" fill="white"/>
<path d="M67.1321 26.2095V27.9467L58.3382 24.4186L58.3256 22.676L67.1321 26.2095ZM67.501 28.8382C67.5734 28.8382 67.6444 28.8167 67.707 28.7778C67.8087 28.7106 67.8713 28.6005 67.8713 28.4811V25.9719C67.8713 25.8282 67.7808 25.698 67.643 25.643L58.0931 21.8114C57.9818 21.7631 57.8509 21.7779 57.7465 21.845C57.6435 21.9108 57.5822 22.0236 57.5836 22.143L57.6003 24.6603C57.6017 24.8012 57.6908 24.9301 57.8286 24.9851L67.3604 28.81C67.405 28.8288 67.4537 28.8382 67.501 28.8382Z" fill="#401F71"/>
<path d="M64.7396 33.9558C64.8843 33.9558 65.0208 33.8739 65.0806 33.7357C65.16 33.5558 65.0695 33.3463 64.8816 33.2712L60.8737 31.6642C60.6858 31.5863 60.47 31.6736 60.3906 31.8575C60.3113 32.0374 60.4018 32.2468 60.5911 32.3207L64.5976 33.9276C64.6449 33.9478 64.6922 33.9558 64.7396 33.9558Z" fill="#401F71"/>
<path d="M70.0461 16.4304C70.1909 16.4304 70.3273 16.3472 70.3872 16.2102C70.4665 16.029 70.3761 15.8209 70.1881 15.7457L55.5487 9.87086C55.3636 9.7997 55.145 9.88294 55.0671 10.0628C54.9877 10.2454 55.0768 10.4535 55.2661 10.5287L69.9041 16.4022C69.9515 16.4223 69.9988 16.4304 70.0461 16.4304Z" fill="#401F71"/>
<path d="M9.18941 36.481V22.1818L20.5671 26.8686C21.3787 27.2015 21.9063 27.9708 21.9063 28.8206V41.6779L9.18941 36.481Z" fill="#E5E5E5"/>
<path d="M10.8727 9.12452H10.8643H10.8727ZM10.4021 9.38899C10.5135 9.38899 10.6235 9.41047 10.7307 9.45343L50.783 25.5234C51.4679 25.7972 51.9106 26.4376 51.9106 27.1532V52.0662C51.9106 52.3871 51.7519 52.6731 51.4749 52.8489C51.1978 53.0275 50.8651 53.061 50.5561 52.9322L10.6792 36.7011C9.99843 36.4246 9.55991 35.7869 9.55991 35.0767V10.2066C9.55991 9.92868 9.69634 9.68166 9.93578 9.52861C10.0792 9.43598 10.2407 9.38899 10.4021 9.38899ZM50.9347 53.7202C51.2674 53.7202 51.5974 53.6262 51.8827 53.4437C52.3616 53.1362 52.6484 52.6207 52.6484 52.0662V27.1532C52.6484 26.1476 52.0275 25.2508 51.067 24.8669L11.0147 8.7956C10.5246 8.59959 9.9678 8.64927 9.5265 8.93523C9.08521 9.21849 8.8207 9.69374 8.8207 10.2066V35.0767C8.8207 36.0755 9.43741 36.9696 10.3924 37.3576L50.2693 53.59C50.4837 53.6773 50.7106 53.7202 50.9347 53.7202Z" fill="#401F71"/>
<path d="M13.1977 16.6598C13.3397 16.6598 13.4817 16.688 13.6195 16.7444L31.3118 24.0477C31.9897 24.3256 32.4269 24.9633 32.4269 25.6721V45.5601L12.1286 37.3211V17.6949C12.1286 17.3431 12.3026 17.0276 12.6074 16.8343C12.7898 16.7189 12.9917 16.6598 13.1977 16.6598ZM32.7958 46.4516C32.8682 46.4516 32.9392 46.4328 33.0018 46.3925C33.1034 46.3267 33.1661 46.2166 33.1661 46.0958V25.6721C33.1661 24.676 32.5522 23.7818 31.6013 23.3925L13.9091 16.0892C13.3425 15.8597 12.7049 15.9147 12.1996 16.2409C11.6928 16.5658 11.3907 17.1069 11.3907 17.6949V37.5574C11.3907 37.701 11.4798 37.8313 11.6163 37.8863L32.6538 46.4247C32.6997 46.4422 32.7471 46.4516 32.7958 46.4516Z" fill="#401F71"/>
<path d="M47.4699 30.0777L37.4175 25.9589C36.6003 25.6246 35.6954 26.2019 35.6954 27.0571V47.27L48.6212 52.5327V31.7559C48.6212 31.0242 48.1673 30.3637 47.4699 30.0777Z" fill="white"/>
<path d="M47.4682 30.0784H47.4598H47.4682ZM36.9285 26.2186C37.0441 26.2186 37.1596 26.2415 37.271 26.2871L47.3234 30.4073C47.8858 30.6369 48.2505 31.1658 48.2505 31.7552V51.995L36.0626 47.0317V27.0577C36.0626 26.7718 36.206 26.5167 36.4524 26.3583C36.5986 26.2656 36.7629 26.2186 36.9285 26.2186ZM48.6194 52.8877C48.6918 52.8877 48.7628 52.8689 48.8227 52.8287C48.9271 52.7629 48.9883 52.6514 48.9883 52.532V31.7552C48.9883 30.8785 48.4482 30.0918 47.6129 29.7495L37.5605 25.6306C37.0622 25.4279 36.4956 25.4776 36.0445 25.7649C35.5935 26.0522 35.3234 26.5368 35.3234 27.0577V47.2693C35.3234 47.4129 35.4125 47.5418 35.5489 47.5969L48.4747 52.8609C48.5206 52.8783 48.5707 52.8877 48.6194 52.8877Z" fill="#401F71"/>
<path d="M45.8763 42.3158C46.0211 42.3158 46.1575 42.2339 46.2174 42.0957C46.2967 41.9158 46.2062 41.7063 46.0183 41.6311L38.0359 38.4292C37.848 38.3527 37.6336 38.4386 37.5529 38.6212C37.4735 38.8011 37.564 39.0106 37.7533 39.0857L45.7343 42.2876C45.7816 42.3078 45.829 42.3158 45.8763 42.3158Z" fill="#401F71"/>
<path d="M29.3692 34.0916L17.5057 29.3324V37.0505L29.3692 41.8782V34.0916Z" fill="#A666F5"/>
<path d="M28.9993 34.3301V41.3421L17.8736 36.8138V29.8649L28.9993 34.3301ZM29.3696 42.2349C29.4406 42.2349 29.5116 42.2161 29.5743 42.1758C29.6759 42.11 29.7386 41.9986 29.7386 41.8791V34.0925C29.7386 33.9489 29.6495 33.8186 29.5103 33.7636L17.6453 29.003C17.5326 28.9547 17.4031 28.9695 17.3001 29.0352C17.1971 29.101 17.1358 29.2111 17.1358 29.3306V37.0501C17.1358 37.1937 17.2249 37.3226 17.3599 37.379L29.2249 42.208C29.2708 42.2255 29.3195 42.2349 29.3696 42.2349Z" fill="#401F71"/>
<path d="M44.0689 43.9395C44.2136 43.9395 44.3501 43.8576 44.4085 43.7193C44.4879 43.5394 44.3988 43.33 44.2109 43.2548L39.8424 41.5041C39.6573 41.4236 39.4401 41.5122 39.3608 41.6961C39.2828 41.876 39.3705 42.0854 39.5598 42.1606L43.9269 43.9113C43.9728 43.9314 44.0215 43.9395 44.0689 43.9395Z" fill="#401F71"/>
<path d="M29.3353 27.6871C29.48 27.6871 29.6165 27.6052 29.6763 27.4669C29.7557 27.287 29.6652 27.0776 29.4773 27.0024L15.3585 21.3383C15.172 21.2605 14.9548 21.3477 14.8768 21.5303C14.7975 21.7116 14.8866 21.921 15.0759 21.9948L29.1933 27.6589C29.2406 27.679 29.2879 27.6871 29.3353 27.6871Z" fill="#401F71"/>
<path d="M51.7259 28.5796C51.8707 28.5796 52.0071 28.4977 52.067 28.3594C52.1463 28.1795 52.0558 27.9701 51.8679 27.8949L9.10515 10.7362C8.91861 10.6637 8.70144 10.7469 8.62348 10.9282C8.54413 11.1094 8.63323 11.3188 8.82256 11.394L51.5839 28.5514C51.6312 28.5715 51.6786 28.5796 51.7259 28.5796Z" fill="#401F71"/>
<path d="M39.6773 35.4498C40.3274 36.9575 41.8434 37.7818 43.0629 37.2931C44.281 36.8044 44.7418 35.1854 44.0917 33.679C43.4416 32.1714 41.927 31.3458 40.7075 31.8344C39.488 32.3245 39.0272 33.9422 39.6773 35.4498Z" fill="white"/>
<path d="M41.4515 32.0483C42.3411 32.0483 43.2877 32.7397 43.7527 33.815C44.322 35.1388 43.9476 36.5524 42.9216 36.9659C41.8872 37.374 40.5884 36.6343 40.019 35.3146C39.4497 33.9896 39.8213 32.5772 40.8501 32.1624C41.0436 32.0859 41.2455 32.0483 41.4515 32.0483ZM42.3313 37.7889C42.6278 37.7889 42.923 37.7365 43.2042 37.6224C44.6102 37.0586 45.1601 35.2274 44.4334 33.5425C43.7067 31.855 41.9722 30.9434 40.5675 31.5059C39.1615 32.0698 38.6088 33.8996 39.3369 35.5872C39.9174 36.935 41.1438 37.7889 42.3313 37.7889Z" fill="#401F71"/>
<path d="M18.5184 27.786L6.33749 22.7945C5.61638 22.4992 4.81731 23.0093 4.81731 23.7638V39.6928C4.81731 40.5319 5.331 41.2931 6.12729 41.6314L18.3235 46.8323C19.0446 47.1397 19.8576 46.6296 19.8576 45.8684V29.738C19.8576 28.8869 19.33 28.119 18.5184 27.786Z" fill="#A666F5"/>
<path d="M18.5184 27.7854H18.5101H18.5184ZM5.90733 23.0651C6.00339 23.0651 6.10084 23.0839 6.19272 23.1215L18.3737 28.1143C19.0516 28.3909 19.4887 29.0286 19.4887 29.7374V45.8677C19.4887 46.108 19.369 46.3215 19.1588 46.4517C18.9514 46.5833 18.7022 46.6048 18.4711 46.5068L6.27624 41.3059C5.6136 41.0239 5.18622 40.3903 5.18622 39.6922V23.7632C5.18622 23.5256 5.30455 23.3135 5.51058 23.1819C5.6317 23.104 5.76812 23.0651 5.90733 23.0651ZM18.7634 47.2787C19.0433 47.2787 19.3217 47.2009 19.5625 47.0491C19.9788 46.7874 20.2265 46.347 20.2265 45.8677V29.7374C20.2265 28.7413 19.614 27.8471 18.6632 27.4578L6.48088 22.465C6.02566 22.2797 5.51198 22.3294 5.10131 22.5872C4.69203 22.8503 4.44701 23.2893 4.44701 23.7632V39.6922C4.44701 40.6722 5.04701 41.5609 5.97833 41.957L18.1718 47.1579C18.3625 47.2384 18.5644 47.2787 18.7634 47.2787Z" fill="#401F71"/>
<path d="M17.0822 30.4915L7.02979 26.3203V30.67L17.0822 34.9231V30.4915Z" fill="white"/>
<path d="M16.712 30.7267V34.377L7.39883 30.4381V26.8603L16.712 30.7267ZM17.0823 35.2792C17.1519 35.2792 17.2229 35.2591 17.2842 35.2201C17.3872 35.1557 17.4512 35.0429 17.4512 34.9221V30.4918C17.4512 30.3495 17.3621 30.2206 17.2271 30.1656L7.1747 25.993C7.06194 25.9447 6.92969 25.9568 6.82528 26.0212C6.72226 26.0883 6.65962 26.1998 6.65962 26.3193V30.6703C6.65962 30.8113 6.74593 30.9402 6.88096 30.9952L16.9334 35.2483C16.9807 35.2698 17.0308 35.2792 17.0823 35.2792Z" fill="#401F71"/>
<path d="M15.7505 38.3747C15.8953 38.3747 16.0317 38.2928 16.0902 38.1546C16.1695 37.9747 16.0804 37.7652 15.8925 37.69L7.90735 34.4868C7.72081 34.4089 7.50364 34.4975 7.42707 34.6801C7.34633 34.86 7.43542 35.0695 7.62475 35.1446L15.6085 38.3465C15.6558 38.3667 15.7031 38.3747 15.7505 38.3747Z" fill="#401F71"/>
<path d="M13.9407 39.9985C14.0855 39.9985 14.2219 39.9153 14.2818 39.7783C14.3612 39.5971 14.2707 39.389 14.0827 39.3138L9.71569 37.5618C9.52915 37.4853 9.31198 37.5699 9.23402 37.7538C9.15467 37.9351 9.24377 38.1431 9.4331 38.2183L13.7987 39.9703C13.8461 39.9904 13.8934 39.9985 13.9407 39.9985Z" fill="#401F71"/>
</svg>
