<svg width="83" height="84" viewBox="0 0 83 84" fill="none" xmlns="http://www.w3.org/2000/svg">
<path d="M35.0321 60.1339L33.555 58.6171L34.3468 60.5828L34.5143 60.9697L34.6514 61.3257L35.2605 60.7066L35.0321 60.1339ZM30.9968 56.0013L30.6313 56.7907L30.5856 56.8835L30.6922 56.8526L31.4993 56.5121L30.9968 56.0013ZM27.6315 57.2395L27.4183 57.3324L27.1137 57.4562L22.8653 59.2362L22.8348 60.1339L26.6721 58.5242L27.0072 58.3849L27.2051 58.3075L27.7229 58.0908L28.1492 57.0228L27.6315 57.2395ZM45.6305 49.7018L44.1077 50.3519L43.2854 50.6924L31.1034 55.7846L30.875 55.8775L30.0679 56.218L28.1492 57.0228L27.6315 57.2395L27.4183 57.3324L27.1137 57.4562L22.8653 59.2362L20.5811 60.1958L11.5816 63.9569L9.63249 64.7773H9.61727C9.22135 64.932 8.87112 65.1642 8.56657 65.4583C8.17065 65.8143 7.85087 66.2631 7.63768 66.7739C7.63768 66.7894 7.62246 66.7894 7.62246 66.8049C7.43972 67.2692 7.36359 67.749 7.36359 68.2288C7.36359 68.2753 7.36359 68.3217 7.37881 68.3681C7.39404 68.8015 7.47018 69.2039 7.63768 69.6064L9.70863 74.7296L10.5157 76.7262L10.5461 76.7881L10.7593 77.3144L10.8507 77.5465C10.8964 77.6549 10.9421 77.7632 11.0182 77.8716C11.2771 78.4133 11.673 78.8621 12.1755 79.2027H14.1551C14.414 79.2181 14.688 79.2181 14.9469 79.2027C14.9621 79.2181 14.9774 79.2181 14.9926 79.2027C15.0383 79.2181 15.0687 79.2181 15.1144 79.2181H15.1296C15.1601 79.2181 15.1906 79.2027 15.2058 79.2027H15.221C15.2819 79.2027 15.3428 79.2181 15.4037 79.2181C15.4647 79.2336 15.5256 79.2181 15.5865 79.2027C15.6017 79.2181 15.6322 79.2181 15.6626 79.2027H16.4544L17.1245 78.9241L17.7792 78.6455L18.5254 78.3359L18.9975 78.1347L19.6218 77.887V77.8716C19.6827 77.7787 19.7284 77.6703 19.7741 77.562L20.0938 76.7881L20.0177 76.8191L19.5456 77.0203L19.0279 77.237L18.0533 77.6549L15.3124 78.8002H15.2972C15.084 78.8776 14.8708 78.9395 14.6576 78.9705C14.5205 79.0014 14.3835 79.0169 14.2464 79.0169H14.2312C13.9114 79.0169 13.5764 78.955 13.2719 78.8312C13.2262 78.8157 13.1805 78.8002 13.1348 78.7848C13.0892 78.7693 13.0435 78.7383 12.9978 78.7074C12.5562 78.5062 12.1907 78.1966 11.9166 77.8096C11.7948 77.6394 11.6882 77.4382 11.6121 77.237L11.5969 77.2215L11.2009 76.2619L8.38383 69.2968C8.10974 68.6313 8.09451 67.9038 8.33815 67.2537C8.33815 67.2073 8.36861 67.1454 8.38383 67.099C8.67316 66.387 9.22135 65.8298 9.92182 65.5357L10.0893 65.4583L20.5811 61.0781L22.8348 60.1339L26.6721 58.5242L27.0072 58.3849L27.2051 58.3075L27.7229 58.0908L30.5856 56.8835L30.6922 56.8526L31.4993 56.5121L32.5195 56.0787L33.555 58.6171L34.3468 60.5828L34.5143 60.9697L34.6514 61.3257L35.2605 60.7066L35.0321 60.1339L33.2657 55.7691L43.8945 51.3115L44.7321 50.971L44.793 51.1103L45.8589 50.0423L46.1634 49.7328L47.0771 49.4077L47.5796 48.897L45.6305 49.7018ZM27.4183 57.3324L27.1137 57.4562L22.8653 59.2362L22.8348 60.1339L26.6721 58.5242L27.0072 58.3849L27.2051 58.3075L27.7229 58.0908L28.1492 57.0228L27.6315 57.2395L27.4183 57.3324ZM30.5856 56.8835L30.6922 56.8526L30.6313 56.7907L30.5856 56.8835ZM35.0321 60.1339L33.555 58.6171L34.3468 60.5828L34.5143 60.9697L34.6514 61.3257L35.2605 60.7066L35.0321 60.1339Z" fill="white"/>
<path d="M78.1258 51.312C78.0496 51.6989 77.8973 52.0858 77.6842 52.4264L77.6385 52.5502L77.5776 52.5966L76.2832 53.6182L75.1259 54.098L69.507 40.1524L69.4765 40.075L70.4663 39.75L71.0906 39.5488L71.5931 39.3785L72.6743 39.4559L73.6793 39.9048L74.8671 41.3906L78.0648 49.3308L78.2628 50.956L78.1258 51.312ZM63.0657 58.8033L57.7056 45.5387L69.1719 40.7406L74.5321 54.0051L63.0657 58.8033ZM78.3542 49.2844L75.1412 41.3597C74.3798 39.4714 72.2479 38.5737 70.3901 39.3476L47.5792 48.8974L47.0767 49.4082L49.2695 48.6188L53.1373 47.2258L52.7262 47.6282L56.9594 45.8483L62.3195 59.1128L50.8532 63.911L46.6199 53.4789L45.9956 54.0825L50.107 64.236L38.6407 69.0341L36.3413 63.3538L35.717 63.9574L37.8945 69.3437L24.0983 75.1169L20.5808 76.5873L20.0935 76.7886L19.7737 77.5625C19.728 77.6708 19.6823 77.7791 19.6214 77.872L20.3371 77.5779L21.7076 77.0052L50.7923 64.8396V64.8242L63.0048 59.7164L76.3746 54.1289C77.273 53.742 77.9735 53.0455 78.3542 52.1323C78.7196 51.2191 78.7196 50.1975 78.3542 49.2844Z" fill="white"/>
<path d="M37.8942 69.3436L24.098 75.1168L35.7166 63.9573L37.8942 69.3436Z" fill="white"/>
<path d="M52.7257 47.6284L46.6195 53.479L50.8527 63.9111L62.3191 59.113L56.959 45.8484L52.7257 47.6284Z" fill="white"/>
<path d="M38.6415 69.0337L50.1079 64.2355L45.9964 54.0821L36.3421 63.3533L38.6415 69.0337Z" fill="white"/>
<path d="M44.7322 50.9711L33.2659 55.7693L35.2607 60.7067L44.7931 51.1104L44.7322 50.9711Z" fill="white"/>
<path d="M57.7054 45.5387L63.0655 58.8033L74.5319 54.0051L69.1718 40.7406L57.7054 45.5387Z" fill="white"/>
<path d="M74.3952 41.6692C73.9536 40.5548 72.8877 39.8893 71.7761 39.8893C71.4106 39.8893 71.0451 39.9512 70.6949 40.106L69.9183 40.431L75.2784 53.6956L76.0702 53.3705C76.7707 53.0764 77.3189 52.5192 77.6082 51.8073C77.8976 51.0953 77.8976 50.3214 77.6082 49.6094L74.3952 41.6692Z" fill="#E5E5E5"/>
<path d="M45.4787 50.6621L46.6207 53.4791L52.727 47.6284L45.4787 50.6621Z" fill="#E5E5E5"/>
<path d="M35.2621 60.7067L36.3432 63.3535L45.9975 54.0822L44.7945 51.1104L35.2621 60.7067Z" fill="#E5E5E5"/>
<path d="M77.6073 51.8069C77.3179 52.5189 76.7697 53.0761 76.0693 53.3702L75.2774 53.6952L69.9173 40.4307L70.6939 40.1056C71.0442 39.9509 71.4096 39.889 71.7751 39.889C72.8867 39.889 73.9526 40.5545 74.3942 41.6689L77.6073 49.6091C77.8966 50.3211 77.8966 51.0949 77.6073 51.8069ZM77.927 49.3924L74.7597 41.5606C74.1506 40.0592 72.5974 39.2544 71.0899 39.5484L70.4655 39.7497L69.5062 40.1521L75.1252 54.0977L76.2825 53.6178L77.5768 52.5963C77.6225 52.5344 77.6529 52.488 77.6834 52.426L78.125 51.3116C78.2316 50.6925 78.1859 50.027 77.927 49.3924Z" fill="white"/>
<path d="M35.7186 63.9573L24.0999 75.1169L20.5824 76.5873V75.5038L20.6433 75.4419L34.6526 61.3261L34.8506 61.8059L35.7186 63.9573Z" fill="#E5E5E5"/>
<path d="M46.1643 49.7332L45.8597 50.0428L49.2707 48.6188L46.1643 49.7332Z" fill="white"/>
<path d="M5.88697 71.4175C5.27787 70.7829 5.27787 69.7768 5.88697 69.1422C5.65856 69.8852 5.65856 70.6745 5.88697 71.4175Z" fill="white"/>
<path d="M53.3347 41.9013L45.6296 49.7021L44.5484 50.8011L44.1068 50.3522L37.0564 43.155L36.6758 43.9444L43.2845 50.6927L43.9698 51.3892L35.1834 60.289L35.0312 60.1342L33.5541 58.6174L31.4984 56.5124L30.9959 56.0016L30.6304 56.791L30.6913 56.8529L34.3459 60.5831L34.62 60.8617L34.5134 60.97L23.2907 72.3463L21.6766 73.9715L20.9304 74.7144V74.7299L20.4736 75.1787L20.1691 75.4883L19.4381 76.2467L18.0524 77.6552L17.3063 78.3981C17.0322 78.6767 16.7276 78.878 16.3926 79.0173H16.3774C16.149 79.1256 15.9053 79.1875 15.6617 79.203C15.6313 79.2185 15.6008 79.2185 15.5856 79.203C15.479 79.2339 15.3876 79.2339 15.281 79.2339H15.2658C15.1744 79.2339 15.0831 79.2339 14.9917 79.203C14.9765 79.2185 14.9612 79.2185 14.946 79.203C14.7024 79.172 14.474 79.1101 14.2455 79.0173H14.2303C13.8953 78.878 13.5755 78.6767 13.3014 78.3981L11.2 76.2622L9.70773 74.7299L7.34745 72.3153C6.82971 71.7891 6.55562 71.0926 6.54039 70.4116C6.49471 69.6222 6.7688 68.8328 7.34745 68.2446L7.36268 68.2292L7.46927 68.1208L8.33725 67.2541L10.0884 65.4586L11.5807 63.9573L20.5802 54.8408L23.1689 52.225L23.245 52.1322L23.8694 51.5131L24.6612 50.7082L28.4833 54.5932L28.8031 53.7728L28.4985 53.4633L25.2246 50.12L33.3714 41.8703L33.6302 41.6072L34.0109 40.6476L35.4423 39.1927L42.0968 32.4443L41.579 33.5587L43.3607 31.7478L53.3347 41.9013Z" fill="white"/>
<path d="M62.6849 32.4286L53.8986 41.3284L43.9398 31.1594L52.7261 22.2596L62.6849 32.4286Z" fill="white"/>
<path d="M65.0167 29.6739L64.2233 31.2062L63.3721 32.1349L52.6214 21.7957L53.564 20.836C54.3726 20.0157 55.4842 19.7061 56.5197 19.9228H56.5349C57.1592 20.0467 57.7516 20.3562 58.2404 20.8515L59.5043 22.1517L64.3162 27.0427C64.438 27.1665 64.5431 27.2903 64.6208 27.4141L64.8629 27.8011L64.9405 27.9404V27.9559L65.0167 29.6739Z" fill="white"/>
<path d="M65.0162 29.6739L64.2229 31.2062L63.3717 32.1349L52.621 21.7957L52.5296 21.7183L54.1742 20.186L55.1945 19.8145L56.2908 19.799L56.5193 19.9228H56.5345L57.9659 20.6658L59.5039 22.1517L64.1011 26.5474L64.6203 27.4141L64.8624 27.8011L64.9401 27.9404V27.9559L65.0162 29.6739Z" fill="#E5E5E5"/>
<path d="M64.2232 31.2059L63.3704 32.1345L52.6198 21.7953L52.5284 21.7179L54.173 20.1856L55.1932 19.8141L56.2896 19.7987L56.518 19.9225H56.5333C57.1576 20.0463 57.7515 20.3559 58.2388 20.8512L59.5027 22.1513L64.1014 26.547L64.6191 27.4138C64.7257 27.5376 64.8018 27.6614 64.8628 27.8007L64.9389 27.94V27.9555L65.0166 29.6735L64.2232 31.2059ZM53.8989 41.3284L43.9401 31.1594L52.7264 22.2596L62.6852 32.4286L53.8989 41.3284ZM64.4364 26.578L58.4824 20.5106C57.051 19.0557 54.7516 19.0557 53.3203 20.4952L35.8542 38.2019L35.1081 38.9448L32.5651 41.5296L23.2153 51.0021L23.0631 51.1723L22.4403 51.7914L20.581 53.6797L9.63236 64.7774H9.61713L8.29385 66.1394L7.62232 66.805L7.54618 66.8824L6.80003 67.6408L6.7848 67.6563C6.35843 68.0897 6.05387 68.6004 5.88637 69.1422C5.76455 69.5136 5.71887 69.8851 5.71887 70.272V70.2875C5.71887 70.4423 5.73409 70.5816 5.74932 70.7364C5.76455 70.8602 5.79501 70.984 5.82546 71.1078V71.1543C5.84069 71.2471 5.85592 71.3245 5.88637 71.4174C5.91683 71.5258 5.96251 71.6186 6.00972 71.727C6.1757 72.1603 6.43456 72.5473 6.77109 72.9033L10.5156 76.7263L11.3531 77.5776L12.1007 78.336L12.7236 78.9706C12.7997 79.048 12.8911 79.1254 12.9672 79.2028H14.1549C14.4138 79.2183 14.6879 79.2183 14.9468 79.2028C14.7031 79.1718 14.4747 79.1099 14.2463 79.017H14.2311C13.8961 78.8777 13.5763 78.6765 13.3037 78.3979L11.2008 76.262L9.70849 74.7297L7.34822 72.3151C6.83201 71.7889 6.55638 71.0924 6.54116 70.4113C6.49547 69.622 6.7711 68.8326 7.34822 68.2444L7.36345 68.229L7.47004 68.1206L8.33801 67.2539L10.0892 65.4584L11.5815 63.9571L20.581 54.8406L23.1697 52.2248L23.2458 52.132L23.8701 51.5128L24.6635 50.708L28.4841 54.5929L28.8039 53.7726L28.4993 53.4631L25.2254 50.1198L33.3721 41.8701L33.631 41.607L34.0117 40.6474L35.4431 39.1924L42.0975 32.4441L41.5798 33.5585L43.3614 31.7476L53.3355 41.9011L45.6303 49.7019L44.5492 50.8009L44.1076 50.352L37.0572 43.1548L36.6765 43.9442L43.2853 50.6925L43.9705 51.389L35.1842 60.2888L35.0319 60.134L33.5549 58.6172L31.4991 56.5122L30.9966 56.0014L30.6312 56.7908L30.6921 56.8527L34.3467 60.5829L34.6223 60.8615L34.5142 60.9698L23.2915 72.3461L21.6789 73.9713L20.9312 74.7142V74.7297L20.4759 75.1785L20.1698 75.4881L19.4389 76.2465L18.0532 77.655L17.3071 78.3979C17.033 78.6765 16.7299 78.8777 16.3934 79.017H16.3782C16.1498 79.1254 15.9076 79.1873 15.6625 79.2028C16.3325 79.2183 16.9264 79.2183 17.2005 79.2183C17.368 79.2183 17.5202 79.2183 17.6573 79.2028C17.7334 79.1254 17.8111 79.0635 17.8857 78.9861L18.5253 78.336L19.3475 77.5157L19.3628 77.5002L20.0176 76.8192L20.1089 76.7263L20.581 76.262L34.8492 61.8056L47.077 49.4079L47.5795 48.8971L64.4212 31.825C65.8525 30.37 65.8525 28.0329 64.4364 26.578Z" fill="white"/>
<path d="M42.0985 32.4446L41.5808 33.559L37.0582 43.1553L36.6775 43.9447L30.9976 56.002L30.6322 56.7914L23.2925 72.3466L21.6784 73.9718L20.4769 75.1744L28.4851 54.5935L28.8049 53.7732L33.632 41.6075L34.0127 40.6479L42.0985 32.4446Z" fill="#E5E5E5"/>
<path d="M28.8045 53.7728L28.4847 54.5932L28.6522 54.7634L28.9568 55.073L30.0684 56.2183L30.6318 56.791L30.9973 56.0016L28.8045 53.7728ZM41.5804 33.5587L42.0982 32.4443L35.4437 39.1927L34.0123 40.6476L33.6316 41.6072L34.0123 41.2203L34.1341 41.3441L34.4387 41.6536L36.6771 43.9444L37.0578 43.155L34.591 40.6476L35.0326 40.1987L41.5804 33.5587ZM63.8584 31.237L63.2645 31.8407L53.2904 21.6872L53.8995 21.0835C54.4477 20.5263 55.1634 20.2477 55.8943 20.2477C56.6253 20.2477 57.3562 20.5263 57.9044 21.0835L63.8584 27.1663C64.97 28.2807 64.9547 30.1226 63.8584 31.237ZM64.9395 27.9557V27.9402L64.8634 27.8009L64.6197 27.414L64.102 26.5472L59.5033 22.1515L58.2394 20.8514C57.7521 20.3561 57.1582 20.0465 56.5339 19.9227H56.5187L56.2902 19.7989L55.1939 19.8143L54.1736 20.1858L52.529 21.7181L52.6204 21.7955L63.3711 32.1347L64.2238 31.2061L65.0156 29.6738L64.9395 27.9557Z" fill="white"/>
<path d="M34.6507 61.3257L35.7167 63.957L36.341 63.3533L35.2598 60.7066L34.6507 61.3257Z" fill="white"/>
<path d="M52.7267 47.6284L53.1378 47.226L49.27 48.619L45.8591 50.043L44.7931 51.1109L45.9961 54.0827L46.6204 53.4791L45.4784 50.6621L52.7267 47.6284Z" fill="white"/>
<path d="M44.3969 16.2237L44.1228 16.8893L35.1081 38.9453L34.697 39.9513L34.1335 41.3443L28.9714 53.9433L28.6516 54.7637L27.6314 57.2401L27.205 58.3081L23.8854 66.4185L20.581 74.498L20.1698 75.4885L19.5455 77.0209L19.3628 77.5007L19.3476 77.5161C19.2562 77.7328 19.1496 77.9495 18.9973 78.1353C18.708 78.5841 18.2816 78.9401 17.8096 79.1878H17.7943C17.7487 79.1878 17.703 79.2032 17.6558 79.2032C17.5202 79.2187 17.368 79.2187 17.2005 79.2187C16.9264 79.2187 16.3325 79.2187 15.6625 79.2032C15.632 79.2187 15.6016 79.2187 15.5863 79.2032C15.5254 79.2187 15.4645 79.2342 15.4036 79.2187C15.3579 79.2342 15.3275 79.2342 15.2818 79.2342H15.2666L15.2209 79.2032H15.2057L14.6575 78.9711L13.3022 78.3984L11.9165 77.8102L11.3531 77.5781L10.7592 77.3149L5.8407 75.2409C5.61229 75.148 5.41433 74.9933 5.26205 74.823V72.5013L5.76456 71.2476L5.82548 71.1083L7.54619 66.8828L20.581 34.9829V34.9674L24.2661 25.9593L30.3419 11.0696H30.3571L30.4028 10.9612L30.4332 10.8993L30.7378 10.1254C30.8596 9.81587 31.0271 9.53727 31.2251 9.28962L31.2403 9.27414C31.8022 8.5312 32.6412 8.08234 33.5397 7.95852H33.5701C34.0422 7.91209 34.5294 7.95852 35.0167 8.1133H35.0624L42.4006 11.2244C42.7523 11.3637 43.0569 11.5649 43.331 11.797C44.5796 12.8495 45.0517 14.6295 44.3969 16.2237Z" fill="white"/>
<path d="M44.1244 16.885L30.348 11.07L31.35 9.05165L32.1692 8.33967L33.1864 7.93105L35.0624 8.11988L42.8529 11.4089L44.1244 12.4088L44.8066 13.9891L44.6025 15.7133L44.1244 16.885Z" fill="#E5E5E5"/>
<path d="M22.4242 69.8636L24.2622 25.9668L20.5863 34.9641V74.4977L22.4242 69.8636Z" fill="#E5E5E5"/>
<path d="M28.4993 53.4637L26.5807 52.6588L23.8701 51.5135L23.2017 51.2349L23.1697 52.1016L23.2458 52.1326L28.073 54.1757L28.3927 54.315L28.3318 54.4388L27.1136 57.457L27.4182 57.3332L28.4841 54.5936L28.8039 53.7733L28.4993 53.4637ZM17.7791 78.6462C17.6878 78.7081 17.5964 78.7546 17.4913 78.801C17.368 78.8474 17.2462 78.8939 17.1243 78.9248C16.8807 78.9867 16.6371 79.0177 16.3934 79.0177H16.3782C16.0127 79.0177 15.6625 78.9558 15.3123 78.801H15.297L12.5561 77.6402L11.612 77.2377L11.5967 77.2223L10.6069 76.8198L10.546 76.7889L7.53096 75.5197C6.08434 74.9006 5.3991 73.2135 5.99298 71.7431L6.00821 71.7276L6.54117 70.412L7.37869 68.3689L7.47005 68.1213L8.29234 66.1401L8.56644 65.4591L15.3732 48.8048L20.581 51.0027L22.4403 51.7921L23.1697 52.1016L23.2458 52.1326L28.073 54.1757L28.3927 54.315L28.3318 54.4388L27.1136 57.457L26.672 58.525L22.4692 68.8178L20.581 73.4302L19.4389 76.2471L19.0278 77.2377C18.7841 77.8414 18.3425 78.3367 17.7791 78.6462ZM30.8748 10.8531L31.1961 10.0637C31.8037 8.59329 33.4635 7.8968 34.9101 8.50043L42.6914 11.7817C43.3919 12.0758 43.9401 12.633 44.2294 13.345C44.5203 14.057 44.5203 14.8464 44.2294 15.5583L43.9096 16.3477L30.8748 10.8531ZM38.8388 28.7455L25.804 23.2509L30.5703 11.6115L43.5899 17.1061L38.8388 28.7455ZM33.1894 40.8956L23.8092 36.9333L20.7485 35.6486L24.2204 27.1822V27.1513L25.4995 24.0093L38.5343 29.5039L34.3467 39.7193L33.7681 41.1433L33.1894 40.8956ZM28.7125 53.5566L28.4993 53.4637L26.5807 52.6588L23.8701 51.5135L23.2017 51.2349L23.0631 51.173L20.581 50.1205L15.6777 48.0464L20.4287 36.4071L20.581 36.469L23.7636 37.8156L32.5651 41.5302L33.3722 41.8708L33.4635 41.9017L28.7125 53.5566ZM44.9756 13.0354C44.6101 12.1223 43.9096 11.4103 43.0112 11.0233L35.2147 7.74201C34.3163 7.35506 33.3265 7.35506 32.428 7.74201C31.5296 8.11348 30.8291 8.82546 30.4485 9.73866L29.9764 10.915L24.9056 23.3128L19.8501 35.7106H19.8348L14.7793 48.1083L6.80004 67.6414L6.78481 67.6569L5.71888 70.2727V70.2882L5.52092 70.768L5.26205 71.4026V74.2505C5.3991 74.622 5.59706 74.947 5.8407 75.2411C6.20616 75.6899 6.66299 76.0459 7.21271 76.2781L11.0196 77.8723L12.0992 78.3367L12.9977 78.7081L13.2718 78.8319L14.155 79.2034C14.4138 79.2189 14.6879 79.2189 14.9468 79.2034C14.962 79.2189 14.9772 79.2189 14.9925 79.2034C15.0382 79.2189 15.0686 79.2189 15.1143 79.2189H15.1295C15.1752 79.2344 15.2209 79.2344 15.2666 79.2344H15.2818C15.3275 79.2344 15.3579 79.2344 15.4036 79.2189C15.4645 79.2344 15.5254 79.2189 15.5879 79.2034C15.6016 79.2189 15.632 79.2189 15.6625 79.2034C16.3325 79.2189 16.9264 79.2189 17.2005 79.2189C17.368 79.2189 17.5203 79.2189 17.6573 79.2034C17.703 79.2034 17.7487 79.1879 17.7943 79.1879H17.8096C18.2527 79.126 18.5405 79.0177 18.845 78.8784H18.8603C19.1648 78.5998 19.4237 78.2593 19.6217 77.8878V77.8723C19.6826 77.7795 19.7282 77.6711 19.7755 77.5628L20.0937 76.7889L20.1089 76.727L20.581 75.5816L20.6419 75.4423L20.9312 74.7303V74.7148L27.7227 58.0916L28.1506 57.0236L28.9562 55.0734L29.2759 54.2531L29.2927 54.2376L34.3619 41.8398L34.4381 41.6541L34.7731 40.8337L35.032 40.1991L35.4431 39.1931L35.8542 38.2025L39.4327 29.442L44.5035 17.0442L44.9756 15.8679C45.341 14.9547 45.3563 13.9486 44.9756 13.0354ZM28.4993 53.4637L26.5807 52.6588L23.8701 51.5135L23.2017 51.2349L23.1697 52.1016L23.2458 52.1326L28.073 54.1757L28.3927 54.315L28.3318 54.4388L27.1136 57.457L27.4182 57.3332L28.4841 54.5936L28.8039 53.7733L28.4993 53.4637Z" fill="white"/>
<path d="M20.5852 54.9767H5.6683V8.54148C5.6683 6.81724 7.04183 5.42113 8.73818 5.42113H17.1316C19.0381 5.42113 20.5852 6.99214 20.5852 8.92997V54.9767Z" fill="#2BDED9"/>
<path d="M5.6683 54.9766H20.5852V75.6536C20.5852 77.5496 19.0731 79.0865 17.2078 79.0865H7.24284C6.37334 79.0865 5.6683 78.3699 5.6683 77.4846V54.9766Z" fill="white"/>
<path d="M17.344 78.3946H8.90797C7.34562 78.3946 6.07259 77.1006 6.07259 75.511V55.3882H20.1809V75.511C20.1809 77.1006 18.9079 78.3946 17.344 78.3946ZM17.344 5.00928H8.90797C6.89945 5.00928 5.26401 6.6716 5.26401 8.71468C5.26401 8.94066 5.44522 9.12485 5.66754 9.12485C5.89138 9.12485 6.07259 8.94066 6.07259 8.71468C6.07259 7.1251 7.34562 5.83115 8.90797 5.83115H17.344C18.9079 5.83115 20.1809 7.1251 20.1809 8.71468V54.5664H6.07259V50.0344C6.07259 49.8069 5.89138 49.6243 5.66754 49.6243C5.44522 49.6243 5.26401 49.8069 5.26401 50.0344V75.511C5.26401 77.5541 6.89945 79.2149 8.90797 79.2149H17.344C19.3541 79.2149 20.9895 77.5541 20.9895 75.511V8.71468C20.9895 6.6716 19.3541 5.00928 17.344 5.00928Z" fill="white"/>
<path d="M15.3227 74.8969C14.5416 74.8969 13.9051 74.2514 13.9051 73.4559C13.9051 72.6603 14.5416 72.0149 15.3227 72.0149C16.1039 72.0149 16.7404 72.6603 16.7404 73.4559C16.7404 74.2514 16.1039 74.8969 15.3227 74.8969ZM15.3227 71.193C14.0954 71.193 13.098 72.2084 13.098 73.4559C13.098 74.7034 14.0954 75.7188 15.3227 75.7188C16.5501 75.7188 17.5475 74.7034 17.5475 73.4559C17.5475 72.2084 16.5501 71.193 15.3227 71.193Z" fill="white"/>
<path d="M17.1441 58.2249H8.4035C8.17965 58.2249 7.99844 58.4091 7.99844 58.635C7.99844 58.8626 8.17965 59.0468 8.4035 59.0468H17.1441C17.368 59.0468 17.5492 58.8626 17.5492 58.635C17.5492 58.4091 17.368 58.2249 17.1441 58.2249Z" fill="white"/>
<path d="M8.40344 10.2012H16.9705C17.1943 10.2012 17.3755 10.017 17.3755 9.79101C17.3755 9.56348 17.1943 9.38084 16.9705 9.38084H8.40344C8.18111 9.38084 7.99838 9.56348 7.99838 9.79101C7.99838 10.017 8.18111 10.2012 8.40344 10.2012Z" fill="white"/>
<path d="M8.40344 13.2454H14.0331C14.2569 13.2454 14.4381 13.0612 14.4381 12.8336C14.4381 12.6077 14.2569 12.4235 14.0331 12.4235H8.40344C8.18111 12.4235 7.99838 12.6077 7.99838 12.8336C7.99838 13.0612 8.18111 13.2454 8.40344 13.2454Z" fill="white"/>
<path d="M5.66949 44.0606C5.89334 44.0606 6.07454 43.8764 6.07454 43.6504V16.2979C6.07454 16.0719 5.89334 15.8878 5.66949 15.8878C5.44717 15.8878 5.26596 16.0719 5.26596 16.2979V43.6504C5.26596 43.8764 5.44717 44.0606 5.66949 44.0606Z" fill="white"/>
<path d="M78.1275 51.312L77.6859 52.4264C77.8991 52.0859 78.0513 51.6989 78.1275 51.312Z" fill="white"/>
<path d="M74.8666 41.3905L73.6789 39.9046L72.6738 39.4558L71.5927 39.3784L71.0902 39.5486C72.5977 39.2546 74.1509 40.0594 74.76 41.5608L77.9274 49.3926C78.1862 50.0272 78.2319 50.6927 78.1253 51.3118L78.2624 50.9558L78.0644 49.3307L74.8666 41.3905Z" fill="white"/>
<path d="M69.4771 40.0747L69.5075 40.1521L70.4668 39.7497L69.4771 40.0747Z" fill="white"/>
<path d="M77.6396 52.5499L77.6853 52.4261C77.6548 52.488 77.6244 52.5344 77.5787 52.5963L77.6396 52.5499Z" fill="white"/>
<path d="M15.2209 79.2031C15.3428 79.2186 15.4646 79.2186 15.5864 79.2031C15.4798 79.2341 15.3884 79.2341 15.2818 79.2341H15.2666C15.1753 79.2341 15.0839 79.2341 14.9925 79.2031C15.0687 79.2186 15.1296 79.2186 15.2057 79.2031H15.2209Z" fill="#E5E5E5"/>
</svg>
