<svg width="79" height="75" viewBox="0 0 79 75" fill="none" xmlns="http://www.w3.org/2000/svg">
<path d="M54.6346 37.7848C54.6346 36.7392 54.0389 35.8444 53.0752 35.4421L41.261 30.5229C39.6898 29.8706 37.888 29.8662 36.3183 30.5199L6.27345 42.9762C5.30974 43.377 4.71112 44.2733 4.71112 45.316C4.70965 46.3572 5.30679 47.2535 6.26902 47.6558L18.0847 52.575C18.8829 52.9077 19.721 53.0704 20.559 53.0704C21.3956 53.0704 22.2307 52.9077 23.0274 52.5779L53.0723 40.1217C54.0345 39.7223 54.6346 38.8261 54.6346 37.7848Z" fill="#E6E5E5"/>
<path d="M21.5033 52.5842L23.6362 51.6998C24.7536 51.2368 25.4823 50.1453 25.4823 48.9355L25.4823 25.9931L25.4823 16.4135L25.4823 13.3505C25.4823 11.8907 24.6043 10.5743 23.2563 10.0123L11.0046 4.91416C9.94035 4.47046 8.74163 4.47194 7.67742 4.91712L5.73227 5.7291" fill="#E6E5E5"/>
<path d="M25.4822 16.807C25.2664 16.807 25.0905 16.631 25.0905 16.4136L25.0905 13.3506C25.0905 12.0446 24.3115 10.8762 23.1069 10.3748L10.8551 5.27662C9.8944 4.87581 8.79028 4.87433 7.82953 5.2781L5.8829 6.09008C5.68484 6.17734 5.45426 6.08121 5.37001 5.88006C5.28724 5.68039 5.38036 5.44967 5.58138 5.36684L7.528 4.55339C8.67942 4.07271 10.0023 4.07271 11.1552 4.55043L23.407 9.65006C24.9057 10.2742 25.8739 11.7251 25.8739 13.3506L25.8739 16.4136C25.8739 16.631 25.698 16.807 25.4822 16.807Z" fill="#401F71"/>
<path d="M21.5034 52.9757C21.3497 52.9757 21.2033 52.8855 21.1413 52.7331C21.0585 52.5335 21.1531 52.3042 21.3526 52.2199L23.4855 51.3384C24.4595 50.9332 25.0907 49.9896 25.0907 48.9365L25.0907 22.5214C25.0907 22.3054 25.2651 22.1294 25.4824 22.1294C25.6982 22.1294 25.8741 22.3054 25.8741 22.5214L25.8741 48.9365C25.8741 50.309 25.0552 51.5351 23.7855 52.0617L21.6542 52.9461C21.6039 52.9668 21.5536 52.9757 21.5034 52.9757Z" fill="#401F71"/>
<path d="M22.7195 50.7456C22.7195 52.1699 21.2725 53.1357 19.9585 52.5884L6.80656 47.1131C5.46004 46.5526 4.58206 45.2348 4.58206 43.775L4.58206 7.53768C4.58206 6.11486 6.0291 5.14907 7.34311 5.69631L20.495 11.1716C21.8415 11.7322 22.7195 13.0485 22.7195 14.5097L22.7195 50.7456Z" fill="#DA58E6"/>
<path d="M20.7262 53.1338C20.4158 53.1338 20.1039 53.0731 19.8083 52.9489L6.65642 47.4751C5.15765 46.8509 4.18951 45.4 4.18951 43.7746L4.18951 7.5373C4.18951 6.73863 4.58712 5.99617 5.25225 5.55246C5.91738 5.10728 6.75545 5.02741 7.49301 5.33357L20.6449 10.8089C22.1437 11.433 23.1118 12.8869 23.1118 14.5094L23.1118 40.2989C23.1118 40.5148 22.9359 40.6909 22.7201 40.6909C22.5029 40.6909 22.327 40.5148 22.327 40.2989L22.327 14.5094C22.327 13.2034 21.5495 12.035 20.3434 11.5336L7.19148 6.05828C6.68894 5.84974 6.13909 5.90299 5.6868 6.20471C5.23451 6.50643 4.97437 6.99302 4.97437 7.5373L4.97437 43.7746C4.97437 45.0806 5.75332 46.249 6.95795 46.7518L20.1099 52.2272C20.6124 52.4357 21.1622 52.3825 21.6145 52.0793C22.0668 51.7775 22.327 51.2909 22.327 50.7452L22.327 43.779C22.327 43.5631 22.5029 43.3871 22.7201 43.3871C22.9359 43.3871 23.1118 43.5631 23.1118 43.779L23.1118 50.7452C23.1118 51.5453 22.7142 52.2893 22.0506 52.733C21.65 52.9992 21.1903 53.1338 20.7262 53.1338Z" fill="#401F71"/>
<path d="M10.754 7.15871L16.2701 9.45561L16.2701 10.4495C16.2701 10.8814 15.8312 11.1757 15.4321 11.0101L11.4309 9.34469C11.0215 9.17312 10.754 8.77231 10.754 8.32861L10.754 7.15871Z" fill="white"/>
<path d="M11.1461 7.74739L11.1461 8.32864C11.1461 8.61557 11.316 8.87143 11.5806 8.98088L15.5818 10.6463C15.6734 10.6862 15.7532 10.6463 15.7828 10.627C15.8109 10.6093 15.8789 10.5516 15.8789 10.4495L15.8789 9.71891L11.1461 7.74739ZM15.6645 11.4479C15.5345 11.4479 15.4044 11.4227 15.2802 11.3724L11.2791 9.70708C10.7219 9.47339 10.3612 8.93355 10.3612 8.32864L10.3612 7.15874C10.3612 7.02858 10.4277 6.90583 10.5356 6.83188C10.645 6.76088 10.7839 6.74757 10.9037 6.79638L16.4213 9.09329C16.5676 9.15541 16.6622 9.29739 16.6622 9.45565L16.6622 10.4495C16.6622 10.7838 16.4967 11.0944 16.2173 11.2807C16.0503 11.3917 15.8582 11.4479 15.6645 11.4479Z" fill="#401F71"/>
<path d="M15.7425 48.0664C15.6938 48.0664 15.6435 48.0575 15.5962 48.0368L11.0038 46.1866C10.8028 46.1082 10.7052 45.8789 10.7865 45.6778C10.8664 45.4767 11.0984 45.3776 11.2965 45.4604L15.8889 47.3106C16.0899 47.3905 16.1874 47.6197 16.1061 47.8209C16.0455 47.9732 15.8977 48.0664 15.7425 48.0664Z" fill="#401F71"/>
<path d="M10.7621 25.8256C10.6453 25.8256 10.53 25.7738 10.4532 25.6747L7.70099 22.1517C7.62118 22.0482 7.59605 21.9121 7.63596 21.7879C7.67734 21.6651 7.77637 21.5675 7.90201 21.532L11.612 20.473C11.8174 20.4094 12.0362 20.5337 12.0953 20.7422C12.1544 20.9522 12.0347 21.1681 11.8263 21.2273L8.67652 22.1265L11.071 25.1911C11.204 25.3626 11.1745 25.6096 11.003 25.7427C10.9321 25.7975 10.8478 25.8256 10.7621 25.8256Z" fill="#401F71"/>
<path d="M11.7806 28.9296C11.7333 28.9296 11.6846 28.9207 11.6373 28.9015C11.4363 28.8231 11.3372 28.5953 11.4156 28.3927L14.6718 20.1028C14.7531 19.9031 14.9807 19.8026 15.1802 19.881C15.3827 19.9594 15.4817 20.1886 15.4034 20.3912L12.1457 28.6811C12.0851 28.8349 11.9373 28.9296 11.7806 28.9296Z" fill="#401F71"/>
<path d="M15.2624 27.496C15.0806 27.496 14.918 27.3688 14.8795 27.1839C14.8352 26.9724 14.9712 26.7639 15.1825 26.7195L18.5777 26.0096L15.9171 22.7705C15.7797 22.6019 15.8033 22.3549 15.9704 22.2174C16.1374 22.0813 16.3842 22.1035 16.5232 22.2706L19.5961 26.011C19.6833 26.1175 19.7084 26.261 19.6626 26.3911C19.6168 26.5198 19.5074 26.616 19.3729 26.6455L15.3437 27.4886C15.317 27.493 15.2904 27.496 15.2624 27.496Z" fill="#401F71"/>
<path d="M7.78326 30.7067L19.5192 35.5919L19.5192 38.7925L7.80544 33.9147L7.78326 30.7067Z" fill="white"/>
<path d="M8.19478 33.6532L19.1266 38.2041L19.1266 35.854L8.17852 31.2971L8.19478 33.6532ZM19.5183 39.1847C19.4666 39.1847 19.4163 39.1758 19.3676 39.1536L7.65381 34.2758C7.50896 34.2167 7.41288 34.0762 7.4114 33.9179L7.39071 30.7099C7.38923 30.5783 7.45427 30.4541 7.56217 30.3831C7.67302 30.3077 7.81048 30.2929 7.93316 30.3461L19.6691 35.2298C19.8154 35.289 19.91 35.4339 19.91 35.5922L19.91 38.7928C19.91 38.9244 19.845 39.0457 19.7356 39.1181C19.6706 39.161 19.5952 39.1847 19.5183 39.1847Z" fill="#401F71"/>
<path d="M73.2505 50.4185L61.4347 45.5008C59.868 44.847 58.0677 44.85 56.4935 45.4978L26.4472 57.954C25.485 58.3549 24.8864 59.2511 24.8849 60.2938C24.8849 61.3351 25.482 62.2328 26.4443 62.6336L38.2585 67.5528C39.0567 67.8841 39.8947 68.0513 40.7328 68.0513C41.5679 68.0513 42.4045 67.8841 43.2012 67.5543L73.2475 55.0996C74.2097 54.7002 74.8084 53.8039 74.8098 52.7627C74.8098 51.7171 74.2127 50.8208 73.2505 50.4185Z" fill="#E6E5E5"/>
<path d="M17.8751 60.2278L17.8884 63.1163C17.8115 63.6783 18.082 64.2833 18.6998 64.5406L31.834 70.0085C33.1229 70.5454 34.5729 70.5469 35.8618 70.0115L67.2295 57.0065C67.7793 56.7788 68.0542 56.2744 68.0557 55.7701L68.0365 52.5562" fill="#E6E5E5"/>
<path d="M33.8496 70.8076C33.115 70.8076 32.3804 70.6612 31.6827 70.3713L18.5471 64.9019C17.811 64.5958 17.3883 63.8563 17.4976 63.0635L17.4814 60.2297C17.4814 60.0138 17.6558 59.8378 17.8716 59.8363L17.8731 59.8363C18.0889 59.8363 18.2648 60.0108 18.2662 60.2268L18.2781 63.1153C18.2249 63.5324 18.383 63.9835 18.8486 64.1787L31.9843 69.6466C33.1844 70.145 34.5088 70.1465 35.7105 69.6481L67.0782 56.6431C67.5083 56.4656 67.662 56.0752 67.662 55.7705L67.6413 52.5596C67.6399 52.3421 67.8143 52.1661 68.0301 52.1632L68.033 52.1632C68.2503 52.1632 68.4247 52.3377 68.4262 52.5536L68.4454 55.7675C68.4454 56.4819 68.0375 57.0957 67.3782 57.3693L36.0105 70.3743C35.3129 70.6642 34.5812 70.8076 33.8496 70.8076Z" fill="#401F71"/>
<path d="M54.096 46.0594L67.2317 51.5273C68.3314 51.9858 68.3299 53.5447 67.2302 54.0017L35.8625 67.0067C34.5736 67.5406 33.1236 67.5391 31.8347 67.0022L18.6991 61.5343C17.5994 61.0758 17.6009 59.5169 18.7006 59.0614L50.0683 46.0564C51.3572 45.5225 52.8071 45.5225 54.096 46.0594Z" fill="#DA58E6"/>
<path d="M33.8504 67.802C33.1158 67.802 32.3812 67.6556 31.6836 67.3657L18.5479 61.8963C17.8902 61.6227 17.4822 61.0089 17.4822 60.296C17.4822 59.5831 17.8931 58.9723 18.5494 58.6987L41.1566 49.3247C41.3546 49.2463 41.5867 49.3365 41.6709 49.5377C41.7537 49.7388 41.6576 49.9666 41.4566 50.0524L18.8509 59.4234C18.4208 59.6024 18.2671 59.9913 18.2671 60.2975C18.2656 60.6022 18.4193 60.9926 18.8495 61.1731L31.9851 66.641C33.1853 67.1409 34.5097 67.1394 35.7113 66.6439L67.079 53.6375C67.5092 53.46 67.6629 53.0696 67.6629 52.7649C67.6629 52.4587 67.5092 52.0683 67.0805 51.8893L53.9449 46.4199C52.7609 45.9289 51.4026 45.9274 50.2172 46.4184L47.4606 47.5602C47.2625 47.649 47.0304 47.5514 46.9491 47.3487C46.8649 47.1491 46.9595 46.9198 47.1605 46.837L49.9171 45.6937C51.2962 45.1228 52.8718 45.1258 54.2449 45.6967L67.3806 51.1661C68.0398 51.4397 68.4463 52.052 68.4463 52.7649C68.4463 53.4763 68.0383 54.0901 67.3791 54.3637L36.0114 67.3687C35.3137 67.6585 34.5821 67.802 33.8504 67.802Z" fill="#401F71"/>
<path d="M56.4965 47.1557L62.9823 49.8564L61.08 50.6121C60.6735 50.7807 60.2168 50.7807 59.8103 50.6107L55.1381 48.8373C54.5971 48.6125 54.5971 47.8449 55.1396 47.6201L56.4965 47.1557Z" fill="white"/>
<path d="M56.4816 47.5761L55.2652 47.9917C55.1395 48.0449 55.1248 48.1766 55.1248 48.2298C55.1248 48.283 55.1395 48.4147 55.2874 48.4753L59.9507 50.2442C60.267 50.3773 60.6188 50.3788 60.9306 50.2501L61.9416 49.8478L56.4816 47.5761ZM60.4473 51.1287C60.1798 51.1287 59.9093 51.0769 59.6595 50.9719L54.9976 49.2045C54.5867 49.0344 54.3399 48.6631 54.3399 48.2298C54.3399 47.7964 54.5882 47.4237 54.9888 47.2596L56.3678 46.7848C56.458 46.7552 56.557 46.7567 56.6457 46.7952L63.133 49.4929C63.2793 49.555 63.3769 49.6999 63.3754 49.8582C63.3739 50.0179 63.2749 50.1614 63.1285 50.2205L61.2233 50.9778C60.9779 51.0784 60.7119 51.1287 60.4473 51.1287Z" fill="#401F71"/>
<path d="M45.1548 60.3896C45.1031 60.3896 45.0528 60.3808 45.0041 60.3586L33.9894 55.7751C33.7899 55.6923 33.6953 55.4616 33.7781 55.2634C33.8608 55.0608 34.0914 54.9646 34.291 55.0519L45.3056 59.6354C45.5051 59.7182 45.5997 59.9489 45.5155 60.1471C45.4534 60.2994 45.3085 60.3896 45.1548 60.3896Z" fill="#401F71"/>
<path d="M39.4641 60.4769C39.4139 60.4769 39.3636 60.4681 39.3134 60.4459L33.7824 58.143C33.5829 58.0602 33.4883 57.8295 33.571 57.6313C33.6538 57.4302 33.8829 57.3325 34.0839 57.4198L39.6149 59.7226C39.8144 59.8055 39.909 60.0362 39.8263 60.2344C39.7627 60.3867 39.6178 60.4769 39.4641 60.4769Z" fill="#401F71"/>
<path d="M52.8093 54.4683C52.8093 55.9 50.3394 57.061 47.2931 57.061C44.2453 57.061 41.7755 55.9 41.7755 54.4683C41.7755 53.0366 44.2453 51.8771 47.2931 51.8771C50.3394 51.8771 52.8093 53.0366 52.8093 54.4683Z" fill="white"/>
<path d="M47.2922 52.2694C44.2725 52.2694 42.1677 53.4275 42.1677 54.4687C42.1677 55.5099 44.2725 56.668 47.2922 56.668C50.3104 56.668 52.4167 55.5099 52.4167 54.4687C52.4167 53.4275 50.3104 52.2694 47.2922 52.2694ZM47.2922 57.4534C43.9799 57.4534 41.3829 56.143 41.3829 54.4687C41.3829 52.7945 43.9799 51.4841 47.2922 51.4841C50.6061 51.4841 53.2001 52.7945 53.2001 54.4687C53.2001 56.143 50.6061 57.4534 47.2922 57.4534Z" fill="#401F71"/>
</svg>