<svg width="101" height="74" viewBox="0 0 101 74" fill="none" xmlns="http://www.w3.org/2000/svg">
<path d="M64.922 37.3605L51.4964 29.0762C51.3724 29.0004 51.2306 29.0004 51.1053 29.0762L30.9682 41.5035C30.779 41.621 30.6551 41.8958 30.6551 42.1991C30.6551 42.5042 30.779 42.779 30.9682 42.8965L44.3938 51.1808C44.4551 51.2187 44.5229 51.2376 44.5881 51.2376C44.6545 51.2376 44.721 51.2187 44.7836 51.1808L64.922 38.7554C65.1111 38.636 65.2351 38.3612 65.2351 38.0579C65.2351 37.7528 65.1111 37.478 64.922 37.3605Z" fill="#E5E5E5"/>
<path d="M55.0417 27.1529C55.0417 27.458 55.1657 27.7328 55.3548 27.8503L68.7792 36.1346C68.8418 36.1725 68.9095 36.1914 68.9747 36.1914C69.0412 36.1914 69.1089 36.1725 69.1702 36.1346L89.3087 23.7073C89.4978 23.5898 89.6218 23.315 89.6218 23.0098C89.6218 22.7066 89.4978 22.4318 89.3087 22.3124L75.8843 14.0281C75.7591 13.9542 75.6172 13.9542 75.4933 14.0281L55.3548 26.4554C55.1657 26.5729 55.0417 26.8477 55.0417 27.1529Z" fill="#E5E5E5"/>
<path d="M40.8484 53.1046C40.8484 52.7995 40.7245 52.5247 40.5354 52.4072L27.111 44.1248C26.9858 44.049 26.8439 44.049 26.72 44.1248L6.58152 56.5483C6.39239 56.6677 6.26843 56.9425 6.26843 57.2477C6.26843 57.5509 6.39239 57.8257 6.58152 57.9432L20.0071 66.2275C20.0698 66.2654 20.1362 66.2862 20.2027 66.2862C20.2691 66.2862 20.3356 66.2654 20.3982 66.2275L40.5354 53.8021C40.7245 53.6846 40.8484 53.4098 40.8484 53.1046Z" fill="#E5E5E5"/>
<path d="M71.8595 54.3716L58.4338 46.0874C58.3086 46.0135 58.168 46.0135 58.0428 46.0874L37.9043 58.5147C37.7152 58.6322 37.5925 58.907 37.5925 59.2103C37.5925 59.5154 37.7152 59.7902 37.9043 59.9077L51.3312 68.1919C51.3926 68.2298 51.4603 68.2488 51.5255 68.2488C51.5919 68.2488 51.6584 68.2298 51.721 68.1919L71.8595 55.7647C72.0486 55.6471 72.1725 55.3723 72.1725 55.0691C72.1725 54.7639 72.0486 54.4891 71.8595 54.3716Z" fill="#E5E5E5"/>
<path d="M28.5031 23.7077L41.9288 31.9919C41.9914 32.0298 42.0578 32.0487 42.1243 32.0487C42.1895 32.0487 42.2572 32.0298 42.3198 31.9919L62.457 19.5646C62.6474 19.4471 62.7701 19.1723 62.7701 18.869C62.7701 18.5639 62.6474 18.2891 62.457 18.1716L49.0314 9.88735C48.9074 9.81154 48.7656 9.81154 48.6403 9.88735L28.5031 22.3127C28.314 22.4321 28.1901 22.707 28.1901 23.0102C28.1901 23.3153 28.314 23.5901 28.5031 23.7077Z" fill="#E5E5E5"/>
<path d="M17.7377 47.0959C17.8042 47.0959 17.8706 47.0769 17.9332 47.039L38.0717 34.6136C38.2608 34.4942 38.3848 34.2194 38.3848 33.9143C38.3848 33.611 38.2608 33.3362 38.0717 33.2187L24.646 24.9364C24.5221 24.8606 24.3802 24.8606 24.255 24.9364L4.11655 37.3599C3.92742 37.4774 3.80347 37.7522 3.80347 38.0573C3.80347 38.3625 3.92742 38.6373 4.11655 38.7548L17.5422 47.039C17.6048 47.0769 17.6713 47.0959 17.7377 47.0959Z" fill="#E5E5E5"/>
<path d="M96.2462 39.3241L82.8218 31.0399C82.6966 30.964 82.5547 30.964 82.4308 31.0399L62.2923 43.4671C62.1032 43.5846 61.9792 43.8595 61.9792 44.1646C61.9792 44.4678 62.1032 44.7427 62.2923 44.8602L75.718 53.1444C75.7793 53.1823 75.847 53.2031 75.9122 53.2031C75.9787 53.2031 76.0464 53.1823 76.1077 53.1444L96.2462 40.719C96.4353 40.6015 96.5593 40.3248 96.5593 40.0215C96.5593 39.7183 96.4353 39.4416 96.2462 39.3241Z" fill="#E5E5E5"/>
<path d="M64.9805 17.2453L75.6867 10.6384L89.1124 18.9227L68.9739 31.348L55.5496 23.0638L60.9794 19.713" fill="#26FFEF"/>
<path d="M68.9741 31.8522C68.9294 31.8522 68.8859 31.8389 68.8438 31.8124L55.4181 23.5282C55.2916 23.4505 55.2098 23.2666 55.2098 23.0638C55.2098 22.861 55.2916 22.6772 55.4181 22.6014L60.8479 19.2506C61.0217 19.1406 61.2198 19.2638 61.2914 19.5216C61.3629 19.7755 61.2811 20.0712 61.1086 20.1773L56.4315 23.0638L68.9741 30.8041L88.2295 18.9227L75.6869 11.1824L65.111 17.7078C64.9385 17.8177 64.7391 17.6964 64.6663 17.4387C64.5947 17.1828 64.6765 16.8872 64.849 16.781L75.5566 10.1741C75.6396 10.1229 75.7342 10.1229 75.8173 10.1741L89.2429 18.4583C89.3681 18.536 89.4512 18.7199 89.4512 18.9227C89.4512 19.1255 89.3681 19.3093 89.2429 19.3851L69.1045 31.8124C69.0623 31.8389 69.0188 31.8522 68.9741 31.8522Z" fill="#401F71"/>
<path d="M85.8385 20.9397L72.4128 12.6554L75.6804 10.637L89.1061 18.9231L85.8385 20.9397Z" fill="white"/>
<path d="M73.2966 12.6552L85.8392 20.3955L88.2251 18.9229L75.6812 11.1826L73.2966 12.6552ZM85.8392 21.4417C85.7958 21.4417 85.7511 21.4284 85.7089 21.4038L72.2845 13.1176C72.1567 13.0418 72.075 12.8561 72.075 12.6552C72.075 12.4524 72.1567 12.2667 72.2845 12.1909L75.5508 10.1743C75.6339 10.1231 75.7285 10.1231 75.8115 10.1743L89.2372 18.4585C89.3637 18.5362 89.4455 18.7201 89.4455 18.9229C89.4455 19.1256 89.3637 19.3095 89.2372 19.3853L85.9696 21.4038C85.9287 21.4284 85.884 21.4417 85.8392 21.4417Z" fill="#401F71"/>
<path d="M76.0428 23.1967L68.3933 18.4756L72.4621 16.0193L80.1117 20.7404L76.0428 23.1967Z" fill="#E5E5E5"/>
<path d="M69.2828 18.4826L76.0442 22.6522L79.2198 20.7342L72.4597 16.5646L69.2828 18.4826ZM76.0429 23.6984C75.9982 23.6984 75.9535 23.6851 75.9113 23.6586L68.2618 18.9394C68.1353 18.8635 68.0522 18.6797 68.0535 18.475C68.0535 18.2703 68.1378 18.0884 68.2643 18.0107L72.3332 15.5563C72.4175 15.5051 72.5095 15.507 72.5913 15.5582L80.2421 20.2774C80.3686 20.3532 80.4504 20.539 80.4504 20.7418C80.4491 20.9464 80.3661 21.1303 80.2395 21.2061L76.1707 23.6605C76.1285 23.687 76.0864 23.6984 76.0429 23.6984Z" fill="#401F71"/>
<path d="M19.5462 45.2792L26.9146 40.7325L40.3402 49.0167L20.2018 61.4421L6.77612 53.1579L16.0077 47.4626" fill="white"/>
<path d="M20.2024 61.9453C20.1577 61.9453 20.1142 61.9321 20.072 61.9055L6.64769 53.6213C6.5199 53.5455 6.43811 53.3617 6.43811 53.1589C6.43811 52.9561 6.5199 52.7722 6.64769 52.6945L15.8792 46.9992C16.0543 46.8893 16.2498 47.0125 16.3227 47.2703C16.3942 47.5261 16.3125 47.8199 16.1399 47.926L7.65978 53.1589L20.2024 60.8991L39.4578 49.0158L26.9152 41.2774L19.6772 45.7446C19.5046 45.8564 19.3066 45.7313 19.2337 45.4735C19.1622 45.2177 19.244 44.9239 19.4165 44.8159L26.7849 40.2691C26.8679 40.2199 26.9625 40.2199 27.0455 40.2691L40.4712 48.5534C40.5977 48.6292 40.6795 48.813 40.6795 49.0158C40.6795 49.2186 40.5977 49.4024 40.4712 49.4801L20.3327 61.9055C20.2918 61.9321 20.2471 61.9453 20.2024 61.9453Z" fill="#401F71"/>
<path d="M37.0728 51.0335L23.6472 42.7492L26.9148 40.7327L40.3404 49.0169L37.0728 51.0335Z" fill="white"/>
<path d="M24.5309 42.7509L37.0735 50.4893L39.4581 49.0167L26.9155 41.2783L24.5309 42.7509ZM37.0735 51.5355C37.0288 51.5355 36.9854 51.5222 36.9432 51.4957L23.5188 43.2153C23.3911 43.1376 23.3093 42.9518 23.3093 42.7509C23.3093 42.5481 23.3911 42.3643 23.5188 42.2866L26.7852 40.27C26.8682 40.2189 26.9615 40.2189 27.0458 40.27L40.4715 48.5524C40.598 48.6301 40.6798 48.8139 40.6798 49.0167C40.6798 49.2195 40.598 49.4033 40.4715 49.4791L37.2039 51.4957C37.163 51.5222 37.1183 51.5355 37.0735 51.5355Z" fill="#401F71"/>
<path d="M58.2388 42.6964L71.6644 50.9806L51.526 63.4079L38.1003 55.1237L58.2388 42.6964Z" fill="#26FFEF"/>
<path d="M38.984 55.1222L51.5266 62.8624L70.782 50.9791L58.2394 43.2407L38.984 55.1222ZM51.5266 63.9105C51.4819 63.9105 51.4384 63.8954 51.3963 63.8707L37.9706 55.5865C37.8441 55.5088 37.7623 55.325 37.7623 55.1222C37.7623 54.9213 37.8441 54.7355 37.9706 54.6578L58.1091 42.2343C58.1921 42.1832 58.2854 42.1832 58.3698 42.2343L71.7954 50.5167C71.9206 50.5925 72.0037 50.7782 72.0037 50.9791C72.0037 51.1819 71.9206 51.3676 71.7954 51.4434L51.6569 63.8707C51.6148 63.8954 51.5713 63.9105 51.5266 63.9105Z" fill="#401F71"/>
<path d="M52.0232 60.2471C51.9798 60.2471 51.9363 60.2358 51.8929 60.2073L43.7348 55.1735C43.5623 55.0674 43.4805 54.7736 43.552 54.5177C43.6236 54.2581 43.8229 54.1349 43.9955 54.2467L52.1536 59.2806C52.3261 59.3867 52.4079 59.6805 52.3363 59.9363C52.2826 60.1296 52.1561 60.2471 52.0232 60.2471Z" fill="#401F71"/>
<path d="M68.399 52.9983L54.9734 44.7141L58.241 42.6956L71.6666 50.9817L68.399 52.9983Z" fill="white"/>
<path d="M55.8551 44.7148L68.3977 52.4532L70.7823 50.9806L58.2397 43.2403L55.8551 44.7148ZM68.3977 53.4994C68.3543 53.4994 68.3095 53.4861 68.2674 53.4615L54.843 45.1791C54.7165 45.1014 54.6334 44.9176 54.6334 44.7148C54.6334 44.512 54.7165 44.3282 54.843 44.2505L58.1093 42.232C58.1937 42.1808 58.2869 42.1808 58.37 42.232L71.7956 50.5162C71.9222 50.5939 72.0039 50.7778 72.0039 50.9806C72.0039 51.1834 71.9222 51.3672 71.7956 51.443L68.528 53.4615C68.4872 53.4861 68.4424 53.4994 68.3977 53.4994Z" fill="#401F71"/>
<path d="M54.8824 57.5634L47.1179 52.7722L54.5425 48.36L62.3083 53.1512L54.8824 57.5634Z" fill="#E5E5E5"/>
<path d="M48.0138 52.7817L54.8851 57.0195L61.4113 53.1418L54.54 48.904L48.0138 52.7817ZM54.8825 58.0676C54.8378 58.0676 54.7944 58.0524 54.7522 58.0278L46.9864 53.2365C46.8599 53.1588 46.7781 52.975 46.7781 52.7703C46.7794 52.5656 46.8637 52.3837 46.9915 52.306L54.4174 47.8919C54.4979 47.8464 54.5912 47.8464 54.673 47.8957L62.4388 52.6869C62.5653 52.7665 62.6471 52.9504 62.6471 53.155C62.6458 53.3597 62.5627 53.5417 62.4336 53.6175L55.0078 58.0316C54.9681 58.0543 54.926 58.0676 54.8825 58.0676Z" fill="#401F71"/>
<path d="M43.4322 9.83091L48.8364 6.49713L62.2608 14.7795L42.1236 27.2067L28.698 18.9225L39.8502 12.0408" fill="white"/>
<path d="M42.1244 27.7101C42.0797 27.7101 42.0362 27.6968 41.994 27.6703L28.5684 19.3861C28.4419 19.3084 28.3601 19.1245 28.3601 18.9217C28.3601 18.7189 28.4419 18.5351 28.5684 18.4593L39.7206 11.5757C39.8944 11.4676 40.0925 11.5908 40.1641 11.8467C40.2356 12.1026 40.1539 12.3982 39.9813 12.5043L29.5818 18.9217L42.1244 26.662L61.3798 14.7806L48.8372 7.04029L43.5633 10.2945C43.3895 10.4063 43.1927 10.2831 43.1199 10.0234C43.0483 9.76758 43.1301 9.47192 43.3026 9.36768L48.7069 6.032C48.7899 5.98083 48.8845 5.98083 48.9675 6.032L62.3932 14.3162C62.5184 14.3939 62.6015 14.5778 62.6015 14.7806C62.6015 14.9834 62.5184 15.1672 62.3932 15.243L42.2547 27.6703C42.2126 27.6968 42.1691 27.7101 42.1244 27.7101Z" fill="#401F71"/>
<path d="M58.9949 16.7975L45.5693 8.51329L48.8369 6.49673L62.2625 14.7809L58.9949 16.7975Z" fill="white"/>
<path d="M46.4529 8.51213L58.9955 16.2524L61.38 14.7798L48.8374 7.0395L46.4529 8.51213ZM58.9955 17.3005C58.9508 17.3005 58.9073 17.2853 58.8651 17.2607L45.4395 8.97647C45.313 8.90066 45.2312 8.71492 45.2312 8.51213C45.2312 8.31123 45.313 8.12549 45.4395 8.04968L48.7071 6.03122C48.7902 5.98194 48.8847 5.98194 48.9678 6.03122L62.3934 14.3173C62.5187 14.3931 62.6017 14.577 62.6017 14.7798C62.6017 14.9826 62.5187 15.1664 62.3934 15.2441L59.1258 17.2607C59.0837 17.2853 59.0402 17.3005 58.9955 17.3005Z" fill="#401F71"/>
<path d="M42.8103 23.927C42.7669 23.927 42.7234 23.9156 42.68 23.8872L34.5219 18.8533C34.3494 18.7472 34.2676 18.4534 34.3391 18.1976C34.4107 17.9379 34.6088 17.8128 34.7826 17.9265L42.9407 22.9604C43.1132 23.0665 43.195 23.3622 43.1234 23.6161C43.0698 23.8113 42.9432 23.927 42.8103 23.927Z" fill="#401F71"/>
<path d="M45.6696 21.2452L37.905 16.454L45.3296 12.0418L53.0954 16.8311L45.6696 21.2452Z" fill="#E5E5E5"/>
<path d="M38.8009 16.4615L45.6709 20.6993L52.1984 16.8216L45.3272 12.5838L38.8009 16.4615ZM45.6684 21.7474C45.6236 21.7474 45.5802 21.7322 45.538 21.7076L37.7735 16.9163C37.647 16.8386 37.5652 16.6548 37.5652 16.4501C37.5665 16.2454 37.6508 16.0635 37.7786 15.9858L45.2045 11.5717C45.285 11.5262 45.3783 11.5262 45.4601 11.5755L53.2259 16.3686C53.3524 16.4482 53.4342 16.6321 53.4342 16.8367C53.4329 17.0414 53.3485 17.2234 53.2208 17.2992L45.7949 21.7114C45.754 21.7341 45.7118 21.7474 45.6684 21.7474Z" fill="#401F71"/>
<path d="M24.4497 21.5431L37.8754 29.8273L17.7369 42.2527L4.31128 33.9704L24.4497 21.5431Z" fill="white"/>
<path d="M5.19512 33.9687L17.7377 41.7089L36.9931 29.8256L24.4505 22.0872L5.19512 33.9687ZM17.7377 42.757C17.6943 42.757 17.6495 42.7419 17.6074 42.7172L4.18175 34.433C4.05524 34.3572 3.97345 34.1714 3.97345 33.9687C3.97345 33.7678 4.05524 33.582 4.18175 33.5062L24.3202 21.0808C24.4033 21.0296 24.4965 21.0296 24.5809 21.0808L38.0052 29.3631C38.1317 29.439 38.2148 29.6247 38.2148 29.8256C38.2148 30.0284 38.1317 30.2141 38.0052 30.2899L17.8681 42.7172C17.8272 42.7419 17.7824 42.757 17.7377 42.757Z" fill="#401F71"/>
<path d="M34.608 31.8448L21.1824 23.5606L24.45 21.5421L37.8756 29.8282L34.608 31.8448Z" fill="white"/>
<path d="M22.0662 23.5613L34.6088 31.2997L36.9934 29.8271L24.4508 22.0887L22.0662 23.5613ZM34.6088 32.3459C34.5641 32.3459 34.5206 32.3326 34.4785 32.308L21.0528 24.0257C20.9263 23.9479 20.8445 23.7641 20.8445 23.5613C20.8445 23.3585 20.9263 23.1747 21.0528 23.097L24.3204 21.0804C24.4035 21.0292 24.4968 21.0292 24.5811 21.0804L38.0055 29.3646C38.132 29.4404 38.2151 29.6243 38.2151 29.8271C38.2151 30.0299 38.132 30.2137 38.0055 30.2895L34.7392 32.308C34.6983 32.3326 34.6535 32.3459 34.6088 32.3459Z" fill="#401F71"/>
<path d="M21.5033 36.0944L13.8525 31.3752L15.7144 30.2247L23.3652 34.9459L21.5033 36.0944Z" fill="#E5E5E5"/>
<path d="M14.7361 31.3748L21.5038 35.5501L22.4827 34.9455L15.7162 30.7702L14.7361 31.3748ZM21.5038 36.5963C21.4591 36.5963 21.4157 36.583 21.3735 36.5584L13.724 31.8391C13.5962 31.7614 13.5144 31.5757 13.5144 31.3748C13.5144 31.172 13.5962 30.9882 13.724 30.9105L15.5859 29.7619C15.6677 29.7108 15.7622 29.7108 15.8466 29.7619L23.4961 34.4811C23.6226 34.5589 23.7057 34.7427 23.7057 34.9455C23.7057 35.1483 23.6226 35.3321 23.4961 35.4079L21.6342 36.5584C21.5933 36.583 21.5486 36.5963 21.5038 36.5963Z" fill="#401F71"/>
<path d="M17.118 36.8699C17.0746 36.8699 17.0311 36.8585 16.9877 36.8301L13.3674 34.5956C13.1949 34.4894 13.1131 34.1957 13.1847 33.9398C13.2575 33.6821 13.453 33.557 13.6294 33.6688L17.2484 35.9033C17.4209 36.0095 17.5027 36.3051 17.4311 36.5591C17.3775 36.7543 17.2509 36.8699 17.118 36.8699Z" fill="#401F71"/>
<path d="M16.5525 26.9651L29.0951 34.7053L36.9938 29.8269L24.4512 22.0885L16.5525 26.9651ZM29.0951 35.7534C29.0504 35.7534 29.0069 35.7383 28.9647 35.7136L15.5404 27.4294C15.4126 27.3517 15.3308 27.1679 15.3308 26.9651C15.3308 26.7642 15.4126 26.5784 15.5404 26.5007L24.3208 21.0822C24.4052 21.0291 24.4985 21.0291 24.5815 21.0822L38.0072 29.3645C38.1337 29.4403 38.2155 29.6241 38.2155 29.8269C38.2155 30.0297 38.1337 30.2136 38.0072 30.2894L29.2254 35.7136C29.1833 35.7383 29.1398 35.7534 29.0951 35.7534Z" fill="#401F71"/>
<path d="M85.8088 42.2531L75.9127 48.3596L62.4871 40.0754L82.6255 27.65L96.0511 35.9342L90.0463 39.6395" fill="white"/>
<path d="M75.9115 48.8624C75.8668 48.8624 75.8233 48.8492 75.7811 48.8226L62.3555 40.5384C62.229 40.4626 62.1472 40.2788 62.1472 40.076C62.1472 39.8732 62.229 39.6893 62.3555 39.6116L82.494 27.1843C82.577 27.1351 82.6716 27.1351 82.7547 27.1843L96.1803 35.4705C96.3068 35.5463 96.3886 35.7301 96.3886 35.9329C96.3886 36.1357 96.3068 36.3195 96.1803 36.3973L90.1754 40.1025C90.0029 40.2162 89.8048 40.0911 89.732 39.8315C89.6604 39.5775 89.7422 39.2819 89.9147 39.1757L95.1669 35.9329L82.6243 28.1926L63.3689 40.076L75.9115 47.8163L85.6772 41.7912C85.8497 41.6813 86.0491 41.8045 86.1206 42.0622C86.1922 42.3162 86.1104 42.6118 85.9379 42.718L76.0418 48.8226C75.9997 48.8492 75.9562 48.8624 75.9115 48.8624Z" fill="#401F71"/>
<path d="M92.7825 37.9508L79.3582 29.6666L82.6245 27.65L96.0501 35.9343L92.7825 37.9508Z" fill="white"/>
<path d="M80.24 29.6654L92.7826 37.4057L95.1672 35.9331L82.6245 28.1928L80.24 29.6654ZM92.7826 38.4538C92.7379 38.4538 92.6944 38.4386 92.6522 38.414L79.2266 30.1298C79.1001 30.054 79.0183 29.8682 79.0183 29.6654C79.0183 29.4645 79.1001 29.2788 79.2266 29.203L82.4942 27.1845C82.5773 27.1353 82.6718 27.1353 82.7549 27.1845L96.1805 35.4707C96.307 35.5465 96.3888 35.7303 96.3888 35.9331C96.3888 36.1359 96.307 36.3197 96.1805 36.3974L92.9129 38.414C92.8708 38.4386 92.8273 38.4538 92.7826 38.4538Z" fill="#401F71"/>
<path d="M84.4797 39.2686C84.4363 39.2686 84.3928 39.2572 84.3494 39.2288L77.3324 34.9C77.1599 34.7938 77.0781 34.4982 77.1497 34.2442C77.2225 33.9846 77.4193 33.8633 77.5931 33.9732L84.6101 38.302C84.7826 38.4081 84.8644 38.7019 84.7928 38.9577C84.7391 39.1511 84.6126 39.2686 84.4797 39.2686Z" fill="#401F71"/>
<path d="M80.522 39.6647C80.4773 39.6647 80.4338 39.6534 80.3904 39.6249L77.0359 37.525C76.8634 37.4151 76.7829 37.1213 76.8557 36.8635C76.9298 36.6096 77.1304 36.4864 77.3004 36.5963L80.6536 38.6982C80.8261 38.8062 80.9079 39.1019 80.8351 39.3577C80.7801 39.5491 80.6536 39.6647 80.522 39.6647Z" fill="#401F71"/>
<path d="M51.3013 25.7407L64.7269 34.0249L44.5885 46.4503L31.1628 38.1661L51.3013 25.7407Z" fill="#26FFEF"/>
<path d="M32.0466 38.1665L44.5892 45.9068L63.8446 34.0234L51.302 26.2831L32.0466 38.1665ZM44.5892 46.953C44.5445 46.953 44.4998 46.9397 44.4589 46.9151L31.0332 38.6308C30.9067 38.5531 30.825 38.3693 30.825 38.1665C30.825 37.9637 30.9067 37.7799 31.0332 37.7021L51.1717 25.2768C51.2548 25.2256 51.348 25.2256 51.4324 25.2768L64.858 33.561C64.9832 33.6368 65.0663 33.8225 65.0663 34.0234C65.0663 34.2262 64.9832 34.412 64.858 34.4878L44.7196 46.9151C44.6774 46.9397 44.634 46.953 44.5892 46.953Z" fill="#401F71"/>
<path d="M48.9177 27.7563L61.4603 35.4966L63.8449 34.024L51.3023 26.2837L48.9177 27.7563ZM61.4603 36.5447C61.4156 36.5447 61.3709 36.5295 61.33 36.5049L47.9043 28.2207C47.7778 28.1449 47.696 27.9591 47.696 27.7563C47.696 27.5554 47.7778 27.3697 47.9043 27.2939L51.1719 25.2754C51.255 25.2261 51.3483 25.2261 51.4326 25.2754L64.8583 33.5615C64.9835 33.6373 65.0666 33.8212 65.0666 34.024C65.0666 34.2268 64.9835 34.4106 64.8583 34.4883L61.5907 36.5049C61.5485 36.5295 61.505 36.5447 61.4603 36.5447Z" fill="#401F71"/>
<path d="M45.2873 43.0507C45.2439 43.0507 45.2004 43.0394 45.157 43.0109L37.1918 38.0965C37.0193 37.9904 36.9375 37.6947 37.0091 37.4407C37.0819 37.1811 37.2787 37.056 37.4525 37.1678L45.4177 42.0841C45.5902 42.1903 45.672 42.4859 45.6004 42.7399C45.5467 42.9351 45.4202 43.0507 45.2873 43.0507Z" fill="#401F71"/>
<path d="M53.2386 35.1894C53.2386 36.7606 51.4087 38.0342 49.1519 38.0342C46.8951 38.0342 45.0652 36.7606 45.0652 35.1894C45.0652 33.6163 46.8951 32.3427 49.1519 32.3427C51.4087 32.3427 53.2386 33.6163 53.2386 35.1894Z" fill="white"/>
<path d="M49.1527 32.8453C46.9445 32.8453 45.4059 34.081 45.4059 35.1879C45.4059 36.2966 46.9445 37.5323 49.1527 37.5323C51.3622 37.5323 52.9008 36.2966 52.9008 35.1879C52.9008 34.081 51.3622 32.8453 49.1527 32.8453ZM49.1527 38.5368C46.6723 38.5368 44.7273 37.0661 44.7273 35.1879C44.7273 33.3116 46.6723 31.8408 49.1527 31.8408C51.6344 31.8408 53.578 33.3116 53.578 35.1879C53.578 37.0661 51.6344 38.5368 49.1527 38.5368Z" fill="#401F71"/>
</svg>
